M48
; DRILL file {KiCad (5.1.5)-3} date 2021/4/2 2:22:12
; FORMAT={-:-/ absolute / inch / decimal}
; #@! TF.CreationDate,2021-04-02T02:22:12+08:00
; #@! TF.GenerationSoftware,Kicad,Pcbnew,(5.1.5)-3
; #@! TF.FileFunction,Plated,1,2,PTH
FMAT,2
INCH
T1C0.0157
T2C0.0394
%
G90
G05
T1
X2.4054Y-2.7417
X2.4854Y-5.2917
X2.5054Y-0.9917
X2.5054Y-5.3917
X2.5454Y-2.9017
X2.5854Y-1.0917
X2.5854Y-5.2417
X2.661Y-5.1417
X2.6854Y-1.5417
X2.6854Y-5.1917
X2.7854Y-1.1917
X2.7854Y-1.4417
X2.7854Y-1.6417
X2.7854Y-4.9417
X2.7854Y-5.1917
X2.7854Y-5.2417
X2.7854Y-5.2917
X2.8104Y-1.3917
X2.8854Y-1.5417
X2.8854Y-1.7417
X2.8854Y-4.8417
X2.8854Y-5.0417
X2.9854Y-1.6417
X2.9854Y-1.8417
X2.9854Y-4.7417
X2.9854Y-4.9417
X2.9854Y-5.1417
X3.0854Y-1.7417
X3.0854Y-1.9417
X3.0854Y-4.6417
X3.0854Y-4.8417
X3.1854Y-1.8417
X3.1854Y-2.0417
X3.1854Y-4.5417
X3.1854Y-4.7417
X3.2354Y-1.1417
X3.2854Y-1.9417
X3.2854Y-2.1417
X3.2854Y-4.4417
X3.2854Y-4.6417
X3.2854Y-5.2417
X3.3854Y-2.2417
X3.3854Y-2.3417
X3.3854Y-2.6417
X3.3854Y-2.7417
X3.3854Y-2.8417
X3.3854Y-2.9417
X3.3854Y-3.0417
X3.3854Y-3.1417
X3.3854Y-3.2417
X3.3854Y-3.3417
X3.3854Y-3.4417
X3.3854Y-3.5417
X3.3854Y-3.6417
X3.3854Y-3.7417
X3.3854Y-3.8417
X3.3854Y-3.9417
X3.3854Y-4.0417
X3.3854Y-4.1417
X3.3854Y-4.5417
X3.4354Y-2.4667
X3.4354Y-2.5167
X3.4854Y-4.4417
X3.5354Y-2.4667
X3.5354Y-2.5167
X3.5854Y-2.0417
X3.5854Y-2.2417
X3.5854Y-2.3417
X3.5854Y-2.6417
X3.5854Y-2.7417
X3.5854Y-2.9417
X3.5854Y-3.0417
X3.5854Y-3.1417
X3.5854Y-3.2417
X3.5854Y-3.3417
X3.5854Y-3.4417
X3.5854Y-3.5417
X3.5854Y-3.6417
X3.5854Y-3.7417
X3.5854Y-3.8417
X3.5854Y-3.9417
X3.5854Y-4.0417
X3.5854Y-4.1417
X3.5854Y-4.3417
X3.6854Y-2.0417
X3.6854Y-2.2417
X3.6854Y-4.1417
X3.6854Y-4.3417
X3.7854Y-2.0417
X3.7854Y-2.2417
X3.7854Y-4.1417
X3.7854Y-4.3417
X3.8854Y-2.0417
X3.8854Y-2.2417
X3.8854Y-4.1417
X3.8854Y-4.3417
X3.9354Y-1.1417
X3.9854Y-2.0417
X3.9854Y-2.2417
X3.9854Y-4.1417
X3.9854Y-4.3417
X4.0354Y-2.6417
X4.0354Y-2.7417
X4.0559Y-2.8167
X4.0854Y-2.0417
X4.0854Y-2.2417
X4.0854Y-2.4372
X4.0854Y-2.5463
X4.0854Y-4.1417
X4.0854Y-4.3417
X4.1354Y-2.4372
X4.1354Y-2.5463
X4.1604Y-2.3167
X4.1604Y-2.3667
X4.1854Y-1.6417
X4.1854Y-1.7417
X4.1854Y-1.8417
X4.1854Y-1.9417
X4.1854Y-2.0417
X4.1854Y-2.2417
X4.1854Y-2.4372
X4.1854Y-2.5463
X4.1854Y-3.2417
X4.1854Y-4.1417
X4.1854Y-4.3417
X4.2014Y-2.6167
X4.2056Y-2.3253
X4.2309Y-2.5667
X4.2354Y-2.5167
X4.2604Y-2.3596
X4.2854Y-1.4417
X4.2854Y-2.0917
X4.2854Y-2.1917
X4.2854Y-4.1417
X4.2854Y-4.3417
X4.2854Y-5.2417
X4.315Y-2.5667
X4.315Y-2.8167
X4.3354Y-1.0017
X4.3354Y-1.1417
X4.3354Y-2.0917
X4.3354Y-2.1917
X4.3354Y-2.6917
X4.3354Y-3.3917
X4.3407Y-2.5311
X4.3654Y-4.9017
X4.3854Y-1.4417
X4.3854Y-2.0917
X4.3854Y-2.1917
X4.3854Y-2.3417
X4.3854Y-2.4963
X4.3854Y-2.9417
X4.3854Y-4.1417
X4.3854Y-4.3417
X4.4104Y-2.5963
X4.4354Y-1.3917
X4.4354Y-2.0917
X4.4354Y-2.1917
X4.4354Y-2.9917
X4.4354Y-4.1917
X4.4354Y-4.2917
X4.4552Y-2.297
X4.4559Y-1.2417
X4.4559Y-1.2917
X4.4559Y-1.3417
X4.4854Y-2.0917
X4.4854Y-2.1917
X4.4854Y-4.1917
X4.4854Y-4.2917
X4.4854Y-4.9667
X4.5104Y-2.6917
X4.5104Y-2.9167
X4.5354Y-2.0917
X4.5354Y-2.1917
X4.5354Y-4.1917
X4.5354Y-4.2917
X4.5354Y-4.9667
X4.5559Y-3.0417
X4.5559Y-5.0417
X4.5559Y-5.0917
X4.5559Y-5.1417
X4.5854Y-2.0917
X4.5854Y-2.1917
X4.5854Y-4.1917
X4.5854Y-4.2917
X4.5917Y-2.979
X4.6022Y-2.9411
X4.6354Y-2.0917
X4.6354Y-2.1917
X4.6354Y-4.1917
X4.6354Y-4.2917
X4.6604Y-2.2917
X4.6611Y-2.9667
X4.665Y-1.2417
X4.665Y-1.2917
X4.665Y-1.3417
X4.665Y-2.9167
X4.6854Y-2.0917
X4.6854Y-2.1917
X4.6854Y-2.7417
X4.6854Y-4.1917
X4.6854Y-4.2917
X4.6906Y-3.0417
X4.7154Y-5.3517
X4.7202Y-3.0917
X4.7354Y-2.4917
X4.7354Y-4.1917
X4.7354Y-4.2917
X4.7554Y-1.0017
X4.765Y-5.0417
X4.765Y-5.0917
X4.765Y-5.1417
X4.7854Y-1.1417
X4.7854Y-1.6417
X4.7854Y-1.7417
X4.7854Y-1.8417
X4.7854Y-1.9417
X4.7854Y-2.0417
X4.7854Y-2.2417
X4.7854Y-2.8417
X4.7854Y-4.1917
X4.7854Y-4.2917
X4.7854Y-4.9917
X4.8354Y-4.1917
X4.8354Y-4.2917
X4.8854Y-2.0417
X4.8854Y-2.2417
X4.8854Y-3.2417
X4.8854Y-3.3917
X4.8854Y-4.1417
X4.8854Y-4.3417
X4.9254Y-4.8817
X4.9854Y-2.0417
X4.9854Y-2.2417
X4.9854Y-4.1417
X4.9854Y-4.3417
X4.9854Y-5.2417
X5.0854Y-2.0417
X5.0854Y-2.2417
X5.0854Y-4.1417
X5.0854Y-4.3417
X5.1354Y-1.1417
X5.1854Y-2.0417
X5.1854Y-2.2417
X5.1854Y-4.1417
X5.1854Y-4.1417
X5.1854Y-4.3417
X5.2854Y-2.0417
X5.2854Y-2.2417
X5.2854Y-4.1417
X5.2854Y-4.3417
X5.3854Y-2.0417
X5.3854Y-2.2417
X5.3854Y-4.1417
X5.3854Y-4.3417
X5.4854Y-2.0417
X5.4854Y-2.2417
X5.4854Y-2.3417
X5.4854Y-2.6417
X5.4854Y-2.7417
X5.4854Y-2.8417
X5.4854Y-2.9417
X5.4854Y-3.0417
X5.4854Y-3.1417
X5.4854Y-3.2417
X5.4854Y-3.3417
X5.4854Y-3.4417
X5.4854Y-3.5417
X5.4854Y-3.6417
X5.4854Y-3.7417
X5.4854Y-3.8417
X5.4854Y-3.9417
X5.4854Y-4.0417
X5.4854Y-4.1417
X5.4854Y-4.3417
X5.5354Y-2.4667
X5.5354Y-2.5167
X5.5854Y-1.9417
X5.6354Y-2.4667
X5.6354Y-2.5167
X5.6854Y-1.8417
X5.6854Y-2.2417
X5.6854Y-2.3417
X5.6854Y-2.6417
X5.6854Y-2.7417
X5.6854Y-2.8417
X5.6854Y-2.9417
X5.6854Y-3.0417
X5.6854Y-3.1417
X5.6854Y-3.2417
X5.6854Y-3.3417
X5.6854Y-3.4417
X5.6854Y-3.5417
X5.6854Y-3.6417
X5.6854Y-3.7417
X5.6854Y-3.8417
X5.6854Y-3.9417
X5.6854Y-4.0417
X5.6854Y-4.1417
X5.7854Y-1.7417
X5.7854Y-1.9417
X5.7854Y-4.2417
X5.7854Y-4.4417
X5.8354Y-1.1417
X5.8854Y-1.6417
X5.8854Y-1.8417
X5.8854Y-4.3417
X5.8854Y-4.5417
X5.9354Y-5.2417
X5.9854Y-1.5417
X5.9854Y-1.7417
X5.9854Y-4.4417
X5.9854Y-4.6417
X6.0854Y-1.4417
X6.0854Y-1.6417
X6.0854Y-4.5417
X6.0854Y-4.7417
X6.1354Y-1.3917
X6.1854Y-1.3417
X6.1854Y-1.5417
X6.1854Y-4.6417
X6.1854Y-4.8417
X6.2354Y-1.0917
X6.2354Y-1.1417
X6.2354Y-1.1917
X6.2354Y-4.9917
X6.2854Y-1.4417
X6.2854Y-4.7417
X6.2854Y-4.9417
X6.2854Y-5.1917
X6.3354Y-2.1917
X6.3354Y-2.6917
X6.3854Y-1.1917
X6.3854Y-1.3417
X6.3854Y-4.8417
X6.4854Y-1.1417
X6.4854Y-2.8417
X6.5854Y-0.9917
X6.5854Y-1.0917
X6.5854Y-5.3917
X6.6354Y-2.6917
T2
X2.3843Y-3.1428
X3.3865Y-2.1406
X5.6843Y-4.2428
X6.6865Y-3.2406
X2.3843Y-3.2406
X3.3865Y-4.2428
X3.4843Y-2.1406
X4.4865Y-3.1428
X4.5843Y-1.0406
X5.5865Y-2.0428
X5.6843Y-4.3406
X6.6865Y-5.3428
X4.5843Y-3.1428
X5.5865Y-2.1406
X3.4843Y-4.2428
X4.4865Y-3.2406
X3.4843Y-2.0428
X4.4865Y-1.0406
X3.4843Y-4.3406
X4.4865Y-5.3428
X5.6843Y-2.0428
X6.6865Y-1.0406
X4.5843Y-5.3428
X5.5865Y-4.3406
X2.3843Y-1.0406
X3.3865Y-2.0428
X2.3843Y-5.3428
X3.3865Y-4.3406
X4.5843Y-3.2406
X5.5865Y-4.2428
X5.6843Y-2.1406
X6.6865Y-3.1428
T0
M30
