G04 #@! TF.GenerationSoftware,KiCad,Pcbnew,(5.1.5)-3*
G04 #@! TF.CreationDate,2021-04-02T02:22:22+08:00*
G04 #@! TF.ProjectId,FilamentLEDWall,46696c61-6d65-46e7-944c-454457616c6c,rev?*
G04 #@! TF.SameCoordinates,Original*
G04 #@! TF.FileFunction,Paste,Bot*
G04 #@! TF.FilePolarity,Positive*
%FSLAX46Y46*%
G04 Gerber Fmt 4.6, Leading zero omitted, Abs format (unit mm)*
G04 Created by KiCad (PCBNEW (5.1.5)-3) date 2021-04-02 02:22:22*
%MOMM*%
%LPD*%
G04 APERTURE LIST*
%ADD10C,0.100000*%
%ADD11R,1.000000X3.150000*%
%ADD12R,3.150000X1.000000*%
%ADD13R,0.347980X1.397000*%
G04 APERTURE END LIST*
D10*
G36*
X113555779Y-69991144D02*
G01*
X113578834Y-69994563D01*
X113601443Y-70000227D01*
X113623387Y-70008079D01*
X113644457Y-70018044D01*
X113664448Y-70030026D01*
X113683168Y-70043910D01*
X113700438Y-70059562D01*
X113716090Y-70076832D01*
X113729974Y-70095552D01*
X113741956Y-70115543D01*
X113751921Y-70136613D01*
X113759773Y-70158557D01*
X113765437Y-70181166D01*
X113768856Y-70204221D01*
X113770000Y-70227500D01*
X113770000Y-70802500D01*
X113768856Y-70825779D01*
X113765437Y-70848834D01*
X113759773Y-70871443D01*
X113751921Y-70893387D01*
X113741956Y-70914457D01*
X113729974Y-70934448D01*
X113716090Y-70953168D01*
X113700438Y-70970438D01*
X113683168Y-70986090D01*
X113664448Y-70999974D01*
X113644457Y-71011956D01*
X113623387Y-71021921D01*
X113601443Y-71029773D01*
X113578834Y-71035437D01*
X113555779Y-71038856D01*
X113532500Y-71040000D01*
X113057500Y-71040000D01*
X113034221Y-71038856D01*
X113011166Y-71035437D01*
X112988557Y-71029773D01*
X112966613Y-71021921D01*
X112945543Y-71011956D01*
X112925552Y-70999974D01*
X112906832Y-70986090D01*
X112889562Y-70970438D01*
X112873910Y-70953168D01*
X112860026Y-70934448D01*
X112848044Y-70914457D01*
X112838079Y-70893387D01*
X112830227Y-70871443D01*
X112824563Y-70848834D01*
X112821144Y-70825779D01*
X112820000Y-70802500D01*
X112820000Y-70227500D01*
X112821144Y-70204221D01*
X112824563Y-70181166D01*
X112830227Y-70158557D01*
X112838079Y-70136613D01*
X112848044Y-70115543D01*
X112860026Y-70095552D01*
X112873910Y-70076832D01*
X112889562Y-70059562D01*
X112906832Y-70043910D01*
X112925552Y-70030026D01*
X112945543Y-70018044D01*
X112966613Y-70008079D01*
X112988557Y-70000227D01*
X113011166Y-69994563D01*
X113034221Y-69991144D01*
X113057500Y-69990000D01*
X113532500Y-69990000D01*
X113555779Y-69991144D01*
G37*
G36*
X113555779Y-68241144D02*
G01*
X113578834Y-68244563D01*
X113601443Y-68250227D01*
X113623387Y-68258079D01*
X113644457Y-68268044D01*
X113664448Y-68280026D01*
X113683168Y-68293910D01*
X113700438Y-68309562D01*
X113716090Y-68326832D01*
X113729974Y-68345552D01*
X113741956Y-68365543D01*
X113751921Y-68386613D01*
X113759773Y-68408557D01*
X113765437Y-68431166D01*
X113768856Y-68454221D01*
X113770000Y-68477500D01*
X113770000Y-69052500D01*
X113768856Y-69075779D01*
X113765437Y-69098834D01*
X113759773Y-69121443D01*
X113751921Y-69143387D01*
X113741956Y-69164457D01*
X113729974Y-69184448D01*
X113716090Y-69203168D01*
X113700438Y-69220438D01*
X113683168Y-69236090D01*
X113664448Y-69249974D01*
X113644457Y-69261956D01*
X113623387Y-69271921D01*
X113601443Y-69279773D01*
X113578834Y-69285437D01*
X113555779Y-69288856D01*
X113532500Y-69290000D01*
X113057500Y-69290000D01*
X113034221Y-69288856D01*
X113011166Y-69285437D01*
X112988557Y-69279773D01*
X112966613Y-69271921D01*
X112945543Y-69261956D01*
X112925552Y-69249974D01*
X112906832Y-69236090D01*
X112889562Y-69220438D01*
X112873910Y-69203168D01*
X112860026Y-69184448D01*
X112848044Y-69164457D01*
X112838079Y-69143387D01*
X112830227Y-69121443D01*
X112824563Y-69098834D01*
X112821144Y-69075779D01*
X112820000Y-69052500D01*
X112820000Y-68477500D01*
X112821144Y-68454221D01*
X112824563Y-68431166D01*
X112830227Y-68408557D01*
X112838079Y-68386613D01*
X112848044Y-68365543D01*
X112860026Y-68345552D01*
X112873910Y-68326832D01*
X112889562Y-68309562D01*
X112906832Y-68293910D01*
X112925552Y-68280026D01*
X112945543Y-68268044D01*
X112966613Y-68258079D01*
X112988557Y-68250227D01*
X113011166Y-68244563D01*
X113034221Y-68241144D01*
X113057500Y-68240000D01*
X113532500Y-68240000D01*
X113555779Y-68241144D01*
G37*
G36*
X110190779Y-66626144D02*
G01*
X110213834Y-66629563D01*
X110236443Y-66635227D01*
X110258387Y-66643079D01*
X110279457Y-66653044D01*
X110299448Y-66665026D01*
X110318168Y-66678910D01*
X110335438Y-66694562D01*
X110351090Y-66711832D01*
X110364974Y-66730552D01*
X110376956Y-66750543D01*
X110386921Y-66771613D01*
X110394773Y-66793557D01*
X110400437Y-66816166D01*
X110403856Y-66839221D01*
X110405000Y-66862500D01*
X110405000Y-67337500D01*
X110403856Y-67360779D01*
X110400437Y-67383834D01*
X110394773Y-67406443D01*
X110386921Y-67428387D01*
X110376956Y-67449457D01*
X110364974Y-67469448D01*
X110351090Y-67488168D01*
X110335438Y-67505438D01*
X110318168Y-67521090D01*
X110299448Y-67534974D01*
X110279457Y-67546956D01*
X110258387Y-67556921D01*
X110236443Y-67564773D01*
X110213834Y-67570437D01*
X110190779Y-67573856D01*
X110167500Y-67575000D01*
X109592500Y-67575000D01*
X109569221Y-67573856D01*
X109546166Y-67570437D01*
X109523557Y-67564773D01*
X109501613Y-67556921D01*
X109480543Y-67546956D01*
X109460552Y-67534974D01*
X109441832Y-67521090D01*
X109424562Y-67505438D01*
X109408910Y-67488168D01*
X109395026Y-67469448D01*
X109383044Y-67449457D01*
X109373079Y-67428387D01*
X109365227Y-67406443D01*
X109359563Y-67383834D01*
X109356144Y-67360779D01*
X109355000Y-67337500D01*
X109355000Y-66862500D01*
X109356144Y-66839221D01*
X109359563Y-66816166D01*
X109365227Y-66793557D01*
X109373079Y-66771613D01*
X109383044Y-66750543D01*
X109395026Y-66730552D01*
X109408910Y-66711832D01*
X109424562Y-66694562D01*
X109441832Y-66678910D01*
X109460552Y-66665026D01*
X109480543Y-66653044D01*
X109501613Y-66643079D01*
X109523557Y-66635227D01*
X109546166Y-66629563D01*
X109569221Y-66626144D01*
X109592500Y-66625000D01*
X110167500Y-66625000D01*
X110190779Y-66626144D01*
G37*
G36*
X111940779Y-66626144D02*
G01*
X111963834Y-66629563D01*
X111986443Y-66635227D01*
X112008387Y-66643079D01*
X112029457Y-66653044D01*
X112049448Y-66665026D01*
X112068168Y-66678910D01*
X112085438Y-66694562D01*
X112101090Y-66711832D01*
X112114974Y-66730552D01*
X112126956Y-66750543D01*
X112136921Y-66771613D01*
X112144773Y-66793557D01*
X112150437Y-66816166D01*
X112153856Y-66839221D01*
X112155000Y-66862500D01*
X112155000Y-67337500D01*
X112153856Y-67360779D01*
X112150437Y-67383834D01*
X112144773Y-67406443D01*
X112136921Y-67428387D01*
X112126956Y-67449457D01*
X112114974Y-67469448D01*
X112101090Y-67488168D01*
X112085438Y-67505438D01*
X112068168Y-67521090D01*
X112049448Y-67534974D01*
X112029457Y-67546956D01*
X112008387Y-67556921D01*
X111986443Y-67564773D01*
X111963834Y-67570437D01*
X111940779Y-67573856D01*
X111917500Y-67575000D01*
X111342500Y-67575000D01*
X111319221Y-67573856D01*
X111296166Y-67570437D01*
X111273557Y-67564773D01*
X111251613Y-67556921D01*
X111230543Y-67546956D01*
X111210552Y-67534974D01*
X111191832Y-67521090D01*
X111174562Y-67505438D01*
X111158910Y-67488168D01*
X111145026Y-67469448D01*
X111133044Y-67449457D01*
X111123079Y-67428387D01*
X111115227Y-67406443D01*
X111109563Y-67383834D01*
X111106144Y-67360779D01*
X111105000Y-67337500D01*
X111105000Y-66862500D01*
X111106144Y-66839221D01*
X111109563Y-66816166D01*
X111115227Y-66793557D01*
X111123079Y-66771613D01*
X111133044Y-66750543D01*
X111145026Y-66730552D01*
X111158910Y-66711832D01*
X111174562Y-66694562D01*
X111191832Y-66678910D01*
X111210552Y-66665026D01*
X111230543Y-66653044D01*
X111251613Y-66643079D01*
X111273557Y-66635227D01*
X111296166Y-66629563D01*
X111319221Y-66626144D01*
X111342500Y-66625000D01*
X111917500Y-66625000D01*
X111940779Y-66626144D01*
G37*
G36*
X110190779Y-69166144D02*
G01*
X110213834Y-69169563D01*
X110236443Y-69175227D01*
X110258387Y-69183079D01*
X110279457Y-69193044D01*
X110299448Y-69205026D01*
X110318168Y-69218910D01*
X110335438Y-69234562D01*
X110351090Y-69251832D01*
X110364974Y-69270552D01*
X110376956Y-69290543D01*
X110386921Y-69311613D01*
X110394773Y-69333557D01*
X110400437Y-69356166D01*
X110403856Y-69379221D01*
X110405000Y-69402500D01*
X110405000Y-69877500D01*
X110403856Y-69900779D01*
X110400437Y-69923834D01*
X110394773Y-69946443D01*
X110386921Y-69968387D01*
X110376956Y-69989457D01*
X110364974Y-70009448D01*
X110351090Y-70028168D01*
X110335438Y-70045438D01*
X110318168Y-70061090D01*
X110299448Y-70074974D01*
X110279457Y-70086956D01*
X110258387Y-70096921D01*
X110236443Y-70104773D01*
X110213834Y-70110437D01*
X110190779Y-70113856D01*
X110167500Y-70115000D01*
X109592500Y-70115000D01*
X109569221Y-70113856D01*
X109546166Y-70110437D01*
X109523557Y-70104773D01*
X109501613Y-70096921D01*
X109480543Y-70086956D01*
X109460552Y-70074974D01*
X109441832Y-70061090D01*
X109424562Y-70045438D01*
X109408910Y-70028168D01*
X109395026Y-70009448D01*
X109383044Y-69989457D01*
X109373079Y-69968387D01*
X109365227Y-69946443D01*
X109359563Y-69923834D01*
X109356144Y-69900779D01*
X109355000Y-69877500D01*
X109355000Y-69402500D01*
X109356144Y-69379221D01*
X109359563Y-69356166D01*
X109365227Y-69333557D01*
X109373079Y-69311613D01*
X109383044Y-69290543D01*
X109395026Y-69270552D01*
X109408910Y-69251832D01*
X109424562Y-69234562D01*
X109441832Y-69218910D01*
X109460552Y-69205026D01*
X109480543Y-69193044D01*
X109501613Y-69183079D01*
X109523557Y-69175227D01*
X109546166Y-69169563D01*
X109569221Y-69166144D01*
X109592500Y-69165000D01*
X110167500Y-69165000D01*
X110190779Y-69166144D01*
G37*
G36*
X111940779Y-69166144D02*
G01*
X111963834Y-69169563D01*
X111986443Y-69175227D01*
X112008387Y-69183079D01*
X112029457Y-69193044D01*
X112049448Y-69205026D01*
X112068168Y-69218910D01*
X112085438Y-69234562D01*
X112101090Y-69251832D01*
X112114974Y-69270552D01*
X112126956Y-69290543D01*
X112136921Y-69311613D01*
X112144773Y-69333557D01*
X112150437Y-69356166D01*
X112153856Y-69379221D01*
X112155000Y-69402500D01*
X112155000Y-69877500D01*
X112153856Y-69900779D01*
X112150437Y-69923834D01*
X112144773Y-69946443D01*
X112136921Y-69968387D01*
X112126956Y-69989457D01*
X112114974Y-70009448D01*
X112101090Y-70028168D01*
X112085438Y-70045438D01*
X112068168Y-70061090D01*
X112049448Y-70074974D01*
X112029457Y-70086956D01*
X112008387Y-70096921D01*
X111986443Y-70104773D01*
X111963834Y-70110437D01*
X111940779Y-70113856D01*
X111917500Y-70115000D01*
X111342500Y-70115000D01*
X111319221Y-70113856D01*
X111296166Y-70110437D01*
X111273557Y-70104773D01*
X111251613Y-70096921D01*
X111230543Y-70086956D01*
X111210552Y-70074974D01*
X111191832Y-70061090D01*
X111174562Y-70045438D01*
X111158910Y-70028168D01*
X111145026Y-70009448D01*
X111133044Y-69989457D01*
X111123079Y-69968387D01*
X111115227Y-69946443D01*
X111109563Y-69923834D01*
X111106144Y-69900779D01*
X111105000Y-69877500D01*
X111105000Y-69402500D01*
X111106144Y-69379221D01*
X111109563Y-69356166D01*
X111115227Y-69333557D01*
X111123079Y-69311613D01*
X111133044Y-69290543D01*
X111145026Y-69270552D01*
X111158910Y-69251832D01*
X111174562Y-69234562D01*
X111191832Y-69218910D01*
X111210552Y-69205026D01*
X111230543Y-69193044D01*
X111251613Y-69183079D01*
X111273557Y-69175227D01*
X111296166Y-69169563D01*
X111319221Y-69166144D01*
X111342500Y-69165000D01*
X111917500Y-69165000D01*
X111940779Y-69166144D01*
G37*
D11*
X168540000Y-34065000D03*
X168540000Y-29015000D03*
X166000000Y-34065000D03*
X166000000Y-29015000D03*
X163460000Y-34065000D03*
X163460000Y-29015000D03*
X160920000Y-34065000D03*
X160920000Y-29015000D03*
D12*
X162205000Y-134410000D03*
X167255000Y-134410000D03*
X162205000Y-131870000D03*
X167255000Y-131870000D03*
X162205000Y-129330000D03*
X167255000Y-129330000D03*
X162205000Y-126790000D03*
X167255000Y-126790000D03*
D11*
X61860000Y-128075000D03*
X61860000Y-133125000D03*
X64400000Y-128075000D03*
X64400000Y-133125000D03*
X66940000Y-128075000D03*
X66940000Y-133125000D03*
X69480000Y-128075000D03*
X69480000Y-133125000D03*
D12*
X68195000Y-27730000D03*
X63145000Y-27730000D03*
X68195000Y-30270000D03*
X63145000Y-30270000D03*
X68195000Y-32810000D03*
X63145000Y-32810000D03*
X68195000Y-35350000D03*
X63145000Y-35350000D03*
D13*
X112896220Y-66945060D03*
X113546460Y-66945060D03*
X114196700Y-66945060D03*
X114846940Y-66945060D03*
X115497180Y-66945060D03*
X116147420Y-66945060D03*
X116792580Y-66945060D03*
X117442820Y-66945060D03*
X118093060Y-66945060D03*
X118743300Y-66945060D03*
X119393540Y-66945060D03*
X120043780Y-66945060D03*
X120043780Y-59634940D03*
X119393540Y-59634940D03*
X118743300Y-59634940D03*
X118093060Y-59634940D03*
X117442820Y-59634940D03*
X116792580Y-59634940D03*
X116147420Y-59634940D03*
X115497180Y-59634940D03*
X114846940Y-59634940D03*
X114196700Y-59634940D03*
X113546460Y-59634940D03*
X112896220Y-59634940D03*
M02*
