G04 #@! TF.GenerationSoftware,KiCad,Pcbnew,(5.1.5)-3*
G04 #@! TF.CreationDate,2021-04-02T02:22:22+08:00*
G04 #@! TF.ProjectId,FilamentLEDWall,46696c61-6d65-46e7-944c-454457616c6c,rev?*
G04 #@! TF.SameCoordinates,Original*
G04 #@! TF.FileFunction,Copper,L2,Bot*
G04 #@! TF.FilePolarity,Positive*
%FSLAX46Y46*%
G04 Gerber Fmt 4.6, Leading zero omitted, Abs format (unit mm)*
G04 Created by KiCad (PCBNEW (5.1.5)-3) date 2021-04-02 02:22:22*
%MOMM*%
%LPD*%
G04 APERTURE LIST*
%ADD10C,1.700000*%
%ADD11C,0.100000*%
%ADD12R,1.000000X3.150000*%
%ADD13R,3.150000X1.000000*%
%ADD14R,0.347980X1.397000*%
%ADD15C,0.800000*%
%ADD16C,0.300000*%
%ADD17C,1.000000*%
%ADD18C,0.500000*%
%ADD19C,0.254000*%
G04 APERTURE END LIST*
D10*
X113957922Y-26432078D03*
X88502078Y-51887922D03*
X60562078Y-135707922D03*
X86017922Y-110252078D03*
X169837922Y-135707922D03*
X144382078Y-110252078D03*
G04 #@! TA.AperFunction,SMDPad,CuDef*
D11*
G36*
X113555779Y-69991144D02*
G01*
X113578834Y-69994563D01*
X113601443Y-70000227D01*
X113623387Y-70008079D01*
X113644457Y-70018044D01*
X113664448Y-70030026D01*
X113683168Y-70043910D01*
X113700438Y-70059562D01*
X113716090Y-70076832D01*
X113729974Y-70095552D01*
X113741956Y-70115543D01*
X113751921Y-70136613D01*
X113759773Y-70158557D01*
X113765437Y-70181166D01*
X113768856Y-70204221D01*
X113770000Y-70227500D01*
X113770000Y-70802500D01*
X113768856Y-70825779D01*
X113765437Y-70848834D01*
X113759773Y-70871443D01*
X113751921Y-70893387D01*
X113741956Y-70914457D01*
X113729974Y-70934448D01*
X113716090Y-70953168D01*
X113700438Y-70970438D01*
X113683168Y-70986090D01*
X113664448Y-70999974D01*
X113644457Y-71011956D01*
X113623387Y-71021921D01*
X113601443Y-71029773D01*
X113578834Y-71035437D01*
X113555779Y-71038856D01*
X113532500Y-71040000D01*
X113057500Y-71040000D01*
X113034221Y-71038856D01*
X113011166Y-71035437D01*
X112988557Y-71029773D01*
X112966613Y-71021921D01*
X112945543Y-71011956D01*
X112925552Y-70999974D01*
X112906832Y-70986090D01*
X112889562Y-70970438D01*
X112873910Y-70953168D01*
X112860026Y-70934448D01*
X112848044Y-70914457D01*
X112838079Y-70893387D01*
X112830227Y-70871443D01*
X112824563Y-70848834D01*
X112821144Y-70825779D01*
X112820000Y-70802500D01*
X112820000Y-70227500D01*
X112821144Y-70204221D01*
X112824563Y-70181166D01*
X112830227Y-70158557D01*
X112838079Y-70136613D01*
X112848044Y-70115543D01*
X112860026Y-70095552D01*
X112873910Y-70076832D01*
X112889562Y-70059562D01*
X112906832Y-70043910D01*
X112925552Y-70030026D01*
X112945543Y-70018044D01*
X112966613Y-70008079D01*
X112988557Y-70000227D01*
X113011166Y-69994563D01*
X113034221Y-69991144D01*
X113057500Y-69990000D01*
X113532500Y-69990000D01*
X113555779Y-69991144D01*
G37*
G04 #@! TD.AperFunction*
G04 #@! TA.AperFunction,SMDPad,CuDef*
G36*
X113555779Y-68241144D02*
G01*
X113578834Y-68244563D01*
X113601443Y-68250227D01*
X113623387Y-68258079D01*
X113644457Y-68268044D01*
X113664448Y-68280026D01*
X113683168Y-68293910D01*
X113700438Y-68309562D01*
X113716090Y-68326832D01*
X113729974Y-68345552D01*
X113741956Y-68365543D01*
X113751921Y-68386613D01*
X113759773Y-68408557D01*
X113765437Y-68431166D01*
X113768856Y-68454221D01*
X113770000Y-68477500D01*
X113770000Y-69052500D01*
X113768856Y-69075779D01*
X113765437Y-69098834D01*
X113759773Y-69121443D01*
X113751921Y-69143387D01*
X113741956Y-69164457D01*
X113729974Y-69184448D01*
X113716090Y-69203168D01*
X113700438Y-69220438D01*
X113683168Y-69236090D01*
X113664448Y-69249974D01*
X113644457Y-69261956D01*
X113623387Y-69271921D01*
X113601443Y-69279773D01*
X113578834Y-69285437D01*
X113555779Y-69288856D01*
X113532500Y-69290000D01*
X113057500Y-69290000D01*
X113034221Y-69288856D01*
X113011166Y-69285437D01*
X112988557Y-69279773D01*
X112966613Y-69271921D01*
X112945543Y-69261956D01*
X112925552Y-69249974D01*
X112906832Y-69236090D01*
X112889562Y-69220438D01*
X112873910Y-69203168D01*
X112860026Y-69184448D01*
X112848044Y-69164457D01*
X112838079Y-69143387D01*
X112830227Y-69121443D01*
X112824563Y-69098834D01*
X112821144Y-69075779D01*
X112820000Y-69052500D01*
X112820000Y-68477500D01*
X112821144Y-68454221D01*
X112824563Y-68431166D01*
X112830227Y-68408557D01*
X112838079Y-68386613D01*
X112848044Y-68365543D01*
X112860026Y-68345552D01*
X112873910Y-68326832D01*
X112889562Y-68309562D01*
X112906832Y-68293910D01*
X112925552Y-68280026D01*
X112945543Y-68268044D01*
X112966613Y-68258079D01*
X112988557Y-68250227D01*
X113011166Y-68244563D01*
X113034221Y-68241144D01*
X113057500Y-68240000D01*
X113532500Y-68240000D01*
X113555779Y-68241144D01*
G37*
G04 #@! TD.AperFunction*
G04 #@! TA.AperFunction,SMDPad,CuDef*
G36*
X110190779Y-66626144D02*
G01*
X110213834Y-66629563D01*
X110236443Y-66635227D01*
X110258387Y-66643079D01*
X110279457Y-66653044D01*
X110299448Y-66665026D01*
X110318168Y-66678910D01*
X110335438Y-66694562D01*
X110351090Y-66711832D01*
X110364974Y-66730552D01*
X110376956Y-66750543D01*
X110386921Y-66771613D01*
X110394773Y-66793557D01*
X110400437Y-66816166D01*
X110403856Y-66839221D01*
X110405000Y-66862500D01*
X110405000Y-67337500D01*
X110403856Y-67360779D01*
X110400437Y-67383834D01*
X110394773Y-67406443D01*
X110386921Y-67428387D01*
X110376956Y-67449457D01*
X110364974Y-67469448D01*
X110351090Y-67488168D01*
X110335438Y-67505438D01*
X110318168Y-67521090D01*
X110299448Y-67534974D01*
X110279457Y-67546956D01*
X110258387Y-67556921D01*
X110236443Y-67564773D01*
X110213834Y-67570437D01*
X110190779Y-67573856D01*
X110167500Y-67575000D01*
X109592500Y-67575000D01*
X109569221Y-67573856D01*
X109546166Y-67570437D01*
X109523557Y-67564773D01*
X109501613Y-67556921D01*
X109480543Y-67546956D01*
X109460552Y-67534974D01*
X109441832Y-67521090D01*
X109424562Y-67505438D01*
X109408910Y-67488168D01*
X109395026Y-67469448D01*
X109383044Y-67449457D01*
X109373079Y-67428387D01*
X109365227Y-67406443D01*
X109359563Y-67383834D01*
X109356144Y-67360779D01*
X109355000Y-67337500D01*
X109355000Y-66862500D01*
X109356144Y-66839221D01*
X109359563Y-66816166D01*
X109365227Y-66793557D01*
X109373079Y-66771613D01*
X109383044Y-66750543D01*
X109395026Y-66730552D01*
X109408910Y-66711832D01*
X109424562Y-66694562D01*
X109441832Y-66678910D01*
X109460552Y-66665026D01*
X109480543Y-66653044D01*
X109501613Y-66643079D01*
X109523557Y-66635227D01*
X109546166Y-66629563D01*
X109569221Y-66626144D01*
X109592500Y-66625000D01*
X110167500Y-66625000D01*
X110190779Y-66626144D01*
G37*
G04 #@! TD.AperFunction*
G04 #@! TA.AperFunction,SMDPad,CuDef*
G36*
X111940779Y-66626144D02*
G01*
X111963834Y-66629563D01*
X111986443Y-66635227D01*
X112008387Y-66643079D01*
X112029457Y-66653044D01*
X112049448Y-66665026D01*
X112068168Y-66678910D01*
X112085438Y-66694562D01*
X112101090Y-66711832D01*
X112114974Y-66730552D01*
X112126956Y-66750543D01*
X112136921Y-66771613D01*
X112144773Y-66793557D01*
X112150437Y-66816166D01*
X112153856Y-66839221D01*
X112155000Y-66862500D01*
X112155000Y-67337500D01*
X112153856Y-67360779D01*
X112150437Y-67383834D01*
X112144773Y-67406443D01*
X112136921Y-67428387D01*
X112126956Y-67449457D01*
X112114974Y-67469448D01*
X112101090Y-67488168D01*
X112085438Y-67505438D01*
X112068168Y-67521090D01*
X112049448Y-67534974D01*
X112029457Y-67546956D01*
X112008387Y-67556921D01*
X111986443Y-67564773D01*
X111963834Y-67570437D01*
X111940779Y-67573856D01*
X111917500Y-67575000D01*
X111342500Y-67575000D01*
X111319221Y-67573856D01*
X111296166Y-67570437D01*
X111273557Y-67564773D01*
X111251613Y-67556921D01*
X111230543Y-67546956D01*
X111210552Y-67534974D01*
X111191832Y-67521090D01*
X111174562Y-67505438D01*
X111158910Y-67488168D01*
X111145026Y-67469448D01*
X111133044Y-67449457D01*
X111123079Y-67428387D01*
X111115227Y-67406443D01*
X111109563Y-67383834D01*
X111106144Y-67360779D01*
X111105000Y-67337500D01*
X111105000Y-66862500D01*
X111106144Y-66839221D01*
X111109563Y-66816166D01*
X111115227Y-66793557D01*
X111123079Y-66771613D01*
X111133044Y-66750543D01*
X111145026Y-66730552D01*
X111158910Y-66711832D01*
X111174562Y-66694562D01*
X111191832Y-66678910D01*
X111210552Y-66665026D01*
X111230543Y-66653044D01*
X111251613Y-66643079D01*
X111273557Y-66635227D01*
X111296166Y-66629563D01*
X111319221Y-66626144D01*
X111342500Y-66625000D01*
X111917500Y-66625000D01*
X111940779Y-66626144D01*
G37*
G04 #@! TD.AperFunction*
G04 #@! TA.AperFunction,SMDPad,CuDef*
G36*
X110190779Y-69166144D02*
G01*
X110213834Y-69169563D01*
X110236443Y-69175227D01*
X110258387Y-69183079D01*
X110279457Y-69193044D01*
X110299448Y-69205026D01*
X110318168Y-69218910D01*
X110335438Y-69234562D01*
X110351090Y-69251832D01*
X110364974Y-69270552D01*
X110376956Y-69290543D01*
X110386921Y-69311613D01*
X110394773Y-69333557D01*
X110400437Y-69356166D01*
X110403856Y-69379221D01*
X110405000Y-69402500D01*
X110405000Y-69877500D01*
X110403856Y-69900779D01*
X110400437Y-69923834D01*
X110394773Y-69946443D01*
X110386921Y-69968387D01*
X110376956Y-69989457D01*
X110364974Y-70009448D01*
X110351090Y-70028168D01*
X110335438Y-70045438D01*
X110318168Y-70061090D01*
X110299448Y-70074974D01*
X110279457Y-70086956D01*
X110258387Y-70096921D01*
X110236443Y-70104773D01*
X110213834Y-70110437D01*
X110190779Y-70113856D01*
X110167500Y-70115000D01*
X109592500Y-70115000D01*
X109569221Y-70113856D01*
X109546166Y-70110437D01*
X109523557Y-70104773D01*
X109501613Y-70096921D01*
X109480543Y-70086956D01*
X109460552Y-70074974D01*
X109441832Y-70061090D01*
X109424562Y-70045438D01*
X109408910Y-70028168D01*
X109395026Y-70009448D01*
X109383044Y-69989457D01*
X109373079Y-69968387D01*
X109365227Y-69946443D01*
X109359563Y-69923834D01*
X109356144Y-69900779D01*
X109355000Y-69877500D01*
X109355000Y-69402500D01*
X109356144Y-69379221D01*
X109359563Y-69356166D01*
X109365227Y-69333557D01*
X109373079Y-69311613D01*
X109383044Y-69290543D01*
X109395026Y-69270552D01*
X109408910Y-69251832D01*
X109424562Y-69234562D01*
X109441832Y-69218910D01*
X109460552Y-69205026D01*
X109480543Y-69193044D01*
X109501613Y-69183079D01*
X109523557Y-69175227D01*
X109546166Y-69169563D01*
X109569221Y-69166144D01*
X109592500Y-69165000D01*
X110167500Y-69165000D01*
X110190779Y-69166144D01*
G37*
G04 #@! TD.AperFunction*
G04 #@! TA.AperFunction,SMDPad,CuDef*
G36*
X111940779Y-69166144D02*
G01*
X111963834Y-69169563D01*
X111986443Y-69175227D01*
X112008387Y-69183079D01*
X112029457Y-69193044D01*
X112049448Y-69205026D01*
X112068168Y-69218910D01*
X112085438Y-69234562D01*
X112101090Y-69251832D01*
X112114974Y-69270552D01*
X112126956Y-69290543D01*
X112136921Y-69311613D01*
X112144773Y-69333557D01*
X112150437Y-69356166D01*
X112153856Y-69379221D01*
X112155000Y-69402500D01*
X112155000Y-69877500D01*
X112153856Y-69900779D01*
X112150437Y-69923834D01*
X112144773Y-69946443D01*
X112136921Y-69968387D01*
X112126956Y-69989457D01*
X112114974Y-70009448D01*
X112101090Y-70028168D01*
X112085438Y-70045438D01*
X112068168Y-70061090D01*
X112049448Y-70074974D01*
X112029457Y-70086956D01*
X112008387Y-70096921D01*
X111986443Y-70104773D01*
X111963834Y-70110437D01*
X111940779Y-70113856D01*
X111917500Y-70115000D01*
X111342500Y-70115000D01*
X111319221Y-70113856D01*
X111296166Y-70110437D01*
X111273557Y-70104773D01*
X111251613Y-70096921D01*
X111230543Y-70086956D01*
X111210552Y-70074974D01*
X111191832Y-70061090D01*
X111174562Y-70045438D01*
X111158910Y-70028168D01*
X111145026Y-70009448D01*
X111133044Y-69989457D01*
X111123079Y-69968387D01*
X111115227Y-69946443D01*
X111109563Y-69923834D01*
X111106144Y-69900779D01*
X111105000Y-69877500D01*
X111105000Y-69402500D01*
X111106144Y-69379221D01*
X111109563Y-69356166D01*
X111115227Y-69333557D01*
X111123079Y-69311613D01*
X111133044Y-69290543D01*
X111145026Y-69270552D01*
X111158910Y-69251832D01*
X111174562Y-69234562D01*
X111191832Y-69218910D01*
X111210552Y-69205026D01*
X111230543Y-69193044D01*
X111251613Y-69183079D01*
X111273557Y-69175227D01*
X111296166Y-69169563D01*
X111319221Y-69166144D01*
X111342500Y-69165000D01*
X111917500Y-69165000D01*
X111940779Y-69166144D01*
G37*
G04 #@! TD.AperFunction*
D12*
X168540000Y-34065000D03*
X168540000Y-29015000D03*
X166000000Y-34065000D03*
X166000000Y-29015000D03*
X163460000Y-34065000D03*
X163460000Y-29015000D03*
X160920000Y-34065000D03*
X160920000Y-29015000D03*
D13*
X162205000Y-134410000D03*
X167255000Y-134410000D03*
X162205000Y-131870000D03*
X167255000Y-131870000D03*
X162205000Y-129330000D03*
X167255000Y-129330000D03*
X162205000Y-126790000D03*
X167255000Y-126790000D03*
D12*
X61860000Y-128075000D03*
X61860000Y-133125000D03*
X64400000Y-128075000D03*
X64400000Y-133125000D03*
X66940000Y-128075000D03*
X66940000Y-133125000D03*
X69480000Y-128075000D03*
X69480000Y-133125000D03*
D13*
X68195000Y-27730000D03*
X63145000Y-27730000D03*
X68195000Y-30270000D03*
X63145000Y-30270000D03*
X68195000Y-32810000D03*
X63145000Y-32810000D03*
X68195000Y-35350000D03*
X63145000Y-35350000D03*
D10*
X116442078Y-135707922D03*
X141897922Y-110252078D03*
X113957922Y-135707922D03*
X88502078Y-110252078D03*
X169837922Y-82312078D03*
X144382078Y-107767922D03*
X116442078Y-82312078D03*
X141897922Y-107767922D03*
X113957922Y-82312078D03*
X88502078Y-107767922D03*
X60562078Y-82312078D03*
X86017922Y-107767922D03*
X169837922Y-79827922D03*
X144382078Y-54372078D03*
X116442078Y-79827922D03*
X141897922Y-54372078D03*
X113957922Y-79827922D03*
X88502078Y-54372078D03*
X60562078Y-79827922D03*
X86017922Y-54372078D03*
X169837922Y-26432078D03*
X144382078Y-51887922D03*
X116442078Y-26432078D03*
X141897922Y-51887922D03*
X60562078Y-26432078D03*
X86017922Y-51887922D03*
D14*
X112896220Y-66945060D03*
X113546460Y-66945060D03*
X114196700Y-66945060D03*
X114846940Y-66945060D03*
X115497180Y-66945060D03*
X116147420Y-66945060D03*
X116792580Y-66945060D03*
X117442820Y-66945060D03*
X118093060Y-66945060D03*
X118743300Y-66945060D03*
X119393540Y-66945060D03*
X120043780Y-66945060D03*
X120043780Y-59634940D03*
X119393540Y-59634940D03*
X118743300Y-59634940D03*
X118093060Y-59634940D03*
X117442820Y-59634940D03*
X116792580Y-59634940D03*
X116147420Y-59634940D03*
X115497180Y-59634940D03*
X114846940Y-59634940D03*
X114196700Y-59634940D03*
X113546460Y-59634940D03*
X112896220Y-59634940D03*
D15*
X65670000Y-27730000D03*
X70750000Y-125520000D03*
X73290000Y-122980000D03*
X75830000Y-120440000D03*
X78370000Y-117900000D03*
X80910000Y-115360000D03*
X83450000Y-112820000D03*
X162190000Y-122980000D03*
X159650000Y-120440000D03*
X157110000Y-117900000D03*
X154570000Y-115360000D03*
X152030000Y-112820000D03*
X149490000Y-110280000D03*
X159650000Y-36620000D03*
X157110000Y-39160000D03*
X154570000Y-41700000D03*
X152030000Y-44240000D03*
X149490000Y-46780000D03*
X146950000Y-49320000D03*
X159650000Y-125520000D03*
X157110000Y-122980000D03*
X154570000Y-120440000D03*
X146950000Y-112820000D03*
X149490000Y-115360000D03*
X85990000Y-115360000D03*
X83450000Y-117900000D03*
X80910000Y-120440000D03*
X78370000Y-122980000D03*
X75830000Y-125520000D03*
X73290000Y-128060000D03*
X152030000Y-117900000D03*
X154570000Y-36620000D03*
X152030000Y-39160000D03*
X149490000Y-41700000D03*
X146950000Y-44240000D03*
X144410000Y-46780000D03*
X83450000Y-49320000D03*
X80910000Y-46780000D03*
X78370000Y-44240000D03*
X75830000Y-41700000D03*
X73290000Y-39160000D03*
X70750000Y-36620000D03*
X68210000Y-39160000D03*
X70750000Y-41700000D03*
X73290000Y-44240000D03*
X75830000Y-46780000D03*
X78370000Y-49320000D03*
X80910000Y-51860000D03*
X106310000Y-44240000D03*
X121550000Y-44240000D03*
X106310000Y-41700000D03*
X106310000Y-46780000D03*
X121550000Y-41700000D03*
X121550000Y-46780000D03*
X91070000Y-51860000D03*
X93610000Y-51860000D03*
X96150000Y-51860000D03*
X98690000Y-51860000D03*
X101230000Y-51860000D03*
X103770000Y-51860000D03*
X106310000Y-51860000D03*
X106310000Y-56940000D03*
X103770000Y-56940000D03*
X101230000Y-56940000D03*
X98690000Y-56940000D03*
X96150000Y-56940000D03*
X93610000Y-56940000D03*
X91070000Y-56940000D03*
X85990000Y-56940000D03*
X85990000Y-59480000D03*
X85990000Y-67100000D03*
X85990000Y-69640000D03*
X85990000Y-72180000D03*
X91070000Y-59480000D03*
X91070000Y-67100000D03*
X91070000Y-69640000D03*
X91070000Y-74720000D03*
X85990000Y-74720000D03*
X85990000Y-77260000D03*
X91070000Y-77260000D03*
X91070000Y-79800000D03*
X85990000Y-79800000D03*
X85990000Y-82340000D03*
X91070000Y-82340000D03*
X85990000Y-84880000D03*
X91070000Y-84880000D03*
X85990000Y-87420000D03*
X91070000Y-87420000D03*
X91070000Y-89960000D03*
X85990000Y-89960000D03*
X85990000Y-92500000D03*
X91070000Y-92500000D03*
X91070000Y-95040000D03*
X85990000Y-95040000D03*
X85990000Y-97580000D03*
X91070000Y-97580000D03*
X91070000Y-100120000D03*
X85990000Y-100120000D03*
X85990000Y-102660000D03*
X91070000Y-102660000D03*
X91070000Y-105200000D03*
X85990000Y-105200000D03*
X91070000Y-110280000D03*
X93610000Y-110280000D03*
X93610000Y-105200000D03*
X96150000Y-105200000D03*
X96150000Y-110280000D03*
X98690000Y-110280000D03*
X101230000Y-105200000D03*
X98690000Y-105200000D03*
X101230000Y-110280000D03*
X103770000Y-105200000D03*
X103770000Y-110280000D03*
X106310000Y-105200000D03*
X106310000Y-110280000D03*
X108850000Y-110280000D03*
X108850000Y-105200000D03*
X111390000Y-105200000D03*
X111390000Y-110280000D03*
X124090000Y-105200000D03*
X126630000Y-105200000D03*
X129170000Y-105200000D03*
X131710000Y-105200000D03*
X131710000Y-105200000D03*
X134250000Y-105200000D03*
X136790000Y-105200000D03*
X139330000Y-105200000D03*
X124090000Y-110280000D03*
X126630000Y-110280000D03*
X129170000Y-110280000D03*
X131710000Y-110280000D03*
X134250000Y-110280000D03*
X136790000Y-110280000D03*
X139330000Y-110280000D03*
X139330000Y-102660000D03*
X139330000Y-100120000D03*
X139330000Y-97580000D03*
X139330000Y-95040000D03*
X139330000Y-92500000D03*
X139330000Y-87420000D03*
X139330000Y-89960000D03*
X139330000Y-84880000D03*
X139330000Y-82340000D03*
X139330000Y-79800000D03*
X139330000Y-77260000D03*
X144410000Y-77260000D03*
X144410000Y-79800000D03*
X144410000Y-82340000D03*
X144410000Y-84880000D03*
X144410000Y-89960000D03*
X144410000Y-92500000D03*
X144410000Y-95040000D03*
X144410000Y-97580000D03*
X144410000Y-102660000D03*
X144410000Y-100120000D03*
X144410000Y-105200000D03*
X144410000Y-87420000D03*
X146950000Y-107740000D03*
X88530000Y-112820000D03*
X144410000Y-74720000D03*
X139330000Y-74720000D03*
X139330000Y-72180000D03*
X139330000Y-69640000D03*
X139330000Y-67100000D03*
X144410000Y-67100000D03*
X144410000Y-69640000D03*
X144410000Y-72180000D03*
X139330000Y-59480000D03*
X139330000Y-56940000D03*
X144410000Y-56940000D03*
X144410000Y-59480000D03*
X141870000Y-49320000D03*
X83450000Y-54400000D03*
X139330000Y-51860000D03*
X121550000Y-56940000D03*
X124090000Y-56940000D03*
X126630000Y-56940000D03*
X129170000Y-56940000D03*
X131710000Y-56940000D03*
X134250000Y-56940000D03*
X136790000Y-56940000D03*
X136790000Y-51860000D03*
X134250000Y-51860000D03*
X131710000Y-51860000D03*
X129170000Y-51860000D03*
X126630000Y-51860000D03*
X124090000Y-51860000D03*
X121550000Y-51860000D03*
X121550000Y-49320000D03*
X106310000Y-49320000D03*
X120280000Y-63290000D03*
X112660000Y-75990000D03*
X111390000Y-74720000D03*
X83450000Y-133140000D03*
X108850000Y-133140000D03*
X126630000Y-133140000D03*
X150760000Y-133140000D03*
X111390000Y-59480000D03*
X157110000Y-34080000D03*
X110120000Y-68370000D03*
X102500000Y-67100000D03*
X102500000Y-69640000D03*
X106310000Y-82340000D03*
X110120000Y-86150000D03*
X124090000Y-86150000D03*
X124090000Y-82340000D03*
X121550000Y-72180000D03*
X110120000Y-29000000D03*
X121550000Y-29000000D03*
X130440000Y-29000000D03*
X148220000Y-29000000D03*
X99960000Y-29000000D03*
X82180000Y-29000000D03*
X164730000Y-72180000D03*
X168540000Y-68370000D03*
X160920000Y-68370000D03*
X160920000Y-55670000D03*
X64654000Y-73704000D03*
X61098000Y-69640000D03*
X125106000Y-123996000D03*
X110882000Y-124504000D03*
X119772000Y-135934000D03*
X110120000Y-25444000D03*
X120788000Y-25444000D03*
X63638000Y-25190000D03*
X167270000Y-25190000D03*
X63638000Y-136950000D03*
X167270000Y-136950000D03*
X109600000Y-71545000D03*
X103020000Y-71545000D03*
X113930000Y-55670000D03*
X113930000Y-53130000D03*
X115200000Y-55670000D03*
X115200000Y-53130000D03*
X116470000Y-55670000D03*
X116470000Y-53130000D03*
X117740000Y-55670000D03*
X117740000Y-53130000D03*
X89800000Y-62655000D03*
X87260000Y-62655000D03*
X140600000Y-62655000D03*
X143140000Y-62655000D03*
X111390000Y-63405000D03*
X107580000Y-63925000D03*
X89800000Y-63925000D03*
X87260000Y-63925000D03*
X110253891Y-64288891D03*
X107465000Y-65195000D03*
X109600000Y-65195000D03*
X106715000Y-66465000D03*
X140600000Y-63925000D03*
X143140000Y-63925000D03*
X116470000Y-109010000D03*
X116470000Y-106470000D03*
X118392079Y-75355000D03*
X117740000Y-109010000D03*
X116896644Y-74703547D03*
X117740000Y-106470000D03*
X119142079Y-77260000D03*
X119010000Y-109010000D03*
X116629256Y-75667148D03*
X119010000Y-106469994D03*
X119892079Y-78530000D03*
X120280000Y-106470000D03*
X120280000Y-109010000D03*
X115719990Y-77260000D03*
X113162168Y-58342832D03*
X118375000Y-58210000D03*
X119010000Y-55670000D03*
X119010000Y-53130000D03*
X108215000Y-59933441D03*
X105675000Y-60115000D03*
X103770000Y-61905000D03*
X103770000Y-64675000D03*
X112660000Y-106470000D03*
X112660000Y-109010000D03*
X75830000Y-130600000D03*
X67590000Y-130600000D03*
X155840000Y-35350000D03*
X162190000Y-34080000D03*
X113180000Y-32810000D03*
X118490000Y-32810000D03*
X158380000Y-29000000D03*
X164730000Y-29000000D03*
X121030000Y-129330000D03*
X115720000Y-129330000D03*
X65670000Y-133140000D03*
X112660000Y-55670000D03*
X112660000Y-53130000D03*
X112660000Y-35350000D03*
X106310000Y-61905000D03*
X106310000Y-64675000D03*
X115200000Y-106470000D03*
X115200000Y-109010000D03*
X115200000Y-126155000D03*
X70750000Y-133140000D03*
X113180000Y-31540000D03*
X118490000Y-31540000D03*
X158380000Y-27730000D03*
X167270000Y-27730000D03*
X121030000Y-130600000D03*
X115720000Y-130600000D03*
X70750000Y-134410000D03*
X63130000Y-134410000D03*
X108850000Y-36620000D03*
X108850000Y-53130000D03*
X108850000Y-55670000D03*
X105675000Y-58845000D03*
X114565000Y-68370000D03*
X114565000Y-74085000D03*
X118490000Y-74085000D03*
X121550000Y-106470000D03*
X121550000Y-109010000D03*
X121550000Y-126790000D03*
X113180000Y-34080000D03*
X118490000Y-34080000D03*
X158380000Y-30270000D03*
X162190000Y-30270000D03*
X121030000Y-128060000D03*
X115720000Y-128060000D03*
X68210000Y-131870000D03*
X111390000Y-55670000D03*
X111390000Y-53130000D03*
X111390000Y-36620000D03*
X105040000Y-61905000D03*
X105040000Y-64675000D03*
X113930000Y-106470000D03*
X113930000Y-109010000D03*
X113930000Y-126155000D03*
X70750000Y-131870000D03*
X112025000Y-65945000D03*
X106822949Y-59061390D03*
X110120000Y-55670000D03*
X110120000Y-53130000D03*
X71385000Y-35350000D03*
X70750000Y-30270000D03*
X159650000Y-131870000D03*
X158380000Y-126790000D03*
X122820000Y-109010000D03*
X122820000Y-106470000D03*
X119010000Y-69640000D03*
D16*
X111544940Y-59634940D02*
X111390000Y-59480000D01*
X112896220Y-59634940D02*
X111544940Y-59634940D01*
D17*
X86017922Y-51887922D02*
X88502078Y-51887922D01*
X88502078Y-51887922D02*
X88502078Y-54372078D01*
X88502078Y-54372078D02*
X86017922Y-54372078D01*
X86017922Y-51887922D02*
X86017922Y-54372078D01*
X141897922Y-51887922D02*
X141897922Y-54372078D01*
X141897922Y-54372078D02*
X144382078Y-54372078D01*
X144382078Y-54372078D02*
X144382078Y-51887922D01*
X144382078Y-51887922D02*
X141897922Y-51887922D01*
X141897922Y-107767922D02*
X144382078Y-107767922D01*
X144382078Y-107767922D02*
X144382078Y-110252078D01*
X144382078Y-110252078D02*
X141897922Y-110252078D01*
X141897922Y-110252078D02*
X141897922Y-107767922D01*
X88502078Y-110252078D02*
X86017922Y-110252078D01*
X86017922Y-110252078D02*
X86017922Y-107767922D01*
X88502078Y-107767922D02*
X86017922Y-107767922D01*
X88502078Y-107767922D02*
X88502078Y-110252078D01*
X88502078Y-107767922D02*
X141897922Y-107767922D01*
X141897922Y-105283766D02*
X141897922Y-107767922D01*
X141897922Y-54372078D02*
X141897922Y-105283766D01*
X88502078Y-54372078D02*
X141897922Y-54372078D01*
X159420000Y-34065000D02*
X160920000Y-34065000D01*
X144382078Y-51887922D02*
X144382078Y-49102922D01*
X144382078Y-49102922D02*
X159420000Y-34065000D01*
X68195000Y-36850000D02*
X68195000Y-35350000D01*
X86017922Y-51887922D02*
X83232922Y-51887922D01*
X83232922Y-51887922D02*
X68195000Y-36850000D01*
X70980000Y-128075000D02*
X69480000Y-128075000D01*
X86017922Y-110252078D02*
X86017922Y-113037078D01*
X86017922Y-113037078D02*
X70980000Y-128075000D01*
X162205000Y-125290000D02*
X162205000Y-126790000D01*
X144382078Y-110252078D02*
X147167078Y-110252078D01*
X147167078Y-110252078D02*
X162205000Y-125290000D01*
D18*
X111784940Y-66945060D02*
X111630000Y-67100000D01*
X112896220Y-66945060D02*
X111784940Y-66945060D01*
X111630000Y-67100000D02*
X111630000Y-69640000D01*
X111630000Y-69640000D02*
X111505000Y-69640000D01*
X111505000Y-69640000D02*
X109600000Y-71545000D01*
X103020000Y-71545000D02*
X88530000Y-71545000D01*
D17*
X88502078Y-107767922D02*
X88530000Y-71545000D01*
X88530000Y-71545000D02*
X88502078Y-54372078D01*
D16*
X115497180Y-59634940D02*
X115497180Y-57237180D01*
X115497180Y-57237180D02*
X113930000Y-55670000D01*
X113930000Y-53130000D02*
X113930000Y-28365000D01*
X111997078Y-26432078D02*
X60562078Y-26432078D01*
X113930000Y-28365000D02*
X111997078Y-26432078D01*
X116147420Y-59634940D02*
X116147420Y-56617420D01*
X116147420Y-56617420D02*
X115200000Y-55670000D01*
X115200000Y-27674156D02*
X113957922Y-26432078D01*
X115200000Y-53130000D02*
X115200000Y-27674156D01*
X116792580Y-59634940D02*
X116792580Y-55992580D01*
X116792580Y-55992580D02*
X116470000Y-55670000D01*
X116470000Y-53130000D02*
X116470000Y-53522068D01*
X116470000Y-26460000D02*
X116442078Y-26432078D01*
X116470000Y-53130000D02*
X116470000Y-26460000D01*
X117442820Y-59634940D02*
X117442820Y-55967180D01*
X117442820Y-55967180D02*
X117740000Y-55670000D01*
X117740000Y-53130000D02*
X117740000Y-28365000D01*
X119672922Y-26432078D02*
X169837922Y-26432078D01*
X117740000Y-28365000D02*
X119672922Y-26432078D01*
X117060262Y-61519990D02*
X109985010Y-61519990D01*
X118093060Y-59634940D02*
X118093060Y-60487192D01*
X118093060Y-60487192D02*
X117060262Y-61519990D01*
X109985010Y-61519990D02*
X108850000Y-62655000D01*
X108850000Y-62655000D02*
X89800000Y-62655000D01*
X87260000Y-62655000D02*
X70750000Y-62655000D01*
X60562078Y-72842922D02*
X60562078Y-79827922D01*
X70750000Y-62655000D02*
X60562078Y-72842922D01*
X118743300Y-60544072D02*
X117267372Y-62020000D01*
X118743300Y-59634940D02*
X118743300Y-60544072D01*
X117267372Y-62020000D02*
X110755000Y-62020000D01*
X110755000Y-62020000D02*
X108215000Y-64560000D01*
X108215000Y-64560000D02*
X108215000Y-76625000D01*
X111417922Y-79827922D02*
X113957922Y-79827922D01*
X108215000Y-76625000D02*
X111417922Y-79827922D01*
X117339492Y-62655000D02*
X110827120Y-62655000D01*
X119393540Y-59634940D02*
X119393540Y-60600952D01*
X119393540Y-60600952D02*
X117339492Y-62655000D01*
X108850000Y-64632120D02*
X108850000Y-76552880D01*
X110827120Y-62655000D02*
X108850000Y-64632120D01*
X108850000Y-76552880D02*
X110827120Y-78530000D01*
X115144156Y-78530000D02*
X116442078Y-79827922D01*
X110827120Y-78530000D02*
X115144156Y-78530000D01*
X120043780Y-60633440D02*
X122065340Y-62655000D01*
X120043780Y-59634940D02*
X120043780Y-60633440D01*
X122065340Y-62655000D02*
X140600000Y-62655000D01*
X143140000Y-62655000D02*
X159650000Y-62655000D01*
X169837922Y-72842922D02*
X169837922Y-79827922D01*
X159650000Y-62655000D02*
X169837922Y-72842922D01*
X117502220Y-63405000D02*
X111390000Y-63405000D01*
X120043780Y-66945060D02*
X120043780Y-65946560D01*
X120043780Y-65946560D02*
X117502220Y-63405000D01*
X107580000Y-63925000D02*
X89800000Y-63925000D01*
X62495000Y-72815000D02*
X62495000Y-80379156D01*
X62495000Y-80379156D02*
X60562078Y-82312078D01*
X87260000Y-63925000D02*
X71385000Y-63925000D01*
X71385000Y-63925000D02*
X62495000Y-72815000D01*
X117589623Y-64288891D02*
X110253891Y-64288891D01*
X119393540Y-66945060D02*
X119393540Y-66092808D01*
X119393540Y-66092808D02*
X117589623Y-64288891D01*
X112755841Y-82312078D02*
X113957922Y-82312078D01*
X107465000Y-65195000D02*
X107465000Y-77021237D01*
X107465000Y-77021237D02*
X112755841Y-82312078D01*
X118743300Y-66945060D02*
X118743300Y-66198300D01*
X118743300Y-66198300D02*
X117740000Y-65195000D01*
X117740000Y-65195000D02*
X109600000Y-65195000D01*
X115242077Y-83512079D02*
X115592079Y-83162077D01*
X115592079Y-83162077D02*
X116442078Y-82312078D01*
X113248722Y-83512079D02*
X115242077Y-83512079D01*
X106715000Y-66465000D02*
X106715000Y-76978357D01*
X106715000Y-76978357D02*
X113248722Y-83512079D01*
X120497771Y-67993561D02*
X122185000Y-66306332D01*
X118093060Y-66945060D02*
X118093060Y-67797312D01*
X118289309Y-67993561D02*
X120497771Y-67993561D01*
X118093060Y-67797312D02*
X118289309Y-67993561D01*
X122185000Y-66306332D02*
X122185000Y-65195000D01*
X122185000Y-65195000D02*
X123455000Y-63925000D01*
X123455000Y-63925000D02*
X140600000Y-63925000D01*
X143140000Y-63925000D02*
X159650000Y-63925000D01*
X159650000Y-63925000D02*
X167905000Y-72180000D01*
X167905000Y-80379156D02*
X169837922Y-82312078D01*
X167905000Y-72180000D02*
X167905000Y-80379156D01*
X60562078Y-135707922D02*
X111362078Y-135707922D01*
X114565000Y-132505000D02*
X115835000Y-132505000D01*
X111362078Y-135707922D02*
X114565000Y-132505000D01*
X115835000Y-132505000D02*
X116470000Y-131870000D01*
X116470000Y-131870000D02*
X116470000Y-109010000D01*
X117442820Y-67943560D02*
X117442820Y-66945060D01*
X117740000Y-68240740D02*
X117442820Y-67943560D01*
X117740000Y-74897077D02*
X117740000Y-68240740D01*
X117642078Y-74994999D02*
X117740000Y-74897077D01*
X117239989Y-81333987D02*
X117239989Y-80806013D01*
X117642079Y-82888079D02*
X117642079Y-81736077D01*
X117642078Y-75397879D02*
X117642078Y-74994999D01*
X117239989Y-80806013D02*
X117642079Y-80403923D01*
X117642079Y-81736077D02*
X117239989Y-81333987D01*
X117239989Y-76166417D02*
X117379257Y-76027149D01*
X116470000Y-106470000D02*
X116470000Y-84060158D01*
X116470000Y-84060158D02*
X117642079Y-82888079D01*
X117642079Y-80403923D02*
X117642079Y-79251921D01*
X117379257Y-75660700D02*
X117642078Y-75397879D01*
X117642079Y-79251921D02*
X117239989Y-78849831D01*
X117379257Y-76027149D02*
X117379257Y-75660700D01*
X117239989Y-78849831D02*
X117239989Y-76166417D01*
X117740000Y-131925844D02*
X113957922Y-135707922D01*
X117740000Y-109010000D02*
X117740000Y-131925844D01*
X116792580Y-74599483D02*
X116896644Y-74703547D01*
X116792580Y-66945060D02*
X116792580Y-74599483D01*
X117740000Y-83497280D02*
X117740000Y-106470000D01*
X118142090Y-81528966D02*
X118142090Y-83095190D01*
X117740000Y-81126876D02*
X118142090Y-81528966D01*
X117740000Y-81013124D02*
X117740000Y-81126876D01*
X118142090Y-80611034D02*
X117740000Y-81013124D01*
X118392079Y-75355000D02*
X117879268Y-75867811D01*
X118142090Y-83095190D02*
X117740000Y-83497280D01*
X117740000Y-78642720D02*
X118142090Y-79044810D01*
X117740000Y-76373528D02*
X117740000Y-78642720D01*
X118142090Y-79044810D02*
X118142090Y-80611034D01*
X117879268Y-75867811D02*
X117879268Y-76234260D01*
X117879268Y-76234260D02*
X117740000Y-76373528D01*
X119010000Y-133140000D02*
X116442078Y-135707922D01*
X119010000Y-109010000D02*
X119010000Y-133140000D01*
X116147420Y-67943560D02*
X116142078Y-67948902D01*
X116229257Y-75267149D02*
X116629256Y-75667148D01*
X116147420Y-66945060D02*
X116147420Y-67943560D01*
X116142078Y-67948902D02*
X116142078Y-75179970D01*
X116142078Y-75179970D02*
X116229257Y-75267149D01*
X119142079Y-106337915D02*
X119010000Y-106469994D01*
X119142079Y-77260000D02*
X119142079Y-106337915D01*
X131102922Y-135707922D02*
X169837922Y-135707922D01*
X122847922Y-135707922D02*
X131102922Y-135707922D01*
X120280000Y-109010000D02*
X120280000Y-133140000D01*
X120280000Y-133140000D02*
X122847922Y-135707922D01*
X115497180Y-66945060D02*
X115497180Y-77037190D01*
X115497180Y-77037190D02*
X115719990Y-77260000D01*
X120280000Y-78917921D02*
X120280000Y-106470000D01*
X119892079Y-78530000D02*
X120280000Y-78917921D01*
X113546460Y-59634940D02*
X113546460Y-58727124D01*
X113546460Y-58727124D02*
X113162168Y-58342832D01*
X118375000Y-58210000D02*
X118375000Y-56305000D01*
X118375000Y-56305000D02*
X119010000Y-55670000D01*
X119010000Y-53130000D02*
X119010000Y-35985000D01*
X119645000Y-35350000D02*
X155205000Y-35350000D01*
X119010000Y-35985000D02*
X119645000Y-35350000D01*
X113162168Y-58342832D02*
X109805609Y-58342832D01*
X109805609Y-58342832D02*
X108215000Y-59933441D01*
X105675000Y-60115000D02*
X105560000Y-60115000D01*
X105560000Y-60115000D02*
X103770000Y-61905000D01*
X103770000Y-64675000D02*
X103770000Y-77260000D01*
X103770000Y-77260000D02*
X112660000Y-86150000D01*
X112660000Y-86150000D02*
X112660000Y-106470000D01*
X111390000Y-126790000D02*
X80910000Y-126790000D01*
X112660000Y-109010000D02*
X112660000Y-125520000D01*
X112660000Y-125520000D02*
X111390000Y-126790000D01*
X80910000Y-126790000D02*
X77100000Y-130600000D01*
X66940000Y-129950000D02*
X66940000Y-128075000D01*
X67590000Y-130600000D02*
X66940000Y-129950000D01*
X77100000Y-130600000D02*
X75830000Y-130600000D01*
X155205000Y-35350000D02*
X155840000Y-35350000D01*
X163445000Y-34080000D02*
X163460000Y-34065000D01*
X162190000Y-34080000D02*
X163445000Y-34080000D01*
D18*
X118490000Y-32810000D02*
X153935000Y-32810000D01*
X153935000Y-32810000D02*
X154570000Y-32810000D01*
X154570000Y-32810000D02*
X158380000Y-29000000D01*
X165985000Y-29000000D02*
X166000000Y-29015000D01*
X164730000Y-29000000D02*
X165985000Y-29000000D01*
X165180000Y-131870000D02*
X163590001Y-130280001D01*
X159330001Y-130280001D02*
X158380000Y-129330000D01*
X163590001Y-130280001D02*
X159330001Y-130280001D01*
X158380000Y-129330000D02*
X156475000Y-129330000D01*
X167255000Y-131870000D02*
X165180000Y-131870000D01*
X156475000Y-129330000D02*
X121030000Y-129330000D01*
X64415000Y-133140000D02*
X64400000Y-133125000D01*
X65670000Y-133140000D02*
X64415000Y-133140000D01*
D16*
X114846940Y-59634940D02*
X114846940Y-57696942D01*
X112819998Y-55670000D02*
X112660000Y-55670000D01*
X114846940Y-57696942D02*
X112819998Y-55670000D01*
X112660000Y-53130000D02*
X112660000Y-35350000D01*
X114796939Y-60683441D02*
X107531559Y-60683441D01*
X107531559Y-60683441D02*
X106310000Y-61905000D01*
X114846940Y-59634940D02*
X114846940Y-60633440D01*
X114846940Y-60633440D02*
X114796939Y-60683441D01*
X106310000Y-64675000D02*
X105910001Y-65074999D01*
X105910001Y-76880478D02*
X113274523Y-84245000D01*
X105910001Y-65074999D02*
X105910001Y-76880478D01*
X113274523Y-84245000D02*
X115200000Y-84245000D01*
X115200000Y-84245000D02*
X115200000Y-106470000D01*
X115200000Y-109010000D02*
X115200000Y-126155000D01*
D18*
X71385000Y-32810000D02*
X113180000Y-32810000D01*
X66490000Y-31540000D02*
X70115000Y-31540000D01*
X70115000Y-31540000D02*
X71385000Y-32810000D01*
X63145000Y-30270000D02*
X65220000Y-30270000D01*
X65220000Y-30270000D02*
X66490000Y-31540000D01*
X115720000Y-129330000D02*
X81545000Y-129330000D01*
X81545000Y-129330000D02*
X77735000Y-133140000D01*
X77735000Y-133140000D02*
X70750000Y-133140000D01*
X118490000Y-31540000D02*
X153935000Y-31540000D01*
X153935000Y-31540000D02*
X154570000Y-31540000D01*
X154570000Y-31540000D02*
X157745000Y-28365000D01*
X157745000Y-28365000D02*
X158380000Y-27730000D01*
X167270000Y-27745000D02*
X168540000Y-29015000D01*
X167270000Y-27730000D02*
X167270000Y-27745000D01*
X163590001Y-132820001D02*
X158060001Y-132820001D01*
X167255000Y-134410000D02*
X165180000Y-134410000D01*
X165180000Y-134410000D02*
X163590001Y-132820001D01*
X158060001Y-132820001D02*
X157110000Y-131870000D01*
X157110000Y-131870000D02*
X156475000Y-131870000D01*
X156475000Y-131870000D02*
X154570000Y-131870000D01*
X154570000Y-131870000D02*
X153300000Y-130600000D01*
X153300000Y-130600000D02*
X121030000Y-130600000D01*
X115720000Y-130600000D02*
X81545000Y-130600000D01*
X81545000Y-130600000D02*
X77735000Y-134410000D01*
X77735000Y-134410000D02*
X70750000Y-134410000D01*
X63130000Y-134395000D02*
X61860000Y-133125000D01*
X63130000Y-134410000D02*
X63130000Y-134395000D01*
X82815000Y-31540000D02*
X113180000Y-31540000D01*
X63145000Y-28730000D02*
X63415000Y-29000000D01*
X63145000Y-27730000D02*
X63145000Y-28730000D01*
X63415000Y-29000000D02*
X71385000Y-29000000D01*
X71385000Y-29000000D02*
X73925000Y-31540000D01*
X73925000Y-31540000D02*
X82815000Y-31540000D01*
D16*
X108850000Y-36620000D02*
X108850000Y-53130000D01*
X108850000Y-55670000D02*
X105675000Y-58845000D01*
X114846940Y-68088060D02*
X114846940Y-66945060D01*
X114565000Y-68370000D02*
X114846940Y-68088060D01*
X114565000Y-68370000D02*
X114565000Y-74085000D01*
X118490000Y-74085000D02*
X121550000Y-77145000D01*
X121550000Y-77145000D02*
X121550000Y-106470000D01*
X121550000Y-109010000D02*
X121550000Y-126790000D01*
D18*
X65220000Y-32810000D02*
X66490000Y-34080000D01*
X63145000Y-32810000D02*
X65220000Y-32810000D01*
X66490000Y-34080000D02*
X76465000Y-34080000D01*
X76465000Y-34080000D02*
X113180000Y-34080000D01*
X118490000Y-34080000D02*
X153935000Y-34080000D01*
X153935000Y-34080000D02*
X154570000Y-34080000D01*
X154570000Y-34080000D02*
X158380000Y-30270000D01*
X162205000Y-30270000D02*
X163460000Y-29015000D01*
X162190000Y-30270000D02*
X162205000Y-30270000D01*
X167255000Y-129330000D02*
X165180000Y-129330000D01*
X165180000Y-129330000D02*
X163910000Y-128060000D01*
X163910000Y-128060000D02*
X156475000Y-128060000D01*
X156475000Y-128060000D02*
X121030000Y-128060000D01*
X68195000Y-131870000D02*
X66940000Y-133125000D01*
X68210000Y-131870000D02*
X68195000Y-131870000D01*
D16*
X111549998Y-55670000D02*
X111390000Y-55670000D01*
X114196700Y-59634940D02*
X114196700Y-58316702D01*
X111390000Y-53130000D02*
X111390000Y-36620000D01*
X109449999Y-57495001D02*
X105040000Y-61905000D01*
X113374999Y-57495001D02*
X111549998Y-55670000D01*
X113374999Y-57495001D02*
X109449999Y-57495001D01*
X114196700Y-58316702D02*
X113374999Y-57495001D01*
X105040000Y-64675000D02*
X105040000Y-77260000D01*
X105040000Y-77260000D02*
X113930000Y-86150000D01*
X113930000Y-86150000D02*
X113930000Y-106470000D01*
X113930000Y-109010000D02*
X113930000Y-126155000D01*
D18*
X115720000Y-128060000D02*
X81545000Y-128060000D01*
X81545000Y-128060000D02*
X77735000Y-131870000D01*
X77735000Y-131870000D02*
X70750000Y-131870000D01*
D16*
X113546460Y-68513540D02*
X113546460Y-66945060D01*
X113295000Y-68765000D02*
X113546460Y-68513540D01*
D18*
X114080451Y-65796559D02*
X112173441Y-65796559D01*
X112173441Y-65796559D02*
X112025000Y-65945000D01*
X114196700Y-66945060D02*
X114196700Y-65912808D01*
X114196700Y-65912808D02*
X114080451Y-65796559D01*
D16*
X106822949Y-59061390D02*
X110120000Y-55764339D01*
X110120000Y-55764339D02*
X110120000Y-55670000D01*
X110120000Y-53130000D02*
X110120000Y-36620000D01*
X110120000Y-36620000D02*
X108850000Y-35350000D01*
X108850000Y-35350000D02*
X82180000Y-35350000D01*
X82180000Y-35350000D02*
X71385000Y-35350000D01*
X70750000Y-30270000D02*
X68195000Y-30270000D01*
X162205000Y-131870000D02*
X159650000Y-131870000D01*
X158380000Y-126790000D02*
X124090000Y-126790000D01*
X124090000Y-126790000D02*
X122820000Y-125520000D01*
X122820000Y-125520000D02*
X122820000Y-109010000D01*
X122820000Y-106470000D02*
X122820000Y-75990000D01*
X122820000Y-75990000D02*
X119010000Y-72180000D01*
X119010000Y-72180000D02*
X119010000Y-69640000D01*
D19*
G36*
X119646979Y-133606063D02*
G01*
X119697655Y-133667812D01*
X119697656Y-133667813D01*
X119722237Y-133697764D01*
X119752185Y-133722342D01*
X122265580Y-136235738D01*
X122290158Y-136265686D01*
X122320106Y-136290264D01*
X122320109Y-136290267D01*
X122323086Y-136292710D01*
X122409689Y-136363784D01*
X122546062Y-136436676D01*
X122694034Y-136481563D01*
X122708412Y-136482979D01*
X122809361Y-136492922D01*
X122809368Y-136492922D01*
X122847921Y-136496719D01*
X122886474Y-136492922D01*
X168576448Y-136492922D01*
X168684447Y-136654554D01*
X168891290Y-136861397D01*
X169134511Y-137023912D01*
X169404764Y-137135854D01*
X169656660Y-137185960D01*
X169536620Y-137306000D01*
X60863381Y-137306000D01*
X60743340Y-137185960D01*
X60995236Y-137135854D01*
X61265489Y-137023912D01*
X61508710Y-136861397D01*
X61715553Y-136654554D01*
X61823552Y-136492922D01*
X111323525Y-136492922D01*
X111362078Y-136496719D01*
X111400631Y-136492922D01*
X111400639Y-136492922D01*
X111515965Y-136481563D01*
X111663938Y-136436676D01*
X111800311Y-136363784D01*
X111919842Y-136265686D01*
X111944425Y-136235732D01*
X112472922Y-135707235D01*
X112472922Y-135854182D01*
X112529990Y-136141080D01*
X112641932Y-136411333D01*
X112804447Y-136654554D01*
X113011290Y-136861397D01*
X113254511Y-137023912D01*
X113524764Y-137135854D01*
X113811662Y-137192922D01*
X114104182Y-137192922D01*
X114391080Y-137135854D01*
X114661333Y-137023912D01*
X114904554Y-136861397D01*
X115111397Y-136654554D01*
X115200000Y-136521950D01*
X115288603Y-136654554D01*
X115495446Y-136861397D01*
X115738667Y-137023912D01*
X116008920Y-137135854D01*
X116295818Y-137192922D01*
X116588338Y-137192922D01*
X116875236Y-137135854D01*
X117145489Y-137023912D01*
X117388710Y-136861397D01*
X117595553Y-136654554D01*
X117758068Y-136411333D01*
X117870010Y-136141080D01*
X117927078Y-135854182D01*
X117927078Y-135561662D01*
X117889153Y-135371004D01*
X119537816Y-133722342D01*
X119567764Y-133697764D01*
X119592346Y-133667812D01*
X119643022Y-133606063D01*
X119645000Y-133603652D01*
X119646979Y-133606063D01*
G37*
X119646979Y-133606063D02*
X119697655Y-133667812D01*
X119697656Y-133667813D01*
X119722237Y-133697764D01*
X119752185Y-133722342D01*
X122265580Y-136235738D01*
X122290158Y-136265686D01*
X122320106Y-136290264D01*
X122320109Y-136290267D01*
X122323086Y-136292710D01*
X122409689Y-136363784D01*
X122546062Y-136436676D01*
X122694034Y-136481563D01*
X122708412Y-136482979D01*
X122809361Y-136492922D01*
X122809368Y-136492922D01*
X122847921Y-136496719D01*
X122886474Y-136492922D01*
X168576448Y-136492922D01*
X168684447Y-136654554D01*
X168891290Y-136861397D01*
X169134511Y-137023912D01*
X169404764Y-137135854D01*
X169656660Y-137185960D01*
X169536620Y-137306000D01*
X60863381Y-137306000D01*
X60743340Y-137185960D01*
X60995236Y-137135854D01*
X61265489Y-137023912D01*
X61508710Y-136861397D01*
X61715553Y-136654554D01*
X61823552Y-136492922D01*
X111323525Y-136492922D01*
X111362078Y-136496719D01*
X111400631Y-136492922D01*
X111400639Y-136492922D01*
X111515965Y-136481563D01*
X111663938Y-136436676D01*
X111800311Y-136363784D01*
X111919842Y-136265686D01*
X111944425Y-136235732D01*
X112472922Y-135707235D01*
X112472922Y-135854182D01*
X112529990Y-136141080D01*
X112641932Y-136411333D01*
X112804447Y-136654554D01*
X113011290Y-136861397D01*
X113254511Y-137023912D01*
X113524764Y-137135854D01*
X113811662Y-137192922D01*
X114104182Y-137192922D01*
X114391080Y-137135854D01*
X114661333Y-137023912D01*
X114904554Y-136861397D01*
X115111397Y-136654554D01*
X115200000Y-136521950D01*
X115288603Y-136654554D01*
X115495446Y-136861397D01*
X115738667Y-137023912D01*
X116008920Y-137135854D01*
X116295818Y-137192922D01*
X116588338Y-137192922D01*
X116875236Y-137135854D01*
X117145489Y-137023912D01*
X117388710Y-136861397D01*
X117595553Y-136654554D01*
X117758068Y-136411333D01*
X117870010Y-136141080D01*
X117927078Y-135854182D01*
X117927078Y-135561662D01*
X117889153Y-135371004D01*
X119537816Y-133722342D01*
X119567764Y-133697764D01*
X119592346Y-133667812D01*
X119643022Y-133606063D01*
X119645000Y-133603652D01*
X119646979Y-133606063D01*
G36*
X171436000Y-26733381D02*
G01*
X171436001Y-135406618D01*
X171315960Y-135526660D01*
X171265854Y-135274764D01*
X171153912Y-135004511D01*
X170991397Y-134761290D01*
X170784554Y-134554447D01*
X170541333Y-134391932D01*
X170271080Y-134279990D01*
X169984182Y-134222922D01*
X169691662Y-134222922D01*
X169468072Y-134267397D01*
X169468072Y-133910000D01*
X169455812Y-133785518D01*
X169419502Y-133665820D01*
X169360537Y-133555506D01*
X169281185Y-133458815D01*
X169184494Y-133379463D01*
X169074180Y-133320498D01*
X168954482Y-133284188D01*
X168830000Y-133271928D01*
X165680000Y-133271928D01*
X165555518Y-133284188D01*
X165435820Y-133320498D01*
X165374730Y-133353152D01*
X164415697Y-132394118D01*
X164418072Y-132370000D01*
X164418072Y-132359651D01*
X164523468Y-132465047D01*
X164551183Y-132498817D01*
X164584951Y-132526530D01*
X164584953Y-132526532D01*
X164652183Y-132581706D01*
X164685941Y-132609411D01*
X164839687Y-132691589D01*
X165006510Y-132742195D01*
X165136523Y-132755000D01*
X165136533Y-132755000D01*
X165177837Y-132759068D01*
X165228815Y-132821185D01*
X165325506Y-132900537D01*
X165435820Y-132959502D01*
X165555518Y-132995812D01*
X165680000Y-133008072D01*
X168830000Y-133008072D01*
X168954482Y-132995812D01*
X169074180Y-132959502D01*
X169184494Y-132900537D01*
X169281185Y-132821185D01*
X169360537Y-132724494D01*
X169419502Y-132614180D01*
X169455812Y-132494482D01*
X169468072Y-132370000D01*
X169468072Y-131370000D01*
X169455812Y-131245518D01*
X169419502Y-131125820D01*
X169360537Y-131015506D01*
X169281185Y-130918815D01*
X169184494Y-130839463D01*
X169074180Y-130780498D01*
X168954482Y-130744188D01*
X168830000Y-130731928D01*
X165680000Y-130731928D01*
X165555518Y-130744188D01*
X165435820Y-130780498D01*
X165374730Y-130813152D01*
X164415697Y-129854118D01*
X164418072Y-129830000D01*
X164418072Y-129819651D01*
X164523468Y-129925047D01*
X164551183Y-129958817D01*
X164584951Y-129986530D01*
X164584953Y-129986532D01*
X164606840Y-130004494D01*
X164685941Y-130069411D01*
X164839687Y-130151589D01*
X165006510Y-130202195D01*
X165136523Y-130215000D01*
X165136533Y-130215000D01*
X165177837Y-130219068D01*
X165228815Y-130281185D01*
X165325506Y-130360537D01*
X165435820Y-130419502D01*
X165555518Y-130455812D01*
X165680000Y-130468072D01*
X168830000Y-130468072D01*
X168954482Y-130455812D01*
X169074180Y-130419502D01*
X169184494Y-130360537D01*
X169281185Y-130281185D01*
X169360537Y-130184494D01*
X169419502Y-130074180D01*
X169455812Y-129954482D01*
X169468072Y-129830000D01*
X169468072Y-128830000D01*
X169455812Y-128705518D01*
X169419502Y-128585820D01*
X169360537Y-128475506D01*
X169281185Y-128378815D01*
X169184494Y-128299463D01*
X169074180Y-128240498D01*
X168954482Y-128204188D01*
X168830000Y-128191928D01*
X165680000Y-128191928D01*
X165555518Y-128204188D01*
X165435820Y-128240498D01*
X165374730Y-128273152D01*
X164566534Y-127464956D01*
X164538817Y-127431183D01*
X164414237Y-127328942D01*
X164418072Y-127290000D01*
X165041928Y-127290000D01*
X165054188Y-127414482D01*
X165090498Y-127534180D01*
X165149463Y-127644494D01*
X165228815Y-127741185D01*
X165325506Y-127820537D01*
X165435820Y-127879502D01*
X165555518Y-127915812D01*
X165680000Y-127928072D01*
X166969250Y-127925000D01*
X167128000Y-127766250D01*
X167128000Y-126917000D01*
X167382000Y-126917000D01*
X167382000Y-127766250D01*
X167540750Y-127925000D01*
X168830000Y-127928072D01*
X168954482Y-127915812D01*
X169074180Y-127879502D01*
X169184494Y-127820537D01*
X169281185Y-127741185D01*
X169360537Y-127644494D01*
X169419502Y-127534180D01*
X169455812Y-127414482D01*
X169468072Y-127290000D01*
X169465000Y-127075750D01*
X169306250Y-126917000D01*
X167382000Y-126917000D01*
X167128000Y-126917000D01*
X165203750Y-126917000D01*
X165045000Y-127075750D01*
X165041928Y-127290000D01*
X164418072Y-127290000D01*
X164418072Y-126290000D01*
X165041928Y-126290000D01*
X165045000Y-126504250D01*
X165203750Y-126663000D01*
X167128000Y-126663000D01*
X167128000Y-125813750D01*
X167382000Y-125813750D01*
X167382000Y-126663000D01*
X169306250Y-126663000D01*
X169465000Y-126504250D01*
X169468072Y-126290000D01*
X169455812Y-126165518D01*
X169419502Y-126045820D01*
X169360537Y-125935506D01*
X169281185Y-125838815D01*
X169184494Y-125759463D01*
X169074180Y-125700498D01*
X168954482Y-125664188D01*
X168830000Y-125651928D01*
X167540750Y-125655000D01*
X167382000Y-125813750D01*
X167128000Y-125813750D01*
X166969250Y-125655000D01*
X165680000Y-125651928D01*
X165555518Y-125664188D01*
X165435820Y-125700498D01*
X165325506Y-125759463D01*
X165228815Y-125838815D01*
X165149463Y-125935506D01*
X165090498Y-126045820D01*
X165054188Y-126165518D01*
X165041928Y-126290000D01*
X164418072Y-126290000D01*
X164405812Y-126165518D01*
X164369502Y-126045820D01*
X164310537Y-125935506D01*
X164231185Y-125838815D01*
X164134494Y-125759463D01*
X164024180Y-125700498D01*
X163904482Y-125664188D01*
X163780000Y-125651928D01*
X163340000Y-125651928D01*
X163340000Y-125345741D01*
X163345490Y-125289999D01*
X163340000Y-125234257D01*
X163340000Y-125234248D01*
X163323577Y-125067501D01*
X163258676Y-124853553D01*
X163153284Y-124656377D01*
X163011449Y-124483551D01*
X162968141Y-124448009D01*
X148009074Y-109488943D01*
X147973527Y-109445629D01*
X147800701Y-109303794D01*
X147603525Y-109198402D01*
X147389577Y-109133501D01*
X147222830Y-109117078D01*
X147222829Y-109117078D01*
X147167078Y-109111587D01*
X147111327Y-109117078D01*
X145517078Y-109117078D01*
X145517078Y-108733029D01*
X145535553Y-108714554D01*
X145698068Y-108471333D01*
X145810010Y-108201080D01*
X145867078Y-107914182D01*
X145867078Y-107621662D01*
X145810010Y-107334764D01*
X145698068Y-107064511D01*
X145535553Y-106821290D01*
X145328710Y-106614447D01*
X145085489Y-106451932D01*
X144815236Y-106339990D01*
X144528338Y-106282922D01*
X144235818Y-106282922D01*
X143948920Y-106339990D01*
X143678667Y-106451932D01*
X143435446Y-106614447D01*
X143416971Y-106632922D01*
X143032922Y-106632922D01*
X143032922Y-64958978D01*
X143038061Y-64960000D01*
X143241939Y-64960000D01*
X143441898Y-64920226D01*
X143630256Y-64842205D01*
X143799774Y-64728937D01*
X143818711Y-64710000D01*
X159324843Y-64710000D01*
X167120000Y-72505158D01*
X167120001Y-80340593D01*
X167116203Y-80379156D01*
X167131359Y-80533042D01*
X167176246Y-80681015D01*
X167192415Y-80711265D01*
X167249139Y-80817389D01*
X167269465Y-80842156D01*
X167322655Y-80906968D01*
X167322659Y-80906972D01*
X167347237Y-80936920D01*
X167377185Y-80961498D01*
X168390847Y-81975160D01*
X168352922Y-82165818D01*
X168352922Y-82458338D01*
X168409990Y-82745236D01*
X168521932Y-83015489D01*
X168684447Y-83258710D01*
X168891290Y-83465553D01*
X169134511Y-83628068D01*
X169404764Y-83740010D01*
X169691662Y-83797078D01*
X169984182Y-83797078D01*
X170271080Y-83740010D01*
X170541333Y-83628068D01*
X170784554Y-83465553D01*
X170991397Y-83258710D01*
X171153912Y-83015489D01*
X171265854Y-82745236D01*
X171322922Y-82458338D01*
X171322922Y-82165818D01*
X171265854Y-81878920D01*
X171153912Y-81608667D01*
X170991397Y-81365446D01*
X170784554Y-81158603D01*
X170651950Y-81070000D01*
X170784554Y-80981397D01*
X170991397Y-80774554D01*
X171153912Y-80531333D01*
X171265854Y-80261080D01*
X171322922Y-79974182D01*
X171322922Y-79681662D01*
X171265854Y-79394764D01*
X171153912Y-79124511D01*
X170991397Y-78881290D01*
X170784554Y-78674447D01*
X170622922Y-78566448D01*
X170622922Y-72881474D01*
X170626719Y-72842921D01*
X170622922Y-72804368D01*
X170622922Y-72804361D01*
X170611563Y-72689035D01*
X170610488Y-72685489D01*
X170601116Y-72654594D01*
X170566676Y-72541062D01*
X170493784Y-72404689D01*
X170444372Y-72344481D01*
X170420267Y-72315109D01*
X170420264Y-72315106D01*
X170395686Y-72285158D01*
X170365739Y-72260581D01*
X160232345Y-62127188D01*
X160207764Y-62097236D01*
X160088233Y-61999138D01*
X159951860Y-61926246D01*
X159803887Y-61881359D01*
X159688561Y-61870000D01*
X159688553Y-61870000D01*
X159650000Y-61866203D01*
X159611447Y-61870000D01*
X143818711Y-61870000D01*
X143799774Y-61851063D01*
X143630256Y-61737795D01*
X143441898Y-61659774D01*
X143241939Y-61620000D01*
X143038061Y-61620000D01*
X143032922Y-61621022D01*
X143032922Y-55507078D01*
X143416971Y-55507078D01*
X143435446Y-55525553D01*
X143678667Y-55688068D01*
X143948920Y-55800010D01*
X144235818Y-55857078D01*
X144528338Y-55857078D01*
X144815236Y-55800010D01*
X145085489Y-55688068D01*
X145328710Y-55525553D01*
X145535553Y-55318710D01*
X145698068Y-55075489D01*
X145810010Y-54805236D01*
X145867078Y-54518338D01*
X145867078Y-54225818D01*
X145810010Y-53938920D01*
X145698068Y-53668667D01*
X145535553Y-53425446D01*
X145517078Y-53406971D01*
X145517078Y-52853029D01*
X145535553Y-52834554D01*
X145698068Y-52591333D01*
X145810010Y-52321080D01*
X145867078Y-52034182D01*
X145867078Y-51741662D01*
X145810010Y-51454764D01*
X145698068Y-51184511D01*
X145535553Y-50941290D01*
X145517078Y-50922815D01*
X145517078Y-49573053D01*
X159781928Y-35308204D01*
X159781928Y-35640000D01*
X159794188Y-35764482D01*
X159830498Y-35884180D01*
X159889463Y-35994494D01*
X159968815Y-36091185D01*
X160065506Y-36170537D01*
X160175820Y-36229502D01*
X160295518Y-36265812D01*
X160420000Y-36278072D01*
X161420000Y-36278072D01*
X161544482Y-36265812D01*
X161664180Y-36229502D01*
X161774494Y-36170537D01*
X161871185Y-36091185D01*
X161950537Y-35994494D01*
X162009502Y-35884180D01*
X162045812Y-35764482D01*
X162058072Y-35640000D01*
X162058072Y-35109035D01*
X162088061Y-35115000D01*
X162291939Y-35115000D01*
X162321928Y-35109035D01*
X162321928Y-35640000D01*
X162334188Y-35764482D01*
X162370498Y-35884180D01*
X162429463Y-35994494D01*
X162508815Y-36091185D01*
X162605506Y-36170537D01*
X162715820Y-36229502D01*
X162835518Y-36265812D01*
X162960000Y-36278072D01*
X163960000Y-36278072D01*
X164084482Y-36265812D01*
X164204180Y-36229502D01*
X164314494Y-36170537D01*
X164411185Y-36091185D01*
X164490537Y-35994494D01*
X164549502Y-35884180D01*
X164585812Y-35764482D01*
X164598072Y-35640000D01*
X164598072Y-32490000D01*
X164861928Y-32490000D01*
X164861928Y-35640000D01*
X164874188Y-35764482D01*
X164910498Y-35884180D01*
X164969463Y-35994494D01*
X165048815Y-36091185D01*
X165145506Y-36170537D01*
X165255820Y-36229502D01*
X165375518Y-36265812D01*
X165500000Y-36278072D01*
X166500000Y-36278072D01*
X166624482Y-36265812D01*
X166744180Y-36229502D01*
X166854494Y-36170537D01*
X166951185Y-36091185D01*
X167030537Y-35994494D01*
X167089502Y-35884180D01*
X167125812Y-35764482D01*
X167138072Y-35640000D01*
X167401928Y-35640000D01*
X167414188Y-35764482D01*
X167450498Y-35884180D01*
X167509463Y-35994494D01*
X167588815Y-36091185D01*
X167685506Y-36170537D01*
X167795820Y-36229502D01*
X167915518Y-36265812D01*
X168040000Y-36278072D01*
X168254250Y-36275000D01*
X168413000Y-36116250D01*
X168413000Y-34192000D01*
X168667000Y-34192000D01*
X168667000Y-36116250D01*
X168825750Y-36275000D01*
X169040000Y-36278072D01*
X169164482Y-36265812D01*
X169284180Y-36229502D01*
X169394494Y-36170537D01*
X169491185Y-36091185D01*
X169570537Y-35994494D01*
X169629502Y-35884180D01*
X169665812Y-35764482D01*
X169678072Y-35640000D01*
X169675000Y-34350750D01*
X169516250Y-34192000D01*
X168667000Y-34192000D01*
X168413000Y-34192000D01*
X167563750Y-34192000D01*
X167405000Y-34350750D01*
X167401928Y-35640000D01*
X167138072Y-35640000D01*
X167138072Y-32490000D01*
X167401928Y-32490000D01*
X167405000Y-33779250D01*
X167563750Y-33938000D01*
X168413000Y-33938000D01*
X168413000Y-32013750D01*
X168667000Y-32013750D01*
X168667000Y-33938000D01*
X169516250Y-33938000D01*
X169675000Y-33779250D01*
X169678072Y-32490000D01*
X169665812Y-32365518D01*
X169629502Y-32245820D01*
X169570537Y-32135506D01*
X169491185Y-32038815D01*
X169394494Y-31959463D01*
X169284180Y-31900498D01*
X169164482Y-31864188D01*
X169040000Y-31851928D01*
X168825750Y-31855000D01*
X168667000Y-32013750D01*
X168413000Y-32013750D01*
X168254250Y-31855000D01*
X168040000Y-31851928D01*
X167915518Y-31864188D01*
X167795820Y-31900498D01*
X167685506Y-31959463D01*
X167588815Y-32038815D01*
X167509463Y-32135506D01*
X167450498Y-32245820D01*
X167414188Y-32365518D01*
X167401928Y-32490000D01*
X167138072Y-32490000D01*
X167125812Y-32365518D01*
X167089502Y-32245820D01*
X167030537Y-32135506D01*
X166951185Y-32038815D01*
X166854494Y-31959463D01*
X166744180Y-31900498D01*
X166624482Y-31864188D01*
X166500000Y-31851928D01*
X165500000Y-31851928D01*
X165375518Y-31864188D01*
X165255820Y-31900498D01*
X165145506Y-31959463D01*
X165048815Y-32038815D01*
X164969463Y-32135506D01*
X164910498Y-32245820D01*
X164874188Y-32365518D01*
X164861928Y-32490000D01*
X164598072Y-32490000D01*
X164585812Y-32365518D01*
X164549502Y-32245820D01*
X164490537Y-32135506D01*
X164411185Y-32038815D01*
X164314494Y-31959463D01*
X164204180Y-31900498D01*
X164084482Y-31864188D01*
X163960000Y-31851928D01*
X162960000Y-31851928D01*
X162835518Y-31864188D01*
X162715820Y-31900498D01*
X162605506Y-31959463D01*
X162508815Y-32038815D01*
X162429463Y-32135506D01*
X162370498Y-32245820D01*
X162334188Y-32365518D01*
X162321928Y-32490000D01*
X162321928Y-33050965D01*
X162291939Y-33045000D01*
X162088061Y-33045000D01*
X162058072Y-33050965D01*
X162058072Y-32490000D01*
X162045812Y-32365518D01*
X162009502Y-32245820D01*
X161950537Y-32135506D01*
X161871185Y-32038815D01*
X161774494Y-31959463D01*
X161664180Y-31900498D01*
X161544482Y-31864188D01*
X161420000Y-31851928D01*
X160420000Y-31851928D01*
X160295518Y-31864188D01*
X160175820Y-31900498D01*
X160065506Y-31959463D01*
X159968815Y-32038815D01*
X159889463Y-32135506D01*
X159830498Y-32245820D01*
X159794188Y-32365518D01*
X159781928Y-32490000D01*
X159781928Y-32930000D01*
X159475741Y-32930000D01*
X159419999Y-32924510D01*
X159364257Y-32930000D01*
X159364248Y-32930000D01*
X159197501Y-32946423D01*
X158983553Y-33011324D01*
X158786377Y-33116716D01*
X158613551Y-33258551D01*
X158578009Y-33301859D01*
X156834213Y-35045656D01*
X156757205Y-34859744D01*
X156643937Y-34690226D01*
X156499774Y-34546063D01*
X156330256Y-34432795D01*
X156141898Y-34354774D01*
X155941939Y-34315000D01*
X155738061Y-34315000D01*
X155548965Y-34352613D01*
X158625044Y-31276535D01*
X158681898Y-31265226D01*
X158870256Y-31187205D01*
X159039774Y-31073937D01*
X159183937Y-30929774D01*
X159297205Y-30760256D01*
X159367727Y-30590000D01*
X159781928Y-30590000D01*
X159794188Y-30714482D01*
X159830498Y-30834180D01*
X159889463Y-30944494D01*
X159968815Y-31041185D01*
X160065506Y-31120537D01*
X160175820Y-31179502D01*
X160295518Y-31215812D01*
X160420000Y-31228072D01*
X160634250Y-31225000D01*
X160793000Y-31066250D01*
X160793000Y-29142000D01*
X159943750Y-29142000D01*
X159785000Y-29300750D01*
X159781928Y-30590000D01*
X159367727Y-30590000D01*
X159375226Y-30571898D01*
X159415000Y-30371939D01*
X159415000Y-30168061D01*
X159375226Y-29968102D01*
X159297205Y-29779744D01*
X159200490Y-29635000D01*
X159297205Y-29490256D01*
X159375226Y-29301898D01*
X159415000Y-29101939D01*
X159415000Y-28898061D01*
X159375226Y-28698102D01*
X159297205Y-28509744D01*
X159200490Y-28365000D01*
X159297205Y-28220256D01*
X159375226Y-28031898D01*
X159415000Y-27831939D01*
X159415000Y-27628061D01*
X159375226Y-27428102D01*
X159297205Y-27239744D01*
X159282060Y-27217078D01*
X159824049Y-27217078D01*
X159794188Y-27315518D01*
X159781928Y-27440000D01*
X159785000Y-28729250D01*
X159943750Y-28888000D01*
X160793000Y-28888000D01*
X160793000Y-28868000D01*
X161047000Y-28868000D01*
X161047000Y-28888000D01*
X161896250Y-28888000D01*
X162055000Y-28729250D01*
X162058072Y-27440000D01*
X162045812Y-27315518D01*
X162015951Y-27217078D01*
X162364049Y-27217078D01*
X162334188Y-27315518D01*
X162321928Y-27440000D01*
X162321928Y-28901493D01*
X161988836Y-29234586D01*
X161896250Y-29142000D01*
X161047000Y-29142000D01*
X161047000Y-31066250D01*
X161205750Y-31225000D01*
X161420000Y-31228072D01*
X161544482Y-31215812D01*
X161664180Y-31179502D01*
X161677533Y-31172364D01*
X161699744Y-31187205D01*
X161888102Y-31265226D01*
X162088061Y-31305000D01*
X162291939Y-31305000D01*
X162491898Y-31265226D01*
X162680256Y-31187205D01*
X162702467Y-31172364D01*
X162715820Y-31179502D01*
X162835518Y-31215812D01*
X162960000Y-31228072D01*
X163960000Y-31228072D01*
X164084482Y-31215812D01*
X164204180Y-31179502D01*
X164314494Y-31120537D01*
X164411185Y-31041185D01*
X164490537Y-30944494D01*
X164549502Y-30834180D01*
X164585812Y-30714482D01*
X164598072Y-30590000D01*
X164598072Y-30029035D01*
X164628061Y-30035000D01*
X164831939Y-30035000D01*
X164861928Y-30029035D01*
X164861928Y-30590000D01*
X164874188Y-30714482D01*
X164910498Y-30834180D01*
X164969463Y-30944494D01*
X165048815Y-31041185D01*
X165145506Y-31120537D01*
X165255820Y-31179502D01*
X165375518Y-31215812D01*
X165500000Y-31228072D01*
X166500000Y-31228072D01*
X166624482Y-31215812D01*
X166744180Y-31179502D01*
X166854494Y-31120537D01*
X166951185Y-31041185D01*
X167030537Y-30944494D01*
X167089502Y-30834180D01*
X167125812Y-30714482D01*
X167138072Y-30590000D01*
X167138072Y-28864650D01*
X167401928Y-29128507D01*
X167401928Y-30590000D01*
X167414188Y-30714482D01*
X167450498Y-30834180D01*
X167509463Y-30944494D01*
X167588815Y-31041185D01*
X167685506Y-31120537D01*
X167795820Y-31179502D01*
X167915518Y-31215812D01*
X168040000Y-31228072D01*
X169040000Y-31228072D01*
X169164482Y-31215812D01*
X169284180Y-31179502D01*
X169394494Y-31120537D01*
X169491185Y-31041185D01*
X169570537Y-30944494D01*
X169629502Y-30834180D01*
X169665812Y-30714482D01*
X169678072Y-30590000D01*
X169678072Y-27914375D01*
X169691662Y-27917078D01*
X169984182Y-27917078D01*
X170271080Y-27860010D01*
X170541333Y-27748068D01*
X170784554Y-27585553D01*
X170991397Y-27378710D01*
X171153912Y-27135489D01*
X171265854Y-26865236D01*
X171315960Y-26613340D01*
X171436000Y-26733381D01*
G37*
X171436000Y-26733381D02*
X171436001Y-135406618D01*
X171315960Y-135526660D01*
X171265854Y-135274764D01*
X171153912Y-135004511D01*
X170991397Y-134761290D01*
X170784554Y-134554447D01*
X170541333Y-134391932D01*
X170271080Y-134279990D01*
X169984182Y-134222922D01*
X169691662Y-134222922D01*
X169468072Y-134267397D01*
X169468072Y-133910000D01*
X169455812Y-133785518D01*
X169419502Y-133665820D01*
X169360537Y-133555506D01*
X169281185Y-133458815D01*
X169184494Y-133379463D01*
X169074180Y-133320498D01*
X168954482Y-133284188D01*
X168830000Y-133271928D01*
X165680000Y-133271928D01*
X165555518Y-133284188D01*
X165435820Y-133320498D01*
X165374730Y-133353152D01*
X164415697Y-132394118D01*
X164418072Y-132370000D01*
X164418072Y-132359651D01*
X164523468Y-132465047D01*
X164551183Y-132498817D01*
X164584951Y-132526530D01*
X164584953Y-132526532D01*
X164652183Y-132581706D01*
X164685941Y-132609411D01*
X164839687Y-132691589D01*
X165006510Y-132742195D01*
X165136523Y-132755000D01*
X165136533Y-132755000D01*
X165177837Y-132759068D01*
X165228815Y-132821185D01*
X165325506Y-132900537D01*
X165435820Y-132959502D01*
X165555518Y-132995812D01*
X165680000Y-133008072D01*
X168830000Y-133008072D01*
X168954482Y-132995812D01*
X169074180Y-132959502D01*
X169184494Y-132900537D01*
X169281185Y-132821185D01*
X169360537Y-132724494D01*
X169419502Y-132614180D01*
X169455812Y-132494482D01*
X169468072Y-132370000D01*
X169468072Y-131370000D01*
X169455812Y-131245518D01*
X169419502Y-131125820D01*
X169360537Y-131015506D01*
X169281185Y-130918815D01*
X169184494Y-130839463D01*
X169074180Y-130780498D01*
X168954482Y-130744188D01*
X168830000Y-130731928D01*
X165680000Y-130731928D01*
X165555518Y-130744188D01*
X165435820Y-130780498D01*
X165374730Y-130813152D01*
X164415697Y-129854118D01*
X164418072Y-129830000D01*
X164418072Y-129819651D01*
X164523468Y-129925047D01*
X164551183Y-129958817D01*
X164584951Y-129986530D01*
X164584953Y-129986532D01*
X164606840Y-130004494D01*
X164685941Y-130069411D01*
X164839687Y-130151589D01*
X165006510Y-130202195D01*
X165136523Y-130215000D01*
X165136533Y-130215000D01*
X165177837Y-130219068D01*
X165228815Y-130281185D01*
X165325506Y-130360537D01*
X165435820Y-130419502D01*
X165555518Y-130455812D01*
X165680000Y-130468072D01*
X168830000Y-130468072D01*
X168954482Y-130455812D01*
X169074180Y-130419502D01*
X169184494Y-130360537D01*
X169281185Y-130281185D01*
X169360537Y-130184494D01*
X169419502Y-130074180D01*
X169455812Y-129954482D01*
X169468072Y-129830000D01*
X169468072Y-128830000D01*
X169455812Y-128705518D01*
X169419502Y-128585820D01*
X169360537Y-128475506D01*
X169281185Y-128378815D01*
X169184494Y-128299463D01*
X169074180Y-128240498D01*
X168954482Y-128204188D01*
X168830000Y-128191928D01*
X165680000Y-128191928D01*
X165555518Y-128204188D01*
X165435820Y-128240498D01*
X165374730Y-128273152D01*
X164566534Y-127464956D01*
X164538817Y-127431183D01*
X164414237Y-127328942D01*
X164418072Y-127290000D01*
X165041928Y-127290000D01*
X165054188Y-127414482D01*
X165090498Y-127534180D01*
X165149463Y-127644494D01*
X165228815Y-127741185D01*
X165325506Y-127820537D01*
X165435820Y-127879502D01*
X165555518Y-127915812D01*
X165680000Y-127928072D01*
X166969250Y-127925000D01*
X167128000Y-127766250D01*
X167128000Y-126917000D01*
X167382000Y-126917000D01*
X167382000Y-127766250D01*
X167540750Y-127925000D01*
X168830000Y-127928072D01*
X168954482Y-127915812D01*
X169074180Y-127879502D01*
X169184494Y-127820537D01*
X169281185Y-127741185D01*
X169360537Y-127644494D01*
X169419502Y-127534180D01*
X169455812Y-127414482D01*
X169468072Y-127290000D01*
X169465000Y-127075750D01*
X169306250Y-126917000D01*
X167382000Y-126917000D01*
X167128000Y-126917000D01*
X165203750Y-126917000D01*
X165045000Y-127075750D01*
X165041928Y-127290000D01*
X164418072Y-127290000D01*
X164418072Y-126290000D01*
X165041928Y-126290000D01*
X165045000Y-126504250D01*
X165203750Y-126663000D01*
X167128000Y-126663000D01*
X167128000Y-125813750D01*
X167382000Y-125813750D01*
X167382000Y-126663000D01*
X169306250Y-126663000D01*
X169465000Y-126504250D01*
X169468072Y-126290000D01*
X169455812Y-126165518D01*
X169419502Y-126045820D01*
X169360537Y-125935506D01*
X169281185Y-125838815D01*
X169184494Y-125759463D01*
X169074180Y-125700498D01*
X168954482Y-125664188D01*
X168830000Y-125651928D01*
X167540750Y-125655000D01*
X167382000Y-125813750D01*
X167128000Y-125813750D01*
X166969250Y-125655000D01*
X165680000Y-125651928D01*
X165555518Y-125664188D01*
X165435820Y-125700498D01*
X165325506Y-125759463D01*
X165228815Y-125838815D01*
X165149463Y-125935506D01*
X165090498Y-126045820D01*
X165054188Y-126165518D01*
X165041928Y-126290000D01*
X164418072Y-126290000D01*
X164405812Y-126165518D01*
X164369502Y-126045820D01*
X164310537Y-125935506D01*
X164231185Y-125838815D01*
X164134494Y-125759463D01*
X164024180Y-125700498D01*
X163904482Y-125664188D01*
X163780000Y-125651928D01*
X163340000Y-125651928D01*
X163340000Y-125345741D01*
X163345490Y-125289999D01*
X163340000Y-125234257D01*
X163340000Y-125234248D01*
X163323577Y-125067501D01*
X163258676Y-124853553D01*
X163153284Y-124656377D01*
X163011449Y-124483551D01*
X162968141Y-124448009D01*
X148009074Y-109488943D01*
X147973527Y-109445629D01*
X147800701Y-109303794D01*
X147603525Y-109198402D01*
X147389577Y-109133501D01*
X147222830Y-109117078D01*
X147222829Y-109117078D01*
X147167078Y-109111587D01*
X147111327Y-109117078D01*
X145517078Y-109117078D01*
X145517078Y-108733029D01*
X145535553Y-108714554D01*
X145698068Y-108471333D01*
X145810010Y-108201080D01*
X145867078Y-107914182D01*
X145867078Y-107621662D01*
X145810010Y-107334764D01*
X145698068Y-107064511D01*
X145535553Y-106821290D01*
X145328710Y-106614447D01*
X145085489Y-106451932D01*
X144815236Y-106339990D01*
X144528338Y-106282922D01*
X144235818Y-106282922D01*
X143948920Y-106339990D01*
X143678667Y-106451932D01*
X143435446Y-106614447D01*
X143416971Y-106632922D01*
X143032922Y-106632922D01*
X143032922Y-64958978D01*
X143038061Y-64960000D01*
X143241939Y-64960000D01*
X143441898Y-64920226D01*
X143630256Y-64842205D01*
X143799774Y-64728937D01*
X143818711Y-64710000D01*
X159324843Y-64710000D01*
X167120000Y-72505158D01*
X167120001Y-80340593D01*
X167116203Y-80379156D01*
X167131359Y-80533042D01*
X167176246Y-80681015D01*
X167192415Y-80711265D01*
X167249139Y-80817389D01*
X167269465Y-80842156D01*
X167322655Y-80906968D01*
X167322659Y-80906972D01*
X167347237Y-80936920D01*
X167377185Y-80961498D01*
X168390847Y-81975160D01*
X168352922Y-82165818D01*
X168352922Y-82458338D01*
X168409990Y-82745236D01*
X168521932Y-83015489D01*
X168684447Y-83258710D01*
X168891290Y-83465553D01*
X169134511Y-83628068D01*
X169404764Y-83740010D01*
X169691662Y-83797078D01*
X169984182Y-83797078D01*
X170271080Y-83740010D01*
X170541333Y-83628068D01*
X170784554Y-83465553D01*
X170991397Y-83258710D01*
X171153912Y-83015489D01*
X171265854Y-82745236D01*
X171322922Y-82458338D01*
X171322922Y-82165818D01*
X171265854Y-81878920D01*
X171153912Y-81608667D01*
X170991397Y-81365446D01*
X170784554Y-81158603D01*
X170651950Y-81070000D01*
X170784554Y-80981397D01*
X170991397Y-80774554D01*
X171153912Y-80531333D01*
X171265854Y-80261080D01*
X171322922Y-79974182D01*
X171322922Y-79681662D01*
X171265854Y-79394764D01*
X171153912Y-79124511D01*
X170991397Y-78881290D01*
X170784554Y-78674447D01*
X170622922Y-78566448D01*
X170622922Y-72881474D01*
X170626719Y-72842921D01*
X170622922Y-72804368D01*
X170622922Y-72804361D01*
X170611563Y-72689035D01*
X170610488Y-72685489D01*
X170601116Y-72654594D01*
X170566676Y-72541062D01*
X170493784Y-72404689D01*
X170444372Y-72344481D01*
X170420267Y-72315109D01*
X170420264Y-72315106D01*
X170395686Y-72285158D01*
X170365739Y-72260581D01*
X160232345Y-62127188D01*
X160207764Y-62097236D01*
X160088233Y-61999138D01*
X159951860Y-61926246D01*
X159803887Y-61881359D01*
X159688561Y-61870000D01*
X159688553Y-61870000D01*
X159650000Y-61866203D01*
X159611447Y-61870000D01*
X143818711Y-61870000D01*
X143799774Y-61851063D01*
X143630256Y-61737795D01*
X143441898Y-61659774D01*
X143241939Y-61620000D01*
X143038061Y-61620000D01*
X143032922Y-61621022D01*
X143032922Y-55507078D01*
X143416971Y-55507078D01*
X143435446Y-55525553D01*
X143678667Y-55688068D01*
X143948920Y-55800010D01*
X144235818Y-55857078D01*
X144528338Y-55857078D01*
X144815236Y-55800010D01*
X145085489Y-55688068D01*
X145328710Y-55525553D01*
X145535553Y-55318710D01*
X145698068Y-55075489D01*
X145810010Y-54805236D01*
X145867078Y-54518338D01*
X145867078Y-54225818D01*
X145810010Y-53938920D01*
X145698068Y-53668667D01*
X145535553Y-53425446D01*
X145517078Y-53406971D01*
X145517078Y-52853029D01*
X145535553Y-52834554D01*
X145698068Y-52591333D01*
X145810010Y-52321080D01*
X145867078Y-52034182D01*
X145867078Y-51741662D01*
X145810010Y-51454764D01*
X145698068Y-51184511D01*
X145535553Y-50941290D01*
X145517078Y-50922815D01*
X145517078Y-49573053D01*
X159781928Y-35308204D01*
X159781928Y-35640000D01*
X159794188Y-35764482D01*
X159830498Y-35884180D01*
X159889463Y-35994494D01*
X159968815Y-36091185D01*
X160065506Y-36170537D01*
X160175820Y-36229502D01*
X160295518Y-36265812D01*
X160420000Y-36278072D01*
X161420000Y-36278072D01*
X161544482Y-36265812D01*
X161664180Y-36229502D01*
X161774494Y-36170537D01*
X161871185Y-36091185D01*
X161950537Y-35994494D01*
X162009502Y-35884180D01*
X162045812Y-35764482D01*
X162058072Y-35640000D01*
X162058072Y-35109035D01*
X162088061Y-35115000D01*
X162291939Y-35115000D01*
X162321928Y-35109035D01*
X162321928Y-35640000D01*
X162334188Y-35764482D01*
X162370498Y-35884180D01*
X162429463Y-35994494D01*
X162508815Y-36091185D01*
X162605506Y-36170537D01*
X162715820Y-36229502D01*
X162835518Y-36265812D01*
X162960000Y-36278072D01*
X163960000Y-36278072D01*
X164084482Y-36265812D01*
X164204180Y-36229502D01*
X164314494Y-36170537D01*
X164411185Y-36091185D01*
X164490537Y-35994494D01*
X164549502Y-35884180D01*
X164585812Y-35764482D01*
X164598072Y-35640000D01*
X164598072Y-32490000D01*
X164861928Y-32490000D01*
X164861928Y-35640000D01*
X164874188Y-35764482D01*
X164910498Y-35884180D01*
X164969463Y-35994494D01*
X165048815Y-36091185D01*
X165145506Y-36170537D01*
X165255820Y-36229502D01*
X165375518Y-36265812D01*
X165500000Y-36278072D01*
X166500000Y-36278072D01*
X166624482Y-36265812D01*
X166744180Y-36229502D01*
X166854494Y-36170537D01*
X166951185Y-36091185D01*
X167030537Y-35994494D01*
X167089502Y-35884180D01*
X167125812Y-35764482D01*
X167138072Y-35640000D01*
X167401928Y-35640000D01*
X167414188Y-35764482D01*
X167450498Y-35884180D01*
X167509463Y-35994494D01*
X167588815Y-36091185D01*
X167685506Y-36170537D01*
X167795820Y-36229502D01*
X167915518Y-36265812D01*
X168040000Y-36278072D01*
X168254250Y-36275000D01*
X168413000Y-36116250D01*
X168413000Y-34192000D01*
X168667000Y-34192000D01*
X168667000Y-36116250D01*
X168825750Y-36275000D01*
X169040000Y-36278072D01*
X169164482Y-36265812D01*
X169284180Y-36229502D01*
X169394494Y-36170537D01*
X169491185Y-36091185D01*
X169570537Y-35994494D01*
X169629502Y-35884180D01*
X169665812Y-35764482D01*
X169678072Y-35640000D01*
X169675000Y-34350750D01*
X169516250Y-34192000D01*
X168667000Y-34192000D01*
X168413000Y-34192000D01*
X167563750Y-34192000D01*
X167405000Y-34350750D01*
X167401928Y-35640000D01*
X167138072Y-35640000D01*
X167138072Y-32490000D01*
X167401928Y-32490000D01*
X167405000Y-33779250D01*
X167563750Y-33938000D01*
X168413000Y-33938000D01*
X168413000Y-32013750D01*
X168667000Y-32013750D01*
X168667000Y-33938000D01*
X169516250Y-33938000D01*
X169675000Y-33779250D01*
X169678072Y-32490000D01*
X169665812Y-32365518D01*
X169629502Y-32245820D01*
X169570537Y-32135506D01*
X169491185Y-32038815D01*
X169394494Y-31959463D01*
X169284180Y-31900498D01*
X169164482Y-31864188D01*
X169040000Y-31851928D01*
X168825750Y-31855000D01*
X168667000Y-32013750D01*
X168413000Y-32013750D01*
X168254250Y-31855000D01*
X168040000Y-31851928D01*
X167915518Y-31864188D01*
X167795820Y-31900498D01*
X167685506Y-31959463D01*
X167588815Y-32038815D01*
X167509463Y-32135506D01*
X167450498Y-32245820D01*
X167414188Y-32365518D01*
X167401928Y-32490000D01*
X167138072Y-32490000D01*
X167125812Y-32365518D01*
X167089502Y-32245820D01*
X167030537Y-32135506D01*
X166951185Y-32038815D01*
X166854494Y-31959463D01*
X166744180Y-31900498D01*
X166624482Y-31864188D01*
X166500000Y-31851928D01*
X165500000Y-31851928D01*
X165375518Y-31864188D01*
X165255820Y-31900498D01*
X165145506Y-31959463D01*
X165048815Y-32038815D01*
X164969463Y-32135506D01*
X164910498Y-32245820D01*
X164874188Y-32365518D01*
X164861928Y-32490000D01*
X164598072Y-32490000D01*
X164585812Y-32365518D01*
X164549502Y-32245820D01*
X164490537Y-32135506D01*
X164411185Y-32038815D01*
X164314494Y-31959463D01*
X164204180Y-31900498D01*
X164084482Y-31864188D01*
X163960000Y-31851928D01*
X162960000Y-31851928D01*
X162835518Y-31864188D01*
X162715820Y-31900498D01*
X162605506Y-31959463D01*
X162508815Y-32038815D01*
X162429463Y-32135506D01*
X162370498Y-32245820D01*
X162334188Y-32365518D01*
X162321928Y-32490000D01*
X162321928Y-33050965D01*
X162291939Y-33045000D01*
X162088061Y-33045000D01*
X162058072Y-33050965D01*
X162058072Y-32490000D01*
X162045812Y-32365518D01*
X162009502Y-32245820D01*
X161950537Y-32135506D01*
X161871185Y-32038815D01*
X161774494Y-31959463D01*
X161664180Y-31900498D01*
X161544482Y-31864188D01*
X161420000Y-31851928D01*
X160420000Y-31851928D01*
X160295518Y-31864188D01*
X160175820Y-31900498D01*
X160065506Y-31959463D01*
X159968815Y-32038815D01*
X159889463Y-32135506D01*
X159830498Y-32245820D01*
X159794188Y-32365518D01*
X159781928Y-32490000D01*
X159781928Y-32930000D01*
X159475741Y-32930000D01*
X159419999Y-32924510D01*
X159364257Y-32930000D01*
X159364248Y-32930000D01*
X159197501Y-32946423D01*
X158983553Y-33011324D01*
X158786377Y-33116716D01*
X158613551Y-33258551D01*
X158578009Y-33301859D01*
X156834213Y-35045656D01*
X156757205Y-34859744D01*
X156643937Y-34690226D01*
X156499774Y-34546063D01*
X156330256Y-34432795D01*
X156141898Y-34354774D01*
X155941939Y-34315000D01*
X155738061Y-34315000D01*
X155548965Y-34352613D01*
X158625044Y-31276535D01*
X158681898Y-31265226D01*
X158870256Y-31187205D01*
X159039774Y-31073937D01*
X159183937Y-30929774D01*
X159297205Y-30760256D01*
X159367727Y-30590000D01*
X159781928Y-30590000D01*
X159794188Y-30714482D01*
X159830498Y-30834180D01*
X159889463Y-30944494D01*
X159968815Y-31041185D01*
X160065506Y-31120537D01*
X160175820Y-31179502D01*
X160295518Y-31215812D01*
X160420000Y-31228072D01*
X160634250Y-31225000D01*
X160793000Y-31066250D01*
X160793000Y-29142000D01*
X159943750Y-29142000D01*
X159785000Y-29300750D01*
X159781928Y-30590000D01*
X159367727Y-30590000D01*
X159375226Y-30571898D01*
X159415000Y-30371939D01*
X159415000Y-30168061D01*
X159375226Y-29968102D01*
X159297205Y-29779744D01*
X159200490Y-29635000D01*
X159297205Y-29490256D01*
X159375226Y-29301898D01*
X159415000Y-29101939D01*
X159415000Y-28898061D01*
X159375226Y-28698102D01*
X159297205Y-28509744D01*
X159200490Y-28365000D01*
X159297205Y-28220256D01*
X159375226Y-28031898D01*
X159415000Y-27831939D01*
X159415000Y-27628061D01*
X159375226Y-27428102D01*
X159297205Y-27239744D01*
X159282060Y-27217078D01*
X159824049Y-27217078D01*
X159794188Y-27315518D01*
X159781928Y-27440000D01*
X159785000Y-28729250D01*
X159943750Y-28888000D01*
X160793000Y-28888000D01*
X160793000Y-28868000D01*
X161047000Y-28868000D01*
X161047000Y-28888000D01*
X161896250Y-28888000D01*
X162055000Y-28729250D01*
X162058072Y-27440000D01*
X162045812Y-27315518D01*
X162015951Y-27217078D01*
X162364049Y-27217078D01*
X162334188Y-27315518D01*
X162321928Y-27440000D01*
X162321928Y-28901493D01*
X161988836Y-29234586D01*
X161896250Y-29142000D01*
X161047000Y-29142000D01*
X161047000Y-31066250D01*
X161205750Y-31225000D01*
X161420000Y-31228072D01*
X161544482Y-31215812D01*
X161664180Y-31179502D01*
X161677533Y-31172364D01*
X161699744Y-31187205D01*
X161888102Y-31265226D01*
X162088061Y-31305000D01*
X162291939Y-31305000D01*
X162491898Y-31265226D01*
X162680256Y-31187205D01*
X162702467Y-31172364D01*
X162715820Y-31179502D01*
X162835518Y-31215812D01*
X162960000Y-31228072D01*
X163960000Y-31228072D01*
X164084482Y-31215812D01*
X164204180Y-31179502D01*
X164314494Y-31120537D01*
X164411185Y-31041185D01*
X164490537Y-30944494D01*
X164549502Y-30834180D01*
X164585812Y-30714482D01*
X164598072Y-30590000D01*
X164598072Y-30029035D01*
X164628061Y-30035000D01*
X164831939Y-30035000D01*
X164861928Y-30029035D01*
X164861928Y-30590000D01*
X164874188Y-30714482D01*
X164910498Y-30834180D01*
X164969463Y-30944494D01*
X165048815Y-31041185D01*
X165145506Y-31120537D01*
X165255820Y-31179502D01*
X165375518Y-31215812D01*
X165500000Y-31228072D01*
X166500000Y-31228072D01*
X166624482Y-31215812D01*
X166744180Y-31179502D01*
X166854494Y-31120537D01*
X166951185Y-31041185D01*
X167030537Y-30944494D01*
X167089502Y-30834180D01*
X167125812Y-30714482D01*
X167138072Y-30590000D01*
X167138072Y-28864650D01*
X167401928Y-29128507D01*
X167401928Y-30590000D01*
X167414188Y-30714482D01*
X167450498Y-30834180D01*
X167509463Y-30944494D01*
X167588815Y-31041185D01*
X167685506Y-31120537D01*
X167795820Y-31179502D01*
X167915518Y-31215812D01*
X168040000Y-31228072D01*
X169040000Y-31228072D01*
X169164482Y-31215812D01*
X169284180Y-31179502D01*
X169394494Y-31120537D01*
X169491185Y-31041185D01*
X169570537Y-30944494D01*
X169629502Y-30834180D01*
X169665812Y-30714482D01*
X169678072Y-30590000D01*
X169678072Y-27914375D01*
X169691662Y-27917078D01*
X169984182Y-27917078D01*
X170271080Y-27860010D01*
X170541333Y-27748068D01*
X170784554Y-27585553D01*
X170991397Y-27378710D01*
X171153912Y-27135489D01*
X171265854Y-26865236D01*
X171315960Y-26613340D01*
X171436000Y-26733381D01*
G36*
X59134146Y-26865236D02*
G01*
X59246088Y-27135489D01*
X59408603Y-27378710D01*
X59615446Y-27585553D01*
X59858667Y-27748068D01*
X60128920Y-27860010D01*
X60415818Y-27917078D01*
X60708338Y-27917078D01*
X60931928Y-27872603D01*
X60931928Y-28230000D01*
X60944188Y-28354482D01*
X60980498Y-28474180D01*
X61039463Y-28584494D01*
X61118815Y-28681185D01*
X61215506Y-28760537D01*
X61325820Y-28819502D01*
X61445518Y-28855812D01*
X61570000Y-28868072D01*
X62269317Y-28868072D01*
X62272805Y-28903490D01*
X62323412Y-29070313D01*
X62356346Y-29131928D01*
X61570000Y-29131928D01*
X61445518Y-29144188D01*
X61325820Y-29180498D01*
X61215506Y-29239463D01*
X61118815Y-29318815D01*
X61039463Y-29415506D01*
X60980498Y-29525820D01*
X60944188Y-29645518D01*
X60931928Y-29770000D01*
X60931928Y-30770000D01*
X60944188Y-30894482D01*
X60980498Y-31014180D01*
X61039463Y-31124494D01*
X61118815Y-31221185D01*
X61215506Y-31300537D01*
X61325820Y-31359502D01*
X61445518Y-31395812D01*
X61570000Y-31408072D01*
X64720000Y-31408072D01*
X64844482Y-31395812D01*
X64964180Y-31359502D01*
X65025270Y-31326848D01*
X65833470Y-32135049D01*
X65861183Y-32168817D01*
X65894951Y-32196530D01*
X65894953Y-32196532D01*
X65955011Y-32245820D01*
X65985763Y-32271058D01*
X65981928Y-32310000D01*
X65981928Y-32320350D01*
X65876532Y-32214954D01*
X65848817Y-32181183D01*
X65714059Y-32070589D01*
X65560313Y-31988411D01*
X65393490Y-31937805D01*
X65263477Y-31925000D01*
X65263469Y-31925000D01*
X65222163Y-31920932D01*
X65171185Y-31858815D01*
X65074494Y-31779463D01*
X64964180Y-31720498D01*
X64844482Y-31684188D01*
X64720000Y-31671928D01*
X61570000Y-31671928D01*
X61445518Y-31684188D01*
X61325820Y-31720498D01*
X61215506Y-31779463D01*
X61118815Y-31858815D01*
X61039463Y-31955506D01*
X60980498Y-32065820D01*
X60944188Y-32185518D01*
X60931928Y-32310000D01*
X60931928Y-33310000D01*
X60944188Y-33434482D01*
X60980498Y-33554180D01*
X61039463Y-33664494D01*
X61118815Y-33761185D01*
X61215506Y-33840537D01*
X61325820Y-33899502D01*
X61445518Y-33935812D01*
X61570000Y-33948072D01*
X64720000Y-33948072D01*
X64844482Y-33935812D01*
X64964180Y-33899502D01*
X65025270Y-33866848D01*
X65833470Y-34675049D01*
X65861183Y-34708817D01*
X65894951Y-34736530D01*
X65894953Y-34736532D01*
X65962828Y-34792236D01*
X65985763Y-34811058D01*
X65981928Y-34850000D01*
X65981928Y-35850000D01*
X65994188Y-35974482D01*
X66030498Y-36094180D01*
X66089463Y-36204494D01*
X66168815Y-36301185D01*
X66265506Y-36380537D01*
X66375820Y-36439502D01*
X66495518Y-36475812D01*
X66620000Y-36488072D01*
X67060000Y-36488072D01*
X67060000Y-36794249D01*
X67054509Y-36850000D01*
X67060000Y-36905751D01*
X67076423Y-37072498D01*
X67141324Y-37286446D01*
X67246716Y-37483623D01*
X67388551Y-37656449D01*
X67431865Y-37691996D01*
X82390931Y-52651063D01*
X82426473Y-52694371D01*
X82599299Y-52836206D01*
X82796475Y-52941598D01*
X83010423Y-53006499D01*
X83177170Y-53022922D01*
X83177179Y-53022922D01*
X83232921Y-53028412D01*
X83288663Y-53022922D01*
X84882922Y-53022922D01*
X84882923Y-53406970D01*
X84864447Y-53425446D01*
X84701932Y-53668667D01*
X84589990Y-53938920D01*
X84532922Y-54225818D01*
X84532922Y-54518338D01*
X84589990Y-54805236D01*
X84701932Y-55075489D01*
X84864447Y-55318710D01*
X85071290Y-55525553D01*
X85314511Y-55688068D01*
X85584764Y-55800010D01*
X85871662Y-55857078D01*
X86164182Y-55857078D01*
X86451080Y-55800010D01*
X86721333Y-55688068D01*
X86964554Y-55525553D01*
X86983029Y-55507078D01*
X87368922Y-55507078D01*
X87378867Y-61623367D01*
X87361939Y-61620000D01*
X87158061Y-61620000D01*
X86958102Y-61659774D01*
X86769744Y-61737795D01*
X86600226Y-61851063D01*
X86581289Y-61870000D01*
X70788552Y-61870000D01*
X70749999Y-61866203D01*
X70711446Y-61870000D01*
X70711439Y-61870000D01*
X70610490Y-61879943D01*
X70596112Y-61881359D01*
X70561672Y-61891806D01*
X70448140Y-61926246D01*
X70311767Y-61999138D01*
X70286346Y-62020001D01*
X70222187Y-62072655D01*
X70222184Y-62072658D01*
X70192236Y-62097236D01*
X70167658Y-62127184D01*
X60034268Y-72260575D01*
X60004314Y-72285158D01*
X59906216Y-72404690D01*
X59833324Y-72541063D01*
X59788437Y-72689036D01*
X59777078Y-72804362D01*
X59777078Y-72804369D01*
X59773281Y-72842922D01*
X59777078Y-72881475D01*
X59777079Y-78566447D01*
X59615446Y-78674447D01*
X59408603Y-78881290D01*
X59246088Y-79124511D01*
X59134146Y-79394764D01*
X59077078Y-79681662D01*
X59077078Y-79974182D01*
X59134146Y-80261080D01*
X59246088Y-80531333D01*
X59408603Y-80774554D01*
X59615446Y-80981397D01*
X59748050Y-81070000D01*
X59615446Y-81158603D01*
X59408603Y-81365446D01*
X59246088Y-81608667D01*
X59134146Y-81878920D01*
X59077078Y-82165818D01*
X59077078Y-82458338D01*
X59134146Y-82745236D01*
X59246088Y-83015489D01*
X59408603Y-83258710D01*
X59615446Y-83465553D01*
X59858667Y-83628068D01*
X60128920Y-83740010D01*
X60415818Y-83797078D01*
X60708338Y-83797078D01*
X60995236Y-83740010D01*
X61265489Y-83628068D01*
X61508710Y-83465553D01*
X61715553Y-83258710D01*
X61878068Y-83015489D01*
X61990010Y-82745236D01*
X62047078Y-82458338D01*
X62047078Y-82165818D01*
X62009153Y-81975160D01*
X63022810Y-80961503D01*
X63052764Y-80936920D01*
X63150862Y-80817389D01*
X63223754Y-80681016D01*
X63224631Y-80678126D01*
X63268642Y-80533043D01*
X63276292Y-80455360D01*
X63280000Y-80417717D01*
X63280000Y-80417712D01*
X63283797Y-80379156D01*
X63280000Y-80340600D01*
X63280000Y-73140157D01*
X71710157Y-64710000D01*
X86581289Y-64710000D01*
X86600226Y-64728937D01*
X86769744Y-64842205D01*
X86958102Y-64920226D01*
X87158061Y-64960000D01*
X87361939Y-64960000D01*
X87384285Y-64955555D01*
X87395000Y-71545418D01*
X87367953Y-106632922D01*
X86983029Y-106632922D01*
X86964554Y-106614447D01*
X86721333Y-106451932D01*
X86451080Y-106339990D01*
X86164182Y-106282922D01*
X85871662Y-106282922D01*
X85584764Y-106339990D01*
X85314511Y-106451932D01*
X85071290Y-106614447D01*
X84864447Y-106821290D01*
X84701932Y-107064511D01*
X84589990Y-107334764D01*
X84532922Y-107621662D01*
X84532922Y-107914182D01*
X84589990Y-108201080D01*
X84701932Y-108471333D01*
X84864447Y-108714554D01*
X84882923Y-108733030D01*
X84882922Y-109286971D01*
X84864447Y-109305446D01*
X84701932Y-109548667D01*
X84589990Y-109818920D01*
X84532922Y-110105818D01*
X84532922Y-110398338D01*
X84589990Y-110685236D01*
X84701932Y-110955489D01*
X84864447Y-111198710D01*
X84882922Y-111217185D01*
X84882923Y-112566945D01*
X70618072Y-126831797D01*
X70618072Y-126500000D01*
X70605812Y-126375518D01*
X70569502Y-126255820D01*
X70510537Y-126145506D01*
X70431185Y-126048815D01*
X70334494Y-125969463D01*
X70224180Y-125910498D01*
X70104482Y-125874188D01*
X69980000Y-125861928D01*
X68980000Y-125861928D01*
X68855518Y-125874188D01*
X68735820Y-125910498D01*
X68625506Y-125969463D01*
X68528815Y-126048815D01*
X68449463Y-126145506D01*
X68390498Y-126255820D01*
X68354188Y-126375518D01*
X68341928Y-126500000D01*
X68341928Y-128050439D01*
X68339509Y-128075000D01*
X68341928Y-128099561D01*
X68341928Y-129650000D01*
X68354188Y-129774482D01*
X68390498Y-129894180D01*
X68449463Y-130004494D01*
X68528815Y-130101185D01*
X68625506Y-130180537D01*
X68735820Y-130239502D01*
X68855518Y-130275812D01*
X68980000Y-130288072D01*
X69980000Y-130288072D01*
X70104482Y-130275812D01*
X70224180Y-130239502D01*
X70334494Y-130180537D01*
X70431185Y-130101185D01*
X70510537Y-130004494D01*
X70569502Y-129894180D01*
X70605812Y-129774482D01*
X70618072Y-129650000D01*
X70618072Y-129210000D01*
X70924249Y-129210000D01*
X70980000Y-129215491D01*
X71035751Y-129210000D01*
X71035752Y-129210000D01*
X71202499Y-129193577D01*
X71416447Y-129128676D01*
X71613623Y-129023284D01*
X71786449Y-128881449D01*
X71821996Y-128838135D01*
X86781063Y-113879069D01*
X86824371Y-113843527D01*
X86966206Y-113670701D01*
X87071598Y-113473525D01*
X87136499Y-113259577D01*
X87152922Y-113092830D01*
X87152922Y-113092821D01*
X87158412Y-113037079D01*
X87152922Y-112981337D01*
X87152922Y-111387078D01*
X87536971Y-111387078D01*
X87555446Y-111405553D01*
X87798667Y-111568068D01*
X88068920Y-111680010D01*
X88355818Y-111737078D01*
X88648338Y-111737078D01*
X88935236Y-111680010D01*
X89205489Y-111568068D01*
X89448710Y-111405553D01*
X89655553Y-111198710D01*
X89818068Y-110955489D01*
X89930010Y-110685236D01*
X89987078Y-110398338D01*
X89987078Y-110105818D01*
X89930010Y-109818920D01*
X89818068Y-109548667D01*
X89655553Y-109305446D01*
X89637078Y-109286971D01*
X89637078Y-108902922D01*
X111626022Y-108902922D01*
X111625000Y-108908061D01*
X111625000Y-109111939D01*
X111664774Y-109311898D01*
X111742795Y-109500256D01*
X111856063Y-109669774D01*
X111875000Y-109688711D01*
X111875001Y-125194841D01*
X111064843Y-126005000D01*
X80948556Y-126005000D01*
X80910000Y-126001203D01*
X80871444Y-126005000D01*
X80871439Y-126005000D01*
X80831026Y-126008980D01*
X80756113Y-126016358D01*
X80635122Y-126053061D01*
X80608140Y-126061246D01*
X80471767Y-126134138D01*
X80352236Y-126232236D01*
X80327655Y-126262188D01*
X76774843Y-129815000D01*
X76508711Y-129815000D01*
X76489774Y-129796063D01*
X76320256Y-129682795D01*
X76131898Y-129604774D01*
X75931939Y-129565000D01*
X75728061Y-129565000D01*
X75528102Y-129604774D01*
X75339744Y-129682795D01*
X75170226Y-129796063D01*
X75026063Y-129940226D01*
X74912795Y-130109744D01*
X74834774Y-130298102D01*
X74795000Y-130498061D01*
X74795000Y-130701939D01*
X74834774Y-130901898D01*
X74869196Y-130985000D01*
X71288454Y-130985000D01*
X71240256Y-130952795D01*
X71051898Y-130874774D01*
X70851939Y-130835000D01*
X70648061Y-130835000D01*
X70448102Y-130874774D01*
X70259744Y-130952795D01*
X70237533Y-130967636D01*
X70224180Y-130960498D01*
X70104482Y-130924188D01*
X69980000Y-130911928D01*
X69765750Y-130915000D01*
X69607000Y-131073750D01*
X69607000Y-132998000D01*
X69627000Y-132998000D01*
X69627000Y-133252000D01*
X69607000Y-133252000D01*
X69607000Y-133272000D01*
X69353000Y-133272000D01*
X69353000Y-133252000D01*
X68503750Y-133252000D01*
X68345000Y-133410750D01*
X68341928Y-134700000D01*
X68354188Y-134824482D01*
X68384049Y-134922922D01*
X68035951Y-134922922D01*
X68065812Y-134824482D01*
X68078072Y-134700000D01*
X68078072Y-133238506D01*
X68411164Y-132905414D01*
X68503750Y-132998000D01*
X69353000Y-132998000D01*
X69353000Y-131073750D01*
X69194250Y-130915000D01*
X68980000Y-130911928D01*
X68855518Y-130924188D01*
X68735820Y-130960498D01*
X68722467Y-130967636D01*
X68700256Y-130952795D01*
X68584077Y-130904672D01*
X68585226Y-130901898D01*
X68625000Y-130701939D01*
X68625000Y-130498061D01*
X68585226Y-130298102D01*
X68507205Y-130109744D01*
X68393937Y-129940226D01*
X68249774Y-129796063D01*
X68080256Y-129682795D01*
X68075054Y-129680640D01*
X68078072Y-129650000D01*
X68078072Y-126500000D01*
X68065812Y-126375518D01*
X68029502Y-126255820D01*
X67970537Y-126145506D01*
X67891185Y-126048815D01*
X67794494Y-125969463D01*
X67684180Y-125910498D01*
X67564482Y-125874188D01*
X67440000Y-125861928D01*
X66440000Y-125861928D01*
X66315518Y-125874188D01*
X66195820Y-125910498D01*
X66085506Y-125969463D01*
X65988815Y-126048815D01*
X65909463Y-126145506D01*
X65850498Y-126255820D01*
X65814188Y-126375518D01*
X65801928Y-126500000D01*
X65801928Y-129650000D01*
X65814188Y-129774482D01*
X65850498Y-129894180D01*
X65909463Y-130004494D01*
X65988815Y-130101185D01*
X66085506Y-130180537D01*
X66195820Y-130239502D01*
X66208681Y-130243403D01*
X66211246Y-130251859D01*
X66284138Y-130388232D01*
X66382236Y-130507764D01*
X66412190Y-130532347D01*
X66555000Y-130675157D01*
X66555000Y-130701939D01*
X66594774Y-130901898D01*
X66598929Y-130911928D01*
X66440000Y-130911928D01*
X66315518Y-130924188D01*
X66195820Y-130960498D01*
X66085506Y-131019463D01*
X65988815Y-131098815D01*
X65909463Y-131195506D01*
X65850498Y-131305820D01*
X65814188Y-131425518D01*
X65801928Y-131550000D01*
X65801928Y-132110965D01*
X65771939Y-132105000D01*
X65568061Y-132105000D01*
X65538072Y-132110965D01*
X65538072Y-131550000D01*
X65525812Y-131425518D01*
X65489502Y-131305820D01*
X65430537Y-131195506D01*
X65351185Y-131098815D01*
X65254494Y-131019463D01*
X65144180Y-130960498D01*
X65024482Y-130924188D01*
X64900000Y-130911928D01*
X63900000Y-130911928D01*
X63775518Y-130924188D01*
X63655820Y-130960498D01*
X63545506Y-131019463D01*
X63448815Y-131098815D01*
X63369463Y-131195506D01*
X63310498Y-131305820D01*
X63274188Y-131425518D01*
X63261928Y-131550000D01*
X63261928Y-133275349D01*
X62998072Y-133011494D01*
X62998072Y-131550000D01*
X62985812Y-131425518D01*
X62949502Y-131305820D01*
X62890537Y-131195506D01*
X62811185Y-131098815D01*
X62714494Y-131019463D01*
X62604180Y-130960498D01*
X62484482Y-130924188D01*
X62360000Y-130911928D01*
X61360000Y-130911928D01*
X61235518Y-130924188D01*
X61115820Y-130960498D01*
X61005506Y-131019463D01*
X60908815Y-131098815D01*
X60829463Y-131195506D01*
X60770498Y-131305820D01*
X60734188Y-131425518D01*
X60721928Y-131550000D01*
X60721928Y-134225625D01*
X60708338Y-134222922D01*
X60415818Y-134222922D01*
X60128920Y-134279990D01*
X59858667Y-134391932D01*
X59615446Y-134554447D01*
X59408603Y-134761290D01*
X59246088Y-135004511D01*
X59134146Y-135274764D01*
X59084040Y-135526660D01*
X58964000Y-135406620D01*
X58964000Y-129650000D01*
X60721928Y-129650000D01*
X60734188Y-129774482D01*
X60770498Y-129894180D01*
X60829463Y-130004494D01*
X60908815Y-130101185D01*
X61005506Y-130180537D01*
X61115820Y-130239502D01*
X61235518Y-130275812D01*
X61360000Y-130288072D01*
X61574250Y-130285000D01*
X61733000Y-130126250D01*
X61733000Y-128202000D01*
X61987000Y-128202000D01*
X61987000Y-130126250D01*
X62145750Y-130285000D01*
X62360000Y-130288072D01*
X62484482Y-130275812D01*
X62604180Y-130239502D01*
X62714494Y-130180537D01*
X62811185Y-130101185D01*
X62890537Y-130004494D01*
X62949502Y-129894180D01*
X62985812Y-129774482D01*
X62998072Y-129650000D01*
X62995000Y-128360750D01*
X62836250Y-128202000D01*
X61987000Y-128202000D01*
X61733000Y-128202000D01*
X60883750Y-128202000D01*
X60725000Y-128360750D01*
X60721928Y-129650000D01*
X58964000Y-129650000D01*
X58964000Y-126500000D01*
X60721928Y-126500000D01*
X60725000Y-127789250D01*
X60883750Y-127948000D01*
X61733000Y-127948000D01*
X61733000Y-126023750D01*
X61987000Y-126023750D01*
X61987000Y-127948000D01*
X62836250Y-127948000D01*
X62995000Y-127789250D01*
X62998072Y-126500000D01*
X63261928Y-126500000D01*
X63261928Y-129650000D01*
X63274188Y-129774482D01*
X63310498Y-129894180D01*
X63369463Y-130004494D01*
X63448815Y-130101185D01*
X63545506Y-130180537D01*
X63655820Y-130239502D01*
X63775518Y-130275812D01*
X63900000Y-130288072D01*
X64900000Y-130288072D01*
X65024482Y-130275812D01*
X65144180Y-130239502D01*
X65254494Y-130180537D01*
X65351185Y-130101185D01*
X65430537Y-130004494D01*
X65489502Y-129894180D01*
X65525812Y-129774482D01*
X65538072Y-129650000D01*
X65538072Y-126500000D01*
X65525812Y-126375518D01*
X65489502Y-126255820D01*
X65430537Y-126145506D01*
X65351185Y-126048815D01*
X65254494Y-125969463D01*
X65144180Y-125910498D01*
X65024482Y-125874188D01*
X64900000Y-125861928D01*
X63900000Y-125861928D01*
X63775518Y-125874188D01*
X63655820Y-125910498D01*
X63545506Y-125969463D01*
X63448815Y-126048815D01*
X63369463Y-126145506D01*
X63310498Y-126255820D01*
X63274188Y-126375518D01*
X63261928Y-126500000D01*
X62998072Y-126500000D01*
X62985812Y-126375518D01*
X62949502Y-126255820D01*
X62890537Y-126145506D01*
X62811185Y-126048815D01*
X62714494Y-125969463D01*
X62604180Y-125910498D01*
X62484482Y-125874188D01*
X62360000Y-125861928D01*
X62145750Y-125865000D01*
X61987000Y-126023750D01*
X61733000Y-126023750D01*
X61574250Y-125865000D01*
X61360000Y-125861928D01*
X61235518Y-125874188D01*
X61115820Y-125910498D01*
X61005506Y-125969463D01*
X60908815Y-126048815D01*
X60829463Y-126145506D01*
X60770498Y-126255820D01*
X60734188Y-126375518D01*
X60721928Y-126500000D01*
X58964000Y-126500000D01*
X58964000Y-35850000D01*
X60931928Y-35850000D01*
X60944188Y-35974482D01*
X60980498Y-36094180D01*
X61039463Y-36204494D01*
X61118815Y-36301185D01*
X61215506Y-36380537D01*
X61325820Y-36439502D01*
X61445518Y-36475812D01*
X61570000Y-36488072D01*
X62859250Y-36485000D01*
X63018000Y-36326250D01*
X63018000Y-35477000D01*
X63272000Y-35477000D01*
X63272000Y-36326250D01*
X63430750Y-36485000D01*
X64720000Y-36488072D01*
X64844482Y-36475812D01*
X64964180Y-36439502D01*
X65074494Y-36380537D01*
X65171185Y-36301185D01*
X65250537Y-36204494D01*
X65309502Y-36094180D01*
X65345812Y-35974482D01*
X65358072Y-35850000D01*
X65355000Y-35635750D01*
X65196250Y-35477000D01*
X63272000Y-35477000D01*
X63018000Y-35477000D01*
X61093750Y-35477000D01*
X60935000Y-35635750D01*
X60931928Y-35850000D01*
X58964000Y-35850000D01*
X58964000Y-34850000D01*
X60931928Y-34850000D01*
X60935000Y-35064250D01*
X61093750Y-35223000D01*
X63018000Y-35223000D01*
X63018000Y-34373750D01*
X63272000Y-34373750D01*
X63272000Y-35223000D01*
X65196250Y-35223000D01*
X65355000Y-35064250D01*
X65358072Y-34850000D01*
X65345812Y-34725518D01*
X65309502Y-34605820D01*
X65250537Y-34495506D01*
X65171185Y-34398815D01*
X65074494Y-34319463D01*
X64964180Y-34260498D01*
X64844482Y-34224188D01*
X64720000Y-34211928D01*
X63430750Y-34215000D01*
X63272000Y-34373750D01*
X63018000Y-34373750D01*
X62859250Y-34215000D01*
X61570000Y-34211928D01*
X61445518Y-34224188D01*
X61325820Y-34260498D01*
X61215506Y-34319463D01*
X61118815Y-34398815D01*
X61039463Y-34495506D01*
X60980498Y-34605820D01*
X60944188Y-34725518D01*
X60931928Y-34850000D01*
X58964000Y-34850000D01*
X58964000Y-26733380D01*
X59084040Y-26613340D01*
X59134146Y-26865236D01*
G37*
X59134146Y-26865236D02*
X59246088Y-27135489D01*
X59408603Y-27378710D01*
X59615446Y-27585553D01*
X59858667Y-27748068D01*
X60128920Y-27860010D01*
X60415818Y-27917078D01*
X60708338Y-27917078D01*
X60931928Y-27872603D01*
X60931928Y-28230000D01*
X60944188Y-28354482D01*
X60980498Y-28474180D01*
X61039463Y-28584494D01*
X61118815Y-28681185D01*
X61215506Y-28760537D01*
X61325820Y-28819502D01*
X61445518Y-28855812D01*
X61570000Y-28868072D01*
X62269317Y-28868072D01*
X62272805Y-28903490D01*
X62323412Y-29070313D01*
X62356346Y-29131928D01*
X61570000Y-29131928D01*
X61445518Y-29144188D01*
X61325820Y-29180498D01*
X61215506Y-29239463D01*
X61118815Y-29318815D01*
X61039463Y-29415506D01*
X60980498Y-29525820D01*
X60944188Y-29645518D01*
X60931928Y-29770000D01*
X60931928Y-30770000D01*
X60944188Y-30894482D01*
X60980498Y-31014180D01*
X61039463Y-31124494D01*
X61118815Y-31221185D01*
X61215506Y-31300537D01*
X61325820Y-31359502D01*
X61445518Y-31395812D01*
X61570000Y-31408072D01*
X64720000Y-31408072D01*
X64844482Y-31395812D01*
X64964180Y-31359502D01*
X65025270Y-31326848D01*
X65833470Y-32135049D01*
X65861183Y-32168817D01*
X65894951Y-32196530D01*
X65894953Y-32196532D01*
X65955011Y-32245820D01*
X65985763Y-32271058D01*
X65981928Y-32310000D01*
X65981928Y-32320350D01*
X65876532Y-32214954D01*
X65848817Y-32181183D01*
X65714059Y-32070589D01*
X65560313Y-31988411D01*
X65393490Y-31937805D01*
X65263477Y-31925000D01*
X65263469Y-31925000D01*
X65222163Y-31920932D01*
X65171185Y-31858815D01*
X65074494Y-31779463D01*
X64964180Y-31720498D01*
X64844482Y-31684188D01*
X64720000Y-31671928D01*
X61570000Y-31671928D01*
X61445518Y-31684188D01*
X61325820Y-31720498D01*
X61215506Y-31779463D01*
X61118815Y-31858815D01*
X61039463Y-31955506D01*
X60980498Y-32065820D01*
X60944188Y-32185518D01*
X60931928Y-32310000D01*
X60931928Y-33310000D01*
X60944188Y-33434482D01*
X60980498Y-33554180D01*
X61039463Y-33664494D01*
X61118815Y-33761185D01*
X61215506Y-33840537D01*
X61325820Y-33899502D01*
X61445518Y-33935812D01*
X61570000Y-33948072D01*
X64720000Y-33948072D01*
X64844482Y-33935812D01*
X64964180Y-33899502D01*
X65025270Y-33866848D01*
X65833470Y-34675049D01*
X65861183Y-34708817D01*
X65894951Y-34736530D01*
X65894953Y-34736532D01*
X65962828Y-34792236D01*
X65985763Y-34811058D01*
X65981928Y-34850000D01*
X65981928Y-35850000D01*
X65994188Y-35974482D01*
X66030498Y-36094180D01*
X66089463Y-36204494D01*
X66168815Y-36301185D01*
X66265506Y-36380537D01*
X66375820Y-36439502D01*
X66495518Y-36475812D01*
X66620000Y-36488072D01*
X67060000Y-36488072D01*
X67060000Y-36794249D01*
X67054509Y-36850000D01*
X67060000Y-36905751D01*
X67076423Y-37072498D01*
X67141324Y-37286446D01*
X67246716Y-37483623D01*
X67388551Y-37656449D01*
X67431865Y-37691996D01*
X82390931Y-52651063D01*
X82426473Y-52694371D01*
X82599299Y-52836206D01*
X82796475Y-52941598D01*
X83010423Y-53006499D01*
X83177170Y-53022922D01*
X83177179Y-53022922D01*
X83232921Y-53028412D01*
X83288663Y-53022922D01*
X84882922Y-53022922D01*
X84882923Y-53406970D01*
X84864447Y-53425446D01*
X84701932Y-53668667D01*
X84589990Y-53938920D01*
X84532922Y-54225818D01*
X84532922Y-54518338D01*
X84589990Y-54805236D01*
X84701932Y-55075489D01*
X84864447Y-55318710D01*
X85071290Y-55525553D01*
X85314511Y-55688068D01*
X85584764Y-55800010D01*
X85871662Y-55857078D01*
X86164182Y-55857078D01*
X86451080Y-55800010D01*
X86721333Y-55688068D01*
X86964554Y-55525553D01*
X86983029Y-55507078D01*
X87368922Y-55507078D01*
X87378867Y-61623367D01*
X87361939Y-61620000D01*
X87158061Y-61620000D01*
X86958102Y-61659774D01*
X86769744Y-61737795D01*
X86600226Y-61851063D01*
X86581289Y-61870000D01*
X70788552Y-61870000D01*
X70749999Y-61866203D01*
X70711446Y-61870000D01*
X70711439Y-61870000D01*
X70610490Y-61879943D01*
X70596112Y-61881359D01*
X70561672Y-61891806D01*
X70448140Y-61926246D01*
X70311767Y-61999138D01*
X70286346Y-62020001D01*
X70222187Y-62072655D01*
X70222184Y-62072658D01*
X70192236Y-62097236D01*
X70167658Y-62127184D01*
X60034268Y-72260575D01*
X60004314Y-72285158D01*
X59906216Y-72404690D01*
X59833324Y-72541063D01*
X59788437Y-72689036D01*
X59777078Y-72804362D01*
X59777078Y-72804369D01*
X59773281Y-72842922D01*
X59777078Y-72881475D01*
X59777079Y-78566447D01*
X59615446Y-78674447D01*
X59408603Y-78881290D01*
X59246088Y-79124511D01*
X59134146Y-79394764D01*
X59077078Y-79681662D01*
X59077078Y-79974182D01*
X59134146Y-80261080D01*
X59246088Y-80531333D01*
X59408603Y-80774554D01*
X59615446Y-80981397D01*
X59748050Y-81070000D01*
X59615446Y-81158603D01*
X59408603Y-81365446D01*
X59246088Y-81608667D01*
X59134146Y-81878920D01*
X59077078Y-82165818D01*
X59077078Y-82458338D01*
X59134146Y-82745236D01*
X59246088Y-83015489D01*
X59408603Y-83258710D01*
X59615446Y-83465553D01*
X59858667Y-83628068D01*
X60128920Y-83740010D01*
X60415818Y-83797078D01*
X60708338Y-83797078D01*
X60995236Y-83740010D01*
X61265489Y-83628068D01*
X61508710Y-83465553D01*
X61715553Y-83258710D01*
X61878068Y-83015489D01*
X61990010Y-82745236D01*
X62047078Y-82458338D01*
X62047078Y-82165818D01*
X62009153Y-81975160D01*
X63022810Y-80961503D01*
X63052764Y-80936920D01*
X63150862Y-80817389D01*
X63223754Y-80681016D01*
X63224631Y-80678126D01*
X63268642Y-80533043D01*
X63276292Y-80455360D01*
X63280000Y-80417717D01*
X63280000Y-80417712D01*
X63283797Y-80379156D01*
X63280000Y-80340600D01*
X63280000Y-73140157D01*
X71710157Y-64710000D01*
X86581289Y-64710000D01*
X86600226Y-64728937D01*
X86769744Y-64842205D01*
X86958102Y-64920226D01*
X87158061Y-64960000D01*
X87361939Y-64960000D01*
X87384285Y-64955555D01*
X87395000Y-71545418D01*
X87367953Y-106632922D01*
X86983029Y-106632922D01*
X86964554Y-106614447D01*
X86721333Y-106451932D01*
X86451080Y-106339990D01*
X86164182Y-106282922D01*
X85871662Y-106282922D01*
X85584764Y-106339990D01*
X85314511Y-106451932D01*
X85071290Y-106614447D01*
X84864447Y-106821290D01*
X84701932Y-107064511D01*
X84589990Y-107334764D01*
X84532922Y-107621662D01*
X84532922Y-107914182D01*
X84589990Y-108201080D01*
X84701932Y-108471333D01*
X84864447Y-108714554D01*
X84882923Y-108733030D01*
X84882922Y-109286971D01*
X84864447Y-109305446D01*
X84701932Y-109548667D01*
X84589990Y-109818920D01*
X84532922Y-110105818D01*
X84532922Y-110398338D01*
X84589990Y-110685236D01*
X84701932Y-110955489D01*
X84864447Y-111198710D01*
X84882922Y-111217185D01*
X84882923Y-112566945D01*
X70618072Y-126831797D01*
X70618072Y-126500000D01*
X70605812Y-126375518D01*
X70569502Y-126255820D01*
X70510537Y-126145506D01*
X70431185Y-126048815D01*
X70334494Y-125969463D01*
X70224180Y-125910498D01*
X70104482Y-125874188D01*
X69980000Y-125861928D01*
X68980000Y-125861928D01*
X68855518Y-125874188D01*
X68735820Y-125910498D01*
X68625506Y-125969463D01*
X68528815Y-126048815D01*
X68449463Y-126145506D01*
X68390498Y-126255820D01*
X68354188Y-126375518D01*
X68341928Y-126500000D01*
X68341928Y-128050439D01*
X68339509Y-128075000D01*
X68341928Y-128099561D01*
X68341928Y-129650000D01*
X68354188Y-129774482D01*
X68390498Y-129894180D01*
X68449463Y-130004494D01*
X68528815Y-130101185D01*
X68625506Y-130180537D01*
X68735820Y-130239502D01*
X68855518Y-130275812D01*
X68980000Y-130288072D01*
X69980000Y-130288072D01*
X70104482Y-130275812D01*
X70224180Y-130239502D01*
X70334494Y-130180537D01*
X70431185Y-130101185D01*
X70510537Y-130004494D01*
X70569502Y-129894180D01*
X70605812Y-129774482D01*
X70618072Y-129650000D01*
X70618072Y-129210000D01*
X70924249Y-129210000D01*
X70980000Y-129215491D01*
X71035751Y-129210000D01*
X71035752Y-129210000D01*
X71202499Y-129193577D01*
X71416447Y-129128676D01*
X71613623Y-129023284D01*
X71786449Y-128881449D01*
X71821996Y-128838135D01*
X86781063Y-113879069D01*
X86824371Y-113843527D01*
X86966206Y-113670701D01*
X87071598Y-113473525D01*
X87136499Y-113259577D01*
X87152922Y-113092830D01*
X87152922Y-113092821D01*
X87158412Y-113037079D01*
X87152922Y-112981337D01*
X87152922Y-111387078D01*
X87536971Y-111387078D01*
X87555446Y-111405553D01*
X87798667Y-111568068D01*
X88068920Y-111680010D01*
X88355818Y-111737078D01*
X88648338Y-111737078D01*
X88935236Y-111680010D01*
X89205489Y-111568068D01*
X89448710Y-111405553D01*
X89655553Y-111198710D01*
X89818068Y-110955489D01*
X89930010Y-110685236D01*
X89987078Y-110398338D01*
X89987078Y-110105818D01*
X89930010Y-109818920D01*
X89818068Y-109548667D01*
X89655553Y-109305446D01*
X89637078Y-109286971D01*
X89637078Y-108902922D01*
X111626022Y-108902922D01*
X111625000Y-108908061D01*
X111625000Y-109111939D01*
X111664774Y-109311898D01*
X111742795Y-109500256D01*
X111856063Y-109669774D01*
X111875000Y-109688711D01*
X111875001Y-125194841D01*
X111064843Y-126005000D01*
X80948556Y-126005000D01*
X80910000Y-126001203D01*
X80871444Y-126005000D01*
X80871439Y-126005000D01*
X80831026Y-126008980D01*
X80756113Y-126016358D01*
X80635122Y-126053061D01*
X80608140Y-126061246D01*
X80471767Y-126134138D01*
X80352236Y-126232236D01*
X80327655Y-126262188D01*
X76774843Y-129815000D01*
X76508711Y-129815000D01*
X76489774Y-129796063D01*
X76320256Y-129682795D01*
X76131898Y-129604774D01*
X75931939Y-129565000D01*
X75728061Y-129565000D01*
X75528102Y-129604774D01*
X75339744Y-129682795D01*
X75170226Y-129796063D01*
X75026063Y-129940226D01*
X74912795Y-130109744D01*
X74834774Y-130298102D01*
X74795000Y-130498061D01*
X74795000Y-130701939D01*
X74834774Y-130901898D01*
X74869196Y-130985000D01*
X71288454Y-130985000D01*
X71240256Y-130952795D01*
X71051898Y-130874774D01*
X70851939Y-130835000D01*
X70648061Y-130835000D01*
X70448102Y-130874774D01*
X70259744Y-130952795D01*
X70237533Y-130967636D01*
X70224180Y-130960498D01*
X70104482Y-130924188D01*
X69980000Y-130911928D01*
X69765750Y-130915000D01*
X69607000Y-131073750D01*
X69607000Y-132998000D01*
X69627000Y-132998000D01*
X69627000Y-133252000D01*
X69607000Y-133252000D01*
X69607000Y-133272000D01*
X69353000Y-133272000D01*
X69353000Y-133252000D01*
X68503750Y-133252000D01*
X68345000Y-133410750D01*
X68341928Y-134700000D01*
X68354188Y-134824482D01*
X68384049Y-134922922D01*
X68035951Y-134922922D01*
X68065812Y-134824482D01*
X68078072Y-134700000D01*
X68078072Y-133238506D01*
X68411164Y-132905414D01*
X68503750Y-132998000D01*
X69353000Y-132998000D01*
X69353000Y-131073750D01*
X69194250Y-130915000D01*
X68980000Y-130911928D01*
X68855518Y-130924188D01*
X68735820Y-130960498D01*
X68722467Y-130967636D01*
X68700256Y-130952795D01*
X68584077Y-130904672D01*
X68585226Y-130901898D01*
X68625000Y-130701939D01*
X68625000Y-130498061D01*
X68585226Y-130298102D01*
X68507205Y-130109744D01*
X68393937Y-129940226D01*
X68249774Y-129796063D01*
X68080256Y-129682795D01*
X68075054Y-129680640D01*
X68078072Y-129650000D01*
X68078072Y-126500000D01*
X68065812Y-126375518D01*
X68029502Y-126255820D01*
X67970537Y-126145506D01*
X67891185Y-126048815D01*
X67794494Y-125969463D01*
X67684180Y-125910498D01*
X67564482Y-125874188D01*
X67440000Y-125861928D01*
X66440000Y-125861928D01*
X66315518Y-125874188D01*
X66195820Y-125910498D01*
X66085506Y-125969463D01*
X65988815Y-126048815D01*
X65909463Y-126145506D01*
X65850498Y-126255820D01*
X65814188Y-126375518D01*
X65801928Y-126500000D01*
X65801928Y-129650000D01*
X65814188Y-129774482D01*
X65850498Y-129894180D01*
X65909463Y-130004494D01*
X65988815Y-130101185D01*
X66085506Y-130180537D01*
X66195820Y-130239502D01*
X66208681Y-130243403D01*
X66211246Y-130251859D01*
X66284138Y-130388232D01*
X66382236Y-130507764D01*
X66412190Y-130532347D01*
X66555000Y-130675157D01*
X66555000Y-130701939D01*
X66594774Y-130901898D01*
X66598929Y-130911928D01*
X66440000Y-130911928D01*
X66315518Y-130924188D01*
X66195820Y-130960498D01*
X66085506Y-131019463D01*
X65988815Y-131098815D01*
X65909463Y-131195506D01*
X65850498Y-131305820D01*
X65814188Y-131425518D01*
X65801928Y-131550000D01*
X65801928Y-132110965D01*
X65771939Y-132105000D01*
X65568061Y-132105000D01*
X65538072Y-132110965D01*
X65538072Y-131550000D01*
X65525812Y-131425518D01*
X65489502Y-131305820D01*
X65430537Y-131195506D01*
X65351185Y-131098815D01*
X65254494Y-131019463D01*
X65144180Y-130960498D01*
X65024482Y-130924188D01*
X64900000Y-130911928D01*
X63900000Y-130911928D01*
X63775518Y-130924188D01*
X63655820Y-130960498D01*
X63545506Y-131019463D01*
X63448815Y-131098815D01*
X63369463Y-131195506D01*
X63310498Y-131305820D01*
X63274188Y-131425518D01*
X63261928Y-131550000D01*
X63261928Y-133275349D01*
X62998072Y-133011494D01*
X62998072Y-131550000D01*
X62985812Y-131425518D01*
X62949502Y-131305820D01*
X62890537Y-131195506D01*
X62811185Y-131098815D01*
X62714494Y-131019463D01*
X62604180Y-130960498D01*
X62484482Y-130924188D01*
X62360000Y-130911928D01*
X61360000Y-130911928D01*
X61235518Y-130924188D01*
X61115820Y-130960498D01*
X61005506Y-131019463D01*
X60908815Y-131098815D01*
X60829463Y-131195506D01*
X60770498Y-131305820D01*
X60734188Y-131425518D01*
X60721928Y-131550000D01*
X60721928Y-134225625D01*
X60708338Y-134222922D01*
X60415818Y-134222922D01*
X60128920Y-134279990D01*
X59858667Y-134391932D01*
X59615446Y-134554447D01*
X59408603Y-134761290D01*
X59246088Y-135004511D01*
X59134146Y-135274764D01*
X59084040Y-135526660D01*
X58964000Y-135406620D01*
X58964000Y-129650000D01*
X60721928Y-129650000D01*
X60734188Y-129774482D01*
X60770498Y-129894180D01*
X60829463Y-130004494D01*
X60908815Y-130101185D01*
X61005506Y-130180537D01*
X61115820Y-130239502D01*
X61235518Y-130275812D01*
X61360000Y-130288072D01*
X61574250Y-130285000D01*
X61733000Y-130126250D01*
X61733000Y-128202000D01*
X61987000Y-128202000D01*
X61987000Y-130126250D01*
X62145750Y-130285000D01*
X62360000Y-130288072D01*
X62484482Y-130275812D01*
X62604180Y-130239502D01*
X62714494Y-130180537D01*
X62811185Y-130101185D01*
X62890537Y-130004494D01*
X62949502Y-129894180D01*
X62985812Y-129774482D01*
X62998072Y-129650000D01*
X62995000Y-128360750D01*
X62836250Y-128202000D01*
X61987000Y-128202000D01*
X61733000Y-128202000D01*
X60883750Y-128202000D01*
X60725000Y-128360750D01*
X60721928Y-129650000D01*
X58964000Y-129650000D01*
X58964000Y-126500000D01*
X60721928Y-126500000D01*
X60725000Y-127789250D01*
X60883750Y-127948000D01*
X61733000Y-127948000D01*
X61733000Y-126023750D01*
X61987000Y-126023750D01*
X61987000Y-127948000D01*
X62836250Y-127948000D01*
X62995000Y-127789250D01*
X62998072Y-126500000D01*
X63261928Y-126500000D01*
X63261928Y-129650000D01*
X63274188Y-129774482D01*
X63310498Y-129894180D01*
X63369463Y-130004494D01*
X63448815Y-130101185D01*
X63545506Y-130180537D01*
X63655820Y-130239502D01*
X63775518Y-130275812D01*
X63900000Y-130288072D01*
X64900000Y-130288072D01*
X65024482Y-130275812D01*
X65144180Y-130239502D01*
X65254494Y-130180537D01*
X65351185Y-130101185D01*
X65430537Y-130004494D01*
X65489502Y-129894180D01*
X65525812Y-129774482D01*
X65538072Y-129650000D01*
X65538072Y-126500000D01*
X65525812Y-126375518D01*
X65489502Y-126255820D01*
X65430537Y-126145506D01*
X65351185Y-126048815D01*
X65254494Y-125969463D01*
X65144180Y-125910498D01*
X65024482Y-125874188D01*
X64900000Y-125861928D01*
X63900000Y-125861928D01*
X63775518Y-125874188D01*
X63655820Y-125910498D01*
X63545506Y-125969463D01*
X63448815Y-126048815D01*
X63369463Y-126145506D01*
X63310498Y-126255820D01*
X63274188Y-126375518D01*
X63261928Y-126500000D01*
X62998072Y-126500000D01*
X62985812Y-126375518D01*
X62949502Y-126255820D01*
X62890537Y-126145506D01*
X62811185Y-126048815D01*
X62714494Y-125969463D01*
X62604180Y-125910498D01*
X62484482Y-125874188D01*
X62360000Y-125861928D01*
X62145750Y-125865000D01*
X61987000Y-126023750D01*
X61733000Y-126023750D01*
X61574250Y-125865000D01*
X61360000Y-125861928D01*
X61235518Y-125874188D01*
X61115820Y-125910498D01*
X61005506Y-125969463D01*
X60908815Y-126048815D01*
X60829463Y-126145506D01*
X60770498Y-126255820D01*
X60734188Y-126375518D01*
X60721928Y-126500000D01*
X58964000Y-126500000D01*
X58964000Y-35850000D01*
X60931928Y-35850000D01*
X60944188Y-35974482D01*
X60980498Y-36094180D01*
X61039463Y-36204494D01*
X61118815Y-36301185D01*
X61215506Y-36380537D01*
X61325820Y-36439502D01*
X61445518Y-36475812D01*
X61570000Y-36488072D01*
X62859250Y-36485000D01*
X63018000Y-36326250D01*
X63018000Y-35477000D01*
X63272000Y-35477000D01*
X63272000Y-36326250D01*
X63430750Y-36485000D01*
X64720000Y-36488072D01*
X64844482Y-36475812D01*
X64964180Y-36439502D01*
X65074494Y-36380537D01*
X65171185Y-36301185D01*
X65250537Y-36204494D01*
X65309502Y-36094180D01*
X65345812Y-35974482D01*
X65358072Y-35850000D01*
X65355000Y-35635750D01*
X65196250Y-35477000D01*
X63272000Y-35477000D01*
X63018000Y-35477000D01*
X61093750Y-35477000D01*
X60935000Y-35635750D01*
X60931928Y-35850000D01*
X58964000Y-35850000D01*
X58964000Y-34850000D01*
X60931928Y-34850000D01*
X60935000Y-35064250D01*
X61093750Y-35223000D01*
X63018000Y-35223000D01*
X63018000Y-34373750D01*
X63272000Y-34373750D01*
X63272000Y-35223000D01*
X65196250Y-35223000D01*
X65355000Y-35064250D01*
X65358072Y-34850000D01*
X65345812Y-34725518D01*
X65309502Y-34605820D01*
X65250537Y-34495506D01*
X65171185Y-34398815D01*
X65074494Y-34319463D01*
X64964180Y-34260498D01*
X64844482Y-34224188D01*
X64720000Y-34211928D01*
X63430750Y-34215000D01*
X63272000Y-34373750D01*
X63018000Y-34373750D01*
X62859250Y-34215000D01*
X61570000Y-34211928D01*
X61445518Y-34224188D01*
X61325820Y-34260498D01*
X61215506Y-34319463D01*
X61118815Y-34398815D01*
X61039463Y-34495506D01*
X60980498Y-34605820D01*
X60944188Y-34725518D01*
X60931928Y-34850000D01*
X58964000Y-34850000D01*
X58964000Y-26733380D01*
X59084040Y-26613340D01*
X59134146Y-26865236D01*
G36*
X153913468Y-132465047D02*
G01*
X153941183Y-132498817D01*
X153974951Y-132526530D01*
X153974953Y-132526532D01*
X154042183Y-132581706D01*
X154075941Y-132609411D01*
X154229687Y-132691589D01*
X154396510Y-132742195D01*
X154526523Y-132755000D01*
X154526533Y-132755000D01*
X154569999Y-132759281D01*
X154613465Y-132755000D01*
X156743422Y-132755000D01*
X157403471Y-133415050D01*
X157431184Y-133448818D01*
X157464952Y-133476531D01*
X157464954Y-133476533D01*
X157500516Y-133505718D01*
X157565942Y-133559412D01*
X157719688Y-133641590D01*
X157886511Y-133692196D01*
X158016524Y-133705001D01*
X158016534Y-133705001D01*
X158060000Y-133709282D01*
X158103466Y-133705001D01*
X160028613Y-133705001D01*
X160004188Y-133785518D01*
X159991928Y-133910000D01*
X159995000Y-134124250D01*
X160153750Y-134283000D01*
X162078000Y-134283000D01*
X162078000Y-134263000D01*
X162332000Y-134263000D01*
X162332000Y-134283000D01*
X162352000Y-134283000D01*
X162352000Y-134537000D01*
X162332000Y-134537000D01*
X162332000Y-134557000D01*
X162078000Y-134557000D01*
X162078000Y-134537000D01*
X160153750Y-134537000D01*
X159995000Y-134695750D01*
X159991928Y-134910000D01*
X159993201Y-134922922D01*
X123173080Y-134922922D01*
X121065000Y-132814843D01*
X121065000Y-131635000D01*
X121131939Y-131635000D01*
X121331898Y-131595226D01*
X121520256Y-131517205D01*
X121568454Y-131485000D01*
X152933422Y-131485000D01*
X153913468Y-132465047D01*
G37*
X153913468Y-132465047D02*
X153941183Y-132498817D01*
X153974951Y-132526530D01*
X153974953Y-132526532D01*
X154042183Y-132581706D01*
X154075941Y-132609411D01*
X154229687Y-132691589D01*
X154396510Y-132742195D01*
X154526523Y-132755000D01*
X154526533Y-132755000D01*
X154569999Y-132759281D01*
X154613465Y-132755000D01*
X156743422Y-132755000D01*
X157403471Y-133415050D01*
X157431184Y-133448818D01*
X157464952Y-133476531D01*
X157464954Y-133476533D01*
X157500516Y-133505718D01*
X157565942Y-133559412D01*
X157719688Y-133641590D01*
X157886511Y-133692196D01*
X158016524Y-133705001D01*
X158016534Y-133705001D01*
X158060000Y-133709282D01*
X158103466Y-133705001D01*
X160028613Y-133705001D01*
X160004188Y-133785518D01*
X159991928Y-133910000D01*
X159995000Y-134124250D01*
X160153750Y-134283000D01*
X162078000Y-134283000D01*
X162078000Y-134263000D01*
X162332000Y-134263000D01*
X162332000Y-134283000D01*
X162352000Y-134283000D01*
X162352000Y-134537000D01*
X162332000Y-134537000D01*
X162332000Y-134557000D01*
X162078000Y-134557000D01*
X162078000Y-134537000D01*
X160153750Y-134537000D01*
X159995000Y-134695750D01*
X159991928Y-134910000D01*
X159993201Y-134922922D01*
X123173080Y-134922922D01*
X121065000Y-132814843D01*
X121065000Y-131635000D01*
X121131939Y-131635000D01*
X121331898Y-131595226D01*
X121520256Y-131517205D01*
X121568454Y-131485000D01*
X152933422Y-131485000D01*
X153913468Y-132465047D01*
G36*
X115229744Y-131517205D02*
G01*
X115418102Y-131595226D01*
X115598695Y-131631148D01*
X115509843Y-131720000D01*
X114603556Y-131720000D01*
X114565000Y-131716203D01*
X114526444Y-131720000D01*
X114526439Y-131720000D01*
X114486026Y-131723980D01*
X114411113Y-131731358D01*
X114263140Y-131776246D01*
X114126767Y-131849138D01*
X114007236Y-131947236D01*
X113982655Y-131977188D01*
X111036921Y-134922922D01*
X78473656Y-134922922D01*
X81911579Y-131485000D01*
X115181546Y-131485000D01*
X115229744Y-131517205D01*
G37*
X115229744Y-131517205D02*
X115418102Y-131595226D01*
X115598695Y-131631148D01*
X115509843Y-131720000D01*
X114603556Y-131720000D01*
X114565000Y-131716203D01*
X114526444Y-131720000D01*
X114526439Y-131720000D01*
X114486026Y-131723980D01*
X114411113Y-131731358D01*
X114263140Y-131776246D01*
X114126767Y-131849138D01*
X114007236Y-131947236D01*
X113982655Y-131977188D01*
X111036921Y-134922922D01*
X78473656Y-134922922D01*
X81911579Y-131485000D01*
X115181546Y-131485000D01*
X115229744Y-131517205D01*
G36*
X140762922Y-109286971D02*
G01*
X140744447Y-109305446D01*
X140581932Y-109548667D01*
X140469990Y-109818920D01*
X140412922Y-110105818D01*
X140412922Y-110398338D01*
X140469990Y-110685236D01*
X140581932Y-110955489D01*
X140744447Y-111198710D01*
X140951290Y-111405553D01*
X141194511Y-111568068D01*
X141464764Y-111680010D01*
X141751662Y-111737078D01*
X142044182Y-111737078D01*
X142331080Y-111680010D01*
X142601333Y-111568068D01*
X142844554Y-111405553D01*
X142863029Y-111387078D01*
X143416971Y-111387078D01*
X143435446Y-111405553D01*
X143678667Y-111568068D01*
X143948920Y-111680010D01*
X144235818Y-111737078D01*
X144528338Y-111737078D01*
X144815236Y-111680010D01*
X145085489Y-111568068D01*
X145328710Y-111405553D01*
X145347185Y-111387078D01*
X146696947Y-111387078D01*
X160961796Y-125651928D01*
X160630000Y-125651928D01*
X160505518Y-125664188D01*
X160385820Y-125700498D01*
X160275506Y-125759463D01*
X160178815Y-125838815D01*
X160099463Y-125935506D01*
X160040498Y-126045820D01*
X160004188Y-126165518D01*
X159991928Y-126290000D01*
X159991928Y-127175000D01*
X159340804Y-127175000D01*
X159375226Y-127091898D01*
X159415000Y-126891939D01*
X159415000Y-126688061D01*
X159375226Y-126488102D01*
X159297205Y-126299744D01*
X159183937Y-126130226D01*
X159039774Y-125986063D01*
X158870256Y-125872795D01*
X158681898Y-125794774D01*
X158481939Y-125755000D01*
X158278061Y-125755000D01*
X158078102Y-125794774D01*
X157889744Y-125872795D01*
X157720226Y-125986063D01*
X157701289Y-126005000D01*
X124415158Y-126005000D01*
X123605000Y-125194843D01*
X123605000Y-109688711D01*
X123623937Y-109669774D01*
X123737205Y-109500256D01*
X123815226Y-109311898D01*
X123855000Y-109111939D01*
X123855000Y-108908061D01*
X123853978Y-108902922D01*
X140762923Y-108902922D01*
X140762922Y-109286971D01*
G37*
X140762922Y-109286971D02*
X140744447Y-109305446D01*
X140581932Y-109548667D01*
X140469990Y-109818920D01*
X140412922Y-110105818D01*
X140412922Y-110398338D01*
X140469990Y-110685236D01*
X140581932Y-110955489D01*
X140744447Y-111198710D01*
X140951290Y-111405553D01*
X141194511Y-111568068D01*
X141464764Y-111680010D01*
X141751662Y-111737078D01*
X142044182Y-111737078D01*
X142331080Y-111680010D01*
X142601333Y-111568068D01*
X142844554Y-111405553D01*
X142863029Y-111387078D01*
X143416971Y-111387078D01*
X143435446Y-111405553D01*
X143678667Y-111568068D01*
X143948920Y-111680010D01*
X144235818Y-111737078D01*
X144528338Y-111737078D01*
X144815236Y-111680010D01*
X145085489Y-111568068D01*
X145328710Y-111405553D01*
X145347185Y-111387078D01*
X146696947Y-111387078D01*
X160961796Y-125651928D01*
X160630000Y-125651928D01*
X160505518Y-125664188D01*
X160385820Y-125700498D01*
X160275506Y-125759463D01*
X160178815Y-125838815D01*
X160099463Y-125935506D01*
X160040498Y-126045820D01*
X160004188Y-126165518D01*
X159991928Y-126290000D01*
X159991928Y-127175000D01*
X159340804Y-127175000D01*
X159375226Y-127091898D01*
X159415000Y-126891939D01*
X159415000Y-126688061D01*
X159375226Y-126488102D01*
X159297205Y-126299744D01*
X159183937Y-126130226D01*
X159039774Y-125986063D01*
X158870256Y-125872795D01*
X158681898Y-125794774D01*
X158481939Y-125755000D01*
X158278061Y-125755000D01*
X158078102Y-125794774D01*
X157889744Y-125872795D01*
X157720226Y-125986063D01*
X157701289Y-126005000D01*
X124415158Y-126005000D01*
X123605000Y-125194843D01*
X123605000Y-109688711D01*
X123623937Y-109669774D01*
X123737205Y-109500256D01*
X123815226Y-109311898D01*
X123855000Y-109111939D01*
X123855000Y-108908061D01*
X123853978Y-108902922D01*
X140762923Y-108902922D01*
X140762922Y-109286971D01*
G36*
X139940226Y-64728937D02*
G01*
X140109744Y-64842205D01*
X140298102Y-64920226D01*
X140498061Y-64960000D01*
X140701939Y-64960000D01*
X140762922Y-64947870D01*
X140762923Y-105228005D01*
X140762922Y-105228015D01*
X140762923Y-106632922D01*
X123842870Y-106632922D01*
X123855000Y-106571939D01*
X123855000Y-106368061D01*
X123815226Y-106168102D01*
X123737205Y-105979744D01*
X123623937Y-105810226D01*
X123605000Y-105791289D01*
X123605000Y-76028556D01*
X123608797Y-75990000D01*
X123605000Y-75951444D01*
X123605000Y-75951439D01*
X123597300Y-75873262D01*
X123593642Y-75836113D01*
X123548754Y-75688140D01*
X123532055Y-75656898D01*
X123475862Y-75551767D01*
X123377764Y-75432236D01*
X123347810Y-75407653D01*
X119795000Y-71854843D01*
X119795000Y-70318711D01*
X119813937Y-70299774D01*
X119927205Y-70130256D01*
X120005226Y-69941898D01*
X120045000Y-69741939D01*
X120045000Y-69538061D01*
X120005226Y-69338102D01*
X119927205Y-69149744D01*
X119813937Y-68980226D01*
X119669774Y-68836063D01*
X119583716Y-68778561D01*
X120459218Y-68778561D01*
X120497771Y-68782358D01*
X120536324Y-68778561D01*
X120536332Y-68778561D01*
X120651658Y-68767202D01*
X120799631Y-68722315D01*
X120936004Y-68649423D01*
X121055535Y-68551325D01*
X121080118Y-68521371D01*
X122712817Y-66888673D01*
X122742764Y-66864096D01*
X122777672Y-66821562D01*
X122818699Y-66771570D01*
X122840862Y-66744565D01*
X122913754Y-66608192D01*
X122937158Y-66531040D01*
X122958641Y-66460220D01*
X122963896Y-66406867D01*
X122970000Y-66344893D01*
X122970000Y-66344886D01*
X122973797Y-66306333D01*
X122970000Y-66267780D01*
X122970000Y-65520157D01*
X123780158Y-64710000D01*
X139921289Y-64710000D01*
X139940226Y-64728937D01*
G37*
X139940226Y-64728937D02*
X140109744Y-64842205D01*
X140298102Y-64920226D01*
X140498061Y-64960000D01*
X140701939Y-64960000D01*
X140762922Y-64947870D01*
X140762923Y-105228005D01*
X140762922Y-105228015D01*
X140762923Y-106632922D01*
X123842870Y-106632922D01*
X123855000Y-106571939D01*
X123855000Y-106368061D01*
X123815226Y-106168102D01*
X123737205Y-105979744D01*
X123623937Y-105810226D01*
X123605000Y-105791289D01*
X123605000Y-76028556D01*
X123608797Y-75990000D01*
X123605000Y-75951444D01*
X123605000Y-75951439D01*
X123597300Y-75873262D01*
X123593642Y-75836113D01*
X123548754Y-75688140D01*
X123532055Y-75656898D01*
X123475862Y-75551767D01*
X123377764Y-75432236D01*
X123347810Y-75407653D01*
X119795000Y-71854843D01*
X119795000Y-70318711D01*
X119813937Y-70299774D01*
X119927205Y-70130256D01*
X120005226Y-69941898D01*
X120045000Y-69741939D01*
X120045000Y-69538061D01*
X120005226Y-69338102D01*
X119927205Y-69149744D01*
X119813937Y-68980226D01*
X119669774Y-68836063D01*
X119583716Y-68778561D01*
X120459218Y-68778561D01*
X120497771Y-68782358D01*
X120536324Y-68778561D01*
X120536332Y-68778561D01*
X120651658Y-68767202D01*
X120799631Y-68722315D01*
X120936004Y-68649423D01*
X121055535Y-68551325D01*
X121080118Y-68521371D01*
X122712817Y-66888673D01*
X122742764Y-66864096D01*
X122777672Y-66821562D01*
X122818699Y-66771570D01*
X122840862Y-66744565D01*
X122913754Y-66608192D01*
X122937158Y-66531040D01*
X122958641Y-66460220D01*
X122963896Y-66406867D01*
X122970000Y-66344893D01*
X122970000Y-66344886D01*
X122973797Y-66306333D01*
X122970000Y-66267780D01*
X122970000Y-65520157D01*
X123780158Y-64710000D01*
X139921289Y-64710000D01*
X139940226Y-64728937D01*
G36*
X102529744Y-72462205D02*
G01*
X102718102Y-72540226D01*
X102918061Y-72580000D01*
X102985001Y-72580000D01*
X102985001Y-77221437D01*
X102981203Y-77260000D01*
X102996359Y-77413886D01*
X103041246Y-77561859D01*
X103068472Y-77612795D01*
X103114139Y-77698233D01*
X103136979Y-77726063D01*
X103187655Y-77787812D01*
X103187659Y-77787816D01*
X103212237Y-77817764D01*
X103242185Y-77842342D01*
X111875000Y-86475157D01*
X111875001Y-105791288D01*
X111856063Y-105810226D01*
X111742795Y-105979744D01*
X111664774Y-106168102D01*
X111625000Y-106368061D01*
X111625000Y-106571939D01*
X111637130Y-106632922D01*
X89637953Y-106632922D01*
X89664318Y-72430000D01*
X102481546Y-72430000D01*
X102529744Y-72462205D01*
G37*
X102529744Y-72462205D02*
X102718102Y-72540226D01*
X102918061Y-72580000D01*
X102985001Y-72580000D01*
X102985001Y-77221437D01*
X102981203Y-77260000D01*
X102996359Y-77413886D01*
X103041246Y-77561859D01*
X103068472Y-77612795D01*
X103114139Y-77698233D01*
X103136979Y-77726063D01*
X103187655Y-77787812D01*
X103187659Y-77787816D01*
X103212237Y-77817764D01*
X103242185Y-77842342D01*
X111875000Y-86475157D01*
X111875001Y-105791288D01*
X111856063Y-105810226D01*
X111742795Y-105979744D01*
X111664774Y-106168102D01*
X111625000Y-106368061D01*
X111625000Y-106571939D01*
X111637130Y-106632922D01*
X89637953Y-106632922D01*
X89664318Y-72430000D01*
X102481546Y-72430000D01*
X102529744Y-72462205D01*
G36*
X113422000Y-70388000D02*
G01*
X113442000Y-70388000D01*
X113442000Y-70642000D01*
X113422000Y-70642000D01*
X113422000Y-71516250D01*
X113580750Y-71675000D01*
X113770000Y-71678072D01*
X113780001Y-71677087D01*
X113780001Y-73406288D01*
X113761063Y-73425226D01*
X113647795Y-73594744D01*
X113569774Y-73783102D01*
X113530000Y-73983061D01*
X113530000Y-74186939D01*
X113569774Y-74386898D01*
X113647795Y-74575256D01*
X113761063Y-74744774D01*
X113905226Y-74888937D01*
X114074744Y-75002205D01*
X114263102Y-75080226D01*
X114463061Y-75120000D01*
X114666939Y-75120000D01*
X114712181Y-75111001D01*
X114712181Y-76998627D01*
X114708383Y-77037190D01*
X114708598Y-77039374D01*
X114684990Y-77158061D01*
X114684990Y-77361939D01*
X114724764Y-77561898D01*
X114800608Y-77745000D01*
X111152278Y-77745000D01*
X109635000Y-76227723D01*
X109635000Y-72580000D01*
X109701939Y-72580000D01*
X109901898Y-72540226D01*
X110090256Y-72462205D01*
X110259774Y-72348937D01*
X110403937Y-72204774D01*
X110517205Y-72035256D01*
X110595226Y-71846898D01*
X110606535Y-71790043D01*
X111643507Y-70753072D01*
X111917500Y-70753072D01*
X112088316Y-70736248D01*
X112252567Y-70686423D01*
X112335673Y-70642002D01*
X112343748Y-70642002D01*
X112185000Y-70800750D01*
X112181928Y-71040000D01*
X112194188Y-71164482D01*
X112230498Y-71284180D01*
X112289463Y-71394494D01*
X112368815Y-71491185D01*
X112465506Y-71570537D01*
X112575820Y-71629502D01*
X112695518Y-71665812D01*
X112820000Y-71678072D01*
X113009250Y-71675000D01*
X113168000Y-71516250D01*
X113168000Y-70642000D01*
X113148000Y-70642000D01*
X113148000Y-70388000D01*
X113168000Y-70388000D01*
X113168000Y-70368000D01*
X113422000Y-70368000D01*
X113422000Y-70388000D01*
G37*
X113422000Y-70388000D02*
X113442000Y-70388000D01*
X113442000Y-70642000D01*
X113422000Y-70642000D01*
X113422000Y-71516250D01*
X113580750Y-71675000D01*
X113770000Y-71678072D01*
X113780001Y-71677087D01*
X113780001Y-73406288D01*
X113761063Y-73425226D01*
X113647795Y-73594744D01*
X113569774Y-73783102D01*
X113530000Y-73983061D01*
X113530000Y-74186939D01*
X113569774Y-74386898D01*
X113647795Y-74575256D01*
X113761063Y-74744774D01*
X113905226Y-74888937D01*
X114074744Y-75002205D01*
X114263102Y-75080226D01*
X114463061Y-75120000D01*
X114666939Y-75120000D01*
X114712181Y-75111001D01*
X114712181Y-76998627D01*
X114708383Y-77037190D01*
X114708598Y-77039374D01*
X114684990Y-77158061D01*
X114684990Y-77361939D01*
X114724764Y-77561898D01*
X114800608Y-77745000D01*
X111152278Y-77745000D01*
X109635000Y-76227723D01*
X109635000Y-72580000D01*
X109701939Y-72580000D01*
X109901898Y-72540226D01*
X110090256Y-72462205D01*
X110259774Y-72348937D01*
X110403937Y-72204774D01*
X110517205Y-72035256D01*
X110595226Y-71846898D01*
X110606535Y-71790043D01*
X111643507Y-70753072D01*
X111917500Y-70753072D01*
X112088316Y-70736248D01*
X112252567Y-70686423D01*
X112335673Y-70642002D01*
X112343748Y-70642002D01*
X112185000Y-70800750D01*
X112181928Y-71040000D01*
X112194188Y-71164482D01*
X112230498Y-71284180D01*
X112289463Y-71394494D01*
X112368815Y-71491185D01*
X112465506Y-71570537D01*
X112575820Y-71629502D01*
X112695518Y-71665812D01*
X112820000Y-71678072D01*
X113009250Y-71675000D01*
X113168000Y-71516250D01*
X113168000Y-70642000D01*
X113148000Y-70642000D01*
X113148000Y-70388000D01*
X113168000Y-70388000D01*
X113168000Y-70368000D01*
X113422000Y-70368000D01*
X113422000Y-70388000D01*
G36*
X102735000Y-64776939D02*
G01*
X102774774Y-64976898D01*
X102852795Y-65165256D01*
X102966063Y-65334774D01*
X102985000Y-65353711D01*
X102985000Y-70510000D01*
X102918061Y-70510000D01*
X102718102Y-70549774D01*
X102529744Y-70627795D01*
X102481546Y-70660000D01*
X89663562Y-70660000D01*
X89654280Y-64951292D01*
X89698061Y-64960000D01*
X89901939Y-64960000D01*
X90101898Y-64920226D01*
X90290256Y-64842205D01*
X90459774Y-64728937D01*
X90478711Y-64710000D01*
X102735000Y-64710000D01*
X102735000Y-64776939D01*
G37*
X102735000Y-64776939D02*
X102774774Y-64976898D01*
X102852795Y-65165256D01*
X102966063Y-65334774D01*
X102985000Y-65353711D01*
X102985000Y-70510000D01*
X102918061Y-70510000D01*
X102718102Y-70549774D01*
X102529744Y-70627795D01*
X102481546Y-70660000D01*
X89663562Y-70660000D01*
X89654280Y-64951292D01*
X89698061Y-64960000D01*
X89901939Y-64960000D01*
X90101898Y-64920226D01*
X90290256Y-64842205D01*
X90459774Y-64728937D01*
X90478711Y-64710000D01*
X102735000Y-64710000D01*
X102735000Y-64776939D01*
G36*
X110007000Y-66973000D02*
G01*
X110027000Y-66973000D01*
X110027000Y-67227000D01*
X110007000Y-67227000D01*
X110007000Y-68051250D01*
X110165750Y-68210000D01*
X110405000Y-68213072D01*
X110529482Y-68200812D01*
X110649180Y-68164502D01*
X110745000Y-68113284D01*
X110745001Y-68626716D01*
X110649180Y-68575498D01*
X110529482Y-68539188D01*
X110405000Y-68526928D01*
X110165750Y-68530000D01*
X110007000Y-68688750D01*
X110007000Y-69513000D01*
X110027000Y-69513000D01*
X110027000Y-69767000D01*
X110007000Y-69767000D01*
X110007000Y-69787000D01*
X109753000Y-69787000D01*
X109753000Y-69767000D01*
X109733000Y-69767000D01*
X109733000Y-69513000D01*
X109753000Y-69513000D01*
X109753000Y-68688750D01*
X109635000Y-68570750D01*
X109635000Y-68169250D01*
X109753000Y-68051250D01*
X109753000Y-67227000D01*
X109733000Y-67227000D01*
X109733000Y-66973000D01*
X109753000Y-66973000D01*
X109753000Y-66953000D01*
X110007000Y-66953000D01*
X110007000Y-66973000D01*
G37*
X110007000Y-66973000D02*
X110027000Y-66973000D01*
X110027000Y-67227000D01*
X110007000Y-67227000D01*
X110007000Y-68051250D01*
X110165750Y-68210000D01*
X110405000Y-68213072D01*
X110529482Y-68200812D01*
X110649180Y-68164502D01*
X110745000Y-68113284D01*
X110745001Y-68626716D01*
X110649180Y-68575498D01*
X110529482Y-68539188D01*
X110405000Y-68526928D01*
X110165750Y-68530000D01*
X110007000Y-68688750D01*
X110007000Y-69513000D01*
X110027000Y-69513000D01*
X110027000Y-69767000D01*
X110007000Y-69767000D01*
X110007000Y-69787000D01*
X109753000Y-69787000D01*
X109753000Y-69767000D01*
X109733000Y-69767000D01*
X109733000Y-69513000D01*
X109753000Y-69513000D01*
X109753000Y-68688750D01*
X109635000Y-68570750D01*
X109635000Y-68169250D01*
X109753000Y-68051250D01*
X109753000Y-67227000D01*
X109733000Y-67227000D01*
X109733000Y-66973000D01*
X109753000Y-66973000D01*
X109753000Y-66953000D01*
X110007000Y-66953000D01*
X110007000Y-66973000D01*
G36*
X121482993Y-63182810D02*
G01*
X121507576Y-63212764D01*
X121627107Y-63310862D01*
X121763480Y-63383754D01*
X121911453Y-63428642D01*
X121986366Y-63436020D01*
X122026779Y-63440000D01*
X122026784Y-63440000D01*
X122065340Y-63443797D01*
X122103896Y-63440000D01*
X122829842Y-63440000D01*
X121657185Y-64612658D01*
X121627237Y-64637236D01*
X121602659Y-64667184D01*
X121602655Y-64667188D01*
X121576842Y-64698641D01*
X121529139Y-64756767D01*
X121520388Y-64773140D01*
X121456246Y-64893141D01*
X121411359Y-65041114D01*
X121396203Y-65195000D01*
X121400001Y-65233562D01*
X121400000Y-65981174D01*
X120855842Y-66525332D01*
X120855842Y-66246560D01*
X120843582Y-66122078D01*
X120828780Y-66073282D01*
X120828780Y-65985116D01*
X120832577Y-65946560D01*
X120828780Y-65908004D01*
X120828780Y-65907999D01*
X120823538Y-65854774D01*
X120817422Y-65792673D01*
X120772534Y-65644700D01*
X120766404Y-65633232D01*
X120699642Y-65508327D01*
X120601544Y-65388796D01*
X120571590Y-65364213D01*
X118156013Y-62948636D01*
X119702416Y-61402233D01*
X121482993Y-63182810D01*
G37*
X121482993Y-63182810D02*
X121507576Y-63212764D01*
X121627107Y-63310862D01*
X121763480Y-63383754D01*
X121911453Y-63428642D01*
X121986366Y-63436020D01*
X122026779Y-63440000D01*
X122026784Y-63440000D01*
X122065340Y-63443797D01*
X122103896Y-63440000D01*
X122829842Y-63440000D01*
X121657185Y-64612658D01*
X121627237Y-64637236D01*
X121602659Y-64667184D01*
X121602655Y-64667188D01*
X121576842Y-64698641D01*
X121529139Y-64756767D01*
X121520388Y-64773140D01*
X121456246Y-64893141D01*
X121411359Y-65041114D01*
X121396203Y-65195000D01*
X121400001Y-65233562D01*
X121400000Y-65981174D01*
X120855842Y-66525332D01*
X120855842Y-66246560D01*
X120843582Y-66122078D01*
X120828780Y-66073282D01*
X120828780Y-65985116D01*
X120832577Y-65946560D01*
X120828780Y-65908004D01*
X120828780Y-65907999D01*
X120823538Y-65854774D01*
X120817422Y-65792673D01*
X120772534Y-65644700D01*
X120766404Y-65633232D01*
X120699642Y-65508327D01*
X120601544Y-65388796D01*
X120571590Y-65364213D01*
X118156013Y-62948636D01*
X119702416Y-61402233D01*
X121482993Y-63182810D01*
G36*
X107815000Y-55568061D02*
G01*
X107815000Y-55594842D01*
X105599843Y-57810000D01*
X105573061Y-57810000D01*
X105373102Y-57849774D01*
X105184744Y-57927795D01*
X105015226Y-58041063D01*
X104871063Y-58185226D01*
X104757795Y-58354744D01*
X104679774Y-58543102D01*
X104640000Y-58743061D01*
X104640000Y-58946939D01*
X104679774Y-59146898D01*
X104757795Y-59335256D01*
X104854510Y-59480000D01*
X104757795Y-59624744D01*
X104679774Y-59813102D01*
X104661905Y-59902937D01*
X103694843Y-60870000D01*
X103668061Y-60870000D01*
X103468102Y-60909774D01*
X103279744Y-60987795D01*
X103110226Y-61101063D01*
X102966063Y-61245226D01*
X102852795Y-61414744D01*
X102774774Y-61603102D01*
X102735000Y-61803061D01*
X102735000Y-61870000D01*
X90478711Y-61870000D01*
X90459774Y-61851063D01*
X90290256Y-61737795D01*
X90101898Y-61659774D01*
X89901939Y-61620000D01*
X89698061Y-61620000D01*
X89648879Y-61629783D01*
X89638924Y-55507078D01*
X107827130Y-55507078D01*
X107815000Y-55568061D01*
G37*
X107815000Y-55568061D02*
X107815000Y-55594842D01*
X105599843Y-57810000D01*
X105573061Y-57810000D01*
X105373102Y-57849774D01*
X105184744Y-57927795D01*
X105015226Y-58041063D01*
X104871063Y-58185226D01*
X104757795Y-58354744D01*
X104679774Y-58543102D01*
X104640000Y-58743061D01*
X104640000Y-58946939D01*
X104679774Y-59146898D01*
X104757795Y-59335256D01*
X104854510Y-59480000D01*
X104757795Y-59624744D01*
X104679774Y-59813102D01*
X104661905Y-59902937D01*
X103694843Y-60870000D01*
X103668061Y-60870000D01*
X103468102Y-60909774D01*
X103279744Y-60987795D01*
X103110226Y-61101063D01*
X102966063Y-61245226D01*
X102852795Y-61414744D01*
X102774774Y-61603102D01*
X102735000Y-61803061D01*
X102735000Y-61870000D01*
X90478711Y-61870000D01*
X90459774Y-61851063D01*
X90290256Y-61737795D01*
X90101898Y-61659774D01*
X89901939Y-61620000D01*
X89698061Y-61620000D01*
X89648879Y-61629783D01*
X89638924Y-55507078D01*
X107827130Y-55507078D01*
X107815000Y-55568061D01*
G36*
X140762922Y-61632130D02*
G01*
X140701939Y-61620000D01*
X140498061Y-61620000D01*
X140298102Y-61659774D01*
X140109744Y-61737795D01*
X139940226Y-61851063D01*
X139921289Y-61870000D01*
X122390497Y-61870000D01*
X120855671Y-60335174D01*
X120855842Y-60333440D01*
X120855842Y-58936440D01*
X120843582Y-58811958D01*
X120807272Y-58692260D01*
X120748307Y-58581946D01*
X120668955Y-58485255D01*
X120572264Y-58405903D01*
X120461950Y-58346938D01*
X120342252Y-58310628D01*
X120217770Y-58298368D01*
X119869790Y-58298368D01*
X119745308Y-58310628D01*
X119718660Y-58318712D01*
X119692012Y-58310628D01*
X119567530Y-58298368D01*
X119410000Y-58298368D01*
X119410000Y-58108061D01*
X119370226Y-57908102D01*
X119292205Y-57719744D01*
X119178937Y-57550226D01*
X119160000Y-57531289D01*
X119160000Y-56695440D01*
X119311898Y-56665226D01*
X119500256Y-56587205D01*
X119669774Y-56473937D01*
X119813937Y-56329774D01*
X119927205Y-56160256D01*
X120005226Y-55971898D01*
X120045000Y-55771939D01*
X120045000Y-55568061D01*
X120032870Y-55507078D01*
X140762922Y-55507078D01*
X140762922Y-61632130D01*
G37*
X140762922Y-61632130D02*
X140701939Y-61620000D01*
X140498061Y-61620000D01*
X140298102Y-61659774D01*
X140109744Y-61737795D01*
X139940226Y-61851063D01*
X139921289Y-61870000D01*
X122390497Y-61870000D01*
X120855671Y-60335174D01*
X120855842Y-60333440D01*
X120855842Y-58936440D01*
X120843582Y-58811958D01*
X120807272Y-58692260D01*
X120748307Y-58581946D01*
X120668955Y-58485255D01*
X120572264Y-58405903D01*
X120461950Y-58346938D01*
X120342252Y-58310628D01*
X120217770Y-58298368D01*
X119869790Y-58298368D01*
X119745308Y-58310628D01*
X119718660Y-58318712D01*
X119692012Y-58310628D01*
X119567530Y-58298368D01*
X119410000Y-58298368D01*
X119410000Y-58108061D01*
X119370226Y-57908102D01*
X119292205Y-57719744D01*
X119178937Y-57550226D01*
X119160000Y-57531289D01*
X119160000Y-56695440D01*
X119311898Y-56665226D01*
X119500256Y-56587205D01*
X119669774Y-56473937D01*
X119813937Y-56329774D01*
X119927205Y-56160256D01*
X120005226Y-55971898D01*
X120045000Y-55771939D01*
X120045000Y-55568061D01*
X120032870Y-55507078D01*
X140762922Y-55507078D01*
X140762922Y-61632130D01*
G36*
X112087230Y-59349190D02*
G01*
X112245980Y-59507940D01*
X112734398Y-59507940D01*
X112734398Y-59761940D01*
X112245980Y-59761940D01*
X112109479Y-59898441D01*
X109360157Y-59898441D01*
X110130766Y-59127832D01*
X112085585Y-59127832D01*
X112087230Y-59349190D01*
G37*
X112087230Y-59349190D02*
X112245980Y-59507940D01*
X112734398Y-59507940D01*
X112734398Y-59761940D01*
X112245980Y-59761940D01*
X112109479Y-59898441D01*
X109360157Y-59898441D01*
X110130766Y-59127832D01*
X112085585Y-59127832D01*
X112087230Y-59349190D01*
G36*
X70467795Y-35840256D02*
G01*
X70581063Y-36009774D01*
X70725226Y-36153937D01*
X70894744Y-36267205D01*
X71083102Y-36345226D01*
X71283061Y-36385000D01*
X71486939Y-36385000D01*
X71686898Y-36345226D01*
X71875256Y-36267205D01*
X72044774Y-36153937D01*
X72063711Y-36135000D01*
X107930618Y-36135000D01*
X107854774Y-36318102D01*
X107815000Y-36518061D01*
X107815000Y-36721939D01*
X107854774Y-36921898D01*
X107932795Y-37110256D01*
X108046063Y-37279774D01*
X108065000Y-37298711D01*
X108065001Y-52451288D01*
X108046063Y-52470226D01*
X107932795Y-52639744D01*
X107854774Y-52828102D01*
X107815000Y-53028061D01*
X107815000Y-53231939D01*
X107816022Y-53237078D01*
X89637078Y-53237078D01*
X89637078Y-52853029D01*
X89655553Y-52834554D01*
X89818068Y-52591333D01*
X89930010Y-52321080D01*
X89987078Y-52034182D01*
X89987078Y-51741662D01*
X89930010Y-51454764D01*
X89818068Y-51184511D01*
X89655553Y-50941290D01*
X89448710Y-50734447D01*
X89205489Y-50571932D01*
X88935236Y-50459990D01*
X88648338Y-50402922D01*
X88355818Y-50402922D01*
X88068920Y-50459990D01*
X87798667Y-50571932D01*
X87555446Y-50734447D01*
X87536971Y-50752922D01*
X86983029Y-50752922D01*
X86964554Y-50734447D01*
X86721333Y-50571932D01*
X86451080Y-50459990D01*
X86164182Y-50402922D01*
X85871662Y-50402922D01*
X85584764Y-50459990D01*
X85314511Y-50571932D01*
X85071290Y-50734447D01*
X85052815Y-50752922D01*
X83703054Y-50752922D01*
X69438203Y-36488072D01*
X69770000Y-36488072D01*
X69894482Y-36475812D01*
X70014180Y-36439502D01*
X70124494Y-36380537D01*
X70221185Y-36301185D01*
X70300537Y-36204494D01*
X70359502Y-36094180D01*
X70395812Y-35974482D01*
X70408072Y-35850000D01*
X70408072Y-35696073D01*
X70467795Y-35840256D01*
G37*
X70467795Y-35840256D02*
X70581063Y-36009774D01*
X70725226Y-36153937D01*
X70894744Y-36267205D01*
X71083102Y-36345226D01*
X71283061Y-36385000D01*
X71486939Y-36385000D01*
X71686898Y-36345226D01*
X71875256Y-36267205D01*
X72044774Y-36153937D01*
X72063711Y-36135000D01*
X107930618Y-36135000D01*
X107854774Y-36318102D01*
X107815000Y-36518061D01*
X107815000Y-36721939D01*
X107854774Y-36921898D01*
X107932795Y-37110256D01*
X108046063Y-37279774D01*
X108065000Y-37298711D01*
X108065001Y-52451288D01*
X108046063Y-52470226D01*
X107932795Y-52639744D01*
X107854774Y-52828102D01*
X107815000Y-53028061D01*
X107815000Y-53231939D01*
X107816022Y-53237078D01*
X89637078Y-53237078D01*
X89637078Y-52853029D01*
X89655553Y-52834554D01*
X89818068Y-52591333D01*
X89930010Y-52321080D01*
X89987078Y-52034182D01*
X89987078Y-51741662D01*
X89930010Y-51454764D01*
X89818068Y-51184511D01*
X89655553Y-50941290D01*
X89448710Y-50734447D01*
X89205489Y-50571932D01*
X88935236Y-50459990D01*
X88648338Y-50402922D01*
X88355818Y-50402922D01*
X88068920Y-50459990D01*
X87798667Y-50571932D01*
X87555446Y-50734447D01*
X87536971Y-50752922D01*
X86983029Y-50752922D01*
X86964554Y-50734447D01*
X86721333Y-50571932D01*
X86451080Y-50459990D01*
X86164182Y-50402922D01*
X85871662Y-50402922D01*
X85584764Y-50459990D01*
X85314511Y-50571932D01*
X85071290Y-50734447D01*
X85052815Y-50752922D01*
X83703054Y-50752922D01*
X69438203Y-36488072D01*
X69770000Y-36488072D01*
X69894482Y-36475812D01*
X70014180Y-36439502D01*
X70124494Y-36380537D01*
X70221185Y-36301185D01*
X70300537Y-36204494D01*
X70359502Y-36094180D01*
X70395812Y-35974482D01*
X70408072Y-35850000D01*
X70408072Y-35696073D01*
X70467795Y-35840256D01*
G36*
X155180226Y-36153937D02*
G01*
X155349744Y-36267205D01*
X155535656Y-36344213D01*
X143618938Y-48260931D01*
X143575630Y-48296473D01*
X143433795Y-48469299D01*
X143377462Y-48574692D01*
X143328402Y-48666476D01*
X143263501Y-48880424D01*
X143241587Y-49102922D01*
X143247079Y-49158683D01*
X143247078Y-50752922D01*
X142863029Y-50752922D01*
X142844554Y-50734447D01*
X142601333Y-50571932D01*
X142331080Y-50459990D01*
X142044182Y-50402922D01*
X141751662Y-50402922D01*
X141464764Y-50459990D01*
X141194511Y-50571932D01*
X140951290Y-50734447D01*
X140744447Y-50941290D01*
X140581932Y-51184511D01*
X140469990Y-51454764D01*
X140412922Y-51741662D01*
X140412922Y-52034182D01*
X140469990Y-52321080D01*
X140581932Y-52591333D01*
X140744447Y-52834554D01*
X140762922Y-52853029D01*
X140762923Y-53237078D01*
X120043978Y-53237078D01*
X120045000Y-53231939D01*
X120045000Y-53028061D01*
X120005226Y-52828102D01*
X119927205Y-52639744D01*
X119813937Y-52470226D01*
X119795000Y-52451289D01*
X119795000Y-36310157D01*
X119970157Y-36135000D01*
X155161289Y-36135000D01*
X155180226Y-36153937D01*
G37*
X155180226Y-36153937D02*
X155349744Y-36267205D01*
X155535656Y-36344213D01*
X143618938Y-48260931D01*
X143575630Y-48296473D01*
X143433795Y-48469299D01*
X143377462Y-48574692D01*
X143328402Y-48666476D01*
X143263501Y-48880424D01*
X143241587Y-49102922D01*
X143247079Y-49158683D01*
X143247078Y-50752922D01*
X142863029Y-50752922D01*
X142844554Y-50734447D01*
X142601333Y-50571932D01*
X142331080Y-50459990D01*
X142044182Y-50402922D01*
X141751662Y-50402922D01*
X141464764Y-50459990D01*
X141194511Y-50571932D01*
X140951290Y-50734447D01*
X140744447Y-50941290D01*
X140581932Y-51184511D01*
X140469990Y-51454764D01*
X140412922Y-51741662D01*
X140412922Y-52034182D01*
X140469990Y-52321080D01*
X140581932Y-52591333D01*
X140744447Y-52834554D01*
X140762922Y-52853029D01*
X140762923Y-53237078D01*
X120043978Y-53237078D01*
X120045000Y-53231939D01*
X120045000Y-53028061D01*
X120005226Y-52828102D01*
X119927205Y-52639744D01*
X119813937Y-52470226D01*
X119795000Y-52451289D01*
X119795000Y-36310157D01*
X119970157Y-36135000D01*
X155161289Y-36135000D01*
X155180226Y-36153937D01*
G36*
X65981928Y-27230000D02*
G01*
X65985000Y-27444250D01*
X66143750Y-27603000D01*
X68068000Y-27603000D01*
X68068000Y-27583000D01*
X68322000Y-27583000D01*
X68322000Y-27603000D01*
X70246250Y-27603000D01*
X70405000Y-27444250D01*
X70408072Y-27230000D01*
X70406799Y-27217078D01*
X111671921Y-27217078D01*
X113145001Y-28690158D01*
X113145001Y-30505000D01*
X113078061Y-30505000D01*
X112878102Y-30544774D01*
X112689744Y-30622795D01*
X112641546Y-30655000D01*
X74291579Y-30655000D01*
X72041532Y-28404954D01*
X72013817Y-28371183D01*
X71879059Y-28260589D01*
X71725313Y-28178411D01*
X71558490Y-28127805D01*
X71428477Y-28115000D01*
X71428469Y-28115000D01*
X71385000Y-28110719D01*
X71341531Y-28115000D01*
X70406423Y-28115000D01*
X70405000Y-28015750D01*
X70246250Y-27857000D01*
X68322000Y-27857000D01*
X68322000Y-27877000D01*
X68068000Y-27877000D01*
X68068000Y-27857000D01*
X66143750Y-27857000D01*
X65985000Y-28015750D01*
X65983577Y-28115000D01*
X65358072Y-28115000D01*
X65358072Y-27230000D01*
X65356799Y-27217078D01*
X65983201Y-27217078D01*
X65981928Y-27230000D01*
G37*
X65981928Y-27230000D02*
X65985000Y-27444250D01*
X66143750Y-27603000D01*
X68068000Y-27603000D01*
X68068000Y-27583000D01*
X68322000Y-27583000D01*
X68322000Y-27603000D01*
X70246250Y-27603000D01*
X70405000Y-27444250D01*
X70408072Y-27230000D01*
X70406799Y-27217078D01*
X111671921Y-27217078D01*
X113145001Y-28690158D01*
X113145001Y-30505000D01*
X113078061Y-30505000D01*
X112878102Y-30544774D01*
X112689744Y-30622795D01*
X112641546Y-30655000D01*
X74291579Y-30655000D01*
X72041532Y-28404954D01*
X72013817Y-28371183D01*
X71879059Y-28260589D01*
X71725313Y-28178411D01*
X71558490Y-28127805D01*
X71428477Y-28115000D01*
X71428469Y-28115000D01*
X71385000Y-28110719D01*
X71341531Y-28115000D01*
X70406423Y-28115000D01*
X70405000Y-28015750D01*
X70246250Y-27857000D01*
X68322000Y-27857000D01*
X68322000Y-27877000D01*
X68068000Y-27877000D01*
X68068000Y-27857000D01*
X66143750Y-27857000D01*
X65985000Y-28015750D01*
X65983577Y-28115000D01*
X65358072Y-28115000D01*
X65358072Y-27230000D01*
X65356799Y-27217078D01*
X65983201Y-27217078D01*
X65981928Y-27230000D01*
G36*
X157462795Y-27239744D02*
G01*
X157384774Y-27428102D01*
X157373465Y-27484957D01*
X157149958Y-27708464D01*
X157149953Y-27708468D01*
X154203422Y-30655000D01*
X119028454Y-30655000D01*
X118980256Y-30622795D01*
X118791898Y-30544774D01*
X118591939Y-30505000D01*
X118525000Y-30505000D01*
X118525000Y-28690157D01*
X119998079Y-27217078D01*
X157477940Y-27217078D01*
X157462795Y-27239744D01*
G37*
X157462795Y-27239744D02*
X157384774Y-27428102D01*
X157373465Y-27484957D01*
X157149958Y-27708464D01*
X157149953Y-27708468D01*
X154203422Y-30655000D01*
X119028454Y-30655000D01*
X118980256Y-30622795D01*
X118791898Y-30544774D01*
X118591939Y-30505000D01*
X118525000Y-30505000D01*
X118525000Y-28690157D01*
X119998079Y-27217078D01*
X157477940Y-27217078D01*
X157462795Y-27239744D01*
G36*
X169656660Y-24954040D02*
G01*
X169404764Y-25004146D01*
X169134511Y-25116088D01*
X168891290Y-25278603D01*
X168684447Y-25485446D01*
X168576448Y-25647078D01*
X119711478Y-25647078D01*
X119672922Y-25643281D01*
X119634366Y-25647078D01*
X119634361Y-25647078D01*
X119593948Y-25651058D01*
X119519035Y-25658436D01*
X119371062Y-25703324D01*
X119234689Y-25776216D01*
X119115158Y-25874314D01*
X119090575Y-25904268D01*
X117255000Y-27739843D01*
X117255000Y-27674895D01*
X117388710Y-27585553D01*
X117595553Y-27378710D01*
X117758068Y-27135489D01*
X117870010Y-26865236D01*
X117927078Y-26578338D01*
X117927078Y-26285818D01*
X117870010Y-25998920D01*
X117758068Y-25728667D01*
X117595553Y-25485446D01*
X117388710Y-25278603D01*
X117145489Y-25116088D01*
X116875236Y-25004146D01*
X116588338Y-24947078D01*
X116295818Y-24947078D01*
X116008920Y-25004146D01*
X115738667Y-25116088D01*
X115495446Y-25278603D01*
X115288603Y-25485446D01*
X115200000Y-25618050D01*
X115111397Y-25485446D01*
X114904554Y-25278603D01*
X114661333Y-25116088D01*
X114391080Y-25004146D01*
X114104182Y-24947078D01*
X113811662Y-24947078D01*
X113524764Y-25004146D01*
X113254511Y-25116088D01*
X113011290Y-25278603D01*
X112804447Y-25485446D01*
X112641932Y-25728667D01*
X112572627Y-25895985D01*
X112554842Y-25874314D01*
X112435311Y-25776216D01*
X112298938Y-25703324D01*
X112150965Y-25658437D01*
X112035639Y-25647078D01*
X112035631Y-25647078D01*
X111997078Y-25643281D01*
X111958525Y-25647078D01*
X61823552Y-25647078D01*
X61715553Y-25485446D01*
X61508710Y-25278603D01*
X61265489Y-25116088D01*
X60995236Y-25004146D01*
X60743340Y-24954040D01*
X60863381Y-24834000D01*
X169536620Y-24834000D01*
X169656660Y-24954040D01*
G37*
X169656660Y-24954040D02*
X169404764Y-25004146D01*
X169134511Y-25116088D01*
X168891290Y-25278603D01*
X168684447Y-25485446D01*
X168576448Y-25647078D01*
X119711478Y-25647078D01*
X119672922Y-25643281D01*
X119634366Y-25647078D01*
X119634361Y-25647078D01*
X119593948Y-25651058D01*
X119519035Y-25658436D01*
X119371062Y-25703324D01*
X119234689Y-25776216D01*
X119115158Y-25874314D01*
X119090575Y-25904268D01*
X117255000Y-27739843D01*
X117255000Y-27674895D01*
X117388710Y-27585553D01*
X117595553Y-27378710D01*
X117758068Y-27135489D01*
X117870010Y-26865236D01*
X117927078Y-26578338D01*
X117927078Y-26285818D01*
X117870010Y-25998920D01*
X117758068Y-25728667D01*
X117595553Y-25485446D01*
X117388710Y-25278603D01*
X117145489Y-25116088D01*
X116875236Y-25004146D01*
X116588338Y-24947078D01*
X116295818Y-24947078D01*
X116008920Y-25004146D01*
X115738667Y-25116088D01*
X115495446Y-25278603D01*
X115288603Y-25485446D01*
X115200000Y-25618050D01*
X115111397Y-25485446D01*
X114904554Y-25278603D01*
X114661333Y-25116088D01*
X114391080Y-25004146D01*
X114104182Y-24947078D01*
X113811662Y-24947078D01*
X113524764Y-25004146D01*
X113254511Y-25116088D01*
X113011290Y-25278603D01*
X112804447Y-25485446D01*
X112641932Y-25728667D01*
X112572627Y-25895985D01*
X112554842Y-25874314D01*
X112435311Y-25776216D01*
X112298938Y-25703324D01*
X112150965Y-25658437D01*
X112035639Y-25647078D01*
X112035631Y-25647078D01*
X111997078Y-25643281D01*
X111958525Y-25647078D01*
X61823552Y-25647078D01*
X61715553Y-25485446D01*
X61508710Y-25278603D01*
X61265489Y-25116088D01*
X60995236Y-25004146D01*
X60743340Y-24954040D01*
X60863381Y-24834000D01*
X169536620Y-24834000D01*
X169656660Y-24954040D01*
M02*
