G04 #@! TF.GenerationSoftware,KiCad,Pcbnew,(5.1.5)-3*
G04 #@! TF.CreationDate,2021-04-02T02:22:22+08:00*
G04 #@! TF.ProjectId,FilamentLEDWall,46696c61-6d65-46e7-944c-454457616c6c,rev?*
G04 #@! TF.SameCoordinates,Original*
G04 #@! TF.FileFunction,Copper,L1,Top*
G04 #@! TF.FilePolarity,Positive*
%FSLAX46Y46*%
G04 Gerber Fmt 4.6, Leading zero omitted, Abs format (unit mm)*
G04 Created by KiCad (PCBNEW (5.1.5)-3) date 2021-04-02 02:22:22*
%MOMM*%
%LPD*%
G04 APERTURE LIST*
%ADD10C,1.700000*%
%ADD11C,0.800000*%
%ADD12C,0.500000*%
%ADD13C,0.300000*%
%ADD14C,0.254000*%
G04 APERTURE END LIST*
D10*
X113957922Y-26432078D03*
X88502078Y-51887922D03*
X60562078Y-135707922D03*
X86017922Y-110252078D03*
X169837922Y-135707922D03*
X144382078Y-110252078D03*
X116442078Y-135707922D03*
X141897922Y-110252078D03*
X113957922Y-135707922D03*
X88502078Y-110252078D03*
X169837922Y-82312078D03*
X144382078Y-107767922D03*
X116442078Y-82312078D03*
X141897922Y-107767922D03*
X113957922Y-82312078D03*
X88502078Y-107767922D03*
X60562078Y-82312078D03*
X86017922Y-107767922D03*
X169837922Y-79827922D03*
X144382078Y-54372078D03*
X116442078Y-79827922D03*
X141897922Y-54372078D03*
X113957922Y-79827922D03*
X88502078Y-54372078D03*
X60562078Y-79827922D03*
X86017922Y-54372078D03*
X169837922Y-26432078D03*
X144382078Y-51887922D03*
X116442078Y-26432078D03*
X141897922Y-51887922D03*
X60562078Y-26432078D03*
X86017922Y-51887922D03*
D11*
X65670000Y-27730000D03*
X70750000Y-125520000D03*
X73290000Y-122980000D03*
X75830000Y-120440000D03*
X78370000Y-117900000D03*
X80910000Y-115360000D03*
X83450000Y-112820000D03*
X162190000Y-122980000D03*
X159650000Y-120440000D03*
X157110000Y-117900000D03*
X154570000Y-115360000D03*
X152030000Y-112820000D03*
X149490000Y-110280000D03*
X159650000Y-36620000D03*
X157110000Y-39160000D03*
X154570000Y-41700000D03*
X152030000Y-44240000D03*
X149490000Y-46780000D03*
X146950000Y-49320000D03*
X159650000Y-125520000D03*
X157110000Y-122980000D03*
X154570000Y-120440000D03*
X146950000Y-112820000D03*
X149490000Y-115360000D03*
X85990000Y-115360000D03*
X83450000Y-117900000D03*
X80910000Y-120440000D03*
X78370000Y-122980000D03*
X75830000Y-125520000D03*
X73290000Y-128060000D03*
X152030000Y-117900000D03*
X154570000Y-36620000D03*
X152030000Y-39160000D03*
X149490000Y-41700000D03*
X146950000Y-44240000D03*
X144410000Y-46780000D03*
X83450000Y-49320000D03*
X80910000Y-46780000D03*
X78370000Y-44240000D03*
X75830000Y-41700000D03*
X73290000Y-39160000D03*
X70750000Y-36620000D03*
X68210000Y-39160000D03*
X70750000Y-41700000D03*
X73290000Y-44240000D03*
X75830000Y-46780000D03*
X78370000Y-49320000D03*
X80910000Y-51860000D03*
X106310000Y-44240000D03*
X121550000Y-44240000D03*
X106310000Y-41700000D03*
X106310000Y-46780000D03*
X121550000Y-41700000D03*
X121550000Y-46780000D03*
X91070000Y-51860000D03*
X93610000Y-51860000D03*
X96150000Y-51860000D03*
X98690000Y-51860000D03*
X101230000Y-51860000D03*
X103770000Y-51860000D03*
X106310000Y-51860000D03*
X106310000Y-56940000D03*
X103770000Y-56940000D03*
X101230000Y-56940000D03*
X98690000Y-56940000D03*
X96150000Y-56940000D03*
X93610000Y-56940000D03*
X91070000Y-56940000D03*
X85990000Y-56940000D03*
X85990000Y-59480000D03*
X85990000Y-67100000D03*
X85990000Y-69640000D03*
X85990000Y-72180000D03*
X91070000Y-59480000D03*
X91070000Y-67100000D03*
X91070000Y-69640000D03*
X91070000Y-74720000D03*
X85990000Y-74720000D03*
X85990000Y-77260000D03*
X91070000Y-77260000D03*
X91070000Y-79800000D03*
X85990000Y-79800000D03*
X85990000Y-82340000D03*
X91070000Y-82340000D03*
X85990000Y-84880000D03*
X91070000Y-84880000D03*
X85990000Y-87420000D03*
X91070000Y-87420000D03*
X91070000Y-89960000D03*
X85990000Y-89960000D03*
X85990000Y-92500000D03*
X91070000Y-92500000D03*
X91070000Y-95040000D03*
X85990000Y-95040000D03*
X85990000Y-97580000D03*
X91070000Y-97580000D03*
X91070000Y-100120000D03*
X85990000Y-100120000D03*
X85990000Y-102660000D03*
X91070000Y-102660000D03*
X91070000Y-105200000D03*
X85990000Y-105200000D03*
X91070000Y-110280000D03*
X93610000Y-110280000D03*
X93610000Y-105200000D03*
X96150000Y-105200000D03*
X96150000Y-110280000D03*
X98690000Y-110280000D03*
X101230000Y-105200000D03*
X98690000Y-105200000D03*
X101230000Y-110280000D03*
X103770000Y-105200000D03*
X103770000Y-110280000D03*
X106310000Y-105200000D03*
X106310000Y-110280000D03*
X108850000Y-110280000D03*
X108850000Y-105200000D03*
X111390000Y-105200000D03*
X111390000Y-110280000D03*
X124090000Y-105200000D03*
X126630000Y-105200000D03*
X129170000Y-105200000D03*
X131710000Y-105200000D03*
X131710000Y-105200000D03*
X134250000Y-105200000D03*
X136790000Y-105200000D03*
X139330000Y-105200000D03*
X124090000Y-110280000D03*
X126630000Y-110280000D03*
X129170000Y-110280000D03*
X131710000Y-110280000D03*
X134250000Y-110280000D03*
X136790000Y-110280000D03*
X139330000Y-110280000D03*
X139330000Y-102660000D03*
X139330000Y-100120000D03*
X139330000Y-97580000D03*
X139330000Y-95040000D03*
X139330000Y-92500000D03*
X139330000Y-87420000D03*
X139330000Y-89960000D03*
X139330000Y-84880000D03*
X139330000Y-82340000D03*
X139330000Y-79800000D03*
X139330000Y-77260000D03*
X144410000Y-77260000D03*
X144410000Y-79800000D03*
X144410000Y-82340000D03*
X144410000Y-84880000D03*
X144410000Y-89960000D03*
X144410000Y-92500000D03*
X144410000Y-95040000D03*
X144410000Y-97580000D03*
X144410000Y-102660000D03*
X144410000Y-100120000D03*
X144410000Y-105200000D03*
X144410000Y-87420000D03*
X146950000Y-107740000D03*
X88530000Y-112820000D03*
X144410000Y-74720000D03*
X139330000Y-74720000D03*
X139330000Y-72180000D03*
X139330000Y-69640000D03*
X139330000Y-67100000D03*
X144410000Y-67100000D03*
X144410000Y-69640000D03*
X144410000Y-72180000D03*
X139330000Y-59480000D03*
X139330000Y-56940000D03*
X144410000Y-56940000D03*
X144410000Y-59480000D03*
X141870000Y-49320000D03*
X83450000Y-54400000D03*
X139330000Y-51860000D03*
X121550000Y-56940000D03*
X124090000Y-56940000D03*
X126630000Y-56940000D03*
X129170000Y-56940000D03*
X131710000Y-56940000D03*
X134250000Y-56940000D03*
X136790000Y-56940000D03*
X136790000Y-51860000D03*
X134250000Y-51860000D03*
X131710000Y-51860000D03*
X129170000Y-51860000D03*
X126630000Y-51860000D03*
X124090000Y-51860000D03*
X121550000Y-51860000D03*
X121550000Y-49320000D03*
X106310000Y-49320000D03*
X120280000Y-63290000D03*
X112660000Y-75990000D03*
X111390000Y-74720000D03*
X83450000Y-133140000D03*
X108850000Y-133140000D03*
X126630000Y-133140000D03*
X150760000Y-133140000D03*
X111390000Y-59480000D03*
X157110000Y-34080000D03*
X110120000Y-68370000D03*
X102500000Y-67100000D03*
X102500000Y-69640000D03*
X106310000Y-82340000D03*
X110120000Y-86150000D03*
X124090000Y-86150000D03*
X124090000Y-82340000D03*
X121550000Y-72180000D03*
X110120000Y-29000000D03*
X121550000Y-29000000D03*
X130440000Y-29000000D03*
X148220000Y-29000000D03*
X99960000Y-29000000D03*
X82180000Y-29000000D03*
X164730000Y-72180000D03*
X168540000Y-68370000D03*
X160920000Y-68370000D03*
X160920000Y-55670000D03*
X64654000Y-73704000D03*
X61098000Y-69640000D03*
X125106000Y-123996000D03*
X110882000Y-124504000D03*
X119772000Y-135934000D03*
X110120000Y-25444000D03*
X120788000Y-25444000D03*
X63638000Y-25190000D03*
X167270000Y-25190000D03*
X63638000Y-136950000D03*
X167270000Y-136950000D03*
X109600000Y-71545000D03*
X103020000Y-71545000D03*
X113930000Y-55670000D03*
X113930000Y-53130000D03*
X115200000Y-55670000D03*
X115200000Y-53130000D03*
X116470000Y-55670000D03*
X116470000Y-53130000D03*
X117740000Y-55670000D03*
X117740000Y-53130000D03*
X89800000Y-62655000D03*
X87260000Y-62655000D03*
X140600000Y-62655000D03*
X143140000Y-62655000D03*
X111390000Y-63405000D03*
X107580000Y-63925000D03*
X89800000Y-63925000D03*
X87260000Y-63925000D03*
X110253891Y-64288891D03*
X107465000Y-65195000D03*
X109600000Y-65195000D03*
X106715000Y-66465000D03*
X140600000Y-63925000D03*
X143140000Y-63925000D03*
X116470000Y-109010000D03*
X116470000Y-106470000D03*
X118392079Y-75355000D03*
X117740000Y-109010000D03*
X116896644Y-74703547D03*
X117740000Y-106470000D03*
X119142079Y-77260000D03*
X119010000Y-109010000D03*
X116629256Y-75667148D03*
X119010000Y-106469994D03*
X119892079Y-78530000D03*
X120280000Y-106470000D03*
X120280000Y-109010000D03*
X115719990Y-77260000D03*
X113162168Y-58342832D03*
X118375000Y-58210000D03*
X119010000Y-55670000D03*
X119010000Y-53130000D03*
X108215000Y-59933441D03*
X105675000Y-60115000D03*
X103770000Y-61905000D03*
X103770000Y-64675000D03*
X112660000Y-106470000D03*
X112660000Y-109010000D03*
X75830000Y-130600000D03*
X67590000Y-130600000D03*
X155840000Y-35350000D03*
X162190000Y-34080000D03*
X113180000Y-32810000D03*
X118490000Y-32810000D03*
X158380000Y-29000000D03*
X164730000Y-29000000D03*
X121030000Y-129330000D03*
X115720000Y-129330000D03*
X65670000Y-133140000D03*
X112660000Y-55670000D03*
X112660000Y-53130000D03*
X112660000Y-35350000D03*
X106310000Y-61905000D03*
X106310000Y-64675000D03*
X115200000Y-106470000D03*
X115200000Y-109010000D03*
X115200000Y-126155000D03*
X70750000Y-133140000D03*
X113180000Y-31540000D03*
X118490000Y-31540000D03*
X158380000Y-27730000D03*
X167270000Y-27730000D03*
X121030000Y-130600000D03*
X115720000Y-130600000D03*
X70750000Y-134410000D03*
X63130000Y-134410000D03*
X108850000Y-36620000D03*
X108850000Y-53130000D03*
X108850000Y-55670000D03*
X105675000Y-58845000D03*
X114565000Y-68370000D03*
X114565000Y-74085000D03*
X118490000Y-74085000D03*
X121550000Y-106470000D03*
X121550000Y-109010000D03*
X121550000Y-126790000D03*
X113180000Y-34080000D03*
X118490000Y-34080000D03*
X158380000Y-30270000D03*
X162190000Y-30270000D03*
X121030000Y-128060000D03*
X115720000Y-128060000D03*
X68210000Y-131870000D03*
X111390000Y-55670000D03*
X111390000Y-53130000D03*
X111390000Y-36620000D03*
X105040000Y-61905000D03*
X105040000Y-64675000D03*
X113930000Y-106470000D03*
X113930000Y-109010000D03*
X113930000Y-126155000D03*
X70750000Y-131870000D03*
X112025000Y-65945000D03*
X106822949Y-59061390D03*
X110120000Y-55670000D03*
X110120000Y-53130000D03*
X71385000Y-35350000D03*
X70750000Y-30270000D03*
X159650000Y-131870000D03*
X158380000Y-126790000D03*
X122820000Y-109010000D03*
X122820000Y-106470000D03*
X119010000Y-69640000D03*
D12*
X109600000Y-71545000D02*
X103020000Y-71545000D01*
D13*
X113930000Y-55670000D02*
X113930000Y-53130000D01*
X115200000Y-55670000D02*
X115200000Y-53130000D01*
X116470000Y-55670000D02*
X116470000Y-53130000D01*
X117740000Y-55670000D02*
X117740000Y-53130000D01*
X89800000Y-62655000D02*
X87260000Y-62655000D01*
X140600000Y-62655000D02*
X143140000Y-62655000D01*
X111390000Y-63405000D02*
X108100000Y-63405000D01*
X108100000Y-63405000D02*
X107580000Y-63925000D01*
X89800000Y-63925000D02*
X87260000Y-63925000D01*
X110253891Y-64288891D02*
X108371109Y-64288891D01*
X108371109Y-64288891D02*
X107465000Y-65195000D01*
X109600000Y-65195000D02*
X108330000Y-66465000D01*
X108330000Y-66465000D02*
X106715000Y-66465000D01*
X140600000Y-63925000D02*
X143140000Y-63925000D01*
X116470000Y-109010000D02*
X116470000Y-106470000D01*
X118392079Y-75355000D02*
X117548097Y-75355000D01*
X117548097Y-75355000D02*
X116896644Y-74703547D01*
X117740000Y-109010000D02*
X117740000Y-106470000D01*
X119142079Y-77260000D02*
X118222108Y-77260000D01*
X118222108Y-77260000D02*
X116629256Y-75667148D01*
X119010000Y-109010000D02*
X119010000Y-106469994D01*
X120280000Y-106470000D02*
X120280000Y-109010000D01*
X119892079Y-78530000D02*
X116989990Y-78530000D01*
X116989990Y-78530000D02*
X115719990Y-77260000D01*
X113162168Y-58342832D02*
X118242168Y-58342832D01*
X118242168Y-58342832D02*
X118375000Y-58210000D01*
X119010000Y-55670000D02*
X119010000Y-53130000D01*
X108215000Y-59933441D02*
X105856559Y-59933441D01*
X105856559Y-59933441D02*
X105675000Y-60115000D01*
X103770000Y-61905000D02*
X103770000Y-64675000D01*
X112660000Y-106470000D02*
X112660000Y-109010000D01*
X75830000Y-130600000D02*
X67590000Y-130600000D01*
X155840000Y-35350000D02*
X160920000Y-35350000D01*
X160920000Y-35350000D02*
X162190000Y-34080000D01*
D12*
X113180000Y-32810000D02*
X118490000Y-32810000D01*
X158380000Y-29000000D02*
X164730000Y-29000000D01*
X121030000Y-129330000D02*
X116990000Y-129330000D01*
X116990000Y-129330000D02*
X115720000Y-129330000D01*
D13*
X112660000Y-55670000D02*
X112660000Y-53130000D01*
X112780001Y-33209999D02*
X113180000Y-32810000D01*
X112260001Y-33729999D02*
X112780001Y-33209999D01*
X112660000Y-35350000D02*
X112260001Y-34950001D01*
X112260001Y-34950001D02*
X112260001Y-33729999D01*
X106310000Y-61905000D02*
X106310000Y-64675000D01*
X115200000Y-106470000D02*
X115200000Y-109010000D01*
X115200000Y-126155000D02*
X114565000Y-126790000D01*
X114565000Y-128175000D02*
X115720000Y-129330000D01*
X114565000Y-126790000D02*
X114565000Y-128175000D01*
D12*
X70750000Y-133140000D02*
X65670000Y-133140000D01*
X113180000Y-31540000D02*
X118490000Y-31540000D01*
X158380000Y-27730000D02*
X167270000Y-27730000D01*
X121030000Y-130600000D02*
X116990000Y-130600000D01*
X116990000Y-130600000D02*
X115720000Y-130600000D01*
X70750000Y-134410000D02*
X63130000Y-134410000D01*
D13*
X113180000Y-31540000D02*
X108850000Y-35870000D01*
X108850000Y-35870000D02*
X108850000Y-36620000D01*
X108850000Y-53130000D02*
X108850000Y-55670000D01*
X114565000Y-64466319D02*
X114565000Y-68370000D01*
X108410070Y-58311389D02*
X114565000Y-64466319D01*
X105675000Y-58845000D02*
X106208611Y-58311389D01*
X106208611Y-58311389D02*
X108410070Y-58311389D01*
X118090001Y-73685001D02*
X118490000Y-74085000D01*
X114565000Y-74085000D02*
X114964999Y-73685001D01*
X114964999Y-73685001D02*
X118090001Y-73685001D01*
X121550000Y-106470000D02*
X121550000Y-109010000D01*
X121429999Y-130200001D02*
X121030000Y-130600000D01*
X121949999Y-129680001D02*
X121429999Y-130200001D01*
X121550000Y-126790000D02*
X121949999Y-127189999D01*
X121949999Y-127189999D02*
X121949999Y-129680001D01*
D12*
X113180000Y-34080000D02*
X118490000Y-34080000D01*
X158380000Y-30270000D02*
X162190000Y-30270000D01*
X121030000Y-128060000D02*
X116990000Y-128060000D01*
X116990000Y-128060000D02*
X115720000Y-128060000D01*
D13*
X111390000Y-55670000D02*
X111390000Y-53130000D01*
X113579999Y-34479999D02*
X113180000Y-34080000D01*
X111390000Y-36620000D02*
X112500002Y-36620000D01*
X113579999Y-35540003D02*
X113579999Y-34479999D01*
X112500002Y-36620000D02*
X113579999Y-35540003D01*
X105040000Y-61905000D02*
X105040000Y-64675000D01*
X113930000Y-106470000D02*
X113930000Y-109010000D01*
X116119999Y-127660001D02*
X115720000Y-128060000D01*
X116119999Y-125964997D02*
X116119999Y-127660001D01*
X113930000Y-126155000D02*
X114680001Y-125404999D01*
X115560001Y-125404999D02*
X116119999Y-125964997D01*
X114680001Y-125404999D02*
X115560001Y-125404999D01*
D12*
X70750000Y-131870000D02*
X68210000Y-131870000D01*
D13*
X112025000Y-65945000D02*
X112424999Y-65545001D01*
X108452951Y-59061390D02*
X106822949Y-59061390D01*
X112424999Y-63033438D02*
X108452951Y-59061390D01*
X112424999Y-65545001D02*
X112424999Y-63033438D01*
X110120000Y-55670000D02*
X110120000Y-53130000D01*
X71385000Y-35350000D02*
X71385000Y-30905000D01*
X71385000Y-30905000D02*
X70750000Y-30270000D01*
X159650000Y-131870000D02*
X159650000Y-128060000D01*
X159650000Y-128060000D02*
X158380000Y-126790000D01*
X122820000Y-109010000D02*
X122820000Y-106470000D01*
X112025000Y-66510685D02*
X112025000Y-65945000D01*
X112025000Y-66940002D02*
X112025000Y-66510685D01*
X119010000Y-69640000D02*
X114724998Y-69640000D01*
X114724998Y-69640000D02*
X112025000Y-66940002D01*
D14*
G36*
X169656660Y-24954040D02*
G01*
X169404764Y-25004146D01*
X169134511Y-25116088D01*
X168891290Y-25278603D01*
X168684447Y-25485446D01*
X168521932Y-25728667D01*
X168409990Y-25998920D01*
X168352922Y-26285818D01*
X168352922Y-26578338D01*
X168409990Y-26865236D01*
X168521932Y-27135489D01*
X168684447Y-27378710D01*
X168891290Y-27585553D01*
X169134511Y-27748068D01*
X169404764Y-27860010D01*
X169691662Y-27917078D01*
X169984182Y-27917078D01*
X170271080Y-27860010D01*
X170541333Y-27748068D01*
X170784554Y-27585553D01*
X170991397Y-27378710D01*
X171153912Y-27135489D01*
X171265854Y-26865236D01*
X171315960Y-26613340D01*
X171436000Y-26733381D01*
X171436001Y-135406618D01*
X171315960Y-135526660D01*
X171265854Y-135274764D01*
X171153912Y-135004511D01*
X170991397Y-134761290D01*
X170784554Y-134554447D01*
X170541333Y-134391932D01*
X170271080Y-134279990D01*
X169984182Y-134222922D01*
X169691662Y-134222922D01*
X169404764Y-134279990D01*
X169134511Y-134391932D01*
X168891290Y-134554447D01*
X168684447Y-134761290D01*
X168521932Y-135004511D01*
X168409990Y-135274764D01*
X168352922Y-135561662D01*
X168352922Y-135854182D01*
X168409990Y-136141080D01*
X168521932Y-136411333D01*
X168684447Y-136654554D01*
X168891290Y-136861397D01*
X169134511Y-137023912D01*
X169404764Y-137135854D01*
X169656660Y-137185960D01*
X169536620Y-137306000D01*
X60863381Y-137306000D01*
X60743340Y-137185960D01*
X60995236Y-137135854D01*
X61265489Y-137023912D01*
X61508710Y-136861397D01*
X61715553Y-136654554D01*
X61878068Y-136411333D01*
X61990010Y-136141080D01*
X62047078Y-135854182D01*
X62047078Y-135561662D01*
X112472922Y-135561662D01*
X112472922Y-135854182D01*
X112529990Y-136141080D01*
X112641932Y-136411333D01*
X112804447Y-136654554D01*
X113011290Y-136861397D01*
X113254511Y-137023912D01*
X113524764Y-137135854D01*
X113811662Y-137192922D01*
X114104182Y-137192922D01*
X114391080Y-137135854D01*
X114661333Y-137023912D01*
X114904554Y-136861397D01*
X115111397Y-136654554D01*
X115200000Y-136521950D01*
X115288603Y-136654554D01*
X115495446Y-136861397D01*
X115738667Y-137023912D01*
X116008920Y-137135854D01*
X116295818Y-137192922D01*
X116588338Y-137192922D01*
X116875236Y-137135854D01*
X117145489Y-137023912D01*
X117388710Y-136861397D01*
X117595553Y-136654554D01*
X117758068Y-136411333D01*
X117870010Y-136141080D01*
X117927078Y-135854182D01*
X117927078Y-135561662D01*
X117870010Y-135274764D01*
X117758068Y-135004511D01*
X117595553Y-134761290D01*
X117388710Y-134554447D01*
X117145489Y-134391932D01*
X116875236Y-134279990D01*
X116588338Y-134222922D01*
X116295818Y-134222922D01*
X116008920Y-134279990D01*
X115738667Y-134391932D01*
X115495446Y-134554447D01*
X115288603Y-134761290D01*
X115200000Y-134893894D01*
X115111397Y-134761290D01*
X114904554Y-134554447D01*
X114661333Y-134391932D01*
X114391080Y-134279990D01*
X114104182Y-134222922D01*
X113811662Y-134222922D01*
X113524764Y-134279990D01*
X113254511Y-134391932D01*
X113011290Y-134554447D01*
X112804447Y-134761290D01*
X112641932Y-135004511D01*
X112529990Y-135274764D01*
X112472922Y-135561662D01*
X62047078Y-135561662D01*
X61990010Y-135274764D01*
X61878068Y-135004511D01*
X61715553Y-134761290D01*
X61508710Y-134554447D01*
X61265489Y-134391932D01*
X61063006Y-134308061D01*
X62095000Y-134308061D01*
X62095000Y-134511939D01*
X62134774Y-134711898D01*
X62212795Y-134900256D01*
X62326063Y-135069774D01*
X62470226Y-135213937D01*
X62639744Y-135327205D01*
X62828102Y-135405226D01*
X63028061Y-135445000D01*
X63231939Y-135445000D01*
X63431898Y-135405226D01*
X63620256Y-135327205D01*
X63668454Y-135295000D01*
X70211546Y-135295000D01*
X70259744Y-135327205D01*
X70448102Y-135405226D01*
X70648061Y-135445000D01*
X70851939Y-135445000D01*
X71051898Y-135405226D01*
X71240256Y-135327205D01*
X71409774Y-135213937D01*
X71553937Y-135069774D01*
X71667205Y-134900256D01*
X71745226Y-134711898D01*
X71785000Y-134511939D01*
X71785000Y-134308061D01*
X71745226Y-134108102D01*
X71667205Y-133919744D01*
X71570490Y-133775000D01*
X71667205Y-133630256D01*
X71745226Y-133441898D01*
X71785000Y-133241939D01*
X71785000Y-133038061D01*
X71745226Y-132838102D01*
X71667205Y-132649744D01*
X71570490Y-132505000D01*
X71667205Y-132360256D01*
X71745226Y-132171898D01*
X71785000Y-131971939D01*
X71785000Y-131768061D01*
X71745226Y-131568102D01*
X71669382Y-131385000D01*
X75151289Y-131385000D01*
X75170226Y-131403937D01*
X75339744Y-131517205D01*
X75528102Y-131595226D01*
X75728061Y-131635000D01*
X75931939Y-131635000D01*
X76131898Y-131595226D01*
X76320256Y-131517205D01*
X76489774Y-131403937D01*
X76633937Y-131259774D01*
X76747205Y-131090256D01*
X76825226Y-130901898D01*
X76865000Y-130701939D01*
X76865000Y-130498061D01*
X76825226Y-130298102D01*
X76747205Y-130109744D01*
X76633937Y-129940226D01*
X76489774Y-129796063D01*
X76320256Y-129682795D01*
X76131898Y-129604774D01*
X75931939Y-129565000D01*
X75728061Y-129565000D01*
X75528102Y-129604774D01*
X75339744Y-129682795D01*
X75170226Y-129796063D01*
X75151289Y-129815000D01*
X68268711Y-129815000D01*
X68249774Y-129796063D01*
X68080256Y-129682795D01*
X67891898Y-129604774D01*
X67691939Y-129565000D01*
X67488061Y-129565000D01*
X67288102Y-129604774D01*
X67099744Y-129682795D01*
X66930226Y-129796063D01*
X66786063Y-129940226D01*
X66672795Y-130109744D01*
X66594774Y-130298102D01*
X66555000Y-130498061D01*
X66555000Y-130701939D01*
X66594774Y-130901898D01*
X66672795Y-131090256D01*
X66786063Y-131259774D01*
X66930226Y-131403937D01*
X67099744Y-131517205D01*
X67215923Y-131565328D01*
X67214774Y-131568102D01*
X67175000Y-131768061D01*
X67175000Y-131971939D01*
X67214774Y-132171898D01*
X67249196Y-132255000D01*
X66208454Y-132255000D01*
X66160256Y-132222795D01*
X65971898Y-132144774D01*
X65771939Y-132105000D01*
X65568061Y-132105000D01*
X65368102Y-132144774D01*
X65179744Y-132222795D01*
X65010226Y-132336063D01*
X64866063Y-132480226D01*
X64752795Y-132649744D01*
X64674774Y-132838102D01*
X64635000Y-133038061D01*
X64635000Y-133241939D01*
X64674774Y-133441898D01*
X64709196Y-133525000D01*
X63668454Y-133525000D01*
X63620256Y-133492795D01*
X63431898Y-133414774D01*
X63231939Y-133375000D01*
X63028061Y-133375000D01*
X62828102Y-133414774D01*
X62639744Y-133492795D01*
X62470226Y-133606063D01*
X62326063Y-133750226D01*
X62212795Y-133919744D01*
X62134774Y-134108102D01*
X62095000Y-134308061D01*
X61063006Y-134308061D01*
X60995236Y-134279990D01*
X60708338Y-134222922D01*
X60415818Y-134222922D01*
X60128920Y-134279990D01*
X59858667Y-134391932D01*
X59615446Y-134554447D01*
X59408603Y-134761290D01*
X59246088Y-135004511D01*
X59134146Y-135274764D01*
X59084040Y-135526660D01*
X58964000Y-135406620D01*
X58964000Y-126053061D01*
X112895000Y-126053061D01*
X112895000Y-126256939D01*
X112934774Y-126456898D01*
X113012795Y-126645256D01*
X113126063Y-126814774D01*
X113270226Y-126958937D01*
X113439744Y-127072205D01*
X113628102Y-127150226D01*
X113780000Y-127180440D01*
X113780001Y-128136438D01*
X113776203Y-128175000D01*
X113791359Y-128328886D01*
X113836246Y-128476859D01*
X113836247Y-128476860D01*
X113909139Y-128613233D01*
X113912858Y-128617764D01*
X113982655Y-128702812D01*
X113982659Y-128702816D01*
X114007237Y-128732764D01*
X114037185Y-128757342D01*
X114685000Y-129405157D01*
X114685000Y-129431939D01*
X114724774Y-129631898D01*
X114802795Y-129820256D01*
X114899510Y-129965000D01*
X114802795Y-130109744D01*
X114724774Y-130298102D01*
X114685000Y-130498061D01*
X114685000Y-130701939D01*
X114724774Y-130901898D01*
X114802795Y-131090256D01*
X114916063Y-131259774D01*
X115060226Y-131403937D01*
X115229744Y-131517205D01*
X115418102Y-131595226D01*
X115618061Y-131635000D01*
X115821939Y-131635000D01*
X116021898Y-131595226D01*
X116210256Y-131517205D01*
X116258454Y-131485000D01*
X120491546Y-131485000D01*
X120539744Y-131517205D01*
X120728102Y-131595226D01*
X120928061Y-131635000D01*
X121131939Y-131635000D01*
X121331898Y-131595226D01*
X121520256Y-131517205D01*
X121689774Y-131403937D01*
X121833937Y-131259774D01*
X121947205Y-131090256D01*
X122025226Y-130901898D01*
X122065000Y-130701939D01*
X122065000Y-130675157D01*
X122477809Y-130262348D01*
X122507763Y-130237765D01*
X122605861Y-130118234D01*
X122678753Y-129981861D01*
X122723640Y-129833888D01*
X122734999Y-129718562D01*
X122734999Y-129718555D01*
X122738796Y-129680002D01*
X122734999Y-129641449D01*
X122734999Y-127228551D01*
X122738796Y-127189998D01*
X122734999Y-127151445D01*
X122734999Y-127151438D01*
X122723640Y-127036112D01*
X122678753Y-126888139D01*
X122605861Y-126751766D01*
X122585000Y-126726347D01*
X122585000Y-126688061D01*
X157345000Y-126688061D01*
X157345000Y-126891939D01*
X157384774Y-127091898D01*
X157462795Y-127280256D01*
X157576063Y-127449774D01*
X157720226Y-127593937D01*
X157889744Y-127707205D01*
X158078102Y-127785226D01*
X158278061Y-127825000D01*
X158304843Y-127825000D01*
X158865001Y-128385159D01*
X158865000Y-131191289D01*
X158846063Y-131210226D01*
X158732795Y-131379744D01*
X158654774Y-131568102D01*
X158615000Y-131768061D01*
X158615000Y-131971939D01*
X158654774Y-132171898D01*
X158732795Y-132360256D01*
X158846063Y-132529774D01*
X158990226Y-132673937D01*
X159159744Y-132787205D01*
X159348102Y-132865226D01*
X159548061Y-132905000D01*
X159751939Y-132905000D01*
X159951898Y-132865226D01*
X160140256Y-132787205D01*
X160309774Y-132673937D01*
X160453937Y-132529774D01*
X160567205Y-132360256D01*
X160645226Y-132171898D01*
X160685000Y-131971939D01*
X160685000Y-131768061D01*
X160645226Y-131568102D01*
X160567205Y-131379744D01*
X160453937Y-131210226D01*
X160435000Y-131191289D01*
X160435000Y-128098552D01*
X160438797Y-128059999D01*
X160435000Y-128021446D01*
X160435000Y-128021439D01*
X160423641Y-127906113D01*
X160378754Y-127758140D01*
X160305862Y-127621767D01*
X160256450Y-127561559D01*
X160232345Y-127532187D01*
X160232342Y-127532184D01*
X160207764Y-127502236D01*
X160177815Y-127477658D01*
X159415000Y-126714843D01*
X159415000Y-126688061D01*
X159375226Y-126488102D01*
X159297205Y-126299744D01*
X159183937Y-126130226D01*
X159039774Y-125986063D01*
X158870256Y-125872795D01*
X158681898Y-125794774D01*
X158481939Y-125755000D01*
X158278061Y-125755000D01*
X158078102Y-125794774D01*
X157889744Y-125872795D01*
X157720226Y-125986063D01*
X157576063Y-126130226D01*
X157462795Y-126299744D01*
X157384774Y-126488102D01*
X157345000Y-126688061D01*
X122585000Y-126688061D01*
X122545226Y-126488102D01*
X122467205Y-126299744D01*
X122353937Y-126130226D01*
X122209774Y-125986063D01*
X122040256Y-125872795D01*
X121851898Y-125794774D01*
X121651939Y-125755000D01*
X121448061Y-125755000D01*
X121248102Y-125794774D01*
X121059744Y-125872795D01*
X120890226Y-125986063D01*
X120746063Y-126130226D01*
X120632795Y-126299744D01*
X120554774Y-126488102D01*
X120515000Y-126688061D01*
X120515000Y-126891939D01*
X120554774Y-127091898D01*
X120570568Y-127130027D01*
X120539744Y-127142795D01*
X120491546Y-127175000D01*
X116904999Y-127175000D01*
X116904999Y-126003553D01*
X116908796Y-125964997D01*
X116904999Y-125926437D01*
X116904999Y-125926436D01*
X116896804Y-125843231D01*
X116893641Y-125811110D01*
X116848753Y-125663137D01*
X116829538Y-125627188D01*
X116775861Y-125526764D01*
X116677763Y-125407233D01*
X116647810Y-125382651D01*
X116142348Y-124877189D01*
X116117765Y-124847235D01*
X115998234Y-124749137D01*
X115861861Y-124676245D01*
X115713888Y-124631358D01*
X115598562Y-124619999D01*
X115598554Y-124619999D01*
X115560001Y-124616202D01*
X115521448Y-124619999D01*
X114718557Y-124619999D01*
X114680001Y-124616202D01*
X114641445Y-124619999D01*
X114641440Y-124619999D01*
X114601027Y-124623979D01*
X114526114Y-124631357D01*
X114378141Y-124676245D01*
X114241768Y-124749137D01*
X114122237Y-124847235D01*
X114097654Y-124877189D01*
X113854843Y-125120000D01*
X113828061Y-125120000D01*
X113628102Y-125159774D01*
X113439744Y-125237795D01*
X113270226Y-125351063D01*
X113126063Y-125495226D01*
X113012795Y-125664744D01*
X112934774Y-125853102D01*
X112895000Y-126053061D01*
X58964000Y-126053061D01*
X58964000Y-107621662D01*
X84532922Y-107621662D01*
X84532922Y-107914182D01*
X84589990Y-108201080D01*
X84701932Y-108471333D01*
X84864447Y-108714554D01*
X85071290Y-108921397D01*
X85203894Y-109010000D01*
X85071290Y-109098603D01*
X84864447Y-109305446D01*
X84701932Y-109548667D01*
X84589990Y-109818920D01*
X84532922Y-110105818D01*
X84532922Y-110398338D01*
X84589990Y-110685236D01*
X84701932Y-110955489D01*
X84864447Y-111198710D01*
X85071290Y-111405553D01*
X85314511Y-111568068D01*
X85584764Y-111680010D01*
X85871662Y-111737078D01*
X86164182Y-111737078D01*
X86451080Y-111680010D01*
X86721333Y-111568068D01*
X86964554Y-111405553D01*
X87171397Y-111198710D01*
X87260000Y-111066106D01*
X87348603Y-111198710D01*
X87555446Y-111405553D01*
X87798667Y-111568068D01*
X88068920Y-111680010D01*
X88355818Y-111737078D01*
X88648338Y-111737078D01*
X88935236Y-111680010D01*
X89205489Y-111568068D01*
X89448710Y-111405553D01*
X89655553Y-111198710D01*
X89818068Y-110955489D01*
X89930010Y-110685236D01*
X89987078Y-110398338D01*
X89987078Y-110105818D01*
X89930010Y-109818920D01*
X89818068Y-109548667D01*
X89655553Y-109305446D01*
X89448710Y-109098603D01*
X89316106Y-109010000D01*
X89448710Y-108921397D01*
X89655553Y-108714554D01*
X89818068Y-108471333D01*
X89930010Y-108201080D01*
X89987078Y-107914182D01*
X89987078Y-107621662D01*
X89930010Y-107334764D01*
X89818068Y-107064511D01*
X89655553Y-106821290D01*
X89448710Y-106614447D01*
X89205489Y-106451932D01*
X89003006Y-106368061D01*
X111625000Y-106368061D01*
X111625000Y-106571939D01*
X111664774Y-106771898D01*
X111742795Y-106960256D01*
X111856063Y-107129774D01*
X111875000Y-107148711D01*
X111875001Y-108331288D01*
X111856063Y-108350226D01*
X111742795Y-108519744D01*
X111664774Y-108708102D01*
X111625000Y-108908061D01*
X111625000Y-109111939D01*
X111664774Y-109311898D01*
X111742795Y-109500256D01*
X111856063Y-109669774D01*
X112000226Y-109813937D01*
X112169744Y-109927205D01*
X112358102Y-110005226D01*
X112558061Y-110045000D01*
X112761939Y-110045000D01*
X112961898Y-110005226D01*
X113150256Y-109927205D01*
X113295000Y-109830490D01*
X113439744Y-109927205D01*
X113628102Y-110005226D01*
X113828061Y-110045000D01*
X114031939Y-110045000D01*
X114231898Y-110005226D01*
X114420256Y-109927205D01*
X114565000Y-109830490D01*
X114709744Y-109927205D01*
X114898102Y-110005226D01*
X115098061Y-110045000D01*
X115301939Y-110045000D01*
X115501898Y-110005226D01*
X115690256Y-109927205D01*
X115835000Y-109830490D01*
X115979744Y-109927205D01*
X116168102Y-110005226D01*
X116368061Y-110045000D01*
X116571939Y-110045000D01*
X116771898Y-110005226D01*
X116960256Y-109927205D01*
X117105000Y-109830490D01*
X117249744Y-109927205D01*
X117438102Y-110005226D01*
X117638061Y-110045000D01*
X117841939Y-110045000D01*
X118041898Y-110005226D01*
X118230256Y-109927205D01*
X118375000Y-109830490D01*
X118519744Y-109927205D01*
X118708102Y-110005226D01*
X118908061Y-110045000D01*
X119111939Y-110045000D01*
X119311898Y-110005226D01*
X119500256Y-109927205D01*
X119645000Y-109830490D01*
X119789744Y-109927205D01*
X119978102Y-110005226D01*
X120178061Y-110045000D01*
X120381939Y-110045000D01*
X120581898Y-110005226D01*
X120770256Y-109927205D01*
X120915000Y-109830490D01*
X121059744Y-109927205D01*
X121248102Y-110005226D01*
X121448061Y-110045000D01*
X121651939Y-110045000D01*
X121851898Y-110005226D01*
X122040256Y-109927205D01*
X122185000Y-109830490D01*
X122329744Y-109927205D01*
X122518102Y-110005226D01*
X122718061Y-110045000D01*
X122921939Y-110045000D01*
X123121898Y-110005226D01*
X123310256Y-109927205D01*
X123479774Y-109813937D01*
X123623937Y-109669774D01*
X123737205Y-109500256D01*
X123815226Y-109311898D01*
X123855000Y-109111939D01*
X123855000Y-108908061D01*
X123815226Y-108708102D01*
X123737205Y-108519744D01*
X123623937Y-108350226D01*
X123605000Y-108331289D01*
X123605000Y-107621662D01*
X140412922Y-107621662D01*
X140412922Y-107914182D01*
X140469990Y-108201080D01*
X140581932Y-108471333D01*
X140744447Y-108714554D01*
X140951290Y-108921397D01*
X141083894Y-109010000D01*
X140951290Y-109098603D01*
X140744447Y-109305446D01*
X140581932Y-109548667D01*
X140469990Y-109818920D01*
X140412922Y-110105818D01*
X140412922Y-110398338D01*
X140469990Y-110685236D01*
X140581932Y-110955489D01*
X140744447Y-111198710D01*
X140951290Y-111405553D01*
X141194511Y-111568068D01*
X141464764Y-111680010D01*
X141751662Y-111737078D01*
X142044182Y-111737078D01*
X142331080Y-111680010D01*
X142601333Y-111568068D01*
X142844554Y-111405553D01*
X143051397Y-111198710D01*
X143140000Y-111066106D01*
X143228603Y-111198710D01*
X143435446Y-111405553D01*
X143678667Y-111568068D01*
X143948920Y-111680010D01*
X144235818Y-111737078D01*
X144528338Y-111737078D01*
X144815236Y-111680010D01*
X145085489Y-111568068D01*
X145328710Y-111405553D01*
X145535553Y-111198710D01*
X145698068Y-110955489D01*
X145810010Y-110685236D01*
X145867078Y-110398338D01*
X145867078Y-110105818D01*
X145810010Y-109818920D01*
X145698068Y-109548667D01*
X145535553Y-109305446D01*
X145328710Y-109098603D01*
X145196106Y-109010000D01*
X145328710Y-108921397D01*
X145535553Y-108714554D01*
X145698068Y-108471333D01*
X145810010Y-108201080D01*
X145867078Y-107914182D01*
X145867078Y-107621662D01*
X145810010Y-107334764D01*
X145698068Y-107064511D01*
X145535553Y-106821290D01*
X145328710Y-106614447D01*
X145085489Y-106451932D01*
X144815236Y-106339990D01*
X144528338Y-106282922D01*
X144235818Y-106282922D01*
X143948920Y-106339990D01*
X143678667Y-106451932D01*
X143435446Y-106614447D01*
X143228603Y-106821290D01*
X143140000Y-106953894D01*
X143051397Y-106821290D01*
X142844554Y-106614447D01*
X142601333Y-106451932D01*
X142331080Y-106339990D01*
X142044182Y-106282922D01*
X141751662Y-106282922D01*
X141464764Y-106339990D01*
X141194511Y-106451932D01*
X140951290Y-106614447D01*
X140744447Y-106821290D01*
X140581932Y-107064511D01*
X140469990Y-107334764D01*
X140412922Y-107621662D01*
X123605000Y-107621662D01*
X123605000Y-107148711D01*
X123623937Y-107129774D01*
X123737205Y-106960256D01*
X123815226Y-106771898D01*
X123855000Y-106571939D01*
X123855000Y-106368061D01*
X123815226Y-106168102D01*
X123737205Y-105979744D01*
X123623937Y-105810226D01*
X123479774Y-105666063D01*
X123310256Y-105552795D01*
X123121898Y-105474774D01*
X122921939Y-105435000D01*
X122718061Y-105435000D01*
X122518102Y-105474774D01*
X122329744Y-105552795D01*
X122185000Y-105649510D01*
X122040256Y-105552795D01*
X121851898Y-105474774D01*
X121651939Y-105435000D01*
X121448061Y-105435000D01*
X121248102Y-105474774D01*
X121059744Y-105552795D01*
X120915000Y-105649510D01*
X120770256Y-105552795D01*
X120581898Y-105474774D01*
X120381939Y-105435000D01*
X120178061Y-105435000D01*
X119978102Y-105474774D01*
X119789744Y-105552795D01*
X119645004Y-105649507D01*
X119500256Y-105552789D01*
X119311898Y-105474768D01*
X119111939Y-105434994D01*
X118908061Y-105434994D01*
X118708102Y-105474768D01*
X118519744Y-105552789D01*
X118374996Y-105649507D01*
X118230256Y-105552795D01*
X118041898Y-105474774D01*
X117841939Y-105435000D01*
X117638061Y-105435000D01*
X117438102Y-105474774D01*
X117249744Y-105552795D01*
X117105000Y-105649510D01*
X116960256Y-105552795D01*
X116771898Y-105474774D01*
X116571939Y-105435000D01*
X116368061Y-105435000D01*
X116168102Y-105474774D01*
X115979744Y-105552795D01*
X115835000Y-105649510D01*
X115690256Y-105552795D01*
X115501898Y-105474774D01*
X115301939Y-105435000D01*
X115098061Y-105435000D01*
X114898102Y-105474774D01*
X114709744Y-105552795D01*
X114565000Y-105649510D01*
X114420256Y-105552795D01*
X114231898Y-105474774D01*
X114031939Y-105435000D01*
X113828061Y-105435000D01*
X113628102Y-105474774D01*
X113439744Y-105552795D01*
X113295000Y-105649510D01*
X113150256Y-105552795D01*
X112961898Y-105474774D01*
X112761939Y-105435000D01*
X112558061Y-105435000D01*
X112358102Y-105474774D01*
X112169744Y-105552795D01*
X112000226Y-105666063D01*
X111856063Y-105810226D01*
X111742795Y-105979744D01*
X111664774Y-106168102D01*
X111625000Y-106368061D01*
X89003006Y-106368061D01*
X88935236Y-106339990D01*
X88648338Y-106282922D01*
X88355818Y-106282922D01*
X88068920Y-106339990D01*
X87798667Y-106451932D01*
X87555446Y-106614447D01*
X87348603Y-106821290D01*
X87260000Y-106953894D01*
X87171397Y-106821290D01*
X86964554Y-106614447D01*
X86721333Y-106451932D01*
X86451080Y-106339990D01*
X86164182Y-106282922D01*
X85871662Y-106282922D01*
X85584764Y-106339990D01*
X85314511Y-106451932D01*
X85071290Y-106614447D01*
X84864447Y-106821290D01*
X84701932Y-107064511D01*
X84589990Y-107334764D01*
X84532922Y-107621662D01*
X58964000Y-107621662D01*
X58964000Y-79681662D01*
X59077078Y-79681662D01*
X59077078Y-79974182D01*
X59134146Y-80261080D01*
X59246088Y-80531333D01*
X59408603Y-80774554D01*
X59615446Y-80981397D01*
X59748050Y-81070000D01*
X59615446Y-81158603D01*
X59408603Y-81365446D01*
X59246088Y-81608667D01*
X59134146Y-81878920D01*
X59077078Y-82165818D01*
X59077078Y-82458338D01*
X59134146Y-82745236D01*
X59246088Y-83015489D01*
X59408603Y-83258710D01*
X59615446Y-83465553D01*
X59858667Y-83628068D01*
X60128920Y-83740010D01*
X60415818Y-83797078D01*
X60708338Y-83797078D01*
X60995236Y-83740010D01*
X61265489Y-83628068D01*
X61508710Y-83465553D01*
X61715553Y-83258710D01*
X61878068Y-83015489D01*
X61990010Y-82745236D01*
X62047078Y-82458338D01*
X62047078Y-82165818D01*
X61990010Y-81878920D01*
X61878068Y-81608667D01*
X61715553Y-81365446D01*
X61508710Y-81158603D01*
X61376106Y-81070000D01*
X61508710Y-80981397D01*
X61715553Y-80774554D01*
X61878068Y-80531333D01*
X61990010Y-80261080D01*
X62047078Y-79974182D01*
X62047078Y-79681662D01*
X112472922Y-79681662D01*
X112472922Y-79974182D01*
X112529990Y-80261080D01*
X112641932Y-80531333D01*
X112804447Y-80774554D01*
X113011290Y-80981397D01*
X113143894Y-81070000D01*
X113011290Y-81158603D01*
X112804447Y-81365446D01*
X112641932Y-81608667D01*
X112529990Y-81878920D01*
X112472922Y-82165818D01*
X112472922Y-82458338D01*
X112529990Y-82745236D01*
X112641932Y-83015489D01*
X112804447Y-83258710D01*
X113011290Y-83465553D01*
X113254511Y-83628068D01*
X113524764Y-83740010D01*
X113811662Y-83797078D01*
X114104182Y-83797078D01*
X114391080Y-83740010D01*
X114661333Y-83628068D01*
X114904554Y-83465553D01*
X115111397Y-83258710D01*
X115200000Y-83126106D01*
X115288603Y-83258710D01*
X115495446Y-83465553D01*
X115738667Y-83628068D01*
X116008920Y-83740010D01*
X116295818Y-83797078D01*
X116588338Y-83797078D01*
X116875236Y-83740010D01*
X117145489Y-83628068D01*
X117388710Y-83465553D01*
X117595553Y-83258710D01*
X117758068Y-83015489D01*
X117870010Y-82745236D01*
X117927078Y-82458338D01*
X117927078Y-82165818D01*
X117870010Y-81878920D01*
X117758068Y-81608667D01*
X117595553Y-81365446D01*
X117388710Y-81158603D01*
X117256106Y-81070000D01*
X117388710Y-80981397D01*
X117595553Y-80774554D01*
X117758068Y-80531333D01*
X117870010Y-80261080D01*
X117927078Y-79974182D01*
X117927078Y-79681662D01*
X168352922Y-79681662D01*
X168352922Y-79974182D01*
X168409990Y-80261080D01*
X168521932Y-80531333D01*
X168684447Y-80774554D01*
X168891290Y-80981397D01*
X169023894Y-81070000D01*
X168891290Y-81158603D01*
X168684447Y-81365446D01*
X168521932Y-81608667D01*
X168409990Y-81878920D01*
X168352922Y-82165818D01*
X168352922Y-82458338D01*
X168409990Y-82745236D01*
X168521932Y-83015489D01*
X168684447Y-83258710D01*
X168891290Y-83465553D01*
X169134511Y-83628068D01*
X169404764Y-83740010D01*
X169691662Y-83797078D01*
X169984182Y-83797078D01*
X170271080Y-83740010D01*
X170541333Y-83628068D01*
X170784554Y-83465553D01*
X170991397Y-83258710D01*
X171153912Y-83015489D01*
X171265854Y-82745236D01*
X171322922Y-82458338D01*
X171322922Y-82165818D01*
X171265854Y-81878920D01*
X171153912Y-81608667D01*
X170991397Y-81365446D01*
X170784554Y-81158603D01*
X170651950Y-81070000D01*
X170784554Y-80981397D01*
X170991397Y-80774554D01*
X171153912Y-80531333D01*
X171265854Y-80261080D01*
X171322922Y-79974182D01*
X171322922Y-79681662D01*
X171265854Y-79394764D01*
X171153912Y-79124511D01*
X170991397Y-78881290D01*
X170784554Y-78674447D01*
X170541333Y-78511932D01*
X170271080Y-78399990D01*
X169984182Y-78342922D01*
X169691662Y-78342922D01*
X169404764Y-78399990D01*
X169134511Y-78511932D01*
X168891290Y-78674447D01*
X168684447Y-78881290D01*
X168521932Y-79124511D01*
X168409990Y-79394764D01*
X168352922Y-79681662D01*
X117927078Y-79681662D01*
X117870010Y-79394764D01*
X117836971Y-79315000D01*
X119213368Y-79315000D01*
X119232305Y-79333937D01*
X119401823Y-79447205D01*
X119590181Y-79525226D01*
X119790140Y-79565000D01*
X119994018Y-79565000D01*
X120193977Y-79525226D01*
X120382335Y-79447205D01*
X120551853Y-79333937D01*
X120696016Y-79189774D01*
X120809284Y-79020256D01*
X120887305Y-78831898D01*
X120927079Y-78631939D01*
X120927079Y-78428061D01*
X120887305Y-78228102D01*
X120809284Y-78039744D01*
X120696016Y-77870226D01*
X120551853Y-77726063D01*
X120382335Y-77612795D01*
X120193977Y-77534774D01*
X120144652Y-77524963D01*
X120177079Y-77361939D01*
X120177079Y-77158061D01*
X120137305Y-76958102D01*
X120059284Y-76769744D01*
X119946016Y-76600226D01*
X119801853Y-76456063D01*
X119632335Y-76342795D01*
X119443977Y-76264774D01*
X119244018Y-76225000D01*
X119040140Y-76225000D01*
X118916038Y-76249685D01*
X119051853Y-76158937D01*
X119196016Y-76014774D01*
X119309284Y-75845256D01*
X119387305Y-75656898D01*
X119427079Y-75456939D01*
X119427079Y-75253061D01*
X119387305Y-75053102D01*
X119309284Y-74864744D01*
X119255084Y-74783627D01*
X119293937Y-74744774D01*
X119407205Y-74575256D01*
X119485226Y-74386898D01*
X119525000Y-74186939D01*
X119525000Y-73983061D01*
X119485226Y-73783102D01*
X119407205Y-73594744D01*
X119293937Y-73425226D01*
X119149774Y-73281063D01*
X118980256Y-73167795D01*
X118791898Y-73089774D01*
X118591939Y-73050000D01*
X118553653Y-73050000D01*
X118528234Y-73029139D01*
X118391861Y-72956247D01*
X118243888Y-72911360D01*
X118128562Y-72900001D01*
X118128554Y-72900001D01*
X118090001Y-72896204D01*
X118051448Y-72900001D01*
X115003551Y-72900001D01*
X114964998Y-72896204D01*
X114926445Y-72900001D01*
X114926438Y-72900001D01*
X114811112Y-72911360D01*
X114663139Y-72956247D01*
X114526766Y-73029139D01*
X114501347Y-73050000D01*
X114463061Y-73050000D01*
X114263102Y-73089774D01*
X114074744Y-73167795D01*
X113905226Y-73281063D01*
X113761063Y-73425226D01*
X113647795Y-73594744D01*
X113569774Y-73783102D01*
X113530000Y-73983061D01*
X113530000Y-74186939D01*
X113569774Y-74386898D01*
X113647795Y-74575256D01*
X113761063Y-74744774D01*
X113905226Y-74888937D01*
X114074744Y-75002205D01*
X114263102Y-75080226D01*
X114463061Y-75120000D01*
X114666939Y-75120000D01*
X114866898Y-75080226D01*
X115055256Y-75002205D01*
X115224774Y-74888937D01*
X115368937Y-74744774D01*
X115482205Y-74575256D01*
X115525803Y-74470001D01*
X115887822Y-74470001D01*
X115861644Y-74601608D01*
X115861644Y-74805486D01*
X115889112Y-74943581D01*
X115825319Y-75007374D01*
X115712051Y-75176892D01*
X115634030Y-75365250D01*
X115594256Y-75565209D01*
X115594256Y-75769087D01*
X115634030Y-75969046D01*
X115712051Y-76157404D01*
X115757217Y-76225000D01*
X115618051Y-76225000D01*
X115418092Y-76264774D01*
X115229734Y-76342795D01*
X115060216Y-76456063D01*
X114916053Y-76600226D01*
X114802785Y-76769744D01*
X114724764Y-76958102D01*
X114684990Y-77158061D01*
X114684990Y-77361939D01*
X114724764Y-77561898D01*
X114802785Y-77750256D01*
X114916053Y-77919774D01*
X115060216Y-78063937D01*
X115229734Y-78177205D01*
X115418092Y-78255226D01*
X115618051Y-78295000D01*
X115644833Y-78295000D01*
X115825710Y-78475878D01*
X115738667Y-78511932D01*
X115495446Y-78674447D01*
X115288603Y-78881290D01*
X115200000Y-79013894D01*
X115111397Y-78881290D01*
X114904554Y-78674447D01*
X114661333Y-78511932D01*
X114391080Y-78399990D01*
X114104182Y-78342922D01*
X113811662Y-78342922D01*
X113524764Y-78399990D01*
X113254511Y-78511932D01*
X113011290Y-78674447D01*
X112804447Y-78881290D01*
X112641932Y-79124511D01*
X112529990Y-79394764D01*
X112472922Y-79681662D01*
X62047078Y-79681662D01*
X61990010Y-79394764D01*
X61878068Y-79124511D01*
X61715553Y-78881290D01*
X61508710Y-78674447D01*
X61265489Y-78511932D01*
X60995236Y-78399990D01*
X60708338Y-78342922D01*
X60415818Y-78342922D01*
X60128920Y-78399990D01*
X59858667Y-78511932D01*
X59615446Y-78674447D01*
X59408603Y-78881290D01*
X59246088Y-79124511D01*
X59134146Y-79394764D01*
X59077078Y-79681662D01*
X58964000Y-79681662D01*
X58964000Y-71443061D01*
X101985000Y-71443061D01*
X101985000Y-71646939D01*
X102024774Y-71846898D01*
X102102795Y-72035256D01*
X102216063Y-72204774D01*
X102360226Y-72348937D01*
X102529744Y-72462205D01*
X102718102Y-72540226D01*
X102918061Y-72580000D01*
X103121939Y-72580000D01*
X103321898Y-72540226D01*
X103510256Y-72462205D01*
X103558454Y-72430000D01*
X109061546Y-72430000D01*
X109109744Y-72462205D01*
X109298102Y-72540226D01*
X109498061Y-72580000D01*
X109701939Y-72580000D01*
X109901898Y-72540226D01*
X110090256Y-72462205D01*
X110259774Y-72348937D01*
X110403937Y-72204774D01*
X110517205Y-72035256D01*
X110595226Y-71846898D01*
X110635000Y-71646939D01*
X110635000Y-71443061D01*
X110595226Y-71243102D01*
X110517205Y-71054744D01*
X110403937Y-70885226D01*
X110259774Y-70741063D01*
X110090256Y-70627795D01*
X109901898Y-70549774D01*
X109701939Y-70510000D01*
X109498061Y-70510000D01*
X109298102Y-70549774D01*
X109109744Y-70627795D01*
X109061546Y-70660000D01*
X103558454Y-70660000D01*
X103510256Y-70627795D01*
X103321898Y-70549774D01*
X103121939Y-70510000D01*
X102918061Y-70510000D01*
X102718102Y-70549774D01*
X102529744Y-70627795D01*
X102360226Y-70741063D01*
X102216063Y-70885226D01*
X102102795Y-71054744D01*
X102024774Y-71243102D01*
X101985000Y-71443061D01*
X58964000Y-71443061D01*
X58964000Y-62553061D01*
X86225000Y-62553061D01*
X86225000Y-62756939D01*
X86264774Y-62956898D01*
X86342795Y-63145256D01*
X86439510Y-63290000D01*
X86342795Y-63434744D01*
X86264774Y-63623102D01*
X86225000Y-63823061D01*
X86225000Y-64026939D01*
X86264774Y-64226898D01*
X86342795Y-64415256D01*
X86456063Y-64584774D01*
X86600226Y-64728937D01*
X86769744Y-64842205D01*
X86958102Y-64920226D01*
X87158061Y-64960000D01*
X87361939Y-64960000D01*
X87561898Y-64920226D01*
X87750256Y-64842205D01*
X87919774Y-64728937D01*
X87938711Y-64710000D01*
X89121289Y-64710000D01*
X89140226Y-64728937D01*
X89309744Y-64842205D01*
X89498102Y-64920226D01*
X89698061Y-64960000D01*
X89901939Y-64960000D01*
X90101898Y-64920226D01*
X90290256Y-64842205D01*
X90459774Y-64728937D01*
X90603937Y-64584774D01*
X90717205Y-64415256D01*
X90795226Y-64226898D01*
X90835000Y-64026939D01*
X90835000Y-63823061D01*
X90795226Y-63623102D01*
X90717205Y-63434744D01*
X90620490Y-63290000D01*
X90717205Y-63145256D01*
X90795226Y-62956898D01*
X90835000Y-62756939D01*
X90835000Y-62553061D01*
X90795226Y-62353102D01*
X90717205Y-62164744D01*
X90603937Y-61995226D01*
X90459774Y-61851063D01*
X90387934Y-61803061D01*
X102735000Y-61803061D01*
X102735000Y-62006939D01*
X102774774Y-62206898D01*
X102852795Y-62395256D01*
X102966063Y-62564774D01*
X102985000Y-62583711D01*
X102985001Y-63996288D01*
X102966063Y-64015226D01*
X102852795Y-64184744D01*
X102774774Y-64373102D01*
X102735000Y-64573061D01*
X102735000Y-64776939D01*
X102774774Y-64976898D01*
X102852795Y-65165256D01*
X102966063Y-65334774D01*
X103110226Y-65478937D01*
X103279744Y-65592205D01*
X103468102Y-65670226D01*
X103668061Y-65710000D01*
X103871939Y-65710000D01*
X104071898Y-65670226D01*
X104260256Y-65592205D01*
X104405000Y-65495490D01*
X104549744Y-65592205D01*
X104738102Y-65670226D01*
X104938061Y-65710000D01*
X105141939Y-65710000D01*
X105341898Y-65670226D01*
X105530256Y-65592205D01*
X105675000Y-65495490D01*
X105819744Y-65592205D01*
X106008102Y-65670226D01*
X106039765Y-65676524D01*
X105911063Y-65805226D01*
X105797795Y-65974744D01*
X105719774Y-66163102D01*
X105680000Y-66363061D01*
X105680000Y-66566939D01*
X105719774Y-66766898D01*
X105797795Y-66955256D01*
X105911063Y-67124774D01*
X106055226Y-67268937D01*
X106224744Y-67382205D01*
X106413102Y-67460226D01*
X106613061Y-67500000D01*
X106816939Y-67500000D01*
X107016898Y-67460226D01*
X107205256Y-67382205D01*
X107374774Y-67268937D01*
X107393711Y-67250000D01*
X108291447Y-67250000D01*
X108330000Y-67253797D01*
X108368553Y-67250000D01*
X108368561Y-67250000D01*
X108483887Y-67238641D01*
X108631860Y-67193754D01*
X108768233Y-67120862D01*
X108887764Y-67022764D01*
X108912347Y-66992810D01*
X109675158Y-66230000D01*
X109701939Y-66230000D01*
X109901898Y-66190226D01*
X110090256Y-66112205D01*
X110259774Y-65998937D01*
X110403937Y-65854774D01*
X110517205Y-65685256D01*
X110595226Y-65496898D01*
X110635000Y-65296939D01*
X110635000Y-65251306D01*
X110744147Y-65206096D01*
X110913665Y-65092828D01*
X111057828Y-64948665D01*
X111171096Y-64779147D01*
X111249117Y-64590789D01*
X111279451Y-64438287D01*
X111288061Y-64440000D01*
X111491939Y-64440000D01*
X111639999Y-64410549D01*
X111639999Y-64984197D01*
X111534744Y-65027795D01*
X111365226Y-65141063D01*
X111221063Y-65285226D01*
X111107795Y-65454744D01*
X111029774Y-65643102D01*
X110990000Y-65843061D01*
X110990000Y-66046939D01*
X111029774Y-66246898D01*
X111107795Y-66435256D01*
X111221063Y-66604774D01*
X111240000Y-66623711D01*
X111240000Y-66901449D01*
X111236203Y-66940002D01*
X111240000Y-66978555D01*
X111240000Y-66978562D01*
X111251359Y-67093888D01*
X111296246Y-67241861D01*
X111369138Y-67378234D01*
X111467236Y-67497766D01*
X111497190Y-67522349D01*
X114142651Y-70167810D01*
X114167234Y-70197764D01*
X114286765Y-70295862D01*
X114423138Y-70368754D01*
X114571111Y-70413642D01*
X114646024Y-70421020D01*
X114686437Y-70425000D01*
X114686442Y-70425000D01*
X114724998Y-70428797D01*
X114763554Y-70425000D01*
X118331289Y-70425000D01*
X118350226Y-70443937D01*
X118519744Y-70557205D01*
X118708102Y-70635226D01*
X118908061Y-70675000D01*
X119111939Y-70675000D01*
X119311898Y-70635226D01*
X119500256Y-70557205D01*
X119669774Y-70443937D01*
X119813937Y-70299774D01*
X119927205Y-70130256D01*
X120005226Y-69941898D01*
X120045000Y-69741939D01*
X120045000Y-69538061D01*
X120005226Y-69338102D01*
X119927205Y-69149744D01*
X119813937Y-68980226D01*
X119669774Y-68836063D01*
X119500256Y-68722795D01*
X119311898Y-68644774D01*
X119111939Y-68605000D01*
X118908061Y-68605000D01*
X118708102Y-68644774D01*
X118519744Y-68722795D01*
X118350226Y-68836063D01*
X118331289Y-68855000D01*
X115484382Y-68855000D01*
X115560226Y-68671898D01*
X115600000Y-68471939D01*
X115600000Y-68268061D01*
X115560226Y-68068102D01*
X115482205Y-67879744D01*
X115368937Y-67710226D01*
X115350000Y-67691289D01*
X115350000Y-64504871D01*
X115353797Y-64466318D01*
X115350000Y-64427765D01*
X115350000Y-64427758D01*
X115338641Y-64312432D01*
X115293754Y-64164459D01*
X115220862Y-64028086D01*
X115122764Y-63908555D01*
X115092817Y-63883978D01*
X113761900Y-62553061D01*
X139565000Y-62553061D01*
X139565000Y-62756939D01*
X139604774Y-62956898D01*
X139682795Y-63145256D01*
X139779510Y-63290000D01*
X139682795Y-63434744D01*
X139604774Y-63623102D01*
X139565000Y-63823061D01*
X139565000Y-64026939D01*
X139604774Y-64226898D01*
X139682795Y-64415256D01*
X139796063Y-64584774D01*
X139940226Y-64728937D01*
X140109744Y-64842205D01*
X140298102Y-64920226D01*
X140498061Y-64960000D01*
X140701939Y-64960000D01*
X140901898Y-64920226D01*
X141090256Y-64842205D01*
X141259774Y-64728937D01*
X141278711Y-64710000D01*
X142461289Y-64710000D01*
X142480226Y-64728937D01*
X142649744Y-64842205D01*
X142838102Y-64920226D01*
X143038061Y-64960000D01*
X143241939Y-64960000D01*
X143441898Y-64920226D01*
X143630256Y-64842205D01*
X143799774Y-64728937D01*
X143943937Y-64584774D01*
X144057205Y-64415256D01*
X144135226Y-64226898D01*
X144175000Y-64026939D01*
X144175000Y-63823061D01*
X144135226Y-63623102D01*
X144057205Y-63434744D01*
X143960490Y-63290000D01*
X144057205Y-63145256D01*
X144135226Y-62956898D01*
X144175000Y-62756939D01*
X144175000Y-62553061D01*
X144135226Y-62353102D01*
X144057205Y-62164744D01*
X143943937Y-61995226D01*
X143799774Y-61851063D01*
X143630256Y-61737795D01*
X143441898Y-61659774D01*
X143241939Y-61620000D01*
X143038061Y-61620000D01*
X142838102Y-61659774D01*
X142649744Y-61737795D01*
X142480226Y-61851063D01*
X142461289Y-61870000D01*
X141278711Y-61870000D01*
X141259774Y-61851063D01*
X141090256Y-61737795D01*
X140901898Y-61659774D01*
X140701939Y-61620000D01*
X140498061Y-61620000D01*
X140298102Y-61659774D01*
X140109744Y-61737795D01*
X139940226Y-61851063D01*
X139796063Y-61995226D01*
X139682795Y-62164744D01*
X139604774Y-62353102D01*
X139565000Y-62553061D01*
X113761900Y-62553061D01*
X109449732Y-58240893D01*
X112127168Y-58240893D01*
X112127168Y-58444771D01*
X112166942Y-58644730D01*
X112244963Y-58833088D01*
X112358231Y-59002606D01*
X112502394Y-59146769D01*
X112671912Y-59260037D01*
X112860270Y-59338058D01*
X113060229Y-59377832D01*
X113264107Y-59377832D01*
X113464066Y-59338058D01*
X113652424Y-59260037D01*
X113821942Y-59146769D01*
X113840879Y-59127832D01*
X117886258Y-59127832D01*
X118073102Y-59205226D01*
X118273061Y-59245000D01*
X118476939Y-59245000D01*
X118676898Y-59205226D01*
X118865256Y-59127205D01*
X119034774Y-59013937D01*
X119178937Y-58869774D01*
X119292205Y-58700256D01*
X119370226Y-58511898D01*
X119410000Y-58311939D01*
X119410000Y-58108061D01*
X119370226Y-57908102D01*
X119292205Y-57719744D01*
X119178937Y-57550226D01*
X119034774Y-57406063D01*
X118865256Y-57292795D01*
X118676898Y-57214774D01*
X118476939Y-57175000D01*
X118273061Y-57175000D01*
X118073102Y-57214774D01*
X117884744Y-57292795D01*
X117715226Y-57406063D01*
X117571063Y-57550226D01*
X117565981Y-57557832D01*
X113840879Y-57557832D01*
X113821942Y-57538895D01*
X113652424Y-57425627D01*
X113464066Y-57347606D01*
X113264107Y-57307832D01*
X113060229Y-57307832D01*
X112860270Y-57347606D01*
X112671912Y-57425627D01*
X112502394Y-57538895D01*
X112358231Y-57683058D01*
X112244963Y-57852576D01*
X112166942Y-58040934D01*
X112127168Y-58240893D01*
X109449732Y-58240893D01*
X108992417Y-57783579D01*
X108967834Y-57753625D01*
X108848303Y-57655527D01*
X108711930Y-57582635D01*
X108563957Y-57537748D01*
X108448631Y-57526389D01*
X108448623Y-57526389D01*
X108410070Y-57522592D01*
X108371517Y-57526389D01*
X106247167Y-57526389D01*
X106208611Y-57522592D01*
X106170055Y-57526389D01*
X106170050Y-57526389D01*
X106129637Y-57530369D01*
X106054724Y-57537747D01*
X105906751Y-57582635D01*
X105770378Y-57655527D01*
X105710170Y-57704939D01*
X105680798Y-57729044D01*
X105680795Y-57729047D01*
X105650847Y-57753625D01*
X105626268Y-57783574D01*
X105599842Y-57810000D01*
X105573061Y-57810000D01*
X105373102Y-57849774D01*
X105184744Y-57927795D01*
X105015226Y-58041063D01*
X104871063Y-58185226D01*
X104757795Y-58354744D01*
X104679774Y-58543102D01*
X104640000Y-58743061D01*
X104640000Y-58946939D01*
X104679774Y-59146898D01*
X104757795Y-59335256D01*
X104854510Y-59480000D01*
X104757795Y-59624744D01*
X104679774Y-59813102D01*
X104640000Y-60013061D01*
X104640000Y-60216939D01*
X104679774Y-60416898D01*
X104757795Y-60605256D01*
X104871063Y-60774774D01*
X104966289Y-60870000D01*
X104938061Y-60870000D01*
X104738102Y-60909774D01*
X104549744Y-60987795D01*
X104405000Y-61084510D01*
X104260256Y-60987795D01*
X104071898Y-60909774D01*
X103871939Y-60870000D01*
X103668061Y-60870000D01*
X103468102Y-60909774D01*
X103279744Y-60987795D01*
X103110226Y-61101063D01*
X102966063Y-61245226D01*
X102852795Y-61414744D01*
X102774774Y-61603102D01*
X102735000Y-61803061D01*
X90387934Y-61803061D01*
X90290256Y-61737795D01*
X90101898Y-61659774D01*
X89901939Y-61620000D01*
X89698061Y-61620000D01*
X89498102Y-61659774D01*
X89309744Y-61737795D01*
X89140226Y-61851063D01*
X89121289Y-61870000D01*
X87938711Y-61870000D01*
X87919774Y-61851063D01*
X87750256Y-61737795D01*
X87561898Y-61659774D01*
X87361939Y-61620000D01*
X87158061Y-61620000D01*
X86958102Y-61659774D01*
X86769744Y-61737795D01*
X86600226Y-61851063D01*
X86456063Y-61995226D01*
X86342795Y-62164744D01*
X86264774Y-62353102D01*
X86225000Y-62553061D01*
X58964000Y-62553061D01*
X58964000Y-51741662D01*
X84532922Y-51741662D01*
X84532922Y-52034182D01*
X84589990Y-52321080D01*
X84701932Y-52591333D01*
X84864447Y-52834554D01*
X85071290Y-53041397D01*
X85203894Y-53130000D01*
X85071290Y-53218603D01*
X84864447Y-53425446D01*
X84701932Y-53668667D01*
X84589990Y-53938920D01*
X84532922Y-54225818D01*
X84532922Y-54518338D01*
X84589990Y-54805236D01*
X84701932Y-55075489D01*
X84864447Y-55318710D01*
X85071290Y-55525553D01*
X85314511Y-55688068D01*
X85584764Y-55800010D01*
X85871662Y-55857078D01*
X86164182Y-55857078D01*
X86451080Y-55800010D01*
X86721333Y-55688068D01*
X86964554Y-55525553D01*
X87171397Y-55318710D01*
X87260000Y-55186106D01*
X87348603Y-55318710D01*
X87555446Y-55525553D01*
X87798667Y-55688068D01*
X88068920Y-55800010D01*
X88355818Y-55857078D01*
X88648338Y-55857078D01*
X88935236Y-55800010D01*
X89205489Y-55688068D01*
X89448710Y-55525553D01*
X89655553Y-55318710D01*
X89818068Y-55075489D01*
X89930010Y-54805236D01*
X89987078Y-54518338D01*
X89987078Y-54225818D01*
X89930010Y-53938920D01*
X89818068Y-53668667D01*
X89655553Y-53425446D01*
X89448710Y-53218603D01*
X89316106Y-53130000D01*
X89448710Y-53041397D01*
X89462046Y-53028061D01*
X107815000Y-53028061D01*
X107815000Y-53231939D01*
X107854774Y-53431898D01*
X107932795Y-53620256D01*
X108046063Y-53789774D01*
X108065000Y-53808711D01*
X108065001Y-54991288D01*
X108046063Y-55010226D01*
X107932795Y-55179744D01*
X107854774Y-55368102D01*
X107815000Y-55568061D01*
X107815000Y-55771939D01*
X107854774Y-55971898D01*
X107932795Y-56160256D01*
X108046063Y-56329774D01*
X108190226Y-56473937D01*
X108359744Y-56587205D01*
X108548102Y-56665226D01*
X108748061Y-56705000D01*
X108951939Y-56705000D01*
X109151898Y-56665226D01*
X109340256Y-56587205D01*
X109485000Y-56490490D01*
X109629744Y-56587205D01*
X109818102Y-56665226D01*
X110018061Y-56705000D01*
X110221939Y-56705000D01*
X110421898Y-56665226D01*
X110610256Y-56587205D01*
X110755000Y-56490490D01*
X110899744Y-56587205D01*
X111088102Y-56665226D01*
X111288061Y-56705000D01*
X111491939Y-56705000D01*
X111691898Y-56665226D01*
X111880256Y-56587205D01*
X112025000Y-56490490D01*
X112169744Y-56587205D01*
X112358102Y-56665226D01*
X112558061Y-56705000D01*
X112761939Y-56705000D01*
X112961898Y-56665226D01*
X113150256Y-56587205D01*
X113295000Y-56490490D01*
X113439744Y-56587205D01*
X113628102Y-56665226D01*
X113828061Y-56705000D01*
X114031939Y-56705000D01*
X114231898Y-56665226D01*
X114420256Y-56587205D01*
X114565000Y-56490490D01*
X114709744Y-56587205D01*
X114898102Y-56665226D01*
X115098061Y-56705000D01*
X115301939Y-56705000D01*
X115501898Y-56665226D01*
X115690256Y-56587205D01*
X115835000Y-56490490D01*
X115979744Y-56587205D01*
X116168102Y-56665226D01*
X116368061Y-56705000D01*
X116571939Y-56705000D01*
X116771898Y-56665226D01*
X116960256Y-56587205D01*
X117105000Y-56490490D01*
X117249744Y-56587205D01*
X117438102Y-56665226D01*
X117638061Y-56705000D01*
X117841939Y-56705000D01*
X118041898Y-56665226D01*
X118230256Y-56587205D01*
X118375000Y-56490490D01*
X118519744Y-56587205D01*
X118708102Y-56665226D01*
X118908061Y-56705000D01*
X119111939Y-56705000D01*
X119311898Y-56665226D01*
X119500256Y-56587205D01*
X119669774Y-56473937D01*
X119813937Y-56329774D01*
X119927205Y-56160256D01*
X120005226Y-55971898D01*
X120045000Y-55771939D01*
X120045000Y-55568061D01*
X120005226Y-55368102D01*
X119927205Y-55179744D01*
X119813937Y-55010226D01*
X119795000Y-54991289D01*
X119795000Y-53808711D01*
X119813937Y-53789774D01*
X119927205Y-53620256D01*
X120005226Y-53431898D01*
X120045000Y-53231939D01*
X120045000Y-53028061D01*
X120005226Y-52828102D01*
X119927205Y-52639744D01*
X119813937Y-52470226D01*
X119669774Y-52326063D01*
X119500256Y-52212795D01*
X119311898Y-52134774D01*
X119111939Y-52095000D01*
X118908061Y-52095000D01*
X118708102Y-52134774D01*
X118519744Y-52212795D01*
X118375000Y-52309510D01*
X118230256Y-52212795D01*
X118041898Y-52134774D01*
X117841939Y-52095000D01*
X117638061Y-52095000D01*
X117438102Y-52134774D01*
X117249744Y-52212795D01*
X117105000Y-52309510D01*
X116960256Y-52212795D01*
X116771898Y-52134774D01*
X116571939Y-52095000D01*
X116368061Y-52095000D01*
X116168102Y-52134774D01*
X115979744Y-52212795D01*
X115835000Y-52309510D01*
X115690256Y-52212795D01*
X115501898Y-52134774D01*
X115301939Y-52095000D01*
X115098061Y-52095000D01*
X114898102Y-52134774D01*
X114709744Y-52212795D01*
X114565000Y-52309510D01*
X114420256Y-52212795D01*
X114231898Y-52134774D01*
X114031939Y-52095000D01*
X113828061Y-52095000D01*
X113628102Y-52134774D01*
X113439744Y-52212795D01*
X113295000Y-52309510D01*
X113150256Y-52212795D01*
X112961898Y-52134774D01*
X112761939Y-52095000D01*
X112558061Y-52095000D01*
X112358102Y-52134774D01*
X112169744Y-52212795D01*
X112025000Y-52309510D01*
X111880256Y-52212795D01*
X111691898Y-52134774D01*
X111491939Y-52095000D01*
X111288061Y-52095000D01*
X111088102Y-52134774D01*
X110899744Y-52212795D01*
X110755000Y-52309510D01*
X110610256Y-52212795D01*
X110421898Y-52134774D01*
X110221939Y-52095000D01*
X110018061Y-52095000D01*
X109818102Y-52134774D01*
X109629744Y-52212795D01*
X109485000Y-52309510D01*
X109340256Y-52212795D01*
X109151898Y-52134774D01*
X108951939Y-52095000D01*
X108748061Y-52095000D01*
X108548102Y-52134774D01*
X108359744Y-52212795D01*
X108190226Y-52326063D01*
X108046063Y-52470226D01*
X107932795Y-52639744D01*
X107854774Y-52828102D01*
X107815000Y-53028061D01*
X89462046Y-53028061D01*
X89655553Y-52834554D01*
X89818068Y-52591333D01*
X89930010Y-52321080D01*
X89987078Y-52034182D01*
X89987078Y-51741662D01*
X140412922Y-51741662D01*
X140412922Y-52034182D01*
X140469990Y-52321080D01*
X140581932Y-52591333D01*
X140744447Y-52834554D01*
X140951290Y-53041397D01*
X141083894Y-53130000D01*
X140951290Y-53218603D01*
X140744447Y-53425446D01*
X140581932Y-53668667D01*
X140469990Y-53938920D01*
X140412922Y-54225818D01*
X140412922Y-54518338D01*
X140469990Y-54805236D01*
X140581932Y-55075489D01*
X140744447Y-55318710D01*
X140951290Y-55525553D01*
X141194511Y-55688068D01*
X141464764Y-55800010D01*
X141751662Y-55857078D01*
X142044182Y-55857078D01*
X142331080Y-55800010D01*
X142601333Y-55688068D01*
X142844554Y-55525553D01*
X143051397Y-55318710D01*
X143140000Y-55186106D01*
X143228603Y-55318710D01*
X143435446Y-55525553D01*
X143678667Y-55688068D01*
X143948920Y-55800010D01*
X144235818Y-55857078D01*
X144528338Y-55857078D01*
X144815236Y-55800010D01*
X145085489Y-55688068D01*
X145328710Y-55525553D01*
X145535553Y-55318710D01*
X145698068Y-55075489D01*
X145810010Y-54805236D01*
X145867078Y-54518338D01*
X145867078Y-54225818D01*
X145810010Y-53938920D01*
X145698068Y-53668667D01*
X145535553Y-53425446D01*
X145328710Y-53218603D01*
X145196106Y-53130000D01*
X145328710Y-53041397D01*
X145535553Y-52834554D01*
X145698068Y-52591333D01*
X145810010Y-52321080D01*
X145867078Y-52034182D01*
X145867078Y-51741662D01*
X145810010Y-51454764D01*
X145698068Y-51184511D01*
X145535553Y-50941290D01*
X145328710Y-50734447D01*
X145085489Y-50571932D01*
X144815236Y-50459990D01*
X144528338Y-50402922D01*
X144235818Y-50402922D01*
X143948920Y-50459990D01*
X143678667Y-50571932D01*
X143435446Y-50734447D01*
X143228603Y-50941290D01*
X143140000Y-51073894D01*
X143051397Y-50941290D01*
X142844554Y-50734447D01*
X142601333Y-50571932D01*
X142331080Y-50459990D01*
X142044182Y-50402922D01*
X141751662Y-50402922D01*
X141464764Y-50459990D01*
X141194511Y-50571932D01*
X140951290Y-50734447D01*
X140744447Y-50941290D01*
X140581932Y-51184511D01*
X140469990Y-51454764D01*
X140412922Y-51741662D01*
X89987078Y-51741662D01*
X89930010Y-51454764D01*
X89818068Y-51184511D01*
X89655553Y-50941290D01*
X89448710Y-50734447D01*
X89205489Y-50571932D01*
X88935236Y-50459990D01*
X88648338Y-50402922D01*
X88355818Y-50402922D01*
X88068920Y-50459990D01*
X87798667Y-50571932D01*
X87555446Y-50734447D01*
X87348603Y-50941290D01*
X87260000Y-51073894D01*
X87171397Y-50941290D01*
X86964554Y-50734447D01*
X86721333Y-50571932D01*
X86451080Y-50459990D01*
X86164182Y-50402922D01*
X85871662Y-50402922D01*
X85584764Y-50459990D01*
X85314511Y-50571932D01*
X85071290Y-50734447D01*
X84864447Y-50941290D01*
X84701932Y-51184511D01*
X84589990Y-51454764D01*
X84532922Y-51741662D01*
X58964000Y-51741662D01*
X58964000Y-36518061D01*
X107815000Y-36518061D01*
X107815000Y-36721939D01*
X107854774Y-36921898D01*
X107932795Y-37110256D01*
X108046063Y-37279774D01*
X108190226Y-37423937D01*
X108359744Y-37537205D01*
X108548102Y-37615226D01*
X108748061Y-37655000D01*
X108951939Y-37655000D01*
X109151898Y-37615226D01*
X109340256Y-37537205D01*
X109509774Y-37423937D01*
X109653937Y-37279774D01*
X109767205Y-37110256D01*
X109845226Y-36921898D01*
X109885000Y-36721939D01*
X109885000Y-36518061D01*
X109845226Y-36318102D01*
X109767205Y-36129744D01*
X109740452Y-36089705D01*
X111475001Y-34355156D01*
X111475001Y-34911448D01*
X111471204Y-34950001D01*
X111475001Y-34988554D01*
X111475001Y-34988561D01*
X111486360Y-35103887D01*
X111531247Y-35251860D01*
X111604139Y-35388233D01*
X111625000Y-35413652D01*
X111625000Y-35451939D01*
X111658039Y-35618039D01*
X111491939Y-35585000D01*
X111288061Y-35585000D01*
X111088102Y-35624774D01*
X110899744Y-35702795D01*
X110730226Y-35816063D01*
X110586063Y-35960226D01*
X110472795Y-36129744D01*
X110394774Y-36318102D01*
X110355000Y-36518061D01*
X110355000Y-36721939D01*
X110394774Y-36921898D01*
X110472795Y-37110256D01*
X110586063Y-37279774D01*
X110730226Y-37423937D01*
X110899744Y-37537205D01*
X111088102Y-37615226D01*
X111288061Y-37655000D01*
X111491939Y-37655000D01*
X111691898Y-37615226D01*
X111880256Y-37537205D01*
X112049774Y-37423937D01*
X112068711Y-37405000D01*
X112461449Y-37405000D01*
X112500002Y-37408797D01*
X112538555Y-37405000D01*
X112538563Y-37405000D01*
X112653889Y-37393641D01*
X112801862Y-37348754D01*
X112938235Y-37275862D01*
X113057766Y-37177764D01*
X113082349Y-37147810D01*
X114107816Y-36122344D01*
X114137763Y-36097767D01*
X114235861Y-35978236D01*
X114308753Y-35841863D01*
X114344615Y-35723642D01*
X114353640Y-35693891D01*
X114357780Y-35651859D01*
X114364999Y-35578564D01*
X114364999Y-35578557D01*
X114368796Y-35540004D01*
X114364999Y-35501451D01*
X114364999Y-35248061D01*
X154805000Y-35248061D01*
X154805000Y-35451939D01*
X154844774Y-35651898D01*
X154922795Y-35840256D01*
X155036063Y-36009774D01*
X155180226Y-36153937D01*
X155349744Y-36267205D01*
X155538102Y-36345226D01*
X155738061Y-36385000D01*
X155941939Y-36385000D01*
X156141898Y-36345226D01*
X156330256Y-36267205D01*
X156499774Y-36153937D01*
X156518711Y-36135000D01*
X160881447Y-36135000D01*
X160920000Y-36138797D01*
X160958553Y-36135000D01*
X160958561Y-36135000D01*
X161073887Y-36123641D01*
X161221860Y-36078754D01*
X161358233Y-36005862D01*
X161477764Y-35907764D01*
X161502347Y-35877810D01*
X162265158Y-35115000D01*
X162291939Y-35115000D01*
X162491898Y-35075226D01*
X162680256Y-34997205D01*
X162849774Y-34883937D01*
X162993937Y-34739774D01*
X163107205Y-34570256D01*
X163185226Y-34381898D01*
X163225000Y-34181939D01*
X163225000Y-33978061D01*
X163185226Y-33778102D01*
X163107205Y-33589744D01*
X162993937Y-33420226D01*
X162849774Y-33276063D01*
X162680256Y-33162795D01*
X162491898Y-33084774D01*
X162291939Y-33045000D01*
X162088061Y-33045000D01*
X161888102Y-33084774D01*
X161699744Y-33162795D01*
X161530226Y-33276063D01*
X161386063Y-33420226D01*
X161272795Y-33589744D01*
X161194774Y-33778102D01*
X161155000Y-33978061D01*
X161155000Y-34004842D01*
X160594843Y-34565000D01*
X156518711Y-34565000D01*
X156499774Y-34546063D01*
X156330256Y-34432795D01*
X156141898Y-34354774D01*
X155941939Y-34315000D01*
X155738061Y-34315000D01*
X155538102Y-34354774D01*
X155349744Y-34432795D01*
X155180226Y-34546063D01*
X155036063Y-34690226D01*
X154922795Y-34859744D01*
X154844774Y-35048102D01*
X154805000Y-35248061D01*
X114364999Y-35248061D01*
X114364999Y-34965000D01*
X117951546Y-34965000D01*
X117999744Y-34997205D01*
X118188102Y-35075226D01*
X118388061Y-35115000D01*
X118591939Y-35115000D01*
X118791898Y-35075226D01*
X118980256Y-34997205D01*
X119149774Y-34883937D01*
X119293937Y-34739774D01*
X119407205Y-34570256D01*
X119485226Y-34381898D01*
X119525000Y-34181939D01*
X119525000Y-33978061D01*
X119485226Y-33778102D01*
X119407205Y-33589744D01*
X119310490Y-33445000D01*
X119407205Y-33300256D01*
X119485226Y-33111898D01*
X119525000Y-32911939D01*
X119525000Y-32708061D01*
X119485226Y-32508102D01*
X119407205Y-32319744D01*
X119310490Y-32175000D01*
X119407205Y-32030256D01*
X119485226Y-31841898D01*
X119525000Y-31641939D01*
X119525000Y-31438061D01*
X119485226Y-31238102D01*
X119407205Y-31049744D01*
X119293937Y-30880226D01*
X119149774Y-30736063D01*
X118980256Y-30622795D01*
X118791898Y-30544774D01*
X118591939Y-30505000D01*
X118388061Y-30505000D01*
X118188102Y-30544774D01*
X117999744Y-30622795D01*
X117951546Y-30655000D01*
X113718454Y-30655000D01*
X113670256Y-30622795D01*
X113481898Y-30544774D01*
X113281939Y-30505000D01*
X113078061Y-30505000D01*
X112878102Y-30544774D01*
X112689744Y-30622795D01*
X112520226Y-30736063D01*
X112376063Y-30880226D01*
X112262795Y-31049744D01*
X112184774Y-31238102D01*
X112145000Y-31438061D01*
X112145000Y-31464843D01*
X108322190Y-35287653D01*
X108292236Y-35312236D01*
X108194138Y-35431768D01*
X108121246Y-35568141D01*
X108076359Y-35716114D01*
X108065000Y-35831440D01*
X108065000Y-35831447D01*
X108061203Y-35870000D01*
X108065000Y-35908553D01*
X108065000Y-35941289D01*
X108046063Y-35960226D01*
X107932795Y-36129744D01*
X107854774Y-36318102D01*
X107815000Y-36518061D01*
X58964000Y-36518061D01*
X58964000Y-30168061D01*
X69715000Y-30168061D01*
X69715000Y-30371939D01*
X69754774Y-30571898D01*
X69832795Y-30760256D01*
X69946063Y-30929774D01*
X70090226Y-31073937D01*
X70259744Y-31187205D01*
X70448102Y-31265226D01*
X70600001Y-31295440D01*
X70600000Y-34671289D01*
X70581063Y-34690226D01*
X70467795Y-34859744D01*
X70389774Y-35048102D01*
X70350000Y-35248061D01*
X70350000Y-35451939D01*
X70389774Y-35651898D01*
X70467795Y-35840256D01*
X70581063Y-36009774D01*
X70725226Y-36153937D01*
X70894744Y-36267205D01*
X71083102Y-36345226D01*
X71283061Y-36385000D01*
X71486939Y-36385000D01*
X71686898Y-36345226D01*
X71875256Y-36267205D01*
X72044774Y-36153937D01*
X72188937Y-36009774D01*
X72302205Y-35840256D01*
X72380226Y-35651898D01*
X72420000Y-35451939D01*
X72420000Y-35248061D01*
X72380226Y-35048102D01*
X72302205Y-34859744D01*
X72188937Y-34690226D01*
X72170000Y-34671289D01*
X72170000Y-30943556D01*
X72173797Y-30905000D01*
X72170000Y-30866444D01*
X72170000Y-30866439D01*
X72160143Y-30766358D01*
X72158642Y-30751113D01*
X72113754Y-30603140D01*
X72097034Y-30571859D01*
X72040862Y-30466767D01*
X71942764Y-30347236D01*
X71912810Y-30322653D01*
X71785000Y-30194843D01*
X71785000Y-30168061D01*
X71745226Y-29968102D01*
X71667205Y-29779744D01*
X71553937Y-29610226D01*
X71409774Y-29466063D01*
X71240256Y-29352795D01*
X71051898Y-29274774D01*
X70851939Y-29235000D01*
X70648061Y-29235000D01*
X70448102Y-29274774D01*
X70259744Y-29352795D01*
X70090226Y-29466063D01*
X69946063Y-29610226D01*
X69832795Y-29779744D01*
X69754774Y-29968102D01*
X69715000Y-30168061D01*
X58964000Y-30168061D01*
X58964000Y-26733380D01*
X59084040Y-26613340D01*
X59134146Y-26865236D01*
X59246088Y-27135489D01*
X59408603Y-27378710D01*
X59615446Y-27585553D01*
X59858667Y-27748068D01*
X60128920Y-27860010D01*
X60415818Y-27917078D01*
X60708338Y-27917078D01*
X60995236Y-27860010D01*
X61265489Y-27748068D01*
X61508710Y-27585553D01*
X61715553Y-27378710D01*
X61878068Y-27135489D01*
X61990010Y-26865236D01*
X62047078Y-26578338D01*
X62047078Y-26285818D01*
X112472922Y-26285818D01*
X112472922Y-26578338D01*
X112529990Y-26865236D01*
X112641932Y-27135489D01*
X112804447Y-27378710D01*
X113011290Y-27585553D01*
X113254511Y-27748068D01*
X113524764Y-27860010D01*
X113811662Y-27917078D01*
X114104182Y-27917078D01*
X114391080Y-27860010D01*
X114661333Y-27748068D01*
X114904554Y-27585553D01*
X115111397Y-27378710D01*
X115200000Y-27246106D01*
X115288603Y-27378710D01*
X115495446Y-27585553D01*
X115738667Y-27748068D01*
X116008920Y-27860010D01*
X116295818Y-27917078D01*
X116588338Y-27917078D01*
X116875236Y-27860010D01*
X117145489Y-27748068D01*
X117325092Y-27628061D01*
X157345000Y-27628061D01*
X157345000Y-27831939D01*
X157384774Y-28031898D01*
X157462795Y-28220256D01*
X157559510Y-28365000D01*
X157462795Y-28509744D01*
X157384774Y-28698102D01*
X157345000Y-28898061D01*
X157345000Y-29101939D01*
X157384774Y-29301898D01*
X157462795Y-29490256D01*
X157559510Y-29635000D01*
X157462795Y-29779744D01*
X157384774Y-29968102D01*
X157345000Y-30168061D01*
X157345000Y-30371939D01*
X157384774Y-30571898D01*
X157462795Y-30760256D01*
X157576063Y-30929774D01*
X157720226Y-31073937D01*
X157889744Y-31187205D01*
X158078102Y-31265226D01*
X158278061Y-31305000D01*
X158481939Y-31305000D01*
X158681898Y-31265226D01*
X158870256Y-31187205D01*
X158918454Y-31155000D01*
X161651546Y-31155000D01*
X161699744Y-31187205D01*
X161888102Y-31265226D01*
X162088061Y-31305000D01*
X162291939Y-31305000D01*
X162491898Y-31265226D01*
X162680256Y-31187205D01*
X162849774Y-31073937D01*
X162993937Y-30929774D01*
X163107205Y-30760256D01*
X163185226Y-30571898D01*
X163225000Y-30371939D01*
X163225000Y-30168061D01*
X163185226Y-29968102D01*
X163150804Y-29885000D01*
X164191546Y-29885000D01*
X164239744Y-29917205D01*
X164428102Y-29995226D01*
X164628061Y-30035000D01*
X164831939Y-30035000D01*
X165031898Y-29995226D01*
X165220256Y-29917205D01*
X165389774Y-29803937D01*
X165533937Y-29659774D01*
X165647205Y-29490256D01*
X165725226Y-29301898D01*
X165765000Y-29101939D01*
X165765000Y-28898061D01*
X165725226Y-28698102D01*
X165690804Y-28615000D01*
X166731546Y-28615000D01*
X166779744Y-28647205D01*
X166968102Y-28725226D01*
X167168061Y-28765000D01*
X167371939Y-28765000D01*
X167571898Y-28725226D01*
X167760256Y-28647205D01*
X167929774Y-28533937D01*
X168073937Y-28389774D01*
X168187205Y-28220256D01*
X168265226Y-28031898D01*
X168305000Y-27831939D01*
X168305000Y-27628061D01*
X168265226Y-27428102D01*
X168187205Y-27239744D01*
X168073937Y-27070226D01*
X167929774Y-26926063D01*
X167760256Y-26812795D01*
X167571898Y-26734774D01*
X167371939Y-26695000D01*
X167168061Y-26695000D01*
X166968102Y-26734774D01*
X166779744Y-26812795D01*
X166731546Y-26845000D01*
X158918454Y-26845000D01*
X158870256Y-26812795D01*
X158681898Y-26734774D01*
X158481939Y-26695000D01*
X158278061Y-26695000D01*
X158078102Y-26734774D01*
X157889744Y-26812795D01*
X157720226Y-26926063D01*
X157576063Y-27070226D01*
X157462795Y-27239744D01*
X157384774Y-27428102D01*
X157345000Y-27628061D01*
X117325092Y-27628061D01*
X117388710Y-27585553D01*
X117595553Y-27378710D01*
X117758068Y-27135489D01*
X117870010Y-26865236D01*
X117927078Y-26578338D01*
X117927078Y-26285818D01*
X117870010Y-25998920D01*
X117758068Y-25728667D01*
X117595553Y-25485446D01*
X117388710Y-25278603D01*
X117145489Y-25116088D01*
X116875236Y-25004146D01*
X116588338Y-24947078D01*
X116295818Y-24947078D01*
X116008920Y-25004146D01*
X115738667Y-25116088D01*
X115495446Y-25278603D01*
X115288603Y-25485446D01*
X115200000Y-25618050D01*
X115111397Y-25485446D01*
X114904554Y-25278603D01*
X114661333Y-25116088D01*
X114391080Y-25004146D01*
X114104182Y-24947078D01*
X113811662Y-24947078D01*
X113524764Y-25004146D01*
X113254511Y-25116088D01*
X113011290Y-25278603D01*
X112804447Y-25485446D01*
X112641932Y-25728667D01*
X112529990Y-25998920D01*
X112472922Y-26285818D01*
X62047078Y-26285818D01*
X61990010Y-25998920D01*
X61878068Y-25728667D01*
X61715553Y-25485446D01*
X61508710Y-25278603D01*
X61265489Y-25116088D01*
X60995236Y-25004146D01*
X60743340Y-24954040D01*
X60863381Y-24834000D01*
X169536620Y-24834000D01*
X169656660Y-24954040D01*
G37*
X169656660Y-24954040D02*
X169404764Y-25004146D01*
X169134511Y-25116088D01*
X168891290Y-25278603D01*
X168684447Y-25485446D01*
X168521932Y-25728667D01*
X168409990Y-25998920D01*
X168352922Y-26285818D01*
X168352922Y-26578338D01*
X168409990Y-26865236D01*
X168521932Y-27135489D01*
X168684447Y-27378710D01*
X168891290Y-27585553D01*
X169134511Y-27748068D01*
X169404764Y-27860010D01*
X169691662Y-27917078D01*
X169984182Y-27917078D01*
X170271080Y-27860010D01*
X170541333Y-27748068D01*
X170784554Y-27585553D01*
X170991397Y-27378710D01*
X171153912Y-27135489D01*
X171265854Y-26865236D01*
X171315960Y-26613340D01*
X171436000Y-26733381D01*
X171436001Y-135406618D01*
X171315960Y-135526660D01*
X171265854Y-135274764D01*
X171153912Y-135004511D01*
X170991397Y-134761290D01*
X170784554Y-134554447D01*
X170541333Y-134391932D01*
X170271080Y-134279990D01*
X169984182Y-134222922D01*
X169691662Y-134222922D01*
X169404764Y-134279990D01*
X169134511Y-134391932D01*
X168891290Y-134554447D01*
X168684447Y-134761290D01*
X168521932Y-135004511D01*
X168409990Y-135274764D01*
X168352922Y-135561662D01*
X168352922Y-135854182D01*
X168409990Y-136141080D01*
X168521932Y-136411333D01*
X168684447Y-136654554D01*
X168891290Y-136861397D01*
X169134511Y-137023912D01*
X169404764Y-137135854D01*
X169656660Y-137185960D01*
X169536620Y-137306000D01*
X60863381Y-137306000D01*
X60743340Y-137185960D01*
X60995236Y-137135854D01*
X61265489Y-137023912D01*
X61508710Y-136861397D01*
X61715553Y-136654554D01*
X61878068Y-136411333D01*
X61990010Y-136141080D01*
X62047078Y-135854182D01*
X62047078Y-135561662D01*
X112472922Y-135561662D01*
X112472922Y-135854182D01*
X112529990Y-136141080D01*
X112641932Y-136411333D01*
X112804447Y-136654554D01*
X113011290Y-136861397D01*
X113254511Y-137023912D01*
X113524764Y-137135854D01*
X113811662Y-137192922D01*
X114104182Y-137192922D01*
X114391080Y-137135854D01*
X114661333Y-137023912D01*
X114904554Y-136861397D01*
X115111397Y-136654554D01*
X115200000Y-136521950D01*
X115288603Y-136654554D01*
X115495446Y-136861397D01*
X115738667Y-137023912D01*
X116008920Y-137135854D01*
X116295818Y-137192922D01*
X116588338Y-137192922D01*
X116875236Y-137135854D01*
X117145489Y-137023912D01*
X117388710Y-136861397D01*
X117595553Y-136654554D01*
X117758068Y-136411333D01*
X117870010Y-136141080D01*
X117927078Y-135854182D01*
X117927078Y-135561662D01*
X117870010Y-135274764D01*
X117758068Y-135004511D01*
X117595553Y-134761290D01*
X117388710Y-134554447D01*
X117145489Y-134391932D01*
X116875236Y-134279990D01*
X116588338Y-134222922D01*
X116295818Y-134222922D01*
X116008920Y-134279990D01*
X115738667Y-134391932D01*
X115495446Y-134554447D01*
X115288603Y-134761290D01*
X115200000Y-134893894D01*
X115111397Y-134761290D01*
X114904554Y-134554447D01*
X114661333Y-134391932D01*
X114391080Y-134279990D01*
X114104182Y-134222922D01*
X113811662Y-134222922D01*
X113524764Y-134279990D01*
X113254511Y-134391932D01*
X113011290Y-134554447D01*
X112804447Y-134761290D01*
X112641932Y-135004511D01*
X112529990Y-135274764D01*
X112472922Y-135561662D01*
X62047078Y-135561662D01*
X61990010Y-135274764D01*
X61878068Y-135004511D01*
X61715553Y-134761290D01*
X61508710Y-134554447D01*
X61265489Y-134391932D01*
X61063006Y-134308061D01*
X62095000Y-134308061D01*
X62095000Y-134511939D01*
X62134774Y-134711898D01*
X62212795Y-134900256D01*
X62326063Y-135069774D01*
X62470226Y-135213937D01*
X62639744Y-135327205D01*
X62828102Y-135405226D01*
X63028061Y-135445000D01*
X63231939Y-135445000D01*
X63431898Y-135405226D01*
X63620256Y-135327205D01*
X63668454Y-135295000D01*
X70211546Y-135295000D01*
X70259744Y-135327205D01*
X70448102Y-135405226D01*
X70648061Y-135445000D01*
X70851939Y-135445000D01*
X71051898Y-135405226D01*
X71240256Y-135327205D01*
X71409774Y-135213937D01*
X71553937Y-135069774D01*
X71667205Y-134900256D01*
X71745226Y-134711898D01*
X71785000Y-134511939D01*
X71785000Y-134308061D01*
X71745226Y-134108102D01*
X71667205Y-133919744D01*
X71570490Y-133775000D01*
X71667205Y-133630256D01*
X71745226Y-133441898D01*
X71785000Y-133241939D01*
X71785000Y-133038061D01*
X71745226Y-132838102D01*
X71667205Y-132649744D01*
X71570490Y-132505000D01*
X71667205Y-132360256D01*
X71745226Y-132171898D01*
X71785000Y-131971939D01*
X71785000Y-131768061D01*
X71745226Y-131568102D01*
X71669382Y-131385000D01*
X75151289Y-131385000D01*
X75170226Y-131403937D01*
X75339744Y-131517205D01*
X75528102Y-131595226D01*
X75728061Y-131635000D01*
X75931939Y-131635000D01*
X76131898Y-131595226D01*
X76320256Y-131517205D01*
X76489774Y-131403937D01*
X76633937Y-131259774D01*
X76747205Y-131090256D01*
X76825226Y-130901898D01*
X76865000Y-130701939D01*
X76865000Y-130498061D01*
X76825226Y-130298102D01*
X76747205Y-130109744D01*
X76633937Y-129940226D01*
X76489774Y-129796063D01*
X76320256Y-129682795D01*
X76131898Y-129604774D01*
X75931939Y-129565000D01*
X75728061Y-129565000D01*
X75528102Y-129604774D01*
X75339744Y-129682795D01*
X75170226Y-129796063D01*
X75151289Y-129815000D01*
X68268711Y-129815000D01*
X68249774Y-129796063D01*
X68080256Y-129682795D01*
X67891898Y-129604774D01*
X67691939Y-129565000D01*
X67488061Y-129565000D01*
X67288102Y-129604774D01*
X67099744Y-129682795D01*
X66930226Y-129796063D01*
X66786063Y-129940226D01*
X66672795Y-130109744D01*
X66594774Y-130298102D01*
X66555000Y-130498061D01*
X66555000Y-130701939D01*
X66594774Y-130901898D01*
X66672795Y-131090256D01*
X66786063Y-131259774D01*
X66930226Y-131403937D01*
X67099744Y-131517205D01*
X67215923Y-131565328D01*
X67214774Y-131568102D01*
X67175000Y-131768061D01*
X67175000Y-131971939D01*
X67214774Y-132171898D01*
X67249196Y-132255000D01*
X66208454Y-132255000D01*
X66160256Y-132222795D01*
X65971898Y-132144774D01*
X65771939Y-132105000D01*
X65568061Y-132105000D01*
X65368102Y-132144774D01*
X65179744Y-132222795D01*
X65010226Y-132336063D01*
X64866063Y-132480226D01*
X64752795Y-132649744D01*
X64674774Y-132838102D01*
X64635000Y-133038061D01*
X64635000Y-133241939D01*
X64674774Y-133441898D01*
X64709196Y-133525000D01*
X63668454Y-133525000D01*
X63620256Y-133492795D01*
X63431898Y-133414774D01*
X63231939Y-133375000D01*
X63028061Y-133375000D01*
X62828102Y-133414774D01*
X62639744Y-133492795D01*
X62470226Y-133606063D01*
X62326063Y-133750226D01*
X62212795Y-133919744D01*
X62134774Y-134108102D01*
X62095000Y-134308061D01*
X61063006Y-134308061D01*
X60995236Y-134279990D01*
X60708338Y-134222922D01*
X60415818Y-134222922D01*
X60128920Y-134279990D01*
X59858667Y-134391932D01*
X59615446Y-134554447D01*
X59408603Y-134761290D01*
X59246088Y-135004511D01*
X59134146Y-135274764D01*
X59084040Y-135526660D01*
X58964000Y-135406620D01*
X58964000Y-126053061D01*
X112895000Y-126053061D01*
X112895000Y-126256939D01*
X112934774Y-126456898D01*
X113012795Y-126645256D01*
X113126063Y-126814774D01*
X113270226Y-126958937D01*
X113439744Y-127072205D01*
X113628102Y-127150226D01*
X113780000Y-127180440D01*
X113780001Y-128136438D01*
X113776203Y-128175000D01*
X113791359Y-128328886D01*
X113836246Y-128476859D01*
X113836247Y-128476860D01*
X113909139Y-128613233D01*
X113912858Y-128617764D01*
X113982655Y-128702812D01*
X113982659Y-128702816D01*
X114007237Y-128732764D01*
X114037185Y-128757342D01*
X114685000Y-129405157D01*
X114685000Y-129431939D01*
X114724774Y-129631898D01*
X114802795Y-129820256D01*
X114899510Y-129965000D01*
X114802795Y-130109744D01*
X114724774Y-130298102D01*
X114685000Y-130498061D01*
X114685000Y-130701939D01*
X114724774Y-130901898D01*
X114802795Y-131090256D01*
X114916063Y-131259774D01*
X115060226Y-131403937D01*
X115229744Y-131517205D01*
X115418102Y-131595226D01*
X115618061Y-131635000D01*
X115821939Y-131635000D01*
X116021898Y-131595226D01*
X116210256Y-131517205D01*
X116258454Y-131485000D01*
X120491546Y-131485000D01*
X120539744Y-131517205D01*
X120728102Y-131595226D01*
X120928061Y-131635000D01*
X121131939Y-131635000D01*
X121331898Y-131595226D01*
X121520256Y-131517205D01*
X121689774Y-131403937D01*
X121833937Y-131259774D01*
X121947205Y-131090256D01*
X122025226Y-130901898D01*
X122065000Y-130701939D01*
X122065000Y-130675157D01*
X122477809Y-130262348D01*
X122507763Y-130237765D01*
X122605861Y-130118234D01*
X122678753Y-129981861D01*
X122723640Y-129833888D01*
X122734999Y-129718562D01*
X122734999Y-129718555D01*
X122738796Y-129680002D01*
X122734999Y-129641449D01*
X122734999Y-127228551D01*
X122738796Y-127189998D01*
X122734999Y-127151445D01*
X122734999Y-127151438D01*
X122723640Y-127036112D01*
X122678753Y-126888139D01*
X122605861Y-126751766D01*
X122585000Y-126726347D01*
X122585000Y-126688061D01*
X157345000Y-126688061D01*
X157345000Y-126891939D01*
X157384774Y-127091898D01*
X157462795Y-127280256D01*
X157576063Y-127449774D01*
X157720226Y-127593937D01*
X157889744Y-127707205D01*
X158078102Y-127785226D01*
X158278061Y-127825000D01*
X158304843Y-127825000D01*
X158865001Y-128385159D01*
X158865000Y-131191289D01*
X158846063Y-131210226D01*
X158732795Y-131379744D01*
X158654774Y-131568102D01*
X158615000Y-131768061D01*
X158615000Y-131971939D01*
X158654774Y-132171898D01*
X158732795Y-132360256D01*
X158846063Y-132529774D01*
X158990226Y-132673937D01*
X159159744Y-132787205D01*
X159348102Y-132865226D01*
X159548061Y-132905000D01*
X159751939Y-132905000D01*
X159951898Y-132865226D01*
X160140256Y-132787205D01*
X160309774Y-132673937D01*
X160453937Y-132529774D01*
X160567205Y-132360256D01*
X160645226Y-132171898D01*
X160685000Y-131971939D01*
X160685000Y-131768061D01*
X160645226Y-131568102D01*
X160567205Y-131379744D01*
X160453937Y-131210226D01*
X160435000Y-131191289D01*
X160435000Y-128098552D01*
X160438797Y-128059999D01*
X160435000Y-128021446D01*
X160435000Y-128021439D01*
X160423641Y-127906113D01*
X160378754Y-127758140D01*
X160305862Y-127621767D01*
X160256450Y-127561559D01*
X160232345Y-127532187D01*
X160232342Y-127532184D01*
X160207764Y-127502236D01*
X160177815Y-127477658D01*
X159415000Y-126714843D01*
X159415000Y-126688061D01*
X159375226Y-126488102D01*
X159297205Y-126299744D01*
X159183937Y-126130226D01*
X159039774Y-125986063D01*
X158870256Y-125872795D01*
X158681898Y-125794774D01*
X158481939Y-125755000D01*
X158278061Y-125755000D01*
X158078102Y-125794774D01*
X157889744Y-125872795D01*
X157720226Y-125986063D01*
X157576063Y-126130226D01*
X157462795Y-126299744D01*
X157384774Y-126488102D01*
X157345000Y-126688061D01*
X122585000Y-126688061D01*
X122545226Y-126488102D01*
X122467205Y-126299744D01*
X122353937Y-126130226D01*
X122209774Y-125986063D01*
X122040256Y-125872795D01*
X121851898Y-125794774D01*
X121651939Y-125755000D01*
X121448061Y-125755000D01*
X121248102Y-125794774D01*
X121059744Y-125872795D01*
X120890226Y-125986063D01*
X120746063Y-126130226D01*
X120632795Y-126299744D01*
X120554774Y-126488102D01*
X120515000Y-126688061D01*
X120515000Y-126891939D01*
X120554774Y-127091898D01*
X120570568Y-127130027D01*
X120539744Y-127142795D01*
X120491546Y-127175000D01*
X116904999Y-127175000D01*
X116904999Y-126003553D01*
X116908796Y-125964997D01*
X116904999Y-125926437D01*
X116904999Y-125926436D01*
X116896804Y-125843231D01*
X116893641Y-125811110D01*
X116848753Y-125663137D01*
X116829538Y-125627188D01*
X116775861Y-125526764D01*
X116677763Y-125407233D01*
X116647810Y-125382651D01*
X116142348Y-124877189D01*
X116117765Y-124847235D01*
X115998234Y-124749137D01*
X115861861Y-124676245D01*
X115713888Y-124631358D01*
X115598562Y-124619999D01*
X115598554Y-124619999D01*
X115560001Y-124616202D01*
X115521448Y-124619999D01*
X114718557Y-124619999D01*
X114680001Y-124616202D01*
X114641445Y-124619999D01*
X114641440Y-124619999D01*
X114601027Y-124623979D01*
X114526114Y-124631357D01*
X114378141Y-124676245D01*
X114241768Y-124749137D01*
X114122237Y-124847235D01*
X114097654Y-124877189D01*
X113854843Y-125120000D01*
X113828061Y-125120000D01*
X113628102Y-125159774D01*
X113439744Y-125237795D01*
X113270226Y-125351063D01*
X113126063Y-125495226D01*
X113012795Y-125664744D01*
X112934774Y-125853102D01*
X112895000Y-126053061D01*
X58964000Y-126053061D01*
X58964000Y-107621662D01*
X84532922Y-107621662D01*
X84532922Y-107914182D01*
X84589990Y-108201080D01*
X84701932Y-108471333D01*
X84864447Y-108714554D01*
X85071290Y-108921397D01*
X85203894Y-109010000D01*
X85071290Y-109098603D01*
X84864447Y-109305446D01*
X84701932Y-109548667D01*
X84589990Y-109818920D01*
X84532922Y-110105818D01*
X84532922Y-110398338D01*
X84589990Y-110685236D01*
X84701932Y-110955489D01*
X84864447Y-111198710D01*
X85071290Y-111405553D01*
X85314511Y-111568068D01*
X85584764Y-111680010D01*
X85871662Y-111737078D01*
X86164182Y-111737078D01*
X86451080Y-111680010D01*
X86721333Y-111568068D01*
X86964554Y-111405553D01*
X87171397Y-111198710D01*
X87260000Y-111066106D01*
X87348603Y-111198710D01*
X87555446Y-111405553D01*
X87798667Y-111568068D01*
X88068920Y-111680010D01*
X88355818Y-111737078D01*
X88648338Y-111737078D01*
X88935236Y-111680010D01*
X89205489Y-111568068D01*
X89448710Y-111405553D01*
X89655553Y-111198710D01*
X89818068Y-110955489D01*
X89930010Y-110685236D01*
X89987078Y-110398338D01*
X89987078Y-110105818D01*
X89930010Y-109818920D01*
X89818068Y-109548667D01*
X89655553Y-109305446D01*
X89448710Y-109098603D01*
X89316106Y-109010000D01*
X89448710Y-108921397D01*
X89655553Y-108714554D01*
X89818068Y-108471333D01*
X89930010Y-108201080D01*
X89987078Y-107914182D01*
X89987078Y-107621662D01*
X89930010Y-107334764D01*
X89818068Y-107064511D01*
X89655553Y-106821290D01*
X89448710Y-106614447D01*
X89205489Y-106451932D01*
X89003006Y-106368061D01*
X111625000Y-106368061D01*
X111625000Y-106571939D01*
X111664774Y-106771898D01*
X111742795Y-106960256D01*
X111856063Y-107129774D01*
X111875000Y-107148711D01*
X111875001Y-108331288D01*
X111856063Y-108350226D01*
X111742795Y-108519744D01*
X111664774Y-108708102D01*
X111625000Y-108908061D01*
X111625000Y-109111939D01*
X111664774Y-109311898D01*
X111742795Y-109500256D01*
X111856063Y-109669774D01*
X112000226Y-109813937D01*
X112169744Y-109927205D01*
X112358102Y-110005226D01*
X112558061Y-110045000D01*
X112761939Y-110045000D01*
X112961898Y-110005226D01*
X113150256Y-109927205D01*
X113295000Y-109830490D01*
X113439744Y-109927205D01*
X113628102Y-110005226D01*
X113828061Y-110045000D01*
X114031939Y-110045000D01*
X114231898Y-110005226D01*
X114420256Y-109927205D01*
X114565000Y-109830490D01*
X114709744Y-109927205D01*
X114898102Y-110005226D01*
X115098061Y-110045000D01*
X115301939Y-110045000D01*
X115501898Y-110005226D01*
X115690256Y-109927205D01*
X115835000Y-109830490D01*
X115979744Y-109927205D01*
X116168102Y-110005226D01*
X116368061Y-110045000D01*
X116571939Y-110045000D01*
X116771898Y-110005226D01*
X116960256Y-109927205D01*
X117105000Y-109830490D01*
X117249744Y-109927205D01*
X117438102Y-110005226D01*
X117638061Y-110045000D01*
X117841939Y-110045000D01*
X118041898Y-110005226D01*
X118230256Y-109927205D01*
X118375000Y-109830490D01*
X118519744Y-109927205D01*
X118708102Y-110005226D01*
X118908061Y-110045000D01*
X119111939Y-110045000D01*
X119311898Y-110005226D01*
X119500256Y-109927205D01*
X119645000Y-109830490D01*
X119789744Y-109927205D01*
X119978102Y-110005226D01*
X120178061Y-110045000D01*
X120381939Y-110045000D01*
X120581898Y-110005226D01*
X120770256Y-109927205D01*
X120915000Y-109830490D01*
X121059744Y-109927205D01*
X121248102Y-110005226D01*
X121448061Y-110045000D01*
X121651939Y-110045000D01*
X121851898Y-110005226D01*
X122040256Y-109927205D01*
X122185000Y-109830490D01*
X122329744Y-109927205D01*
X122518102Y-110005226D01*
X122718061Y-110045000D01*
X122921939Y-110045000D01*
X123121898Y-110005226D01*
X123310256Y-109927205D01*
X123479774Y-109813937D01*
X123623937Y-109669774D01*
X123737205Y-109500256D01*
X123815226Y-109311898D01*
X123855000Y-109111939D01*
X123855000Y-108908061D01*
X123815226Y-108708102D01*
X123737205Y-108519744D01*
X123623937Y-108350226D01*
X123605000Y-108331289D01*
X123605000Y-107621662D01*
X140412922Y-107621662D01*
X140412922Y-107914182D01*
X140469990Y-108201080D01*
X140581932Y-108471333D01*
X140744447Y-108714554D01*
X140951290Y-108921397D01*
X141083894Y-109010000D01*
X140951290Y-109098603D01*
X140744447Y-109305446D01*
X140581932Y-109548667D01*
X140469990Y-109818920D01*
X140412922Y-110105818D01*
X140412922Y-110398338D01*
X140469990Y-110685236D01*
X140581932Y-110955489D01*
X140744447Y-111198710D01*
X140951290Y-111405553D01*
X141194511Y-111568068D01*
X141464764Y-111680010D01*
X141751662Y-111737078D01*
X142044182Y-111737078D01*
X142331080Y-111680010D01*
X142601333Y-111568068D01*
X142844554Y-111405553D01*
X143051397Y-111198710D01*
X143140000Y-111066106D01*
X143228603Y-111198710D01*
X143435446Y-111405553D01*
X143678667Y-111568068D01*
X143948920Y-111680010D01*
X144235818Y-111737078D01*
X144528338Y-111737078D01*
X144815236Y-111680010D01*
X145085489Y-111568068D01*
X145328710Y-111405553D01*
X145535553Y-111198710D01*
X145698068Y-110955489D01*
X145810010Y-110685236D01*
X145867078Y-110398338D01*
X145867078Y-110105818D01*
X145810010Y-109818920D01*
X145698068Y-109548667D01*
X145535553Y-109305446D01*
X145328710Y-109098603D01*
X145196106Y-109010000D01*
X145328710Y-108921397D01*
X145535553Y-108714554D01*
X145698068Y-108471333D01*
X145810010Y-108201080D01*
X145867078Y-107914182D01*
X145867078Y-107621662D01*
X145810010Y-107334764D01*
X145698068Y-107064511D01*
X145535553Y-106821290D01*
X145328710Y-106614447D01*
X145085489Y-106451932D01*
X144815236Y-106339990D01*
X144528338Y-106282922D01*
X144235818Y-106282922D01*
X143948920Y-106339990D01*
X143678667Y-106451932D01*
X143435446Y-106614447D01*
X143228603Y-106821290D01*
X143140000Y-106953894D01*
X143051397Y-106821290D01*
X142844554Y-106614447D01*
X142601333Y-106451932D01*
X142331080Y-106339990D01*
X142044182Y-106282922D01*
X141751662Y-106282922D01*
X141464764Y-106339990D01*
X141194511Y-106451932D01*
X140951290Y-106614447D01*
X140744447Y-106821290D01*
X140581932Y-107064511D01*
X140469990Y-107334764D01*
X140412922Y-107621662D01*
X123605000Y-107621662D01*
X123605000Y-107148711D01*
X123623937Y-107129774D01*
X123737205Y-106960256D01*
X123815226Y-106771898D01*
X123855000Y-106571939D01*
X123855000Y-106368061D01*
X123815226Y-106168102D01*
X123737205Y-105979744D01*
X123623937Y-105810226D01*
X123479774Y-105666063D01*
X123310256Y-105552795D01*
X123121898Y-105474774D01*
X122921939Y-105435000D01*
X122718061Y-105435000D01*
X122518102Y-105474774D01*
X122329744Y-105552795D01*
X122185000Y-105649510D01*
X122040256Y-105552795D01*
X121851898Y-105474774D01*
X121651939Y-105435000D01*
X121448061Y-105435000D01*
X121248102Y-105474774D01*
X121059744Y-105552795D01*
X120915000Y-105649510D01*
X120770256Y-105552795D01*
X120581898Y-105474774D01*
X120381939Y-105435000D01*
X120178061Y-105435000D01*
X119978102Y-105474774D01*
X119789744Y-105552795D01*
X119645004Y-105649507D01*
X119500256Y-105552789D01*
X119311898Y-105474768D01*
X119111939Y-105434994D01*
X118908061Y-105434994D01*
X118708102Y-105474768D01*
X118519744Y-105552789D01*
X118374996Y-105649507D01*
X118230256Y-105552795D01*
X118041898Y-105474774D01*
X117841939Y-105435000D01*
X117638061Y-105435000D01*
X117438102Y-105474774D01*
X117249744Y-105552795D01*
X117105000Y-105649510D01*
X116960256Y-105552795D01*
X116771898Y-105474774D01*
X116571939Y-105435000D01*
X116368061Y-105435000D01*
X116168102Y-105474774D01*
X115979744Y-105552795D01*
X115835000Y-105649510D01*
X115690256Y-105552795D01*
X115501898Y-105474774D01*
X115301939Y-105435000D01*
X115098061Y-105435000D01*
X114898102Y-105474774D01*
X114709744Y-105552795D01*
X114565000Y-105649510D01*
X114420256Y-105552795D01*
X114231898Y-105474774D01*
X114031939Y-105435000D01*
X113828061Y-105435000D01*
X113628102Y-105474774D01*
X113439744Y-105552795D01*
X113295000Y-105649510D01*
X113150256Y-105552795D01*
X112961898Y-105474774D01*
X112761939Y-105435000D01*
X112558061Y-105435000D01*
X112358102Y-105474774D01*
X112169744Y-105552795D01*
X112000226Y-105666063D01*
X111856063Y-105810226D01*
X111742795Y-105979744D01*
X111664774Y-106168102D01*
X111625000Y-106368061D01*
X89003006Y-106368061D01*
X88935236Y-106339990D01*
X88648338Y-106282922D01*
X88355818Y-106282922D01*
X88068920Y-106339990D01*
X87798667Y-106451932D01*
X87555446Y-106614447D01*
X87348603Y-106821290D01*
X87260000Y-106953894D01*
X87171397Y-106821290D01*
X86964554Y-106614447D01*
X86721333Y-106451932D01*
X86451080Y-106339990D01*
X86164182Y-106282922D01*
X85871662Y-106282922D01*
X85584764Y-106339990D01*
X85314511Y-106451932D01*
X85071290Y-106614447D01*
X84864447Y-106821290D01*
X84701932Y-107064511D01*
X84589990Y-107334764D01*
X84532922Y-107621662D01*
X58964000Y-107621662D01*
X58964000Y-79681662D01*
X59077078Y-79681662D01*
X59077078Y-79974182D01*
X59134146Y-80261080D01*
X59246088Y-80531333D01*
X59408603Y-80774554D01*
X59615446Y-80981397D01*
X59748050Y-81070000D01*
X59615446Y-81158603D01*
X59408603Y-81365446D01*
X59246088Y-81608667D01*
X59134146Y-81878920D01*
X59077078Y-82165818D01*
X59077078Y-82458338D01*
X59134146Y-82745236D01*
X59246088Y-83015489D01*
X59408603Y-83258710D01*
X59615446Y-83465553D01*
X59858667Y-83628068D01*
X60128920Y-83740010D01*
X60415818Y-83797078D01*
X60708338Y-83797078D01*
X60995236Y-83740010D01*
X61265489Y-83628068D01*
X61508710Y-83465553D01*
X61715553Y-83258710D01*
X61878068Y-83015489D01*
X61990010Y-82745236D01*
X62047078Y-82458338D01*
X62047078Y-82165818D01*
X61990010Y-81878920D01*
X61878068Y-81608667D01*
X61715553Y-81365446D01*
X61508710Y-81158603D01*
X61376106Y-81070000D01*
X61508710Y-80981397D01*
X61715553Y-80774554D01*
X61878068Y-80531333D01*
X61990010Y-80261080D01*
X62047078Y-79974182D01*
X62047078Y-79681662D01*
X112472922Y-79681662D01*
X112472922Y-79974182D01*
X112529990Y-80261080D01*
X112641932Y-80531333D01*
X112804447Y-80774554D01*
X113011290Y-80981397D01*
X113143894Y-81070000D01*
X113011290Y-81158603D01*
X112804447Y-81365446D01*
X112641932Y-81608667D01*
X112529990Y-81878920D01*
X112472922Y-82165818D01*
X112472922Y-82458338D01*
X112529990Y-82745236D01*
X112641932Y-83015489D01*
X112804447Y-83258710D01*
X113011290Y-83465553D01*
X113254511Y-83628068D01*
X113524764Y-83740010D01*
X113811662Y-83797078D01*
X114104182Y-83797078D01*
X114391080Y-83740010D01*
X114661333Y-83628068D01*
X114904554Y-83465553D01*
X115111397Y-83258710D01*
X115200000Y-83126106D01*
X115288603Y-83258710D01*
X115495446Y-83465553D01*
X115738667Y-83628068D01*
X116008920Y-83740010D01*
X116295818Y-83797078D01*
X116588338Y-83797078D01*
X116875236Y-83740010D01*
X117145489Y-83628068D01*
X117388710Y-83465553D01*
X117595553Y-83258710D01*
X117758068Y-83015489D01*
X117870010Y-82745236D01*
X117927078Y-82458338D01*
X117927078Y-82165818D01*
X117870010Y-81878920D01*
X117758068Y-81608667D01*
X117595553Y-81365446D01*
X117388710Y-81158603D01*
X117256106Y-81070000D01*
X117388710Y-80981397D01*
X117595553Y-80774554D01*
X117758068Y-80531333D01*
X117870010Y-80261080D01*
X117927078Y-79974182D01*
X117927078Y-79681662D01*
X168352922Y-79681662D01*
X168352922Y-79974182D01*
X168409990Y-80261080D01*
X168521932Y-80531333D01*
X168684447Y-80774554D01*
X168891290Y-80981397D01*
X169023894Y-81070000D01*
X168891290Y-81158603D01*
X168684447Y-81365446D01*
X168521932Y-81608667D01*
X168409990Y-81878920D01*
X168352922Y-82165818D01*
X168352922Y-82458338D01*
X168409990Y-82745236D01*
X168521932Y-83015489D01*
X168684447Y-83258710D01*
X168891290Y-83465553D01*
X169134511Y-83628068D01*
X169404764Y-83740010D01*
X169691662Y-83797078D01*
X169984182Y-83797078D01*
X170271080Y-83740010D01*
X170541333Y-83628068D01*
X170784554Y-83465553D01*
X170991397Y-83258710D01*
X171153912Y-83015489D01*
X171265854Y-82745236D01*
X171322922Y-82458338D01*
X171322922Y-82165818D01*
X171265854Y-81878920D01*
X171153912Y-81608667D01*
X170991397Y-81365446D01*
X170784554Y-81158603D01*
X170651950Y-81070000D01*
X170784554Y-80981397D01*
X170991397Y-80774554D01*
X171153912Y-80531333D01*
X171265854Y-80261080D01*
X171322922Y-79974182D01*
X171322922Y-79681662D01*
X171265854Y-79394764D01*
X171153912Y-79124511D01*
X170991397Y-78881290D01*
X170784554Y-78674447D01*
X170541333Y-78511932D01*
X170271080Y-78399990D01*
X169984182Y-78342922D01*
X169691662Y-78342922D01*
X169404764Y-78399990D01*
X169134511Y-78511932D01*
X168891290Y-78674447D01*
X168684447Y-78881290D01*
X168521932Y-79124511D01*
X168409990Y-79394764D01*
X168352922Y-79681662D01*
X117927078Y-79681662D01*
X117870010Y-79394764D01*
X117836971Y-79315000D01*
X119213368Y-79315000D01*
X119232305Y-79333937D01*
X119401823Y-79447205D01*
X119590181Y-79525226D01*
X119790140Y-79565000D01*
X119994018Y-79565000D01*
X120193977Y-79525226D01*
X120382335Y-79447205D01*
X120551853Y-79333937D01*
X120696016Y-79189774D01*
X120809284Y-79020256D01*
X120887305Y-78831898D01*
X120927079Y-78631939D01*
X120927079Y-78428061D01*
X120887305Y-78228102D01*
X120809284Y-78039744D01*
X120696016Y-77870226D01*
X120551853Y-77726063D01*
X120382335Y-77612795D01*
X120193977Y-77534774D01*
X120144652Y-77524963D01*
X120177079Y-77361939D01*
X120177079Y-77158061D01*
X120137305Y-76958102D01*
X120059284Y-76769744D01*
X119946016Y-76600226D01*
X119801853Y-76456063D01*
X119632335Y-76342795D01*
X119443977Y-76264774D01*
X119244018Y-76225000D01*
X119040140Y-76225000D01*
X118916038Y-76249685D01*
X119051853Y-76158937D01*
X119196016Y-76014774D01*
X119309284Y-75845256D01*
X119387305Y-75656898D01*
X119427079Y-75456939D01*
X119427079Y-75253061D01*
X119387305Y-75053102D01*
X119309284Y-74864744D01*
X119255084Y-74783627D01*
X119293937Y-74744774D01*
X119407205Y-74575256D01*
X119485226Y-74386898D01*
X119525000Y-74186939D01*
X119525000Y-73983061D01*
X119485226Y-73783102D01*
X119407205Y-73594744D01*
X119293937Y-73425226D01*
X119149774Y-73281063D01*
X118980256Y-73167795D01*
X118791898Y-73089774D01*
X118591939Y-73050000D01*
X118553653Y-73050000D01*
X118528234Y-73029139D01*
X118391861Y-72956247D01*
X118243888Y-72911360D01*
X118128562Y-72900001D01*
X118128554Y-72900001D01*
X118090001Y-72896204D01*
X118051448Y-72900001D01*
X115003551Y-72900001D01*
X114964998Y-72896204D01*
X114926445Y-72900001D01*
X114926438Y-72900001D01*
X114811112Y-72911360D01*
X114663139Y-72956247D01*
X114526766Y-73029139D01*
X114501347Y-73050000D01*
X114463061Y-73050000D01*
X114263102Y-73089774D01*
X114074744Y-73167795D01*
X113905226Y-73281063D01*
X113761063Y-73425226D01*
X113647795Y-73594744D01*
X113569774Y-73783102D01*
X113530000Y-73983061D01*
X113530000Y-74186939D01*
X113569774Y-74386898D01*
X113647795Y-74575256D01*
X113761063Y-74744774D01*
X113905226Y-74888937D01*
X114074744Y-75002205D01*
X114263102Y-75080226D01*
X114463061Y-75120000D01*
X114666939Y-75120000D01*
X114866898Y-75080226D01*
X115055256Y-75002205D01*
X115224774Y-74888937D01*
X115368937Y-74744774D01*
X115482205Y-74575256D01*
X115525803Y-74470001D01*
X115887822Y-74470001D01*
X115861644Y-74601608D01*
X115861644Y-74805486D01*
X115889112Y-74943581D01*
X115825319Y-75007374D01*
X115712051Y-75176892D01*
X115634030Y-75365250D01*
X115594256Y-75565209D01*
X115594256Y-75769087D01*
X115634030Y-75969046D01*
X115712051Y-76157404D01*
X115757217Y-76225000D01*
X115618051Y-76225000D01*
X115418092Y-76264774D01*
X115229734Y-76342795D01*
X115060216Y-76456063D01*
X114916053Y-76600226D01*
X114802785Y-76769744D01*
X114724764Y-76958102D01*
X114684990Y-77158061D01*
X114684990Y-77361939D01*
X114724764Y-77561898D01*
X114802785Y-77750256D01*
X114916053Y-77919774D01*
X115060216Y-78063937D01*
X115229734Y-78177205D01*
X115418092Y-78255226D01*
X115618051Y-78295000D01*
X115644833Y-78295000D01*
X115825710Y-78475878D01*
X115738667Y-78511932D01*
X115495446Y-78674447D01*
X115288603Y-78881290D01*
X115200000Y-79013894D01*
X115111397Y-78881290D01*
X114904554Y-78674447D01*
X114661333Y-78511932D01*
X114391080Y-78399990D01*
X114104182Y-78342922D01*
X113811662Y-78342922D01*
X113524764Y-78399990D01*
X113254511Y-78511932D01*
X113011290Y-78674447D01*
X112804447Y-78881290D01*
X112641932Y-79124511D01*
X112529990Y-79394764D01*
X112472922Y-79681662D01*
X62047078Y-79681662D01*
X61990010Y-79394764D01*
X61878068Y-79124511D01*
X61715553Y-78881290D01*
X61508710Y-78674447D01*
X61265489Y-78511932D01*
X60995236Y-78399990D01*
X60708338Y-78342922D01*
X60415818Y-78342922D01*
X60128920Y-78399990D01*
X59858667Y-78511932D01*
X59615446Y-78674447D01*
X59408603Y-78881290D01*
X59246088Y-79124511D01*
X59134146Y-79394764D01*
X59077078Y-79681662D01*
X58964000Y-79681662D01*
X58964000Y-71443061D01*
X101985000Y-71443061D01*
X101985000Y-71646939D01*
X102024774Y-71846898D01*
X102102795Y-72035256D01*
X102216063Y-72204774D01*
X102360226Y-72348937D01*
X102529744Y-72462205D01*
X102718102Y-72540226D01*
X102918061Y-72580000D01*
X103121939Y-72580000D01*
X103321898Y-72540226D01*
X103510256Y-72462205D01*
X103558454Y-72430000D01*
X109061546Y-72430000D01*
X109109744Y-72462205D01*
X109298102Y-72540226D01*
X109498061Y-72580000D01*
X109701939Y-72580000D01*
X109901898Y-72540226D01*
X110090256Y-72462205D01*
X110259774Y-72348937D01*
X110403937Y-72204774D01*
X110517205Y-72035256D01*
X110595226Y-71846898D01*
X110635000Y-71646939D01*
X110635000Y-71443061D01*
X110595226Y-71243102D01*
X110517205Y-71054744D01*
X110403937Y-70885226D01*
X110259774Y-70741063D01*
X110090256Y-70627795D01*
X109901898Y-70549774D01*
X109701939Y-70510000D01*
X109498061Y-70510000D01*
X109298102Y-70549774D01*
X109109744Y-70627795D01*
X109061546Y-70660000D01*
X103558454Y-70660000D01*
X103510256Y-70627795D01*
X103321898Y-70549774D01*
X103121939Y-70510000D01*
X102918061Y-70510000D01*
X102718102Y-70549774D01*
X102529744Y-70627795D01*
X102360226Y-70741063D01*
X102216063Y-70885226D01*
X102102795Y-71054744D01*
X102024774Y-71243102D01*
X101985000Y-71443061D01*
X58964000Y-71443061D01*
X58964000Y-62553061D01*
X86225000Y-62553061D01*
X86225000Y-62756939D01*
X86264774Y-62956898D01*
X86342795Y-63145256D01*
X86439510Y-63290000D01*
X86342795Y-63434744D01*
X86264774Y-63623102D01*
X86225000Y-63823061D01*
X86225000Y-64026939D01*
X86264774Y-64226898D01*
X86342795Y-64415256D01*
X86456063Y-64584774D01*
X86600226Y-64728937D01*
X86769744Y-64842205D01*
X86958102Y-64920226D01*
X87158061Y-64960000D01*
X87361939Y-64960000D01*
X87561898Y-64920226D01*
X87750256Y-64842205D01*
X87919774Y-64728937D01*
X87938711Y-64710000D01*
X89121289Y-64710000D01*
X89140226Y-64728937D01*
X89309744Y-64842205D01*
X89498102Y-64920226D01*
X89698061Y-64960000D01*
X89901939Y-64960000D01*
X90101898Y-64920226D01*
X90290256Y-64842205D01*
X90459774Y-64728937D01*
X90603937Y-64584774D01*
X90717205Y-64415256D01*
X90795226Y-64226898D01*
X90835000Y-64026939D01*
X90835000Y-63823061D01*
X90795226Y-63623102D01*
X90717205Y-63434744D01*
X90620490Y-63290000D01*
X90717205Y-63145256D01*
X90795226Y-62956898D01*
X90835000Y-62756939D01*
X90835000Y-62553061D01*
X90795226Y-62353102D01*
X90717205Y-62164744D01*
X90603937Y-61995226D01*
X90459774Y-61851063D01*
X90387934Y-61803061D01*
X102735000Y-61803061D01*
X102735000Y-62006939D01*
X102774774Y-62206898D01*
X102852795Y-62395256D01*
X102966063Y-62564774D01*
X102985000Y-62583711D01*
X102985001Y-63996288D01*
X102966063Y-64015226D01*
X102852795Y-64184744D01*
X102774774Y-64373102D01*
X102735000Y-64573061D01*
X102735000Y-64776939D01*
X102774774Y-64976898D01*
X102852795Y-65165256D01*
X102966063Y-65334774D01*
X103110226Y-65478937D01*
X103279744Y-65592205D01*
X103468102Y-65670226D01*
X103668061Y-65710000D01*
X103871939Y-65710000D01*
X104071898Y-65670226D01*
X104260256Y-65592205D01*
X104405000Y-65495490D01*
X104549744Y-65592205D01*
X104738102Y-65670226D01*
X104938061Y-65710000D01*
X105141939Y-65710000D01*
X105341898Y-65670226D01*
X105530256Y-65592205D01*
X105675000Y-65495490D01*
X105819744Y-65592205D01*
X106008102Y-65670226D01*
X106039765Y-65676524D01*
X105911063Y-65805226D01*
X105797795Y-65974744D01*
X105719774Y-66163102D01*
X105680000Y-66363061D01*
X105680000Y-66566939D01*
X105719774Y-66766898D01*
X105797795Y-66955256D01*
X105911063Y-67124774D01*
X106055226Y-67268937D01*
X106224744Y-67382205D01*
X106413102Y-67460226D01*
X106613061Y-67500000D01*
X106816939Y-67500000D01*
X107016898Y-67460226D01*
X107205256Y-67382205D01*
X107374774Y-67268937D01*
X107393711Y-67250000D01*
X108291447Y-67250000D01*
X108330000Y-67253797D01*
X108368553Y-67250000D01*
X108368561Y-67250000D01*
X108483887Y-67238641D01*
X108631860Y-67193754D01*
X108768233Y-67120862D01*
X108887764Y-67022764D01*
X108912347Y-66992810D01*
X109675158Y-66230000D01*
X109701939Y-66230000D01*
X109901898Y-66190226D01*
X110090256Y-66112205D01*
X110259774Y-65998937D01*
X110403937Y-65854774D01*
X110517205Y-65685256D01*
X110595226Y-65496898D01*
X110635000Y-65296939D01*
X110635000Y-65251306D01*
X110744147Y-65206096D01*
X110913665Y-65092828D01*
X111057828Y-64948665D01*
X111171096Y-64779147D01*
X111249117Y-64590789D01*
X111279451Y-64438287D01*
X111288061Y-64440000D01*
X111491939Y-64440000D01*
X111639999Y-64410549D01*
X111639999Y-64984197D01*
X111534744Y-65027795D01*
X111365226Y-65141063D01*
X111221063Y-65285226D01*
X111107795Y-65454744D01*
X111029774Y-65643102D01*
X110990000Y-65843061D01*
X110990000Y-66046939D01*
X111029774Y-66246898D01*
X111107795Y-66435256D01*
X111221063Y-66604774D01*
X111240000Y-66623711D01*
X111240000Y-66901449D01*
X111236203Y-66940002D01*
X111240000Y-66978555D01*
X111240000Y-66978562D01*
X111251359Y-67093888D01*
X111296246Y-67241861D01*
X111369138Y-67378234D01*
X111467236Y-67497766D01*
X111497190Y-67522349D01*
X114142651Y-70167810D01*
X114167234Y-70197764D01*
X114286765Y-70295862D01*
X114423138Y-70368754D01*
X114571111Y-70413642D01*
X114646024Y-70421020D01*
X114686437Y-70425000D01*
X114686442Y-70425000D01*
X114724998Y-70428797D01*
X114763554Y-70425000D01*
X118331289Y-70425000D01*
X118350226Y-70443937D01*
X118519744Y-70557205D01*
X118708102Y-70635226D01*
X118908061Y-70675000D01*
X119111939Y-70675000D01*
X119311898Y-70635226D01*
X119500256Y-70557205D01*
X119669774Y-70443937D01*
X119813937Y-70299774D01*
X119927205Y-70130256D01*
X120005226Y-69941898D01*
X120045000Y-69741939D01*
X120045000Y-69538061D01*
X120005226Y-69338102D01*
X119927205Y-69149744D01*
X119813937Y-68980226D01*
X119669774Y-68836063D01*
X119500256Y-68722795D01*
X119311898Y-68644774D01*
X119111939Y-68605000D01*
X118908061Y-68605000D01*
X118708102Y-68644774D01*
X118519744Y-68722795D01*
X118350226Y-68836063D01*
X118331289Y-68855000D01*
X115484382Y-68855000D01*
X115560226Y-68671898D01*
X115600000Y-68471939D01*
X115600000Y-68268061D01*
X115560226Y-68068102D01*
X115482205Y-67879744D01*
X115368937Y-67710226D01*
X115350000Y-67691289D01*
X115350000Y-64504871D01*
X115353797Y-64466318D01*
X115350000Y-64427765D01*
X115350000Y-64427758D01*
X115338641Y-64312432D01*
X115293754Y-64164459D01*
X115220862Y-64028086D01*
X115122764Y-63908555D01*
X115092817Y-63883978D01*
X113761900Y-62553061D01*
X139565000Y-62553061D01*
X139565000Y-62756939D01*
X139604774Y-62956898D01*
X139682795Y-63145256D01*
X139779510Y-63290000D01*
X139682795Y-63434744D01*
X139604774Y-63623102D01*
X139565000Y-63823061D01*
X139565000Y-64026939D01*
X139604774Y-64226898D01*
X139682795Y-64415256D01*
X139796063Y-64584774D01*
X139940226Y-64728937D01*
X140109744Y-64842205D01*
X140298102Y-64920226D01*
X140498061Y-64960000D01*
X140701939Y-64960000D01*
X140901898Y-64920226D01*
X141090256Y-64842205D01*
X141259774Y-64728937D01*
X141278711Y-64710000D01*
X142461289Y-64710000D01*
X142480226Y-64728937D01*
X142649744Y-64842205D01*
X142838102Y-64920226D01*
X143038061Y-64960000D01*
X143241939Y-64960000D01*
X143441898Y-64920226D01*
X143630256Y-64842205D01*
X143799774Y-64728937D01*
X143943937Y-64584774D01*
X144057205Y-64415256D01*
X144135226Y-64226898D01*
X144175000Y-64026939D01*
X144175000Y-63823061D01*
X144135226Y-63623102D01*
X144057205Y-63434744D01*
X143960490Y-63290000D01*
X144057205Y-63145256D01*
X144135226Y-62956898D01*
X144175000Y-62756939D01*
X144175000Y-62553061D01*
X144135226Y-62353102D01*
X144057205Y-62164744D01*
X143943937Y-61995226D01*
X143799774Y-61851063D01*
X143630256Y-61737795D01*
X143441898Y-61659774D01*
X143241939Y-61620000D01*
X143038061Y-61620000D01*
X142838102Y-61659774D01*
X142649744Y-61737795D01*
X142480226Y-61851063D01*
X142461289Y-61870000D01*
X141278711Y-61870000D01*
X141259774Y-61851063D01*
X141090256Y-61737795D01*
X140901898Y-61659774D01*
X140701939Y-61620000D01*
X140498061Y-61620000D01*
X140298102Y-61659774D01*
X140109744Y-61737795D01*
X139940226Y-61851063D01*
X139796063Y-61995226D01*
X139682795Y-62164744D01*
X139604774Y-62353102D01*
X139565000Y-62553061D01*
X113761900Y-62553061D01*
X109449732Y-58240893D01*
X112127168Y-58240893D01*
X112127168Y-58444771D01*
X112166942Y-58644730D01*
X112244963Y-58833088D01*
X112358231Y-59002606D01*
X112502394Y-59146769D01*
X112671912Y-59260037D01*
X112860270Y-59338058D01*
X113060229Y-59377832D01*
X113264107Y-59377832D01*
X113464066Y-59338058D01*
X113652424Y-59260037D01*
X113821942Y-59146769D01*
X113840879Y-59127832D01*
X117886258Y-59127832D01*
X118073102Y-59205226D01*
X118273061Y-59245000D01*
X118476939Y-59245000D01*
X118676898Y-59205226D01*
X118865256Y-59127205D01*
X119034774Y-59013937D01*
X119178937Y-58869774D01*
X119292205Y-58700256D01*
X119370226Y-58511898D01*
X119410000Y-58311939D01*
X119410000Y-58108061D01*
X119370226Y-57908102D01*
X119292205Y-57719744D01*
X119178937Y-57550226D01*
X119034774Y-57406063D01*
X118865256Y-57292795D01*
X118676898Y-57214774D01*
X118476939Y-57175000D01*
X118273061Y-57175000D01*
X118073102Y-57214774D01*
X117884744Y-57292795D01*
X117715226Y-57406063D01*
X117571063Y-57550226D01*
X117565981Y-57557832D01*
X113840879Y-57557832D01*
X113821942Y-57538895D01*
X113652424Y-57425627D01*
X113464066Y-57347606D01*
X113264107Y-57307832D01*
X113060229Y-57307832D01*
X112860270Y-57347606D01*
X112671912Y-57425627D01*
X112502394Y-57538895D01*
X112358231Y-57683058D01*
X112244963Y-57852576D01*
X112166942Y-58040934D01*
X112127168Y-58240893D01*
X109449732Y-58240893D01*
X108992417Y-57783579D01*
X108967834Y-57753625D01*
X108848303Y-57655527D01*
X108711930Y-57582635D01*
X108563957Y-57537748D01*
X108448631Y-57526389D01*
X108448623Y-57526389D01*
X108410070Y-57522592D01*
X108371517Y-57526389D01*
X106247167Y-57526389D01*
X106208611Y-57522592D01*
X106170055Y-57526389D01*
X106170050Y-57526389D01*
X106129637Y-57530369D01*
X106054724Y-57537747D01*
X105906751Y-57582635D01*
X105770378Y-57655527D01*
X105710170Y-57704939D01*
X105680798Y-57729044D01*
X105680795Y-57729047D01*
X105650847Y-57753625D01*
X105626268Y-57783574D01*
X105599842Y-57810000D01*
X105573061Y-57810000D01*
X105373102Y-57849774D01*
X105184744Y-57927795D01*
X105015226Y-58041063D01*
X104871063Y-58185226D01*
X104757795Y-58354744D01*
X104679774Y-58543102D01*
X104640000Y-58743061D01*
X104640000Y-58946939D01*
X104679774Y-59146898D01*
X104757795Y-59335256D01*
X104854510Y-59480000D01*
X104757795Y-59624744D01*
X104679774Y-59813102D01*
X104640000Y-60013061D01*
X104640000Y-60216939D01*
X104679774Y-60416898D01*
X104757795Y-60605256D01*
X104871063Y-60774774D01*
X104966289Y-60870000D01*
X104938061Y-60870000D01*
X104738102Y-60909774D01*
X104549744Y-60987795D01*
X104405000Y-61084510D01*
X104260256Y-60987795D01*
X104071898Y-60909774D01*
X103871939Y-60870000D01*
X103668061Y-60870000D01*
X103468102Y-60909774D01*
X103279744Y-60987795D01*
X103110226Y-61101063D01*
X102966063Y-61245226D01*
X102852795Y-61414744D01*
X102774774Y-61603102D01*
X102735000Y-61803061D01*
X90387934Y-61803061D01*
X90290256Y-61737795D01*
X90101898Y-61659774D01*
X89901939Y-61620000D01*
X89698061Y-61620000D01*
X89498102Y-61659774D01*
X89309744Y-61737795D01*
X89140226Y-61851063D01*
X89121289Y-61870000D01*
X87938711Y-61870000D01*
X87919774Y-61851063D01*
X87750256Y-61737795D01*
X87561898Y-61659774D01*
X87361939Y-61620000D01*
X87158061Y-61620000D01*
X86958102Y-61659774D01*
X86769744Y-61737795D01*
X86600226Y-61851063D01*
X86456063Y-61995226D01*
X86342795Y-62164744D01*
X86264774Y-62353102D01*
X86225000Y-62553061D01*
X58964000Y-62553061D01*
X58964000Y-51741662D01*
X84532922Y-51741662D01*
X84532922Y-52034182D01*
X84589990Y-52321080D01*
X84701932Y-52591333D01*
X84864447Y-52834554D01*
X85071290Y-53041397D01*
X85203894Y-53130000D01*
X85071290Y-53218603D01*
X84864447Y-53425446D01*
X84701932Y-53668667D01*
X84589990Y-53938920D01*
X84532922Y-54225818D01*
X84532922Y-54518338D01*
X84589990Y-54805236D01*
X84701932Y-55075489D01*
X84864447Y-55318710D01*
X85071290Y-55525553D01*
X85314511Y-55688068D01*
X85584764Y-55800010D01*
X85871662Y-55857078D01*
X86164182Y-55857078D01*
X86451080Y-55800010D01*
X86721333Y-55688068D01*
X86964554Y-55525553D01*
X87171397Y-55318710D01*
X87260000Y-55186106D01*
X87348603Y-55318710D01*
X87555446Y-55525553D01*
X87798667Y-55688068D01*
X88068920Y-55800010D01*
X88355818Y-55857078D01*
X88648338Y-55857078D01*
X88935236Y-55800010D01*
X89205489Y-55688068D01*
X89448710Y-55525553D01*
X89655553Y-55318710D01*
X89818068Y-55075489D01*
X89930010Y-54805236D01*
X89987078Y-54518338D01*
X89987078Y-54225818D01*
X89930010Y-53938920D01*
X89818068Y-53668667D01*
X89655553Y-53425446D01*
X89448710Y-53218603D01*
X89316106Y-53130000D01*
X89448710Y-53041397D01*
X89462046Y-53028061D01*
X107815000Y-53028061D01*
X107815000Y-53231939D01*
X107854774Y-53431898D01*
X107932795Y-53620256D01*
X108046063Y-53789774D01*
X108065000Y-53808711D01*
X108065001Y-54991288D01*
X108046063Y-55010226D01*
X107932795Y-55179744D01*
X107854774Y-55368102D01*
X107815000Y-55568061D01*
X107815000Y-55771939D01*
X107854774Y-55971898D01*
X107932795Y-56160256D01*
X108046063Y-56329774D01*
X108190226Y-56473937D01*
X108359744Y-56587205D01*
X108548102Y-56665226D01*
X108748061Y-56705000D01*
X108951939Y-56705000D01*
X109151898Y-56665226D01*
X109340256Y-56587205D01*
X109485000Y-56490490D01*
X109629744Y-56587205D01*
X109818102Y-56665226D01*
X110018061Y-56705000D01*
X110221939Y-56705000D01*
X110421898Y-56665226D01*
X110610256Y-56587205D01*
X110755000Y-56490490D01*
X110899744Y-56587205D01*
X111088102Y-56665226D01*
X111288061Y-56705000D01*
X111491939Y-56705000D01*
X111691898Y-56665226D01*
X111880256Y-56587205D01*
X112025000Y-56490490D01*
X112169744Y-56587205D01*
X112358102Y-56665226D01*
X112558061Y-56705000D01*
X112761939Y-56705000D01*
X112961898Y-56665226D01*
X113150256Y-56587205D01*
X113295000Y-56490490D01*
X113439744Y-56587205D01*
X113628102Y-56665226D01*
X113828061Y-56705000D01*
X114031939Y-56705000D01*
X114231898Y-56665226D01*
X114420256Y-56587205D01*
X114565000Y-56490490D01*
X114709744Y-56587205D01*
X114898102Y-56665226D01*
X115098061Y-56705000D01*
X115301939Y-56705000D01*
X115501898Y-56665226D01*
X115690256Y-56587205D01*
X115835000Y-56490490D01*
X115979744Y-56587205D01*
X116168102Y-56665226D01*
X116368061Y-56705000D01*
X116571939Y-56705000D01*
X116771898Y-56665226D01*
X116960256Y-56587205D01*
X117105000Y-56490490D01*
X117249744Y-56587205D01*
X117438102Y-56665226D01*
X117638061Y-56705000D01*
X117841939Y-56705000D01*
X118041898Y-56665226D01*
X118230256Y-56587205D01*
X118375000Y-56490490D01*
X118519744Y-56587205D01*
X118708102Y-56665226D01*
X118908061Y-56705000D01*
X119111939Y-56705000D01*
X119311898Y-56665226D01*
X119500256Y-56587205D01*
X119669774Y-56473937D01*
X119813937Y-56329774D01*
X119927205Y-56160256D01*
X120005226Y-55971898D01*
X120045000Y-55771939D01*
X120045000Y-55568061D01*
X120005226Y-55368102D01*
X119927205Y-55179744D01*
X119813937Y-55010226D01*
X119795000Y-54991289D01*
X119795000Y-53808711D01*
X119813937Y-53789774D01*
X119927205Y-53620256D01*
X120005226Y-53431898D01*
X120045000Y-53231939D01*
X120045000Y-53028061D01*
X120005226Y-52828102D01*
X119927205Y-52639744D01*
X119813937Y-52470226D01*
X119669774Y-52326063D01*
X119500256Y-52212795D01*
X119311898Y-52134774D01*
X119111939Y-52095000D01*
X118908061Y-52095000D01*
X118708102Y-52134774D01*
X118519744Y-52212795D01*
X118375000Y-52309510D01*
X118230256Y-52212795D01*
X118041898Y-52134774D01*
X117841939Y-52095000D01*
X117638061Y-52095000D01*
X117438102Y-52134774D01*
X117249744Y-52212795D01*
X117105000Y-52309510D01*
X116960256Y-52212795D01*
X116771898Y-52134774D01*
X116571939Y-52095000D01*
X116368061Y-52095000D01*
X116168102Y-52134774D01*
X115979744Y-52212795D01*
X115835000Y-52309510D01*
X115690256Y-52212795D01*
X115501898Y-52134774D01*
X115301939Y-52095000D01*
X115098061Y-52095000D01*
X114898102Y-52134774D01*
X114709744Y-52212795D01*
X114565000Y-52309510D01*
X114420256Y-52212795D01*
X114231898Y-52134774D01*
X114031939Y-52095000D01*
X113828061Y-52095000D01*
X113628102Y-52134774D01*
X113439744Y-52212795D01*
X113295000Y-52309510D01*
X113150256Y-52212795D01*
X112961898Y-52134774D01*
X112761939Y-52095000D01*
X112558061Y-52095000D01*
X112358102Y-52134774D01*
X112169744Y-52212795D01*
X112025000Y-52309510D01*
X111880256Y-52212795D01*
X111691898Y-52134774D01*
X111491939Y-52095000D01*
X111288061Y-52095000D01*
X111088102Y-52134774D01*
X110899744Y-52212795D01*
X110755000Y-52309510D01*
X110610256Y-52212795D01*
X110421898Y-52134774D01*
X110221939Y-52095000D01*
X110018061Y-52095000D01*
X109818102Y-52134774D01*
X109629744Y-52212795D01*
X109485000Y-52309510D01*
X109340256Y-52212795D01*
X109151898Y-52134774D01*
X108951939Y-52095000D01*
X108748061Y-52095000D01*
X108548102Y-52134774D01*
X108359744Y-52212795D01*
X108190226Y-52326063D01*
X108046063Y-52470226D01*
X107932795Y-52639744D01*
X107854774Y-52828102D01*
X107815000Y-53028061D01*
X89462046Y-53028061D01*
X89655553Y-52834554D01*
X89818068Y-52591333D01*
X89930010Y-52321080D01*
X89987078Y-52034182D01*
X89987078Y-51741662D01*
X140412922Y-51741662D01*
X140412922Y-52034182D01*
X140469990Y-52321080D01*
X140581932Y-52591333D01*
X140744447Y-52834554D01*
X140951290Y-53041397D01*
X141083894Y-53130000D01*
X140951290Y-53218603D01*
X140744447Y-53425446D01*
X140581932Y-53668667D01*
X140469990Y-53938920D01*
X140412922Y-54225818D01*
X140412922Y-54518338D01*
X140469990Y-54805236D01*
X140581932Y-55075489D01*
X140744447Y-55318710D01*
X140951290Y-55525553D01*
X141194511Y-55688068D01*
X141464764Y-55800010D01*
X141751662Y-55857078D01*
X142044182Y-55857078D01*
X142331080Y-55800010D01*
X142601333Y-55688068D01*
X142844554Y-55525553D01*
X143051397Y-55318710D01*
X143140000Y-55186106D01*
X143228603Y-55318710D01*
X143435446Y-55525553D01*
X143678667Y-55688068D01*
X143948920Y-55800010D01*
X144235818Y-55857078D01*
X144528338Y-55857078D01*
X144815236Y-55800010D01*
X145085489Y-55688068D01*
X145328710Y-55525553D01*
X145535553Y-55318710D01*
X145698068Y-55075489D01*
X145810010Y-54805236D01*
X145867078Y-54518338D01*
X145867078Y-54225818D01*
X145810010Y-53938920D01*
X145698068Y-53668667D01*
X145535553Y-53425446D01*
X145328710Y-53218603D01*
X145196106Y-53130000D01*
X145328710Y-53041397D01*
X145535553Y-52834554D01*
X145698068Y-52591333D01*
X145810010Y-52321080D01*
X145867078Y-52034182D01*
X145867078Y-51741662D01*
X145810010Y-51454764D01*
X145698068Y-51184511D01*
X145535553Y-50941290D01*
X145328710Y-50734447D01*
X145085489Y-50571932D01*
X144815236Y-50459990D01*
X144528338Y-50402922D01*
X144235818Y-50402922D01*
X143948920Y-50459990D01*
X143678667Y-50571932D01*
X143435446Y-50734447D01*
X143228603Y-50941290D01*
X143140000Y-51073894D01*
X143051397Y-50941290D01*
X142844554Y-50734447D01*
X142601333Y-50571932D01*
X142331080Y-50459990D01*
X142044182Y-50402922D01*
X141751662Y-50402922D01*
X141464764Y-50459990D01*
X141194511Y-50571932D01*
X140951290Y-50734447D01*
X140744447Y-50941290D01*
X140581932Y-51184511D01*
X140469990Y-51454764D01*
X140412922Y-51741662D01*
X89987078Y-51741662D01*
X89930010Y-51454764D01*
X89818068Y-51184511D01*
X89655553Y-50941290D01*
X89448710Y-50734447D01*
X89205489Y-50571932D01*
X88935236Y-50459990D01*
X88648338Y-50402922D01*
X88355818Y-50402922D01*
X88068920Y-50459990D01*
X87798667Y-50571932D01*
X87555446Y-50734447D01*
X87348603Y-50941290D01*
X87260000Y-51073894D01*
X87171397Y-50941290D01*
X86964554Y-50734447D01*
X86721333Y-50571932D01*
X86451080Y-50459990D01*
X86164182Y-50402922D01*
X85871662Y-50402922D01*
X85584764Y-50459990D01*
X85314511Y-50571932D01*
X85071290Y-50734447D01*
X84864447Y-50941290D01*
X84701932Y-51184511D01*
X84589990Y-51454764D01*
X84532922Y-51741662D01*
X58964000Y-51741662D01*
X58964000Y-36518061D01*
X107815000Y-36518061D01*
X107815000Y-36721939D01*
X107854774Y-36921898D01*
X107932795Y-37110256D01*
X108046063Y-37279774D01*
X108190226Y-37423937D01*
X108359744Y-37537205D01*
X108548102Y-37615226D01*
X108748061Y-37655000D01*
X108951939Y-37655000D01*
X109151898Y-37615226D01*
X109340256Y-37537205D01*
X109509774Y-37423937D01*
X109653937Y-37279774D01*
X109767205Y-37110256D01*
X109845226Y-36921898D01*
X109885000Y-36721939D01*
X109885000Y-36518061D01*
X109845226Y-36318102D01*
X109767205Y-36129744D01*
X109740452Y-36089705D01*
X111475001Y-34355156D01*
X111475001Y-34911448D01*
X111471204Y-34950001D01*
X111475001Y-34988554D01*
X111475001Y-34988561D01*
X111486360Y-35103887D01*
X111531247Y-35251860D01*
X111604139Y-35388233D01*
X111625000Y-35413652D01*
X111625000Y-35451939D01*
X111658039Y-35618039D01*
X111491939Y-35585000D01*
X111288061Y-35585000D01*
X111088102Y-35624774D01*
X110899744Y-35702795D01*
X110730226Y-35816063D01*
X110586063Y-35960226D01*
X110472795Y-36129744D01*
X110394774Y-36318102D01*
X110355000Y-36518061D01*
X110355000Y-36721939D01*
X110394774Y-36921898D01*
X110472795Y-37110256D01*
X110586063Y-37279774D01*
X110730226Y-37423937D01*
X110899744Y-37537205D01*
X111088102Y-37615226D01*
X111288061Y-37655000D01*
X111491939Y-37655000D01*
X111691898Y-37615226D01*
X111880256Y-37537205D01*
X112049774Y-37423937D01*
X112068711Y-37405000D01*
X112461449Y-37405000D01*
X112500002Y-37408797D01*
X112538555Y-37405000D01*
X112538563Y-37405000D01*
X112653889Y-37393641D01*
X112801862Y-37348754D01*
X112938235Y-37275862D01*
X113057766Y-37177764D01*
X113082349Y-37147810D01*
X114107816Y-36122344D01*
X114137763Y-36097767D01*
X114235861Y-35978236D01*
X114308753Y-35841863D01*
X114344615Y-35723642D01*
X114353640Y-35693891D01*
X114357780Y-35651859D01*
X114364999Y-35578564D01*
X114364999Y-35578557D01*
X114368796Y-35540004D01*
X114364999Y-35501451D01*
X114364999Y-35248061D01*
X154805000Y-35248061D01*
X154805000Y-35451939D01*
X154844774Y-35651898D01*
X154922795Y-35840256D01*
X155036063Y-36009774D01*
X155180226Y-36153937D01*
X155349744Y-36267205D01*
X155538102Y-36345226D01*
X155738061Y-36385000D01*
X155941939Y-36385000D01*
X156141898Y-36345226D01*
X156330256Y-36267205D01*
X156499774Y-36153937D01*
X156518711Y-36135000D01*
X160881447Y-36135000D01*
X160920000Y-36138797D01*
X160958553Y-36135000D01*
X160958561Y-36135000D01*
X161073887Y-36123641D01*
X161221860Y-36078754D01*
X161358233Y-36005862D01*
X161477764Y-35907764D01*
X161502347Y-35877810D01*
X162265158Y-35115000D01*
X162291939Y-35115000D01*
X162491898Y-35075226D01*
X162680256Y-34997205D01*
X162849774Y-34883937D01*
X162993937Y-34739774D01*
X163107205Y-34570256D01*
X163185226Y-34381898D01*
X163225000Y-34181939D01*
X163225000Y-33978061D01*
X163185226Y-33778102D01*
X163107205Y-33589744D01*
X162993937Y-33420226D01*
X162849774Y-33276063D01*
X162680256Y-33162795D01*
X162491898Y-33084774D01*
X162291939Y-33045000D01*
X162088061Y-33045000D01*
X161888102Y-33084774D01*
X161699744Y-33162795D01*
X161530226Y-33276063D01*
X161386063Y-33420226D01*
X161272795Y-33589744D01*
X161194774Y-33778102D01*
X161155000Y-33978061D01*
X161155000Y-34004842D01*
X160594843Y-34565000D01*
X156518711Y-34565000D01*
X156499774Y-34546063D01*
X156330256Y-34432795D01*
X156141898Y-34354774D01*
X155941939Y-34315000D01*
X155738061Y-34315000D01*
X155538102Y-34354774D01*
X155349744Y-34432795D01*
X155180226Y-34546063D01*
X155036063Y-34690226D01*
X154922795Y-34859744D01*
X154844774Y-35048102D01*
X154805000Y-35248061D01*
X114364999Y-35248061D01*
X114364999Y-34965000D01*
X117951546Y-34965000D01*
X117999744Y-34997205D01*
X118188102Y-35075226D01*
X118388061Y-35115000D01*
X118591939Y-35115000D01*
X118791898Y-35075226D01*
X118980256Y-34997205D01*
X119149774Y-34883937D01*
X119293937Y-34739774D01*
X119407205Y-34570256D01*
X119485226Y-34381898D01*
X119525000Y-34181939D01*
X119525000Y-33978061D01*
X119485226Y-33778102D01*
X119407205Y-33589744D01*
X119310490Y-33445000D01*
X119407205Y-33300256D01*
X119485226Y-33111898D01*
X119525000Y-32911939D01*
X119525000Y-32708061D01*
X119485226Y-32508102D01*
X119407205Y-32319744D01*
X119310490Y-32175000D01*
X119407205Y-32030256D01*
X119485226Y-31841898D01*
X119525000Y-31641939D01*
X119525000Y-31438061D01*
X119485226Y-31238102D01*
X119407205Y-31049744D01*
X119293937Y-30880226D01*
X119149774Y-30736063D01*
X118980256Y-30622795D01*
X118791898Y-30544774D01*
X118591939Y-30505000D01*
X118388061Y-30505000D01*
X118188102Y-30544774D01*
X117999744Y-30622795D01*
X117951546Y-30655000D01*
X113718454Y-30655000D01*
X113670256Y-30622795D01*
X113481898Y-30544774D01*
X113281939Y-30505000D01*
X113078061Y-30505000D01*
X112878102Y-30544774D01*
X112689744Y-30622795D01*
X112520226Y-30736063D01*
X112376063Y-30880226D01*
X112262795Y-31049744D01*
X112184774Y-31238102D01*
X112145000Y-31438061D01*
X112145000Y-31464843D01*
X108322190Y-35287653D01*
X108292236Y-35312236D01*
X108194138Y-35431768D01*
X108121246Y-35568141D01*
X108076359Y-35716114D01*
X108065000Y-35831440D01*
X108065000Y-35831447D01*
X108061203Y-35870000D01*
X108065000Y-35908553D01*
X108065000Y-35941289D01*
X108046063Y-35960226D01*
X107932795Y-36129744D01*
X107854774Y-36318102D01*
X107815000Y-36518061D01*
X58964000Y-36518061D01*
X58964000Y-30168061D01*
X69715000Y-30168061D01*
X69715000Y-30371939D01*
X69754774Y-30571898D01*
X69832795Y-30760256D01*
X69946063Y-30929774D01*
X70090226Y-31073937D01*
X70259744Y-31187205D01*
X70448102Y-31265226D01*
X70600001Y-31295440D01*
X70600000Y-34671289D01*
X70581063Y-34690226D01*
X70467795Y-34859744D01*
X70389774Y-35048102D01*
X70350000Y-35248061D01*
X70350000Y-35451939D01*
X70389774Y-35651898D01*
X70467795Y-35840256D01*
X70581063Y-36009774D01*
X70725226Y-36153937D01*
X70894744Y-36267205D01*
X71083102Y-36345226D01*
X71283061Y-36385000D01*
X71486939Y-36385000D01*
X71686898Y-36345226D01*
X71875256Y-36267205D01*
X72044774Y-36153937D01*
X72188937Y-36009774D01*
X72302205Y-35840256D01*
X72380226Y-35651898D01*
X72420000Y-35451939D01*
X72420000Y-35248061D01*
X72380226Y-35048102D01*
X72302205Y-34859744D01*
X72188937Y-34690226D01*
X72170000Y-34671289D01*
X72170000Y-30943556D01*
X72173797Y-30905000D01*
X72170000Y-30866444D01*
X72170000Y-30866439D01*
X72160143Y-30766358D01*
X72158642Y-30751113D01*
X72113754Y-30603140D01*
X72097034Y-30571859D01*
X72040862Y-30466767D01*
X71942764Y-30347236D01*
X71912810Y-30322653D01*
X71785000Y-30194843D01*
X71785000Y-30168061D01*
X71745226Y-29968102D01*
X71667205Y-29779744D01*
X71553937Y-29610226D01*
X71409774Y-29466063D01*
X71240256Y-29352795D01*
X71051898Y-29274774D01*
X70851939Y-29235000D01*
X70648061Y-29235000D01*
X70448102Y-29274774D01*
X70259744Y-29352795D01*
X70090226Y-29466063D01*
X69946063Y-29610226D01*
X69832795Y-29779744D01*
X69754774Y-29968102D01*
X69715000Y-30168061D01*
X58964000Y-30168061D01*
X58964000Y-26733380D01*
X59084040Y-26613340D01*
X59134146Y-26865236D01*
X59246088Y-27135489D01*
X59408603Y-27378710D01*
X59615446Y-27585553D01*
X59858667Y-27748068D01*
X60128920Y-27860010D01*
X60415818Y-27917078D01*
X60708338Y-27917078D01*
X60995236Y-27860010D01*
X61265489Y-27748068D01*
X61508710Y-27585553D01*
X61715553Y-27378710D01*
X61878068Y-27135489D01*
X61990010Y-26865236D01*
X62047078Y-26578338D01*
X62047078Y-26285818D01*
X112472922Y-26285818D01*
X112472922Y-26578338D01*
X112529990Y-26865236D01*
X112641932Y-27135489D01*
X112804447Y-27378710D01*
X113011290Y-27585553D01*
X113254511Y-27748068D01*
X113524764Y-27860010D01*
X113811662Y-27917078D01*
X114104182Y-27917078D01*
X114391080Y-27860010D01*
X114661333Y-27748068D01*
X114904554Y-27585553D01*
X115111397Y-27378710D01*
X115200000Y-27246106D01*
X115288603Y-27378710D01*
X115495446Y-27585553D01*
X115738667Y-27748068D01*
X116008920Y-27860010D01*
X116295818Y-27917078D01*
X116588338Y-27917078D01*
X116875236Y-27860010D01*
X117145489Y-27748068D01*
X117325092Y-27628061D01*
X157345000Y-27628061D01*
X157345000Y-27831939D01*
X157384774Y-28031898D01*
X157462795Y-28220256D01*
X157559510Y-28365000D01*
X157462795Y-28509744D01*
X157384774Y-28698102D01*
X157345000Y-28898061D01*
X157345000Y-29101939D01*
X157384774Y-29301898D01*
X157462795Y-29490256D01*
X157559510Y-29635000D01*
X157462795Y-29779744D01*
X157384774Y-29968102D01*
X157345000Y-30168061D01*
X157345000Y-30371939D01*
X157384774Y-30571898D01*
X157462795Y-30760256D01*
X157576063Y-30929774D01*
X157720226Y-31073937D01*
X157889744Y-31187205D01*
X158078102Y-31265226D01*
X158278061Y-31305000D01*
X158481939Y-31305000D01*
X158681898Y-31265226D01*
X158870256Y-31187205D01*
X158918454Y-31155000D01*
X161651546Y-31155000D01*
X161699744Y-31187205D01*
X161888102Y-31265226D01*
X162088061Y-31305000D01*
X162291939Y-31305000D01*
X162491898Y-31265226D01*
X162680256Y-31187205D01*
X162849774Y-31073937D01*
X162993937Y-30929774D01*
X163107205Y-30760256D01*
X163185226Y-30571898D01*
X163225000Y-30371939D01*
X163225000Y-30168061D01*
X163185226Y-29968102D01*
X163150804Y-29885000D01*
X164191546Y-29885000D01*
X164239744Y-29917205D01*
X164428102Y-29995226D01*
X164628061Y-30035000D01*
X164831939Y-30035000D01*
X165031898Y-29995226D01*
X165220256Y-29917205D01*
X165389774Y-29803937D01*
X165533937Y-29659774D01*
X165647205Y-29490256D01*
X165725226Y-29301898D01*
X165765000Y-29101939D01*
X165765000Y-28898061D01*
X165725226Y-28698102D01*
X165690804Y-28615000D01*
X166731546Y-28615000D01*
X166779744Y-28647205D01*
X166968102Y-28725226D01*
X167168061Y-28765000D01*
X167371939Y-28765000D01*
X167571898Y-28725226D01*
X167760256Y-28647205D01*
X167929774Y-28533937D01*
X168073937Y-28389774D01*
X168187205Y-28220256D01*
X168265226Y-28031898D01*
X168305000Y-27831939D01*
X168305000Y-27628061D01*
X168265226Y-27428102D01*
X168187205Y-27239744D01*
X168073937Y-27070226D01*
X167929774Y-26926063D01*
X167760256Y-26812795D01*
X167571898Y-26734774D01*
X167371939Y-26695000D01*
X167168061Y-26695000D01*
X166968102Y-26734774D01*
X166779744Y-26812795D01*
X166731546Y-26845000D01*
X158918454Y-26845000D01*
X158870256Y-26812795D01*
X158681898Y-26734774D01*
X158481939Y-26695000D01*
X158278061Y-26695000D01*
X158078102Y-26734774D01*
X157889744Y-26812795D01*
X157720226Y-26926063D01*
X157576063Y-27070226D01*
X157462795Y-27239744D01*
X157384774Y-27428102D01*
X157345000Y-27628061D01*
X117325092Y-27628061D01*
X117388710Y-27585553D01*
X117595553Y-27378710D01*
X117758068Y-27135489D01*
X117870010Y-26865236D01*
X117927078Y-26578338D01*
X117927078Y-26285818D01*
X117870010Y-25998920D01*
X117758068Y-25728667D01*
X117595553Y-25485446D01*
X117388710Y-25278603D01*
X117145489Y-25116088D01*
X116875236Y-25004146D01*
X116588338Y-24947078D01*
X116295818Y-24947078D01*
X116008920Y-25004146D01*
X115738667Y-25116088D01*
X115495446Y-25278603D01*
X115288603Y-25485446D01*
X115200000Y-25618050D01*
X115111397Y-25485446D01*
X114904554Y-25278603D01*
X114661333Y-25116088D01*
X114391080Y-25004146D01*
X114104182Y-24947078D01*
X113811662Y-24947078D01*
X113524764Y-25004146D01*
X113254511Y-25116088D01*
X113011290Y-25278603D01*
X112804447Y-25485446D01*
X112641932Y-25728667D01*
X112529990Y-25998920D01*
X112472922Y-26285818D01*
X62047078Y-26285818D01*
X61990010Y-25998920D01*
X61878068Y-25728667D01*
X61715553Y-25485446D01*
X61508710Y-25278603D01*
X61265489Y-25116088D01*
X60995236Y-25004146D01*
X60743340Y-24954040D01*
X60863381Y-24834000D01*
X169536620Y-24834000D01*
X169656660Y-24954040D01*
M02*
