%TF.GenerationSoftware,KiCad,Pcbnew,(5.1.10)-1*%
%TF.CreationDate,2021-09-12T15:17:43+08:00*%
%TF.ProjectId,fc,66632e6b-6963-4616-945f-706362585858,rev?*%
%TF.SameCoordinates,Original*%
%TF.FileFunction,Copper,L2,Bot*%
%TF.FilePolarity,Positive*%
%FSLAX46Y46*%
G04 Gerber Fmt 4.6, Leading zero omitted, Abs format (unit mm)*
G04 Created by KiCad (PCBNEW (5.1.10)-1) date 2021-09-12 15:17:43*
%MOMM*%
%LPD*%
G01*
G04 APERTURE LIST*
%TA.AperFunction,ComponentPad*%
%ADD10R,1.700000X1.700000*%
%TD*%
%TA.AperFunction,ComponentPad*%
%ADD11O,1.700000X1.700000*%
%TD*%
%TA.AperFunction,ViaPad*%
%ADD12C,0.600000*%
%TD*%
%TA.AperFunction,Conductor*%
%ADD13C,0.254000*%
%TD*%
%TA.AperFunction,Conductor*%
%ADD14C,0.350000*%
%TD*%
%ADD15C,0.300000*%
%ADD16C,0.350000*%
G04 APERTURE END LIST*
D10*
%TO.P,J2,1*%
%TO.N,GND*%
X105410000Y-46990000D03*
D11*
%TO.P,J2,2*%
%TO.N,Net-(J2-Pad2)*%
X105410000Y-49530000D03*
%TO.P,J2,3*%
%TO.N,Net-(J2-Pad3)*%
X107950000Y-46990000D03*
%TO.P,J2,4*%
%TO.N,Net-(J2-Pad4)*%
X107950000Y-49530000D03*
%TO.P,J2,5*%
%TO.N,Net-(J2-Pad5)*%
X110490000Y-46990000D03*
%TO.P,J2,6*%
%TO.N,Net-(J2-Pad6)*%
X110490000Y-49530000D03*
%TO.P,J2,7*%
%TO.N,/5v_CON2*%
X113030000Y-46990000D03*
%TO.P,J2,8*%
%TO.N,GND*%
X113030000Y-49530000D03*
%TD*%
D10*
%TO.P,J1,1*%
%TO.N,GND*%
X95250000Y-44450000D03*
D11*
%TO.P,J1,2*%
%TO.N,/5v_CON1*%
X92710000Y-44450000D03*
%TO.P,J1,3*%
%TO.N,Net-(J1-Pad3)*%
X95250000Y-46990000D03*
%TO.P,J1,4*%
%TO.N,Net-(J1-Pad4)*%
X92710000Y-46990000D03*
%TO.P,J1,5*%
%TO.N,Net-(J1-Pad5)*%
X95250000Y-49530000D03*
%TO.P,J1,6*%
%TO.N,Net-(J1-Pad6)*%
X92710000Y-49530000D03*
%TO.P,J1,7*%
%TO.N,Net-(J1-Pad7)*%
X95250000Y-52070000D03*
%TO.P,J1,8*%
%TO.N,GND*%
X92710000Y-52070000D03*
%TD*%
%TO.P,J3,2*%
%TO.N,/5v_PWR*%
X88900000Y-49530000D03*
D10*
%TO.P,J3,1*%
%TO.N,GND*%
X88900000Y-46990000D03*
%TD*%
D12*
%TO.N,GND*%
X103124000Y-52070000D03*
X98806000Y-41910000D03*
X104394000Y-41910000D03*
%TD*%
D13*
%TO.N,GND*%
X99500277Y-41469870D02*
X99523817Y-41524792D01*
X99546637Y-41580159D01*
X99551021Y-41588265D01*
X99701456Y-41861904D01*
X99735221Y-41911217D01*
X99768355Y-41961088D01*
X99774230Y-41968188D01*
X99974951Y-42207397D01*
X100017680Y-42249241D01*
X100059838Y-42291694D01*
X100066980Y-42297519D01*
X100310340Y-42493185D01*
X100360392Y-42525938D01*
X100409987Y-42559391D01*
X100418119Y-42563714D01*
X100418123Y-42563717D01*
X100418127Y-42563719D01*
X100694854Y-42708388D01*
X100750289Y-42730785D01*
X100805461Y-42753978D01*
X100814283Y-42756641D01*
X101113844Y-42844807D01*
X101172560Y-42856007D01*
X101231202Y-42868045D01*
X101240373Y-42868944D01*
X101551353Y-42897245D01*
X101611171Y-42896827D01*
X101670988Y-42897245D01*
X101680160Y-42896345D01*
X101990715Y-42863704D01*
X102049291Y-42851680D01*
X102108070Y-42840468D01*
X102116892Y-42837804D01*
X102415192Y-42745465D01*
X102470335Y-42722285D01*
X102525800Y-42699876D01*
X102533937Y-42695549D01*
X102808621Y-42547028D01*
X102858205Y-42513583D01*
X102908268Y-42480823D01*
X102915409Y-42474999D01*
X103156013Y-42275953D01*
X103198154Y-42233518D01*
X103240903Y-42191654D01*
X103246777Y-42184554D01*
X103444138Y-41942565D01*
X103477241Y-41892741D01*
X103511036Y-41843385D01*
X103515419Y-41835279D01*
X103662019Y-41559565D01*
X103684799Y-41504296D01*
X103708381Y-41449276D01*
X103711105Y-41440473D01*
X103753516Y-41300000D01*
X114686495Y-41300000D01*
X114734535Y-41455192D01*
X114757715Y-41510335D01*
X114780124Y-41565800D01*
X114784451Y-41573937D01*
X114932972Y-41848621D01*
X114966417Y-41898205D01*
X114999177Y-41948268D01*
X115005001Y-41955409D01*
X115204047Y-42196013D01*
X115246482Y-42238154D01*
X115288346Y-42280903D01*
X115295446Y-42286777D01*
X115537435Y-42484138D01*
X115587259Y-42517241D01*
X115636615Y-42551036D01*
X115644721Y-42555419D01*
X115920435Y-42702019D01*
X115975704Y-42724799D01*
X116030724Y-42748381D01*
X116039527Y-42751105D01*
X116180001Y-42793516D01*
X116180000Y-53726495D01*
X116024808Y-53774535D01*
X115969653Y-53797720D01*
X115914200Y-53820124D01*
X115906068Y-53824449D01*
X115906063Y-53824451D01*
X115906059Y-53824454D01*
X115631379Y-53972972D01*
X115581795Y-54006417D01*
X115531732Y-54039177D01*
X115524591Y-54045001D01*
X115283987Y-54244046D01*
X115241863Y-54286465D01*
X115199097Y-54328345D01*
X115193223Y-54335446D01*
X114995862Y-54577435D01*
X114962759Y-54627259D01*
X114928964Y-54676615D01*
X114924581Y-54684721D01*
X114777981Y-54960434D01*
X114755189Y-55015731D01*
X114731619Y-55070725D01*
X114728895Y-55079528D01*
X114686484Y-55220000D01*
X103753609Y-55220000D01*
X103699723Y-55050130D01*
X103676157Y-54995147D01*
X103653362Y-54939841D01*
X103648979Y-54931735D01*
X103498544Y-54658095D01*
X103464755Y-54608748D01*
X103431645Y-54558913D01*
X103425771Y-54551812D01*
X103225049Y-54312603D01*
X103182319Y-54270759D01*
X103140161Y-54228305D01*
X103133020Y-54222481D01*
X102889660Y-54026814D01*
X102839600Y-53994055D01*
X102790014Y-53960609D01*
X102781877Y-53956283D01*
X102505146Y-53811612D01*
X102449711Y-53789215D01*
X102394539Y-53766022D01*
X102385717Y-53763359D01*
X102086156Y-53675193D01*
X102027440Y-53663993D01*
X101968798Y-53651955D01*
X101959627Y-53651056D01*
X101648647Y-53622755D01*
X101588830Y-53623173D01*
X101529012Y-53622755D01*
X101519841Y-53623655D01*
X101519839Y-53623655D01*
X101209285Y-53656296D01*
X101150709Y-53668320D01*
X101091930Y-53679532D01*
X101083108Y-53682196D01*
X100784808Y-53774535D01*
X100729653Y-53797720D01*
X100674200Y-53820124D01*
X100666068Y-53824449D01*
X100666063Y-53824451D01*
X100666059Y-53824454D01*
X100391379Y-53972972D01*
X100341795Y-54006417D01*
X100291732Y-54039177D01*
X100284591Y-54045001D01*
X100043987Y-54244046D01*
X100001863Y-54286465D01*
X99959097Y-54328345D01*
X99953223Y-54335446D01*
X99755862Y-54577435D01*
X99722759Y-54627259D01*
X99688964Y-54676615D01*
X99684581Y-54684721D01*
X99537981Y-54960434D01*
X99515189Y-55015731D01*
X99491619Y-55070725D01*
X99488895Y-55079528D01*
X99446484Y-55220000D01*
X88513505Y-55220000D01*
X88465465Y-55064808D01*
X88442280Y-55009653D01*
X88419876Y-54954200D01*
X88415549Y-54946064D01*
X88415549Y-54946063D01*
X88415546Y-54946059D01*
X88267028Y-54671379D01*
X88233583Y-54621795D01*
X88200823Y-54571732D01*
X88194999Y-54564591D01*
X87995954Y-54323987D01*
X87953535Y-54281863D01*
X87911655Y-54239097D01*
X87904554Y-54233223D01*
X87662565Y-54035862D01*
X87612741Y-54002759D01*
X87563385Y-53968964D01*
X87555279Y-53964581D01*
X87279566Y-53817981D01*
X87224269Y-53795189D01*
X87169275Y-53771619D01*
X87160472Y-53768895D01*
X87020000Y-53726484D01*
X87020000Y-52426890D01*
X91268524Y-52426890D01*
X91313175Y-52574099D01*
X91438359Y-52836920D01*
X91612412Y-53070269D01*
X91828645Y-53265178D01*
X92078748Y-53414157D01*
X92353109Y-53511481D01*
X92583000Y-53390814D01*
X92583000Y-52197000D01*
X91389845Y-52197000D01*
X91268524Y-52426890D01*
X87020000Y-52426890D01*
X87020000Y-47840000D01*
X87411928Y-47840000D01*
X87424188Y-47964482D01*
X87460498Y-48084180D01*
X87519463Y-48194494D01*
X87598815Y-48291185D01*
X87695506Y-48370537D01*
X87805820Y-48429502D01*
X87878380Y-48451513D01*
X87746525Y-48583368D01*
X87584010Y-48826589D01*
X87472068Y-49096842D01*
X87415000Y-49383740D01*
X87415000Y-49676260D01*
X87472068Y-49963158D01*
X87584010Y-50233411D01*
X87746525Y-50476632D01*
X87953368Y-50683475D01*
X88196589Y-50845990D01*
X88466842Y-50957932D01*
X88753740Y-51015000D01*
X89046260Y-51015000D01*
X89333158Y-50957932D01*
X89603411Y-50845990D01*
X89846632Y-50683475D01*
X90053475Y-50476632D01*
X90215990Y-50233411D01*
X90327932Y-49963158D01*
X90385000Y-49676260D01*
X90385000Y-49383740D01*
X90327932Y-49096842D01*
X90215990Y-48826589D01*
X90053475Y-48583368D01*
X89921620Y-48451513D01*
X89994180Y-48429502D01*
X90104494Y-48370537D01*
X90201185Y-48291185D01*
X90280537Y-48194494D01*
X90339502Y-48084180D01*
X90375812Y-47964482D01*
X90388072Y-47840000D01*
X90385000Y-47275750D01*
X90226250Y-47117000D01*
X89027000Y-47117000D01*
X89027000Y-47137000D01*
X88773000Y-47137000D01*
X88773000Y-47117000D01*
X87573750Y-47117000D01*
X87415000Y-47275750D01*
X87411928Y-47840000D01*
X87020000Y-47840000D01*
X87020000Y-46140000D01*
X87411928Y-46140000D01*
X87415000Y-46704250D01*
X87573750Y-46863000D01*
X88773000Y-46863000D01*
X88773000Y-45663750D01*
X89027000Y-45663750D01*
X89027000Y-46863000D01*
X90226250Y-46863000D01*
X90385000Y-46704250D01*
X90388072Y-46140000D01*
X90375812Y-46015518D01*
X90339502Y-45895820D01*
X90280537Y-45785506D01*
X90201185Y-45688815D01*
X90104494Y-45609463D01*
X89994180Y-45550498D01*
X89874482Y-45514188D01*
X89750000Y-45501928D01*
X89185750Y-45505000D01*
X89027000Y-45663750D01*
X88773000Y-45663750D01*
X88614250Y-45505000D01*
X88050000Y-45501928D01*
X87925518Y-45514188D01*
X87805820Y-45550498D01*
X87695506Y-45609463D01*
X87598815Y-45688815D01*
X87519463Y-45785506D01*
X87460498Y-45895820D01*
X87424188Y-46015518D01*
X87411928Y-46140000D01*
X87020000Y-46140000D01*
X87020000Y-44303740D01*
X91225000Y-44303740D01*
X91225000Y-44596260D01*
X91282068Y-44883158D01*
X91394010Y-45153411D01*
X91556525Y-45396632D01*
X91763368Y-45603475D01*
X91937760Y-45720000D01*
X91763368Y-45836525D01*
X91556525Y-46043368D01*
X91394010Y-46286589D01*
X91282068Y-46556842D01*
X91225000Y-46843740D01*
X91225000Y-47136260D01*
X91282068Y-47423158D01*
X91394010Y-47693411D01*
X91556525Y-47936632D01*
X91763368Y-48143475D01*
X91937760Y-48260000D01*
X91763368Y-48376525D01*
X91556525Y-48583368D01*
X91394010Y-48826589D01*
X91282068Y-49096842D01*
X91225000Y-49383740D01*
X91225000Y-49676260D01*
X91282068Y-49963158D01*
X91394010Y-50233411D01*
X91556525Y-50476632D01*
X91763368Y-50683475D01*
X91945534Y-50805195D01*
X91828645Y-50874822D01*
X91612412Y-51069731D01*
X91438359Y-51303080D01*
X91313175Y-51565901D01*
X91268524Y-51713110D01*
X91389845Y-51943000D01*
X92583000Y-51943000D01*
X92583000Y-51923000D01*
X92837000Y-51923000D01*
X92837000Y-51943000D01*
X92857000Y-51943000D01*
X92857000Y-52197000D01*
X92837000Y-52197000D01*
X92837000Y-53390814D01*
X93066891Y-53511481D01*
X93341252Y-53414157D01*
X93591355Y-53265178D01*
X93807588Y-53070269D01*
X93978900Y-52840594D01*
X94096525Y-53016632D01*
X94303368Y-53223475D01*
X94546589Y-53385990D01*
X94816842Y-53497932D01*
X95103740Y-53555000D01*
X95396260Y-53555000D01*
X95683158Y-53497932D01*
X95953411Y-53385990D01*
X96196632Y-53223475D01*
X96403475Y-53016632D01*
X96565990Y-52773411D01*
X96677932Y-52503158D01*
X96735000Y-52216260D01*
X96735000Y-51923740D01*
X96677932Y-51636842D01*
X96565990Y-51366589D01*
X96403475Y-51123368D01*
X96196632Y-50916525D01*
X96022240Y-50800000D01*
X96196632Y-50683475D01*
X96403475Y-50476632D01*
X96565990Y-50233411D01*
X96677932Y-49963158D01*
X96735000Y-49676260D01*
X96735000Y-49383740D01*
X96677932Y-49096842D01*
X96565990Y-48826589D01*
X96403475Y-48583368D01*
X96196632Y-48376525D01*
X96022240Y-48260000D01*
X96196632Y-48143475D01*
X96403475Y-47936632D01*
X96468042Y-47840000D01*
X103921928Y-47840000D01*
X103934188Y-47964482D01*
X103970498Y-48084180D01*
X104029463Y-48194494D01*
X104108815Y-48291185D01*
X104205506Y-48370537D01*
X104315820Y-48429502D01*
X104388380Y-48451513D01*
X104256525Y-48583368D01*
X104094010Y-48826589D01*
X103982068Y-49096842D01*
X103925000Y-49383740D01*
X103925000Y-49676260D01*
X103982068Y-49963158D01*
X104094010Y-50233411D01*
X104256525Y-50476632D01*
X104463368Y-50683475D01*
X104706589Y-50845990D01*
X104976842Y-50957932D01*
X105263740Y-51015000D01*
X105556260Y-51015000D01*
X105843158Y-50957932D01*
X106113411Y-50845990D01*
X106356632Y-50683475D01*
X106563475Y-50476632D01*
X106680000Y-50302240D01*
X106796525Y-50476632D01*
X107003368Y-50683475D01*
X107246589Y-50845990D01*
X107516842Y-50957932D01*
X107803740Y-51015000D01*
X108096260Y-51015000D01*
X108383158Y-50957932D01*
X108653411Y-50845990D01*
X108896632Y-50683475D01*
X109103475Y-50476632D01*
X109220000Y-50302240D01*
X109336525Y-50476632D01*
X109543368Y-50683475D01*
X109786589Y-50845990D01*
X110056842Y-50957932D01*
X110343740Y-51015000D01*
X110636260Y-51015000D01*
X110923158Y-50957932D01*
X111193411Y-50845990D01*
X111436632Y-50683475D01*
X111643475Y-50476632D01*
X111765195Y-50294466D01*
X111834822Y-50411355D01*
X112029731Y-50627588D01*
X112263080Y-50801641D01*
X112525901Y-50926825D01*
X112673110Y-50971476D01*
X112903000Y-50850155D01*
X112903000Y-49657000D01*
X113157000Y-49657000D01*
X113157000Y-50850155D01*
X113386890Y-50971476D01*
X113534099Y-50926825D01*
X113796920Y-50801641D01*
X114030269Y-50627588D01*
X114225178Y-50411355D01*
X114374157Y-50161252D01*
X114471481Y-49886891D01*
X114350814Y-49657000D01*
X113157000Y-49657000D01*
X112903000Y-49657000D01*
X112883000Y-49657000D01*
X112883000Y-49403000D01*
X112903000Y-49403000D01*
X112903000Y-49383000D01*
X113157000Y-49383000D01*
X113157000Y-49403000D01*
X114350814Y-49403000D01*
X114471481Y-49173109D01*
X114374157Y-48898748D01*
X114225178Y-48648645D01*
X114030269Y-48432412D01*
X113800594Y-48261100D01*
X113976632Y-48143475D01*
X114183475Y-47936632D01*
X114345990Y-47693411D01*
X114457932Y-47423158D01*
X114515000Y-47136260D01*
X114515000Y-46843740D01*
X114457932Y-46556842D01*
X114345990Y-46286589D01*
X114183475Y-46043368D01*
X113976632Y-45836525D01*
X113733411Y-45674010D01*
X113463158Y-45562068D01*
X113176260Y-45505000D01*
X112883740Y-45505000D01*
X112596842Y-45562068D01*
X112326589Y-45674010D01*
X112083368Y-45836525D01*
X111876525Y-46043368D01*
X111760000Y-46217760D01*
X111643475Y-46043368D01*
X111436632Y-45836525D01*
X111193411Y-45674010D01*
X110923158Y-45562068D01*
X110636260Y-45505000D01*
X110343740Y-45505000D01*
X110056842Y-45562068D01*
X109786589Y-45674010D01*
X109543368Y-45836525D01*
X109336525Y-46043368D01*
X109220000Y-46217760D01*
X109103475Y-46043368D01*
X108896632Y-45836525D01*
X108653411Y-45674010D01*
X108383158Y-45562068D01*
X108096260Y-45505000D01*
X107803740Y-45505000D01*
X107516842Y-45562068D01*
X107246589Y-45674010D01*
X107003368Y-45836525D01*
X106871513Y-45968380D01*
X106849502Y-45895820D01*
X106790537Y-45785506D01*
X106711185Y-45688815D01*
X106614494Y-45609463D01*
X106504180Y-45550498D01*
X106384482Y-45514188D01*
X106260000Y-45501928D01*
X105695750Y-45505000D01*
X105537000Y-45663750D01*
X105537000Y-46863000D01*
X105557000Y-46863000D01*
X105557000Y-47117000D01*
X105537000Y-47117000D01*
X105537000Y-47137000D01*
X105283000Y-47137000D01*
X105283000Y-47117000D01*
X104083750Y-47117000D01*
X103925000Y-47275750D01*
X103921928Y-47840000D01*
X96468042Y-47840000D01*
X96565990Y-47693411D01*
X96677932Y-47423158D01*
X96735000Y-47136260D01*
X96735000Y-46843740D01*
X96677932Y-46556842D01*
X96565990Y-46286589D01*
X96468043Y-46140000D01*
X103921928Y-46140000D01*
X103925000Y-46704250D01*
X104083750Y-46863000D01*
X105283000Y-46863000D01*
X105283000Y-45663750D01*
X105124250Y-45505000D01*
X104560000Y-45501928D01*
X104435518Y-45514188D01*
X104315820Y-45550498D01*
X104205506Y-45609463D01*
X104108815Y-45688815D01*
X104029463Y-45785506D01*
X103970498Y-45895820D01*
X103934188Y-46015518D01*
X103921928Y-46140000D01*
X96468043Y-46140000D01*
X96403475Y-46043368D01*
X96271620Y-45911513D01*
X96344180Y-45889502D01*
X96454494Y-45830537D01*
X96551185Y-45751185D01*
X96630537Y-45654494D01*
X96689502Y-45544180D01*
X96725812Y-45424482D01*
X96738072Y-45300000D01*
X96735000Y-44735750D01*
X96576250Y-44577000D01*
X95377000Y-44577000D01*
X95377000Y-44597000D01*
X95123000Y-44597000D01*
X95123000Y-44577000D01*
X95103000Y-44577000D01*
X95103000Y-44323000D01*
X95123000Y-44323000D01*
X95123000Y-43123750D01*
X95377000Y-43123750D01*
X95377000Y-44323000D01*
X96576250Y-44323000D01*
X96735000Y-44164250D01*
X96738072Y-43600000D01*
X96725812Y-43475518D01*
X96689502Y-43355820D01*
X96630537Y-43245506D01*
X96551185Y-43148815D01*
X96454494Y-43069463D01*
X96344180Y-43010498D01*
X96224482Y-42974188D01*
X96100000Y-42961928D01*
X95535750Y-42965000D01*
X95377000Y-43123750D01*
X95123000Y-43123750D01*
X94964250Y-42965000D01*
X94400000Y-42961928D01*
X94275518Y-42974188D01*
X94155820Y-43010498D01*
X94045506Y-43069463D01*
X93948815Y-43148815D01*
X93869463Y-43245506D01*
X93810498Y-43355820D01*
X93788487Y-43428380D01*
X93656632Y-43296525D01*
X93413411Y-43134010D01*
X93143158Y-43022068D01*
X92856260Y-42965000D01*
X92563740Y-42965000D01*
X92276842Y-43022068D01*
X92006589Y-43134010D01*
X91763368Y-43296525D01*
X91556525Y-43503368D01*
X91394010Y-43746589D01*
X91282068Y-44016842D01*
X91225000Y-44303740D01*
X87020000Y-44303740D01*
X87020000Y-42793505D01*
X87175192Y-42745465D01*
X87230335Y-42722285D01*
X87285800Y-42699876D01*
X87293937Y-42695549D01*
X87568621Y-42547028D01*
X87618205Y-42513583D01*
X87668268Y-42480823D01*
X87675409Y-42474999D01*
X87916013Y-42275953D01*
X87958154Y-42233518D01*
X88000903Y-42191654D01*
X88006777Y-42184554D01*
X88204138Y-41942565D01*
X88237241Y-41892741D01*
X88271036Y-41843385D01*
X88275419Y-41835279D01*
X88422019Y-41559565D01*
X88444799Y-41504296D01*
X88468381Y-41449276D01*
X88471105Y-41440473D01*
X88513516Y-41300000D01*
X99446391Y-41300000D01*
X99500277Y-41469870D01*
%TA.AperFunction,Conductor*%
D14*
G36*
X99500277Y-41469870D02*
G01*
X99523817Y-41524792D01*
X99546637Y-41580159D01*
X99551021Y-41588265D01*
X99701456Y-41861904D01*
X99735221Y-41911217D01*
X99768355Y-41961088D01*
X99774230Y-41968188D01*
X99974951Y-42207397D01*
X100017680Y-42249241D01*
X100059838Y-42291694D01*
X100066980Y-42297519D01*
X100310340Y-42493185D01*
X100360392Y-42525938D01*
X100409987Y-42559391D01*
X100418119Y-42563714D01*
X100418123Y-42563717D01*
X100418127Y-42563719D01*
X100694854Y-42708388D01*
X100750289Y-42730785D01*
X100805461Y-42753978D01*
X100814283Y-42756641D01*
X101113844Y-42844807D01*
X101172560Y-42856007D01*
X101231202Y-42868045D01*
X101240373Y-42868944D01*
X101551353Y-42897245D01*
X101611171Y-42896827D01*
X101670988Y-42897245D01*
X101680160Y-42896345D01*
X101990715Y-42863704D01*
X102049291Y-42851680D01*
X102108070Y-42840468D01*
X102116892Y-42837804D01*
X102415192Y-42745465D01*
X102470335Y-42722285D01*
X102525800Y-42699876D01*
X102533937Y-42695549D01*
X102808621Y-42547028D01*
X102858205Y-42513583D01*
X102908268Y-42480823D01*
X102915409Y-42474999D01*
X103156013Y-42275953D01*
X103198154Y-42233518D01*
X103240903Y-42191654D01*
X103246777Y-42184554D01*
X103444138Y-41942565D01*
X103477241Y-41892741D01*
X103511036Y-41843385D01*
X103515419Y-41835279D01*
X103662019Y-41559565D01*
X103684799Y-41504296D01*
X103708381Y-41449276D01*
X103711105Y-41440473D01*
X103753516Y-41300000D01*
X114686495Y-41300000D01*
X114734535Y-41455192D01*
X114757715Y-41510335D01*
X114780124Y-41565800D01*
X114784451Y-41573937D01*
X114932972Y-41848621D01*
X114966417Y-41898205D01*
X114999177Y-41948268D01*
X115005001Y-41955409D01*
X115204047Y-42196013D01*
X115246482Y-42238154D01*
X115288346Y-42280903D01*
X115295446Y-42286777D01*
X115537435Y-42484138D01*
X115587259Y-42517241D01*
X115636615Y-42551036D01*
X115644721Y-42555419D01*
X115920435Y-42702019D01*
X115975704Y-42724799D01*
X116030724Y-42748381D01*
X116039527Y-42751105D01*
X116180001Y-42793516D01*
X116180000Y-53726495D01*
X116024808Y-53774535D01*
X115969653Y-53797720D01*
X115914200Y-53820124D01*
X115906068Y-53824449D01*
X115906063Y-53824451D01*
X115906059Y-53824454D01*
X115631379Y-53972972D01*
X115581795Y-54006417D01*
X115531732Y-54039177D01*
X115524591Y-54045001D01*
X115283987Y-54244046D01*
X115241863Y-54286465D01*
X115199097Y-54328345D01*
X115193223Y-54335446D01*
X114995862Y-54577435D01*
X114962759Y-54627259D01*
X114928964Y-54676615D01*
X114924581Y-54684721D01*
X114777981Y-54960434D01*
X114755189Y-55015731D01*
X114731619Y-55070725D01*
X114728895Y-55079528D01*
X114686484Y-55220000D01*
X103753609Y-55220000D01*
X103699723Y-55050130D01*
X103676157Y-54995147D01*
X103653362Y-54939841D01*
X103648979Y-54931735D01*
X103498544Y-54658095D01*
X103464755Y-54608748D01*
X103431645Y-54558913D01*
X103425771Y-54551812D01*
X103225049Y-54312603D01*
X103182319Y-54270759D01*
X103140161Y-54228305D01*
X103133020Y-54222481D01*
X102889660Y-54026814D01*
X102839600Y-53994055D01*
X102790014Y-53960609D01*
X102781877Y-53956283D01*
X102505146Y-53811612D01*
X102449711Y-53789215D01*
X102394539Y-53766022D01*
X102385717Y-53763359D01*
X102086156Y-53675193D01*
X102027440Y-53663993D01*
X101968798Y-53651955D01*
X101959627Y-53651056D01*
X101648647Y-53622755D01*
X101588830Y-53623173D01*
X101529012Y-53622755D01*
X101519841Y-53623655D01*
X101519839Y-53623655D01*
X101209285Y-53656296D01*
X101150709Y-53668320D01*
X101091930Y-53679532D01*
X101083108Y-53682196D01*
X100784808Y-53774535D01*
X100729653Y-53797720D01*
X100674200Y-53820124D01*
X100666068Y-53824449D01*
X100666063Y-53824451D01*
X100666059Y-53824454D01*
X100391379Y-53972972D01*
X100341795Y-54006417D01*
X100291732Y-54039177D01*
X100284591Y-54045001D01*
X100043987Y-54244046D01*
X100001863Y-54286465D01*
X99959097Y-54328345D01*
X99953223Y-54335446D01*
X99755862Y-54577435D01*
X99722759Y-54627259D01*
X99688964Y-54676615D01*
X99684581Y-54684721D01*
X99537981Y-54960434D01*
X99515189Y-55015731D01*
X99491619Y-55070725D01*
X99488895Y-55079528D01*
X99446484Y-55220000D01*
X88513505Y-55220000D01*
X88465465Y-55064808D01*
X88442280Y-55009653D01*
X88419876Y-54954200D01*
X88415549Y-54946064D01*
X88415549Y-54946063D01*
X88415546Y-54946059D01*
X88267028Y-54671379D01*
X88233583Y-54621795D01*
X88200823Y-54571732D01*
X88194999Y-54564591D01*
X87995954Y-54323987D01*
X87953535Y-54281863D01*
X87911655Y-54239097D01*
X87904554Y-54233223D01*
X87662565Y-54035862D01*
X87612741Y-54002759D01*
X87563385Y-53968964D01*
X87555279Y-53964581D01*
X87279566Y-53817981D01*
X87224269Y-53795189D01*
X87169275Y-53771619D01*
X87160472Y-53768895D01*
X87020000Y-53726484D01*
X87020000Y-52426890D01*
X91268524Y-52426890D01*
X91313175Y-52574099D01*
X91438359Y-52836920D01*
X91612412Y-53070269D01*
X91828645Y-53265178D01*
X92078748Y-53414157D01*
X92353109Y-53511481D01*
X92583000Y-53390814D01*
X92583000Y-52197000D01*
X91389845Y-52197000D01*
X91268524Y-52426890D01*
X87020000Y-52426890D01*
X87020000Y-47840000D01*
X87411928Y-47840000D01*
X87424188Y-47964482D01*
X87460498Y-48084180D01*
X87519463Y-48194494D01*
X87598815Y-48291185D01*
X87695506Y-48370537D01*
X87805820Y-48429502D01*
X87878380Y-48451513D01*
X87746525Y-48583368D01*
X87584010Y-48826589D01*
X87472068Y-49096842D01*
X87415000Y-49383740D01*
X87415000Y-49676260D01*
X87472068Y-49963158D01*
X87584010Y-50233411D01*
X87746525Y-50476632D01*
X87953368Y-50683475D01*
X88196589Y-50845990D01*
X88466842Y-50957932D01*
X88753740Y-51015000D01*
X89046260Y-51015000D01*
X89333158Y-50957932D01*
X89603411Y-50845990D01*
X89846632Y-50683475D01*
X90053475Y-50476632D01*
X90215990Y-50233411D01*
X90327932Y-49963158D01*
X90385000Y-49676260D01*
X90385000Y-49383740D01*
X90327932Y-49096842D01*
X90215990Y-48826589D01*
X90053475Y-48583368D01*
X89921620Y-48451513D01*
X89994180Y-48429502D01*
X90104494Y-48370537D01*
X90201185Y-48291185D01*
X90280537Y-48194494D01*
X90339502Y-48084180D01*
X90375812Y-47964482D01*
X90388072Y-47840000D01*
X90385000Y-47275750D01*
X90226250Y-47117000D01*
X89027000Y-47117000D01*
X89027000Y-47137000D01*
X88773000Y-47137000D01*
X88773000Y-47117000D01*
X87573750Y-47117000D01*
X87415000Y-47275750D01*
X87411928Y-47840000D01*
X87020000Y-47840000D01*
X87020000Y-46140000D01*
X87411928Y-46140000D01*
X87415000Y-46704250D01*
X87573750Y-46863000D01*
X88773000Y-46863000D01*
X88773000Y-45663750D01*
X89027000Y-45663750D01*
X89027000Y-46863000D01*
X90226250Y-46863000D01*
X90385000Y-46704250D01*
X90388072Y-46140000D01*
X90375812Y-46015518D01*
X90339502Y-45895820D01*
X90280537Y-45785506D01*
X90201185Y-45688815D01*
X90104494Y-45609463D01*
X89994180Y-45550498D01*
X89874482Y-45514188D01*
X89750000Y-45501928D01*
X89185750Y-45505000D01*
X89027000Y-45663750D01*
X88773000Y-45663750D01*
X88614250Y-45505000D01*
X88050000Y-45501928D01*
X87925518Y-45514188D01*
X87805820Y-45550498D01*
X87695506Y-45609463D01*
X87598815Y-45688815D01*
X87519463Y-45785506D01*
X87460498Y-45895820D01*
X87424188Y-46015518D01*
X87411928Y-46140000D01*
X87020000Y-46140000D01*
X87020000Y-44303740D01*
X91225000Y-44303740D01*
X91225000Y-44596260D01*
X91282068Y-44883158D01*
X91394010Y-45153411D01*
X91556525Y-45396632D01*
X91763368Y-45603475D01*
X91937760Y-45720000D01*
X91763368Y-45836525D01*
X91556525Y-46043368D01*
X91394010Y-46286589D01*
X91282068Y-46556842D01*
X91225000Y-46843740D01*
X91225000Y-47136260D01*
X91282068Y-47423158D01*
X91394010Y-47693411D01*
X91556525Y-47936632D01*
X91763368Y-48143475D01*
X91937760Y-48260000D01*
X91763368Y-48376525D01*
X91556525Y-48583368D01*
X91394010Y-48826589D01*
X91282068Y-49096842D01*
X91225000Y-49383740D01*
X91225000Y-49676260D01*
X91282068Y-49963158D01*
X91394010Y-50233411D01*
X91556525Y-50476632D01*
X91763368Y-50683475D01*
X91945534Y-50805195D01*
X91828645Y-50874822D01*
X91612412Y-51069731D01*
X91438359Y-51303080D01*
X91313175Y-51565901D01*
X91268524Y-51713110D01*
X91389845Y-51943000D01*
X92583000Y-51943000D01*
X92583000Y-51923000D01*
X92837000Y-51923000D01*
X92837000Y-51943000D01*
X92857000Y-51943000D01*
X92857000Y-52197000D01*
X92837000Y-52197000D01*
X92837000Y-53390814D01*
X93066891Y-53511481D01*
X93341252Y-53414157D01*
X93591355Y-53265178D01*
X93807588Y-53070269D01*
X93978900Y-52840594D01*
X94096525Y-53016632D01*
X94303368Y-53223475D01*
X94546589Y-53385990D01*
X94816842Y-53497932D01*
X95103740Y-53555000D01*
X95396260Y-53555000D01*
X95683158Y-53497932D01*
X95953411Y-53385990D01*
X96196632Y-53223475D01*
X96403475Y-53016632D01*
X96565990Y-52773411D01*
X96677932Y-52503158D01*
X96735000Y-52216260D01*
X96735000Y-51923740D01*
X96677932Y-51636842D01*
X96565990Y-51366589D01*
X96403475Y-51123368D01*
X96196632Y-50916525D01*
X96022240Y-50800000D01*
X96196632Y-50683475D01*
X96403475Y-50476632D01*
X96565990Y-50233411D01*
X96677932Y-49963158D01*
X96735000Y-49676260D01*
X96735000Y-49383740D01*
X96677932Y-49096842D01*
X96565990Y-48826589D01*
X96403475Y-48583368D01*
X96196632Y-48376525D01*
X96022240Y-48260000D01*
X96196632Y-48143475D01*
X96403475Y-47936632D01*
X96468042Y-47840000D01*
X103921928Y-47840000D01*
X103934188Y-47964482D01*
X103970498Y-48084180D01*
X104029463Y-48194494D01*
X104108815Y-48291185D01*
X104205506Y-48370537D01*
X104315820Y-48429502D01*
X104388380Y-48451513D01*
X104256525Y-48583368D01*
X104094010Y-48826589D01*
X103982068Y-49096842D01*
X103925000Y-49383740D01*
X103925000Y-49676260D01*
X103982068Y-49963158D01*
X104094010Y-50233411D01*
X104256525Y-50476632D01*
X104463368Y-50683475D01*
X104706589Y-50845990D01*
X104976842Y-50957932D01*
X105263740Y-51015000D01*
X105556260Y-51015000D01*
X105843158Y-50957932D01*
X106113411Y-50845990D01*
X106356632Y-50683475D01*
X106563475Y-50476632D01*
X106680000Y-50302240D01*
X106796525Y-50476632D01*
X107003368Y-50683475D01*
X107246589Y-50845990D01*
X107516842Y-50957932D01*
X107803740Y-51015000D01*
X108096260Y-51015000D01*
X108383158Y-50957932D01*
X108653411Y-50845990D01*
X108896632Y-50683475D01*
X109103475Y-50476632D01*
X109220000Y-50302240D01*
X109336525Y-50476632D01*
X109543368Y-50683475D01*
X109786589Y-50845990D01*
X110056842Y-50957932D01*
X110343740Y-51015000D01*
X110636260Y-51015000D01*
X110923158Y-50957932D01*
X111193411Y-50845990D01*
X111436632Y-50683475D01*
X111643475Y-50476632D01*
X111765195Y-50294466D01*
X111834822Y-50411355D01*
X112029731Y-50627588D01*
X112263080Y-50801641D01*
X112525901Y-50926825D01*
X112673110Y-50971476D01*
X112903000Y-50850155D01*
X112903000Y-49657000D01*
X113157000Y-49657000D01*
X113157000Y-50850155D01*
X113386890Y-50971476D01*
X113534099Y-50926825D01*
X113796920Y-50801641D01*
X114030269Y-50627588D01*
X114225178Y-50411355D01*
X114374157Y-50161252D01*
X114471481Y-49886891D01*
X114350814Y-49657000D01*
X113157000Y-49657000D01*
X112903000Y-49657000D01*
X112883000Y-49657000D01*
X112883000Y-49403000D01*
X112903000Y-49403000D01*
X112903000Y-49383000D01*
X113157000Y-49383000D01*
X113157000Y-49403000D01*
X114350814Y-49403000D01*
X114471481Y-49173109D01*
X114374157Y-48898748D01*
X114225178Y-48648645D01*
X114030269Y-48432412D01*
X113800594Y-48261100D01*
X113976632Y-48143475D01*
X114183475Y-47936632D01*
X114345990Y-47693411D01*
X114457932Y-47423158D01*
X114515000Y-47136260D01*
X114515000Y-46843740D01*
X114457932Y-46556842D01*
X114345990Y-46286589D01*
X114183475Y-46043368D01*
X113976632Y-45836525D01*
X113733411Y-45674010D01*
X113463158Y-45562068D01*
X113176260Y-45505000D01*
X112883740Y-45505000D01*
X112596842Y-45562068D01*
X112326589Y-45674010D01*
X112083368Y-45836525D01*
X111876525Y-46043368D01*
X111760000Y-46217760D01*
X111643475Y-46043368D01*
X111436632Y-45836525D01*
X111193411Y-45674010D01*
X110923158Y-45562068D01*
X110636260Y-45505000D01*
X110343740Y-45505000D01*
X110056842Y-45562068D01*
X109786589Y-45674010D01*
X109543368Y-45836525D01*
X109336525Y-46043368D01*
X109220000Y-46217760D01*
X109103475Y-46043368D01*
X108896632Y-45836525D01*
X108653411Y-45674010D01*
X108383158Y-45562068D01*
X108096260Y-45505000D01*
X107803740Y-45505000D01*
X107516842Y-45562068D01*
X107246589Y-45674010D01*
X107003368Y-45836525D01*
X106871513Y-45968380D01*
X106849502Y-45895820D01*
X106790537Y-45785506D01*
X106711185Y-45688815D01*
X106614494Y-45609463D01*
X106504180Y-45550498D01*
X106384482Y-45514188D01*
X106260000Y-45501928D01*
X105695750Y-45505000D01*
X105537000Y-45663750D01*
X105537000Y-46863000D01*
X105557000Y-46863000D01*
X105557000Y-47117000D01*
X105537000Y-47117000D01*
X105537000Y-47137000D01*
X105283000Y-47137000D01*
X105283000Y-47117000D01*
X104083750Y-47117000D01*
X103925000Y-47275750D01*
X103921928Y-47840000D01*
X96468042Y-47840000D01*
X96565990Y-47693411D01*
X96677932Y-47423158D01*
X96735000Y-47136260D01*
X96735000Y-46843740D01*
X96677932Y-46556842D01*
X96565990Y-46286589D01*
X96468043Y-46140000D01*
X103921928Y-46140000D01*
X103925000Y-46704250D01*
X104083750Y-46863000D01*
X105283000Y-46863000D01*
X105283000Y-45663750D01*
X105124250Y-45505000D01*
X104560000Y-45501928D01*
X104435518Y-45514188D01*
X104315820Y-45550498D01*
X104205506Y-45609463D01*
X104108815Y-45688815D01*
X104029463Y-45785506D01*
X103970498Y-45895820D01*
X103934188Y-46015518D01*
X103921928Y-46140000D01*
X96468043Y-46140000D01*
X96403475Y-46043368D01*
X96271620Y-45911513D01*
X96344180Y-45889502D01*
X96454494Y-45830537D01*
X96551185Y-45751185D01*
X96630537Y-45654494D01*
X96689502Y-45544180D01*
X96725812Y-45424482D01*
X96738072Y-45300000D01*
X96735000Y-44735750D01*
X96576250Y-44577000D01*
X95377000Y-44577000D01*
X95377000Y-44597000D01*
X95123000Y-44597000D01*
X95123000Y-44577000D01*
X95103000Y-44577000D01*
X95103000Y-44323000D01*
X95123000Y-44323000D01*
X95123000Y-43123750D01*
X95377000Y-43123750D01*
X95377000Y-44323000D01*
X96576250Y-44323000D01*
X96735000Y-44164250D01*
X96738072Y-43600000D01*
X96725812Y-43475518D01*
X96689502Y-43355820D01*
X96630537Y-43245506D01*
X96551185Y-43148815D01*
X96454494Y-43069463D01*
X96344180Y-43010498D01*
X96224482Y-42974188D01*
X96100000Y-42961928D01*
X95535750Y-42965000D01*
X95377000Y-43123750D01*
X95123000Y-43123750D01*
X94964250Y-42965000D01*
X94400000Y-42961928D01*
X94275518Y-42974188D01*
X94155820Y-43010498D01*
X94045506Y-43069463D01*
X93948815Y-43148815D01*
X93869463Y-43245506D01*
X93810498Y-43355820D01*
X93788487Y-43428380D01*
X93656632Y-43296525D01*
X93413411Y-43134010D01*
X93143158Y-43022068D01*
X92856260Y-42965000D01*
X92563740Y-42965000D01*
X92276842Y-43022068D01*
X92006589Y-43134010D01*
X91763368Y-43296525D01*
X91556525Y-43503368D01*
X91394010Y-43746589D01*
X91282068Y-44016842D01*
X91225000Y-44303740D01*
X87020000Y-44303740D01*
X87020000Y-42793505D01*
X87175192Y-42745465D01*
X87230335Y-42722285D01*
X87285800Y-42699876D01*
X87293937Y-42695549D01*
X87568621Y-42547028D01*
X87618205Y-42513583D01*
X87668268Y-42480823D01*
X87675409Y-42474999D01*
X87916013Y-42275953D01*
X87958154Y-42233518D01*
X88000903Y-42191654D01*
X88006777Y-42184554D01*
X88204138Y-41942565D01*
X88237241Y-41892741D01*
X88271036Y-41843385D01*
X88275419Y-41835279D01*
X88422019Y-41559565D01*
X88444799Y-41504296D01*
X88468381Y-41449276D01*
X88471105Y-41440473D01*
X88513516Y-41300000D01*
X99446391Y-41300000D01*
X99500277Y-41469870D01*
G37*
%TD.AperFunction*%
%TD*%
D15*
X103124000Y-52070000D03*
X98806000Y-41910000D03*
X104394000Y-41910000D03*
D16*
X105410000Y-46990000D03*
X105410000Y-49530000D03*
X107950000Y-46990000D03*
X107950000Y-49530000D03*
X110490000Y-46990000D03*
X110490000Y-49530000D03*
X113030000Y-46990000D03*
X113030000Y-49530000D03*
X95250000Y-44450000D03*
X92710000Y-44450000D03*
X95250000Y-46990000D03*
X92710000Y-46990000D03*
X95250000Y-49530000D03*
X92710000Y-49530000D03*
X95250000Y-52070000D03*
X92710000Y-52070000D03*
X88900000Y-49530000D03*
X88900000Y-46990000D03*
M02*
