M48
; DRILL file {KiCad (5.1.10)-1} date 09/12/21 15:17:43
; FORMAT={-:-/ absolute / metric / decimal}
; #@! TF.CreationDate,2021-09-12T15:17:43+08:00
; #@! TF.GenerationSoftware,Kicad,Pcbnew,(5.1.10)-1
; #@! TF.FileFunction,Plated,1,2,PTH
FMAT,2
METRIC
T1C0.300
T2C1.000
%
G90
G05
T1
X98.806Y-41.91
X103.124Y-52.07
X104.394Y-41.91
T2
X88.9Y-46.99
X88.9Y-49.53
X92.71Y-44.45
X92.71Y-46.99
X92.71Y-49.53
X92.71Y-52.07
X95.25Y-44.45
X95.25Y-46.99
X95.25Y-49.53
X95.25Y-52.07
X105.41Y-46.99
X105.41Y-49.53
X107.95Y-46.99
X107.95Y-49.53
X110.49Y-46.99
X110.49Y-49.53
X113.03Y-46.99
X113.03Y-49.53
T0
M30
