%TF.GenerationSoftware,KiCad,Pcbnew,(5.1.10)-1*%
%TF.CreationDate,2021-09-12T15:17:43+08:00*%
%TF.ProjectId,fc,66632e6b-6963-4616-945f-706362585858,rev?*%
%TF.SameCoordinates,Original*%
%TF.FileFunction,Copper,L1,Top*%
%TF.FilePolarity,Positive*%
%FSLAX46Y46*%
G04 Gerber Fmt 4.6, Leading zero omitted, Abs format (unit mm)*
G04 Created by KiCad (PCBNEW (5.1.10)-1) date 2021-09-12 15:17:43*
%MOMM*%
%LPD*%
G01*
G04 APERTURE LIST*
%TA.AperFunction,SMDPad,CuDef*%
%ADD10R,1.000000X1.500000*%
%TD*%
%TA.AperFunction,SMDPad,CuDef*%
%ADD11C,0.350000*%
%TD*%
%TA.AperFunction,ComponentPad*%
%ADD12R,1.700000X1.700000*%
%TD*%
%TA.AperFunction,ComponentPad*%
%ADD13O,1.700000X1.700000*%
%TD*%
%TA.AperFunction,ViaPad*%
%ADD14C,0.600000*%
%TD*%
%TA.AperFunction,Conductor*%
%ADD15C,0.500000*%
%TD*%
%TA.AperFunction,Conductor*%
%ADD16C,0.254000*%
%TD*%
%TA.AperFunction,Conductor*%
%ADD17C,0.350000*%
%TD*%
%ADD18C,0.300000*%
%ADD19C,0.350000*%
G04 APERTURE END LIST*
D10*
%TO.P,JP1,2*%
%TO.N,/5v_PWR*%
X109220000Y-41910000D03*
%TA.AperFunction,SMDPad,CuDef*%
D11*
%TO.P,JP1,3*%
%TO.N,/5v_CON2*%
G36*
X110520000Y-41160602D02*
G01*
X110544534Y-41160602D01*
X110593365Y-41165412D01*
X110641490Y-41174984D01*
X110688445Y-41189228D01*
X110733778Y-41208005D01*
X110777051Y-41231136D01*
X110817850Y-41258396D01*
X110855779Y-41289524D01*
X110890476Y-41324221D01*
X110921604Y-41362150D01*
X110948864Y-41402949D01*
X110971995Y-41446222D01*
X110990772Y-41491555D01*
X111005016Y-41538510D01*
X111014588Y-41586635D01*
X111019398Y-41635466D01*
X111019398Y-41660000D01*
X111020000Y-41660000D01*
X111020000Y-42160000D01*
X111019398Y-42160000D01*
X111019398Y-42184534D01*
X111014588Y-42233365D01*
X111005016Y-42281490D01*
X110990772Y-42328445D01*
X110971995Y-42373778D01*
X110948864Y-42417051D01*
X110921604Y-42457850D01*
X110890476Y-42495779D01*
X110855779Y-42530476D01*
X110817850Y-42561604D01*
X110777051Y-42588864D01*
X110733778Y-42611995D01*
X110688445Y-42630772D01*
X110641490Y-42645016D01*
X110593365Y-42654588D01*
X110544534Y-42659398D01*
X110520000Y-42659398D01*
X110520000Y-42660000D01*
X109970000Y-42660000D01*
X109970000Y-41160000D01*
X110520000Y-41160000D01*
X110520000Y-41160602D01*
G37*
%TD.AperFunction*%
%TA.AperFunction,SMDPad,CuDef*%
%TO.P,JP1,1*%
%TO.N,/5v_CON1*%
G36*
X108470000Y-42660000D02*
G01*
X107920000Y-42660000D01*
X107920000Y-42659398D01*
X107895466Y-42659398D01*
X107846635Y-42654588D01*
X107798510Y-42645016D01*
X107751555Y-42630772D01*
X107706222Y-42611995D01*
X107662949Y-42588864D01*
X107622150Y-42561604D01*
X107584221Y-42530476D01*
X107549524Y-42495779D01*
X107518396Y-42457850D01*
X107491136Y-42417051D01*
X107468005Y-42373778D01*
X107449228Y-42328445D01*
X107434984Y-42281490D01*
X107425412Y-42233365D01*
X107420602Y-42184534D01*
X107420602Y-42160000D01*
X107420000Y-42160000D01*
X107420000Y-41660000D01*
X107420602Y-41660000D01*
X107420602Y-41635466D01*
X107425412Y-41586635D01*
X107434984Y-41538510D01*
X107449228Y-41491555D01*
X107468005Y-41446222D01*
X107491136Y-41402949D01*
X107518396Y-41362150D01*
X107549524Y-41324221D01*
X107584221Y-41289524D01*
X107622150Y-41258396D01*
X107662949Y-41231136D01*
X107706222Y-41208005D01*
X107751555Y-41189228D01*
X107798510Y-41174984D01*
X107846635Y-41165412D01*
X107895466Y-41160602D01*
X107920000Y-41160602D01*
X107920000Y-41160000D01*
X108470000Y-41160000D01*
X108470000Y-42660000D01*
G37*
%TD.AperFunction*%
%TD*%
D12*
%TO.P,J2,1*%
%TO.N,GND*%
X105410000Y-46990000D03*
D13*
%TO.P,J2,2*%
%TO.N,Net-(J2-Pad2)*%
X105410000Y-49530000D03*
%TO.P,J2,3*%
%TO.N,Net-(J2-Pad3)*%
X107950000Y-46990000D03*
%TO.P,J2,4*%
%TO.N,Net-(J2-Pad4)*%
X107950000Y-49530000D03*
%TO.P,J2,5*%
%TO.N,Net-(J2-Pad5)*%
X110490000Y-46990000D03*
%TO.P,J2,6*%
%TO.N,Net-(J2-Pad6)*%
X110490000Y-49530000D03*
%TO.P,J2,7*%
%TO.N,/5v_CON2*%
X113030000Y-46990000D03*
%TO.P,J2,8*%
%TO.N,GND*%
X113030000Y-49530000D03*
%TD*%
D12*
%TO.P,J1,1*%
%TO.N,GND*%
X95250000Y-44450000D03*
D13*
%TO.P,J1,2*%
%TO.N,/5v_CON1*%
X92710000Y-44450000D03*
%TO.P,J1,3*%
%TO.N,Net-(J1-Pad3)*%
X95250000Y-46990000D03*
%TO.P,J1,4*%
%TO.N,Net-(J1-Pad4)*%
X92710000Y-46990000D03*
%TO.P,J1,5*%
%TO.N,Net-(J1-Pad5)*%
X95250000Y-49530000D03*
%TO.P,J1,6*%
%TO.N,Net-(J1-Pad6)*%
X92710000Y-49530000D03*
%TO.P,J1,7*%
%TO.N,Net-(J1-Pad7)*%
X95250000Y-52070000D03*
%TO.P,J1,8*%
%TO.N,GND*%
X92710000Y-52070000D03*
%TD*%
%TO.P,J3,2*%
%TO.N,/5v_PWR*%
X88900000Y-49530000D03*
D12*
%TO.P,J3,1*%
%TO.N,GND*%
X88900000Y-46990000D03*
%TD*%
D14*
%TO.N,GND*%
X103124000Y-52070000D03*
X98806000Y-41910000D03*
X104394000Y-41910000D03*
%TD*%
D15*
%TO.N,/5v_CON1*%
X93980000Y-43180000D02*
X92710000Y-44450000D01*
X94010001Y-43149999D02*
X93980000Y-43180000D01*
X107330000Y-43149999D02*
X94010001Y-43149999D01*
X107920000Y-42559999D02*
X107330000Y-43149999D01*
X107920000Y-41910000D02*
X107920000Y-42559999D01*
%TO.N,/5v_CON2*%
X110520000Y-44480000D02*
X113030000Y-46990000D01*
X110520000Y-41910000D02*
X110520000Y-44480000D01*
%TO.N,/5v_PWR*%
X88900000Y-52070000D02*
X88900000Y-49530000D01*
X91440000Y-54610000D02*
X88900000Y-52070000D01*
X99060000Y-53340000D02*
X97790000Y-54610000D01*
X99060000Y-49530000D02*
X99060000Y-53340000D01*
X97790000Y-54610000D02*
X91440000Y-54610000D01*
X104140000Y-44450000D02*
X99060000Y-49530000D01*
X107316412Y-44450000D02*
X104140000Y-44450000D01*
X109220000Y-42546412D02*
X107316412Y-44450000D01*
X109220000Y-41910000D02*
X109220000Y-42546412D01*
%TD*%
D16*
%TO.N,GND*%
X114734535Y-41455192D02*
X114757715Y-41510335D01*
X114780124Y-41565800D01*
X114784451Y-41573937D01*
X114932972Y-41848621D01*
X114966417Y-41898205D01*
X114999177Y-41948268D01*
X115005001Y-41955409D01*
X115204047Y-42196013D01*
X115246482Y-42238154D01*
X115288346Y-42280903D01*
X115295446Y-42286777D01*
X115537435Y-42484138D01*
X115587259Y-42517241D01*
X115636615Y-42551036D01*
X115644721Y-42555419D01*
X115920435Y-42702019D01*
X115975704Y-42724799D01*
X116030724Y-42748381D01*
X116039527Y-42751105D01*
X116180001Y-42793516D01*
X116180000Y-53726495D01*
X116024808Y-53774535D01*
X115969653Y-53797720D01*
X115914200Y-53820124D01*
X115906068Y-53824449D01*
X115906063Y-53824451D01*
X115906059Y-53824454D01*
X115631379Y-53972972D01*
X115581795Y-54006417D01*
X115531732Y-54039177D01*
X115524591Y-54045001D01*
X115283987Y-54244046D01*
X115241863Y-54286465D01*
X115199097Y-54328345D01*
X115193223Y-54335446D01*
X114995862Y-54577435D01*
X114962759Y-54627259D01*
X114928964Y-54676615D01*
X114924581Y-54684721D01*
X114777981Y-54960434D01*
X114755189Y-55015731D01*
X114731619Y-55070725D01*
X114728895Y-55079528D01*
X114686484Y-55220000D01*
X103753609Y-55220000D01*
X103699723Y-55050130D01*
X103676157Y-54995147D01*
X103653362Y-54939841D01*
X103648979Y-54931735D01*
X103498544Y-54658095D01*
X103464755Y-54608748D01*
X103431645Y-54558913D01*
X103425771Y-54551812D01*
X103225049Y-54312603D01*
X103182319Y-54270759D01*
X103140161Y-54228305D01*
X103133020Y-54222481D01*
X102889660Y-54026814D01*
X102839600Y-53994055D01*
X102790014Y-53960609D01*
X102781877Y-53956283D01*
X102505146Y-53811612D01*
X102449711Y-53789215D01*
X102394539Y-53766022D01*
X102385717Y-53763359D01*
X102086156Y-53675193D01*
X102027440Y-53663993D01*
X101968798Y-53651955D01*
X101959627Y-53651056D01*
X101648647Y-53622755D01*
X101588830Y-53623173D01*
X101529012Y-53622755D01*
X101519841Y-53623655D01*
X101519839Y-53623655D01*
X101209285Y-53656296D01*
X101150709Y-53668320D01*
X101091930Y-53679532D01*
X101083108Y-53682196D01*
X100784808Y-53774535D01*
X100729653Y-53797720D01*
X100674200Y-53820124D01*
X100666068Y-53824449D01*
X100666063Y-53824451D01*
X100666059Y-53824454D01*
X100391379Y-53972972D01*
X100341795Y-54006417D01*
X100291732Y-54039177D01*
X100284591Y-54045001D01*
X100043987Y-54244046D01*
X100001863Y-54286465D01*
X99959097Y-54328345D01*
X99953223Y-54335446D01*
X99755862Y-54577435D01*
X99722759Y-54627259D01*
X99688964Y-54676615D01*
X99684581Y-54684721D01*
X99537981Y-54960434D01*
X99515189Y-55015731D01*
X99491619Y-55070725D01*
X99488895Y-55079528D01*
X99446484Y-55220000D01*
X98434260Y-55220000D01*
X98446534Y-55205044D01*
X99655049Y-53996530D01*
X99688817Y-53968817D01*
X99726373Y-53923056D01*
X99799410Y-53834060D01*
X99799411Y-53834059D01*
X99881589Y-53680313D01*
X99932195Y-53513490D01*
X99945000Y-53383477D01*
X99945000Y-53383467D01*
X99949281Y-53340001D01*
X99945000Y-53296535D01*
X99945000Y-49896578D01*
X103998906Y-45842672D01*
X103970498Y-45895820D01*
X103934188Y-46015518D01*
X103921928Y-46140000D01*
X103925000Y-46704250D01*
X104083750Y-46863000D01*
X105283000Y-46863000D01*
X105283000Y-45663750D01*
X105124250Y-45505000D01*
X104560000Y-45501928D01*
X104435518Y-45514188D01*
X104315820Y-45550498D01*
X104262673Y-45578906D01*
X104506579Y-45335000D01*
X107272943Y-45335000D01*
X107316412Y-45339281D01*
X107359881Y-45335000D01*
X107359889Y-45335000D01*
X107489902Y-45322195D01*
X107656725Y-45271589D01*
X107810471Y-45189411D01*
X107945229Y-45078817D01*
X107972946Y-45045044D01*
X109635001Y-43382990D01*
X109635001Y-44436521D01*
X109630719Y-44480000D01*
X109647805Y-44653490D01*
X109698412Y-44820313D01*
X109780590Y-44974059D01*
X109863468Y-45075046D01*
X109863471Y-45075049D01*
X109891184Y-45108817D01*
X109924951Y-45136529D01*
X110301770Y-45513348D01*
X110056842Y-45562068D01*
X109786589Y-45674010D01*
X109543368Y-45836525D01*
X109336525Y-46043368D01*
X109220000Y-46217760D01*
X109103475Y-46043368D01*
X108896632Y-45836525D01*
X108653411Y-45674010D01*
X108383158Y-45562068D01*
X108096260Y-45505000D01*
X107803740Y-45505000D01*
X107516842Y-45562068D01*
X107246589Y-45674010D01*
X107003368Y-45836525D01*
X106871513Y-45968380D01*
X106849502Y-45895820D01*
X106790537Y-45785506D01*
X106711185Y-45688815D01*
X106614494Y-45609463D01*
X106504180Y-45550498D01*
X106384482Y-45514188D01*
X106260000Y-45501928D01*
X105695750Y-45505000D01*
X105537000Y-45663750D01*
X105537000Y-46863000D01*
X105557000Y-46863000D01*
X105557000Y-47117000D01*
X105537000Y-47117000D01*
X105537000Y-47137000D01*
X105283000Y-47137000D01*
X105283000Y-47117000D01*
X104083750Y-47117000D01*
X103925000Y-47275750D01*
X103921928Y-47840000D01*
X103934188Y-47964482D01*
X103970498Y-48084180D01*
X104029463Y-48194494D01*
X104108815Y-48291185D01*
X104205506Y-48370537D01*
X104315820Y-48429502D01*
X104388380Y-48451513D01*
X104256525Y-48583368D01*
X104094010Y-48826589D01*
X103982068Y-49096842D01*
X103925000Y-49383740D01*
X103925000Y-49676260D01*
X103982068Y-49963158D01*
X104094010Y-50233411D01*
X104256525Y-50476632D01*
X104463368Y-50683475D01*
X104706589Y-50845990D01*
X104976842Y-50957932D01*
X105263740Y-51015000D01*
X105556260Y-51015000D01*
X105843158Y-50957932D01*
X106113411Y-50845990D01*
X106356632Y-50683475D01*
X106563475Y-50476632D01*
X106680000Y-50302240D01*
X106796525Y-50476632D01*
X107003368Y-50683475D01*
X107246589Y-50845990D01*
X107516842Y-50957932D01*
X107803740Y-51015000D01*
X108096260Y-51015000D01*
X108383158Y-50957932D01*
X108653411Y-50845990D01*
X108896632Y-50683475D01*
X109103475Y-50476632D01*
X109220000Y-50302240D01*
X109336525Y-50476632D01*
X109543368Y-50683475D01*
X109786589Y-50845990D01*
X110056842Y-50957932D01*
X110343740Y-51015000D01*
X110636260Y-51015000D01*
X110923158Y-50957932D01*
X111193411Y-50845990D01*
X111436632Y-50683475D01*
X111643475Y-50476632D01*
X111765195Y-50294466D01*
X111834822Y-50411355D01*
X112029731Y-50627588D01*
X112263080Y-50801641D01*
X112525901Y-50926825D01*
X112673110Y-50971476D01*
X112903000Y-50850155D01*
X112903000Y-49657000D01*
X113157000Y-49657000D01*
X113157000Y-50850155D01*
X113386890Y-50971476D01*
X113534099Y-50926825D01*
X113796920Y-50801641D01*
X114030269Y-50627588D01*
X114225178Y-50411355D01*
X114374157Y-50161252D01*
X114471481Y-49886891D01*
X114350814Y-49657000D01*
X113157000Y-49657000D01*
X112903000Y-49657000D01*
X112883000Y-49657000D01*
X112883000Y-49403000D01*
X112903000Y-49403000D01*
X112903000Y-49383000D01*
X113157000Y-49383000D01*
X113157000Y-49403000D01*
X114350814Y-49403000D01*
X114471481Y-49173109D01*
X114374157Y-48898748D01*
X114225178Y-48648645D01*
X114030269Y-48432412D01*
X113800594Y-48261100D01*
X113976632Y-48143475D01*
X114183475Y-47936632D01*
X114345990Y-47693411D01*
X114457932Y-47423158D01*
X114515000Y-47136260D01*
X114515000Y-46843740D01*
X114457932Y-46556842D01*
X114345990Y-46286589D01*
X114183475Y-46043368D01*
X113976632Y-45836525D01*
X113733411Y-45674010D01*
X113463158Y-45562068D01*
X113176260Y-45505000D01*
X112883740Y-45505000D01*
X112811040Y-45519461D01*
X111405000Y-44113422D01*
X111405000Y-42870734D01*
X111437042Y-42831691D01*
X111491498Y-42750192D01*
X111550464Y-42639875D01*
X111587973Y-42549319D01*
X111624282Y-42429623D01*
X111643404Y-42333490D01*
X111655664Y-42209009D01*
X111655664Y-42184450D01*
X111658072Y-42160000D01*
X111658072Y-41660000D01*
X111655664Y-41635550D01*
X111655664Y-41610991D01*
X111643404Y-41486510D01*
X111624282Y-41390377D01*
X111596867Y-41300000D01*
X114686495Y-41300000D01*
X114734535Y-41455192D01*
%TA.AperFunction,Conductor*%
D17*
G36*
X114734535Y-41455192D02*
G01*
X114757715Y-41510335D01*
X114780124Y-41565800D01*
X114784451Y-41573937D01*
X114932972Y-41848621D01*
X114966417Y-41898205D01*
X114999177Y-41948268D01*
X115005001Y-41955409D01*
X115204047Y-42196013D01*
X115246482Y-42238154D01*
X115288346Y-42280903D01*
X115295446Y-42286777D01*
X115537435Y-42484138D01*
X115587259Y-42517241D01*
X115636615Y-42551036D01*
X115644721Y-42555419D01*
X115920435Y-42702019D01*
X115975704Y-42724799D01*
X116030724Y-42748381D01*
X116039527Y-42751105D01*
X116180001Y-42793516D01*
X116180000Y-53726495D01*
X116024808Y-53774535D01*
X115969653Y-53797720D01*
X115914200Y-53820124D01*
X115906068Y-53824449D01*
X115906063Y-53824451D01*
X115906059Y-53824454D01*
X115631379Y-53972972D01*
X115581795Y-54006417D01*
X115531732Y-54039177D01*
X115524591Y-54045001D01*
X115283987Y-54244046D01*
X115241863Y-54286465D01*
X115199097Y-54328345D01*
X115193223Y-54335446D01*
X114995862Y-54577435D01*
X114962759Y-54627259D01*
X114928964Y-54676615D01*
X114924581Y-54684721D01*
X114777981Y-54960434D01*
X114755189Y-55015731D01*
X114731619Y-55070725D01*
X114728895Y-55079528D01*
X114686484Y-55220000D01*
X103753609Y-55220000D01*
X103699723Y-55050130D01*
X103676157Y-54995147D01*
X103653362Y-54939841D01*
X103648979Y-54931735D01*
X103498544Y-54658095D01*
X103464755Y-54608748D01*
X103431645Y-54558913D01*
X103425771Y-54551812D01*
X103225049Y-54312603D01*
X103182319Y-54270759D01*
X103140161Y-54228305D01*
X103133020Y-54222481D01*
X102889660Y-54026814D01*
X102839600Y-53994055D01*
X102790014Y-53960609D01*
X102781877Y-53956283D01*
X102505146Y-53811612D01*
X102449711Y-53789215D01*
X102394539Y-53766022D01*
X102385717Y-53763359D01*
X102086156Y-53675193D01*
X102027440Y-53663993D01*
X101968798Y-53651955D01*
X101959627Y-53651056D01*
X101648647Y-53622755D01*
X101588830Y-53623173D01*
X101529012Y-53622755D01*
X101519841Y-53623655D01*
X101519839Y-53623655D01*
X101209285Y-53656296D01*
X101150709Y-53668320D01*
X101091930Y-53679532D01*
X101083108Y-53682196D01*
X100784808Y-53774535D01*
X100729653Y-53797720D01*
X100674200Y-53820124D01*
X100666068Y-53824449D01*
X100666063Y-53824451D01*
X100666059Y-53824454D01*
X100391379Y-53972972D01*
X100341795Y-54006417D01*
X100291732Y-54039177D01*
X100284591Y-54045001D01*
X100043987Y-54244046D01*
X100001863Y-54286465D01*
X99959097Y-54328345D01*
X99953223Y-54335446D01*
X99755862Y-54577435D01*
X99722759Y-54627259D01*
X99688964Y-54676615D01*
X99684581Y-54684721D01*
X99537981Y-54960434D01*
X99515189Y-55015731D01*
X99491619Y-55070725D01*
X99488895Y-55079528D01*
X99446484Y-55220000D01*
X98434260Y-55220000D01*
X98446534Y-55205044D01*
X99655049Y-53996530D01*
X99688817Y-53968817D01*
X99726373Y-53923056D01*
X99799410Y-53834060D01*
X99799411Y-53834059D01*
X99881589Y-53680313D01*
X99932195Y-53513490D01*
X99945000Y-53383477D01*
X99945000Y-53383467D01*
X99949281Y-53340001D01*
X99945000Y-53296535D01*
X99945000Y-49896578D01*
X103998906Y-45842672D01*
X103970498Y-45895820D01*
X103934188Y-46015518D01*
X103921928Y-46140000D01*
X103925000Y-46704250D01*
X104083750Y-46863000D01*
X105283000Y-46863000D01*
X105283000Y-45663750D01*
X105124250Y-45505000D01*
X104560000Y-45501928D01*
X104435518Y-45514188D01*
X104315820Y-45550498D01*
X104262673Y-45578906D01*
X104506579Y-45335000D01*
X107272943Y-45335000D01*
X107316412Y-45339281D01*
X107359881Y-45335000D01*
X107359889Y-45335000D01*
X107489902Y-45322195D01*
X107656725Y-45271589D01*
X107810471Y-45189411D01*
X107945229Y-45078817D01*
X107972946Y-45045044D01*
X109635001Y-43382990D01*
X109635001Y-44436521D01*
X109630719Y-44480000D01*
X109647805Y-44653490D01*
X109698412Y-44820313D01*
X109780590Y-44974059D01*
X109863468Y-45075046D01*
X109863471Y-45075049D01*
X109891184Y-45108817D01*
X109924951Y-45136529D01*
X110301770Y-45513348D01*
X110056842Y-45562068D01*
X109786589Y-45674010D01*
X109543368Y-45836525D01*
X109336525Y-46043368D01*
X109220000Y-46217760D01*
X109103475Y-46043368D01*
X108896632Y-45836525D01*
X108653411Y-45674010D01*
X108383158Y-45562068D01*
X108096260Y-45505000D01*
X107803740Y-45505000D01*
X107516842Y-45562068D01*
X107246589Y-45674010D01*
X107003368Y-45836525D01*
X106871513Y-45968380D01*
X106849502Y-45895820D01*
X106790537Y-45785506D01*
X106711185Y-45688815D01*
X106614494Y-45609463D01*
X106504180Y-45550498D01*
X106384482Y-45514188D01*
X106260000Y-45501928D01*
X105695750Y-45505000D01*
X105537000Y-45663750D01*
X105537000Y-46863000D01*
X105557000Y-46863000D01*
X105557000Y-47117000D01*
X105537000Y-47117000D01*
X105537000Y-47137000D01*
X105283000Y-47137000D01*
X105283000Y-47117000D01*
X104083750Y-47117000D01*
X103925000Y-47275750D01*
X103921928Y-47840000D01*
X103934188Y-47964482D01*
X103970498Y-48084180D01*
X104029463Y-48194494D01*
X104108815Y-48291185D01*
X104205506Y-48370537D01*
X104315820Y-48429502D01*
X104388380Y-48451513D01*
X104256525Y-48583368D01*
X104094010Y-48826589D01*
X103982068Y-49096842D01*
X103925000Y-49383740D01*
X103925000Y-49676260D01*
X103982068Y-49963158D01*
X104094010Y-50233411D01*
X104256525Y-50476632D01*
X104463368Y-50683475D01*
X104706589Y-50845990D01*
X104976842Y-50957932D01*
X105263740Y-51015000D01*
X105556260Y-51015000D01*
X105843158Y-50957932D01*
X106113411Y-50845990D01*
X106356632Y-50683475D01*
X106563475Y-50476632D01*
X106680000Y-50302240D01*
X106796525Y-50476632D01*
X107003368Y-50683475D01*
X107246589Y-50845990D01*
X107516842Y-50957932D01*
X107803740Y-51015000D01*
X108096260Y-51015000D01*
X108383158Y-50957932D01*
X108653411Y-50845990D01*
X108896632Y-50683475D01*
X109103475Y-50476632D01*
X109220000Y-50302240D01*
X109336525Y-50476632D01*
X109543368Y-50683475D01*
X109786589Y-50845990D01*
X110056842Y-50957932D01*
X110343740Y-51015000D01*
X110636260Y-51015000D01*
X110923158Y-50957932D01*
X111193411Y-50845990D01*
X111436632Y-50683475D01*
X111643475Y-50476632D01*
X111765195Y-50294466D01*
X111834822Y-50411355D01*
X112029731Y-50627588D01*
X112263080Y-50801641D01*
X112525901Y-50926825D01*
X112673110Y-50971476D01*
X112903000Y-50850155D01*
X112903000Y-49657000D01*
X113157000Y-49657000D01*
X113157000Y-50850155D01*
X113386890Y-50971476D01*
X113534099Y-50926825D01*
X113796920Y-50801641D01*
X114030269Y-50627588D01*
X114225178Y-50411355D01*
X114374157Y-50161252D01*
X114471481Y-49886891D01*
X114350814Y-49657000D01*
X113157000Y-49657000D01*
X112903000Y-49657000D01*
X112883000Y-49657000D01*
X112883000Y-49403000D01*
X112903000Y-49403000D01*
X112903000Y-49383000D01*
X113157000Y-49383000D01*
X113157000Y-49403000D01*
X114350814Y-49403000D01*
X114471481Y-49173109D01*
X114374157Y-48898748D01*
X114225178Y-48648645D01*
X114030269Y-48432412D01*
X113800594Y-48261100D01*
X113976632Y-48143475D01*
X114183475Y-47936632D01*
X114345990Y-47693411D01*
X114457932Y-47423158D01*
X114515000Y-47136260D01*
X114515000Y-46843740D01*
X114457932Y-46556842D01*
X114345990Y-46286589D01*
X114183475Y-46043368D01*
X113976632Y-45836525D01*
X113733411Y-45674010D01*
X113463158Y-45562068D01*
X113176260Y-45505000D01*
X112883740Y-45505000D01*
X112811040Y-45519461D01*
X111405000Y-44113422D01*
X111405000Y-42870734D01*
X111437042Y-42831691D01*
X111491498Y-42750192D01*
X111550464Y-42639875D01*
X111587973Y-42549319D01*
X111624282Y-42429623D01*
X111643404Y-42333490D01*
X111655664Y-42209009D01*
X111655664Y-42184450D01*
X111658072Y-42160000D01*
X111658072Y-41660000D01*
X111655664Y-41635550D01*
X111655664Y-41610991D01*
X111643404Y-41486510D01*
X111624282Y-41390377D01*
X111596867Y-41300000D01*
X114686495Y-41300000D01*
X114734535Y-41455192D01*
G37*
%TD.AperFunction*%
D16*
X99500277Y-41469870D02*
X99523817Y-41524792D01*
X99546637Y-41580159D01*
X99551021Y-41588265D01*
X99701456Y-41861904D01*
X99735221Y-41911217D01*
X99768355Y-41961088D01*
X99774230Y-41968188D01*
X99974951Y-42207397D01*
X100017680Y-42249241D01*
X100033329Y-42264999D01*
X94053470Y-42264999D01*
X94010001Y-42260718D01*
X93966532Y-42264999D01*
X93966524Y-42264999D01*
X93836511Y-42277804D01*
X93669688Y-42328410D01*
X93515942Y-42410588D01*
X93381184Y-42521182D01*
X93353471Y-42554950D01*
X92928960Y-42979461D01*
X92856260Y-42965000D01*
X92563740Y-42965000D01*
X92276842Y-43022068D01*
X92006589Y-43134010D01*
X91763368Y-43296525D01*
X91556525Y-43503368D01*
X91394010Y-43746589D01*
X91282068Y-44016842D01*
X91225000Y-44303740D01*
X91225000Y-44596260D01*
X91282068Y-44883158D01*
X91394010Y-45153411D01*
X91556525Y-45396632D01*
X91763368Y-45603475D01*
X91937760Y-45720000D01*
X91763368Y-45836525D01*
X91556525Y-46043368D01*
X91394010Y-46286589D01*
X91282068Y-46556842D01*
X91225000Y-46843740D01*
X91225000Y-47136260D01*
X91282068Y-47423158D01*
X91394010Y-47693411D01*
X91556525Y-47936632D01*
X91763368Y-48143475D01*
X91937760Y-48260000D01*
X91763368Y-48376525D01*
X91556525Y-48583368D01*
X91394010Y-48826589D01*
X91282068Y-49096842D01*
X91225000Y-49383740D01*
X91225000Y-49676260D01*
X91282068Y-49963158D01*
X91394010Y-50233411D01*
X91556525Y-50476632D01*
X91763368Y-50683475D01*
X91945534Y-50805195D01*
X91828645Y-50874822D01*
X91612412Y-51069731D01*
X91438359Y-51303080D01*
X91313175Y-51565901D01*
X91268524Y-51713110D01*
X91389845Y-51943000D01*
X92583000Y-51943000D01*
X92583000Y-51923000D01*
X92837000Y-51923000D01*
X92837000Y-51943000D01*
X92857000Y-51943000D01*
X92857000Y-52197000D01*
X92837000Y-52197000D01*
X92837000Y-53390814D01*
X93066891Y-53511481D01*
X93341252Y-53414157D01*
X93591355Y-53265178D01*
X93807588Y-53070269D01*
X93978900Y-52840594D01*
X94096525Y-53016632D01*
X94303368Y-53223475D01*
X94546589Y-53385990D01*
X94816842Y-53497932D01*
X95103740Y-53555000D01*
X95396260Y-53555000D01*
X95683158Y-53497932D01*
X95953411Y-53385990D01*
X96196632Y-53223475D01*
X96403475Y-53016632D01*
X96565990Y-52773411D01*
X96677932Y-52503158D01*
X96735000Y-52216260D01*
X96735000Y-51923740D01*
X96677932Y-51636842D01*
X96565990Y-51366589D01*
X96403475Y-51123368D01*
X96196632Y-50916525D01*
X96022240Y-50800000D01*
X96196632Y-50683475D01*
X96403475Y-50476632D01*
X96565990Y-50233411D01*
X96677932Y-49963158D01*
X96735000Y-49676260D01*
X96735000Y-49383740D01*
X96677932Y-49096842D01*
X96565990Y-48826589D01*
X96403475Y-48583368D01*
X96196632Y-48376525D01*
X96022240Y-48260000D01*
X96196632Y-48143475D01*
X96403475Y-47936632D01*
X96565990Y-47693411D01*
X96677932Y-47423158D01*
X96735000Y-47136260D01*
X96735000Y-46843740D01*
X96677932Y-46556842D01*
X96565990Y-46286589D01*
X96403475Y-46043368D01*
X96271620Y-45911513D01*
X96344180Y-45889502D01*
X96454494Y-45830537D01*
X96551185Y-45751185D01*
X96630537Y-45654494D01*
X96689502Y-45544180D01*
X96725812Y-45424482D01*
X96738072Y-45300000D01*
X96735000Y-44735750D01*
X96576250Y-44577000D01*
X95377000Y-44577000D01*
X95377000Y-44597000D01*
X95123000Y-44597000D01*
X95123000Y-44577000D01*
X95103000Y-44577000D01*
X95103000Y-44323000D01*
X95123000Y-44323000D01*
X95123000Y-44303000D01*
X95377000Y-44303000D01*
X95377000Y-44323000D01*
X96576250Y-44323000D01*
X96735000Y-44164250D01*
X96735704Y-44034999D01*
X103303422Y-44034999D01*
X98464956Y-48873466D01*
X98431183Y-48901183D01*
X98320589Y-49035942D01*
X98238411Y-49189688D01*
X98187805Y-49356511D01*
X98175000Y-49486524D01*
X98175000Y-49486531D01*
X98170719Y-49530000D01*
X98175000Y-49573469D01*
X98175001Y-52973420D01*
X97423422Y-53725000D01*
X91806579Y-53725000D01*
X90508469Y-52426890D01*
X91268524Y-52426890D01*
X91313175Y-52574099D01*
X91438359Y-52836920D01*
X91612412Y-53070269D01*
X91828645Y-53265178D01*
X92078748Y-53414157D01*
X92353109Y-53511481D01*
X92583000Y-53390814D01*
X92583000Y-52197000D01*
X91389845Y-52197000D01*
X91268524Y-52426890D01*
X90508469Y-52426890D01*
X89785000Y-51703422D01*
X89785000Y-50724656D01*
X89846632Y-50683475D01*
X90053475Y-50476632D01*
X90215990Y-50233411D01*
X90327932Y-49963158D01*
X90385000Y-49676260D01*
X90385000Y-49383740D01*
X90327932Y-49096842D01*
X90215990Y-48826589D01*
X90053475Y-48583368D01*
X89921620Y-48451513D01*
X89994180Y-48429502D01*
X90104494Y-48370537D01*
X90201185Y-48291185D01*
X90280537Y-48194494D01*
X90339502Y-48084180D01*
X90375812Y-47964482D01*
X90388072Y-47840000D01*
X90385000Y-47275750D01*
X90226250Y-47117000D01*
X89027000Y-47117000D01*
X89027000Y-47137000D01*
X88773000Y-47137000D01*
X88773000Y-47117000D01*
X87573750Y-47117000D01*
X87415000Y-47275750D01*
X87411928Y-47840000D01*
X87424188Y-47964482D01*
X87460498Y-48084180D01*
X87519463Y-48194494D01*
X87598815Y-48291185D01*
X87695506Y-48370537D01*
X87805820Y-48429502D01*
X87878380Y-48451513D01*
X87746525Y-48583368D01*
X87584010Y-48826589D01*
X87472068Y-49096842D01*
X87415000Y-49383740D01*
X87415000Y-49676260D01*
X87472068Y-49963158D01*
X87584010Y-50233411D01*
X87746525Y-50476632D01*
X87953368Y-50683475D01*
X88015001Y-50724657D01*
X88015000Y-52026531D01*
X88010719Y-52070000D01*
X88015000Y-52113469D01*
X88015000Y-52113476D01*
X88027805Y-52243489D01*
X88078411Y-52410312D01*
X88160589Y-52564058D01*
X88271183Y-52698817D01*
X88304956Y-52726534D01*
X90783470Y-55205049D01*
X90795740Y-55220000D01*
X88513505Y-55220000D01*
X88465465Y-55064808D01*
X88442280Y-55009653D01*
X88419876Y-54954200D01*
X88415549Y-54946064D01*
X88415549Y-54946063D01*
X88415546Y-54946059D01*
X88267028Y-54671379D01*
X88233583Y-54621795D01*
X88200823Y-54571732D01*
X88194999Y-54564591D01*
X87995954Y-54323987D01*
X87953535Y-54281863D01*
X87911655Y-54239097D01*
X87904554Y-54233223D01*
X87662565Y-54035862D01*
X87612741Y-54002759D01*
X87563385Y-53968964D01*
X87555279Y-53964581D01*
X87279566Y-53817981D01*
X87224269Y-53795189D01*
X87169275Y-53771619D01*
X87160472Y-53768895D01*
X87020000Y-53726484D01*
X87020000Y-46140000D01*
X87411928Y-46140000D01*
X87415000Y-46704250D01*
X87573750Y-46863000D01*
X88773000Y-46863000D01*
X88773000Y-45663750D01*
X89027000Y-45663750D01*
X89027000Y-46863000D01*
X90226250Y-46863000D01*
X90385000Y-46704250D01*
X90388072Y-46140000D01*
X90375812Y-46015518D01*
X90339502Y-45895820D01*
X90280537Y-45785506D01*
X90201185Y-45688815D01*
X90104494Y-45609463D01*
X89994180Y-45550498D01*
X89874482Y-45514188D01*
X89750000Y-45501928D01*
X89185750Y-45505000D01*
X89027000Y-45663750D01*
X88773000Y-45663750D01*
X88614250Y-45505000D01*
X88050000Y-45501928D01*
X87925518Y-45514188D01*
X87805820Y-45550498D01*
X87695506Y-45609463D01*
X87598815Y-45688815D01*
X87519463Y-45785506D01*
X87460498Y-45895820D01*
X87424188Y-46015518D01*
X87411928Y-46140000D01*
X87020000Y-46140000D01*
X87020000Y-42793505D01*
X87175192Y-42745465D01*
X87230335Y-42722285D01*
X87285800Y-42699876D01*
X87293937Y-42695549D01*
X87568621Y-42547028D01*
X87618205Y-42513583D01*
X87668268Y-42480823D01*
X87675409Y-42474999D01*
X87916013Y-42275953D01*
X87958154Y-42233518D01*
X88000903Y-42191654D01*
X88006777Y-42184554D01*
X88204138Y-41942565D01*
X88237241Y-41892741D01*
X88271036Y-41843385D01*
X88275419Y-41835279D01*
X88422019Y-41559565D01*
X88444799Y-41504296D01*
X88468381Y-41449276D01*
X88471105Y-41440473D01*
X88513516Y-41300000D01*
X99446391Y-41300000D01*
X99500277Y-41469870D01*
%TA.AperFunction,Conductor*%
D17*
G36*
X99500277Y-41469870D02*
G01*
X99523817Y-41524792D01*
X99546637Y-41580159D01*
X99551021Y-41588265D01*
X99701456Y-41861904D01*
X99735221Y-41911217D01*
X99768355Y-41961088D01*
X99774230Y-41968188D01*
X99974951Y-42207397D01*
X100017680Y-42249241D01*
X100033329Y-42264999D01*
X94053470Y-42264999D01*
X94010001Y-42260718D01*
X93966532Y-42264999D01*
X93966524Y-42264999D01*
X93836511Y-42277804D01*
X93669688Y-42328410D01*
X93515942Y-42410588D01*
X93381184Y-42521182D01*
X93353471Y-42554950D01*
X92928960Y-42979461D01*
X92856260Y-42965000D01*
X92563740Y-42965000D01*
X92276842Y-43022068D01*
X92006589Y-43134010D01*
X91763368Y-43296525D01*
X91556525Y-43503368D01*
X91394010Y-43746589D01*
X91282068Y-44016842D01*
X91225000Y-44303740D01*
X91225000Y-44596260D01*
X91282068Y-44883158D01*
X91394010Y-45153411D01*
X91556525Y-45396632D01*
X91763368Y-45603475D01*
X91937760Y-45720000D01*
X91763368Y-45836525D01*
X91556525Y-46043368D01*
X91394010Y-46286589D01*
X91282068Y-46556842D01*
X91225000Y-46843740D01*
X91225000Y-47136260D01*
X91282068Y-47423158D01*
X91394010Y-47693411D01*
X91556525Y-47936632D01*
X91763368Y-48143475D01*
X91937760Y-48260000D01*
X91763368Y-48376525D01*
X91556525Y-48583368D01*
X91394010Y-48826589D01*
X91282068Y-49096842D01*
X91225000Y-49383740D01*
X91225000Y-49676260D01*
X91282068Y-49963158D01*
X91394010Y-50233411D01*
X91556525Y-50476632D01*
X91763368Y-50683475D01*
X91945534Y-50805195D01*
X91828645Y-50874822D01*
X91612412Y-51069731D01*
X91438359Y-51303080D01*
X91313175Y-51565901D01*
X91268524Y-51713110D01*
X91389845Y-51943000D01*
X92583000Y-51943000D01*
X92583000Y-51923000D01*
X92837000Y-51923000D01*
X92837000Y-51943000D01*
X92857000Y-51943000D01*
X92857000Y-52197000D01*
X92837000Y-52197000D01*
X92837000Y-53390814D01*
X93066891Y-53511481D01*
X93341252Y-53414157D01*
X93591355Y-53265178D01*
X93807588Y-53070269D01*
X93978900Y-52840594D01*
X94096525Y-53016632D01*
X94303368Y-53223475D01*
X94546589Y-53385990D01*
X94816842Y-53497932D01*
X95103740Y-53555000D01*
X95396260Y-53555000D01*
X95683158Y-53497932D01*
X95953411Y-53385990D01*
X96196632Y-53223475D01*
X96403475Y-53016632D01*
X96565990Y-52773411D01*
X96677932Y-52503158D01*
X96735000Y-52216260D01*
X96735000Y-51923740D01*
X96677932Y-51636842D01*
X96565990Y-51366589D01*
X96403475Y-51123368D01*
X96196632Y-50916525D01*
X96022240Y-50800000D01*
X96196632Y-50683475D01*
X96403475Y-50476632D01*
X96565990Y-50233411D01*
X96677932Y-49963158D01*
X96735000Y-49676260D01*
X96735000Y-49383740D01*
X96677932Y-49096842D01*
X96565990Y-48826589D01*
X96403475Y-48583368D01*
X96196632Y-48376525D01*
X96022240Y-48260000D01*
X96196632Y-48143475D01*
X96403475Y-47936632D01*
X96565990Y-47693411D01*
X96677932Y-47423158D01*
X96735000Y-47136260D01*
X96735000Y-46843740D01*
X96677932Y-46556842D01*
X96565990Y-46286589D01*
X96403475Y-46043368D01*
X96271620Y-45911513D01*
X96344180Y-45889502D01*
X96454494Y-45830537D01*
X96551185Y-45751185D01*
X96630537Y-45654494D01*
X96689502Y-45544180D01*
X96725812Y-45424482D01*
X96738072Y-45300000D01*
X96735000Y-44735750D01*
X96576250Y-44577000D01*
X95377000Y-44577000D01*
X95377000Y-44597000D01*
X95123000Y-44597000D01*
X95123000Y-44577000D01*
X95103000Y-44577000D01*
X95103000Y-44323000D01*
X95123000Y-44323000D01*
X95123000Y-44303000D01*
X95377000Y-44303000D01*
X95377000Y-44323000D01*
X96576250Y-44323000D01*
X96735000Y-44164250D01*
X96735704Y-44034999D01*
X103303422Y-44034999D01*
X98464956Y-48873466D01*
X98431183Y-48901183D01*
X98320589Y-49035942D01*
X98238411Y-49189688D01*
X98187805Y-49356511D01*
X98175000Y-49486524D01*
X98175000Y-49486531D01*
X98170719Y-49530000D01*
X98175000Y-49573469D01*
X98175001Y-52973420D01*
X97423422Y-53725000D01*
X91806579Y-53725000D01*
X90508469Y-52426890D01*
X91268524Y-52426890D01*
X91313175Y-52574099D01*
X91438359Y-52836920D01*
X91612412Y-53070269D01*
X91828645Y-53265178D01*
X92078748Y-53414157D01*
X92353109Y-53511481D01*
X92583000Y-53390814D01*
X92583000Y-52197000D01*
X91389845Y-52197000D01*
X91268524Y-52426890D01*
X90508469Y-52426890D01*
X89785000Y-51703422D01*
X89785000Y-50724656D01*
X89846632Y-50683475D01*
X90053475Y-50476632D01*
X90215990Y-50233411D01*
X90327932Y-49963158D01*
X90385000Y-49676260D01*
X90385000Y-49383740D01*
X90327932Y-49096842D01*
X90215990Y-48826589D01*
X90053475Y-48583368D01*
X89921620Y-48451513D01*
X89994180Y-48429502D01*
X90104494Y-48370537D01*
X90201185Y-48291185D01*
X90280537Y-48194494D01*
X90339502Y-48084180D01*
X90375812Y-47964482D01*
X90388072Y-47840000D01*
X90385000Y-47275750D01*
X90226250Y-47117000D01*
X89027000Y-47117000D01*
X89027000Y-47137000D01*
X88773000Y-47137000D01*
X88773000Y-47117000D01*
X87573750Y-47117000D01*
X87415000Y-47275750D01*
X87411928Y-47840000D01*
X87424188Y-47964482D01*
X87460498Y-48084180D01*
X87519463Y-48194494D01*
X87598815Y-48291185D01*
X87695506Y-48370537D01*
X87805820Y-48429502D01*
X87878380Y-48451513D01*
X87746525Y-48583368D01*
X87584010Y-48826589D01*
X87472068Y-49096842D01*
X87415000Y-49383740D01*
X87415000Y-49676260D01*
X87472068Y-49963158D01*
X87584010Y-50233411D01*
X87746525Y-50476632D01*
X87953368Y-50683475D01*
X88015001Y-50724657D01*
X88015000Y-52026531D01*
X88010719Y-52070000D01*
X88015000Y-52113469D01*
X88015000Y-52113476D01*
X88027805Y-52243489D01*
X88078411Y-52410312D01*
X88160589Y-52564058D01*
X88271183Y-52698817D01*
X88304956Y-52726534D01*
X90783470Y-55205049D01*
X90795740Y-55220000D01*
X88513505Y-55220000D01*
X88465465Y-55064808D01*
X88442280Y-55009653D01*
X88419876Y-54954200D01*
X88415549Y-54946064D01*
X88415549Y-54946063D01*
X88415546Y-54946059D01*
X88267028Y-54671379D01*
X88233583Y-54621795D01*
X88200823Y-54571732D01*
X88194999Y-54564591D01*
X87995954Y-54323987D01*
X87953535Y-54281863D01*
X87911655Y-54239097D01*
X87904554Y-54233223D01*
X87662565Y-54035862D01*
X87612741Y-54002759D01*
X87563385Y-53968964D01*
X87555279Y-53964581D01*
X87279566Y-53817981D01*
X87224269Y-53795189D01*
X87169275Y-53771619D01*
X87160472Y-53768895D01*
X87020000Y-53726484D01*
X87020000Y-46140000D01*
X87411928Y-46140000D01*
X87415000Y-46704250D01*
X87573750Y-46863000D01*
X88773000Y-46863000D01*
X88773000Y-45663750D01*
X89027000Y-45663750D01*
X89027000Y-46863000D01*
X90226250Y-46863000D01*
X90385000Y-46704250D01*
X90388072Y-46140000D01*
X90375812Y-46015518D01*
X90339502Y-45895820D01*
X90280537Y-45785506D01*
X90201185Y-45688815D01*
X90104494Y-45609463D01*
X89994180Y-45550498D01*
X89874482Y-45514188D01*
X89750000Y-45501928D01*
X89185750Y-45505000D01*
X89027000Y-45663750D01*
X88773000Y-45663750D01*
X88614250Y-45505000D01*
X88050000Y-45501928D01*
X87925518Y-45514188D01*
X87805820Y-45550498D01*
X87695506Y-45609463D01*
X87598815Y-45688815D01*
X87519463Y-45785506D01*
X87460498Y-45895820D01*
X87424188Y-46015518D01*
X87411928Y-46140000D01*
X87020000Y-46140000D01*
X87020000Y-42793505D01*
X87175192Y-42745465D01*
X87230335Y-42722285D01*
X87285800Y-42699876D01*
X87293937Y-42695549D01*
X87568621Y-42547028D01*
X87618205Y-42513583D01*
X87668268Y-42480823D01*
X87675409Y-42474999D01*
X87916013Y-42275953D01*
X87958154Y-42233518D01*
X88000903Y-42191654D01*
X88006777Y-42184554D01*
X88204138Y-41942565D01*
X88237241Y-41892741D01*
X88271036Y-41843385D01*
X88275419Y-41835279D01*
X88422019Y-41559565D01*
X88444799Y-41504296D01*
X88468381Y-41449276D01*
X88471105Y-41440473D01*
X88513516Y-41300000D01*
X99446391Y-41300000D01*
X99500277Y-41469870D01*
G37*
%TD.AperFunction*%
D16*
X106815718Y-41390377D02*
X106796596Y-41486510D01*
X106784336Y-41610991D01*
X106784336Y-41635550D01*
X106781928Y-41660000D01*
X106781928Y-42160000D01*
X106784336Y-42184450D01*
X106784336Y-42209009D01*
X106789850Y-42264999D01*
X103166891Y-42264999D01*
X103198154Y-42233518D01*
X103240903Y-42191654D01*
X103246777Y-42184554D01*
X103444138Y-41942565D01*
X103477241Y-41892741D01*
X103511036Y-41843385D01*
X103515419Y-41835279D01*
X103662019Y-41559565D01*
X103684799Y-41504296D01*
X103708381Y-41449276D01*
X103711105Y-41440473D01*
X103753516Y-41300000D01*
X106843133Y-41300000D01*
X106815718Y-41390377D01*
%TA.AperFunction,Conductor*%
D17*
G36*
X106815718Y-41390377D02*
G01*
X106796596Y-41486510D01*
X106784336Y-41610991D01*
X106784336Y-41635550D01*
X106781928Y-41660000D01*
X106781928Y-42160000D01*
X106784336Y-42184450D01*
X106784336Y-42209009D01*
X106789850Y-42264999D01*
X103166891Y-42264999D01*
X103198154Y-42233518D01*
X103240903Y-42191654D01*
X103246777Y-42184554D01*
X103444138Y-41942565D01*
X103477241Y-41892741D01*
X103511036Y-41843385D01*
X103515419Y-41835279D01*
X103662019Y-41559565D01*
X103684799Y-41504296D01*
X103708381Y-41449276D01*
X103711105Y-41440473D01*
X103753516Y-41300000D01*
X106843133Y-41300000D01*
X106815718Y-41390377D01*
G37*
%TD.AperFunction*%
%TD*%
D18*
X103124000Y-52070000D03*
X98806000Y-41910000D03*
X104394000Y-41910000D03*
D19*
X105410000Y-46990000D03*
X105410000Y-49530000D03*
X107950000Y-46990000D03*
X107950000Y-49530000D03*
X110490000Y-46990000D03*
X110490000Y-49530000D03*
X113030000Y-46990000D03*
X113030000Y-49530000D03*
X95250000Y-44450000D03*
X92710000Y-44450000D03*
X95250000Y-46990000D03*
X92710000Y-46990000D03*
X95250000Y-49530000D03*
X92710000Y-49530000D03*
X95250000Y-52070000D03*
X92710000Y-52070000D03*
X88900000Y-49530000D03*
X88900000Y-46990000D03*
M02*
