%TF.GenerationSoftware,KiCad,Pcbnew,(5.1.10)-1*%
%TF.CreationDate,2021-09-12T15:17:43+08:00*%
%TF.ProjectId,fc,66632e6b-6963-4616-945f-706362585858,rev?*%
%TF.SameCoordinates,Original*%
%TF.FileFunction,Legend,Top*%
%TF.FilePolarity,Positive*%
%FSLAX46Y46*%
G04 Gerber Fmt 4.6, Leading zero omitted, Abs format (unit mm)*
G04 Created by KiCad (PCBNEW (5.1.10)-1) date 2021-09-12 15:17:43*
%MOMM*%
%LPD*%
G01*
G04 APERTURE LIST*
%ADD10C,0.125000*%
%ADD11C,0.120000*%
%ADD12C,0.200000*%
%ADD13C,0.500000*%
%ADD14C,0.150000*%
G04 APERTURE END LIST*
D10*
X97490000Y-52527142D02*
X97461428Y-52584285D01*
X97461428Y-52670000D01*
X97490000Y-52755714D01*
X97547142Y-52812857D01*
X97604285Y-52841428D01*
X97718571Y-52870000D01*
X97804285Y-52870000D01*
X97918571Y-52841428D01*
X97975714Y-52812857D01*
X98032857Y-52755714D01*
X98061428Y-52670000D01*
X98061428Y-52612857D01*
X98032857Y-52527142D01*
X98004285Y-52498571D01*
X97804285Y-52498571D01*
X97804285Y-52612857D01*
X98061428Y-52241428D02*
X97461428Y-52241428D01*
X98061428Y-51898571D01*
X97461428Y-51898571D01*
X98061428Y-51612857D02*
X97461428Y-51612857D01*
X97461428Y-51470000D01*
X97490000Y-51384285D01*
X97547142Y-51327142D01*
X97604285Y-51298571D01*
X97718571Y-51270000D01*
X97804285Y-51270000D01*
X97918571Y-51298571D01*
X97975714Y-51327142D01*
X98032857Y-51384285D01*
X98061428Y-51470000D01*
X98061428Y-51612857D01*
X97832857Y-49758571D02*
X97832857Y-49301428D01*
X97461428Y-44564285D02*
X97461428Y-44850000D01*
X97747142Y-44878571D01*
X97718571Y-44850000D01*
X97690000Y-44792857D01*
X97690000Y-44650000D01*
X97718571Y-44592857D01*
X97747142Y-44564285D01*
X97804285Y-44535714D01*
X97947142Y-44535714D01*
X98004285Y-44564285D01*
X98032857Y-44592857D01*
X98061428Y-44650000D01*
X98061428Y-44792857D01*
X98032857Y-44850000D01*
X98004285Y-44878571D01*
X97461428Y-44364285D02*
X98061428Y-44164285D01*
X97461428Y-43964285D01*
X99102857Y-49758571D02*
X99102857Y-49301428D01*
X99102857Y-52298571D02*
X99102857Y-51841428D01*
X99102857Y-47218571D02*
X99102857Y-46761428D01*
X97832857Y-47218571D02*
X97832857Y-46761428D01*
X98760000Y-44907142D02*
X98731428Y-44964285D01*
X98731428Y-45050000D01*
X98760000Y-45135714D01*
X98817142Y-45192857D01*
X98874285Y-45221428D01*
X98988571Y-45250000D01*
X99074285Y-45250000D01*
X99188571Y-45221428D01*
X99245714Y-45192857D01*
X99302857Y-45135714D01*
X99331428Y-45050000D01*
X99331428Y-44992857D01*
X99302857Y-44907142D01*
X99274285Y-44878571D01*
X99074285Y-44878571D01*
X99074285Y-44992857D01*
X99331428Y-44621428D02*
X98731428Y-44621428D01*
X99331428Y-44278571D01*
X98731428Y-44278571D01*
X99331428Y-43992857D02*
X98731428Y-43992857D01*
X98731428Y-43850000D01*
X98760000Y-43764285D01*
X98817142Y-43707142D01*
X98874285Y-43678571D01*
X98988571Y-43650000D01*
X99074285Y-43650000D01*
X99188571Y-43678571D01*
X99245714Y-43707142D01*
X99302857Y-43764285D01*
X99331428Y-43850000D01*
X99331428Y-43992857D01*
D11*
X99695000Y-53340000D02*
X97155000Y-53340000D01*
X97155000Y-53340000D02*
X97155000Y-43180000D01*
X99695000Y-48260000D02*
X97155000Y-48260000D01*
X99695000Y-50800000D02*
X97155000Y-50800000D01*
X99695000Y-45720000D02*
X97155000Y-45720000D01*
X97155000Y-43180000D02*
X99695000Y-43180000D01*
X99695000Y-43180000D02*
X99695000Y-53340000D01*
X98425000Y-43180000D02*
X98425000Y-53340000D01*
D12*
X106783095Y-41457619D02*
X106783095Y-42457619D01*
X106402142Y-42457619D01*
X106306904Y-42410000D01*
X106259285Y-42362380D01*
X106211666Y-42267142D01*
X106211666Y-42124285D01*
X106259285Y-42029047D01*
X106306904Y-41981428D01*
X106402142Y-41933809D01*
X106783095Y-41933809D01*
X105259285Y-41457619D02*
X105830714Y-41457619D01*
X105545000Y-41457619D02*
X105545000Y-42457619D01*
X105640238Y-42314761D01*
X105735476Y-42219523D01*
X105830714Y-42171904D01*
X113133095Y-41457619D02*
X113133095Y-42457619D01*
X112752142Y-42457619D01*
X112656904Y-42410000D01*
X112609285Y-42362380D01*
X112561666Y-42267142D01*
X112561666Y-42124285D01*
X112609285Y-42029047D01*
X112656904Y-41981428D01*
X112752142Y-41933809D01*
X113133095Y-41933809D01*
X112180714Y-42362380D02*
X112133095Y-42410000D01*
X112037857Y-42457619D01*
X111799761Y-42457619D01*
X111704523Y-42410000D01*
X111656904Y-42362380D01*
X111609285Y-42267142D01*
X111609285Y-42171904D01*
X111656904Y-42029047D01*
X112228333Y-41457619D01*
X111609285Y-41457619D01*
D13*
X115570000Y-46990000D02*
G75*
G03*
X115570000Y-46990000I-254000J0D01*
G01*
X92964000Y-42164000D02*
G75*
G03*
X92964000Y-42164000I-254000J0D01*
G01*
D11*
X111760000Y-54610000D02*
X111760000Y-52070000D01*
X109220000Y-54610000D02*
X109220000Y-52070000D01*
X106680000Y-54610000D02*
X106680000Y-52070000D01*
X114300000Y-53340000D02*
X104140000Y-53340000D01*
X104140000Y-54610000D02*
X104140000Y-52070000D01*
X114300000Y-54610000D02*
X104140000Y-54610000D01*
X114300000Y-52070000D02*
X114300000Y-54610000D01*
X104140000Y-52070000D02*
X114300000Y-52070000D01*
D10*
X107721428Y-54017857D02*
X108178571Y-54017857D01*
X110261428Y-54017857D02*
X110718571Y-54017857D01*
X105181428Y-54017857D02*
X105638571Y-54017857D01*
X112572857Y-53675000D02*
X112515714Y-53646428D01*
X112430000Y-53646428D01*
X112344285Y-53675000D01*
X112287142Y-53732142D01*
X112258571Y-53789285D01*
X112230000Y-53903571D01*
X112230000Y-53989285D01*
X112258571Y-54103571D01*
X112287142Y-54160714D01*
X112344285Y-54217857D01*
X112430000Y-54246428D01*
X112487142Y-54246428D01*
X112572857Y-54217857D01*
X112601428Y-54189285D01*
X112601428Y-53989285D01*
X112487142Y-53989285D01*
X112858571Y-54246428D02*
X112858571Y-53646428D01*
X113201428Y-54246428D01*
X113201428Y-53646428D01*
X113487142Y-54246428D02*
X113487142Y-53646428D01*
X113630000Y-53646428D01*
X113715714Y-53675000D01*
X113772857Y-53732142D01*
X113801428Y-53789285D01*
X113830000Y-53903571D01*
X113830000Y-53989285D01*
X113801428Y-54103571D01*
X113772857Y-54160714D01*
X113715714Y-54217857D01*
X113630000Y-54246428D01*
X113487142Y-54246428D01*
X112915714Y-52376428D02*
X112630000Y-52376428D01*
X112601428Y-52662142D01*
X112630000Y-52633571D01*
X112687142Y-52605000D01*
X112830000Y-52605000D01*
X112887142Y-52633571D01*
X112915714Y-52662142D01*
X112944285Y-52719285D01*
X112944285Y-52862142D01*
X112915714Y-52919285D01*
X112887142Y-52947857D01*
X112830000Y-52976428D01*
X112687142Y-52976428D01*
X112630000Y-52947857D01*
X112601428Y-52919285D01*
X113115714Y-52376428D02*
X113315714Y-52976428D01*
X113515714Y-52376428D01*
X110261428Y-52747857D02*
X110718571Y-52747857D01*
X107721428Y-52747857D02*
X108178571Y-52747857D01*
X104952857Y-52405000D02*
X104895714Y-52376428D01*
X104810000Y-52376428D01*
X104724285Y-52405000D01*
X104667142Y-52462142D01*
X104638571Y-52519285D01*
X104610000Y-52633571D01*
X104610000Y-52719285D01*
X104638571Y-52833571D01*
X104667142Y-52890714D01*
X104724285Y-52947857D01*
X104810000Y-52976428D01*
X104867142Y-52976428D01*
X104952857Y-52947857D01*
X104981428Y-52919285D01*
X104981428Y-52719285D01*
X104867142Y-52719285D01*
X105238571Y-52976428D02*
X105238571Y-52376428D01*
X105581428Y-52976428D01*
X105581428Y-52376428D01*
X105867142Y-52976428D02*
X105867142Y-52376428D01*
X106010000Y-52376428D01*
X106095714Y-52405000D01*
X106152857Y-52462142D01*
X106181428Y-52519285D01*
X106210000Y-52633571D01*
X106210000Y-52719285D01*
X106181428Y-52833571D01*
X106152857Y-52890714D01*
X106095714Y-52947857D01*
X106010000Y-52976428D01*
X105867142Y-52976428D01*
X90416297Y-54171904D02*
X90416297Y-54743333D01*
X90378202Y-54857619D01*
X90302011Y-54933809D01*
X90187726Y-54971904D01*
X90111535Y-54971904D01*
X91178202Y-54971904D02*
X90797250Y-54971904D01*
X90797250Y-54171904D01*
X91902011Y-54895714D02*
X91863916Y-54933809D01*
X91749630Y-54971904D01*
X91673440Y-54971904D01*
X91559154Y-54933809D01*
X91482964Y-54857619D01*
X91444869Y-54781428D01*
X91406773Y-54629047D01*
X91406773Y-54514761D01*
X91444869Y-54362380D01*
X91482964Y-54286190D01*
X91559154Y-54210000D01*
X91673440Y-54171904D01*
X91749630Y-54171904D01*
X91863916Y-54210000D01*
X91902011Y-54248095D01*
X92473440Y-54171904D02*
X92473440Y-54743333D01*
X92435345Y-54857619D01*
X92359154Y-54933809D01*
X92244869Y-54971904D01*
X92168678Y-54971904D01*
X93235345Y-54971904D02*
X92854392Y-54971904D01*
X92854392Y-54171904D01*
X93959154Y-54895714D02*
X93921059Y-54933809D01*
X93806773Y-54971904D01*
X93730583Y-54971904D01*
X93616297Y-54933809D01*
X93540107Y-54857619D01*
X93502011Y-54781428D01*
X93463916Y-54629047D01*
X93463916Y-54514761D01*
X93502011Y-54362380D01*
X93540107Y-54286190D01*
X93616297Y-54210000D01*
X93730583Y-54171904D01*
X93806773Y-54171904D01*
X93921059Y-54210000D01*
X93959154Y-54248095D01*
X94530583Y-54171904D02*
X94530583Y-54743333D01*
X94492488Y-54857619D01*
X94416297Y-54933809D01*
X94302011Y-54971904D01*
X94225821Y-54971904D01*
X95292488Y-54971904D02*
X94911535Y-54971904D01*
X94911535Y-54171904D01*
X96016297Y-54895714D02*
X95978202Y-54933809D01*
X95863916Y-54971904D01*
X95787726Y-54971904D01*
X95673440Y-54933809D01*
X95597250Y-54857619D01*
X95559154Y-54781428D01*
X95521059Y-54629047D01*
X95521059Y-54514761D01*
X95559154Y-54362380D01*
X95597250Y-54286190D01*
X95673440Y-54210000D01*
X95787726Y-54171904D01*
X95863916Y-54171904D01*
X95978202Y-54210000D01*
X96016297Y-54248095D01*
X96587726Y-54171904D02*
X96587726Y-54743333D01*
X96549630Y-54857619D01*
X96473440Y-54933809D01*
X96359154Y-54971904D01*
X96282964Y-54971904D01*
X97349630Y-54971904D02*
X96968678Y-54971904D01*
X96968678Y-54171904D01*
X98073440Y-54895714D02*
X98035345Y-54933809D01*
X97921059Y-54971904D01*
X97844869Y-54971904D01*
X97730583Y-54933809D01*
X97654392Y-54857619D01*
X97616297Y-54781428D01*
X97578202Y-54629047D01*
X97578202Y-54514761D01*
X97616297Y-54362380D01*
X97654392Y-54286190D01*
X97730583Y-54210000D01*
X97844869Y-54171904D01*
X97921059Y-54171904D01*
X98035345Y-54210000D01*
X98073440Y-54248095D01*
D14*
X88747619Y-50996904D02*
X88366666Y-50996904D01*
X88328571Y-51377857D01*
X88366666Y-51339761D01*
X88442857Y-51301666D01*
X88633333Y-51301666D01*
X88709523Y-51339761D01*
X88747619Y-51377857D01*
X88785714Y-51454047D01*
X88785714Y-51644523D01*
X88747619Y-51720714D01*
X88709523Y-51758809D01*
X88633333Y-51796904D01*
X88442857Y-51796904D01*
X88366666Y-51758809D01*
X88328571Y-51720714D01*
X89014285Y-50996904D02*
X89280952Y-51796904D01*
X89547619Y-50996904D01*
X88290476Y-44685000D02*
X88214285Y-44646904D01*
X88100000Y-44646904D01*
X87985714Y-44685000D01*
X87909523Y-44761190D01*
X87871428Y-44837380D01*
X87833333Y-44989761D01*
X87833333Y-45104047D01*
X87871428Y-45256428D01*
X87909523Y-45332619D01*
X87985714Y-45408809D01*
X88100000Y-45446904D01*
X88176190Y-45446904D01*
X88290476Y-45408809D01*
X88328571Y-45370714D01*
X88328571Y-45104047D01*
X88176190Y-45104047D01*
X88671428Y-45446904D02*
X88671428Y-44646904D01*
X89128571Y-45446904D01*
X89128571Y-44646904D01*
X89509523Y-45446904D02*
X89509523Y-44646904D01*
X89700000Y-44646904D01*
X89814285Y-44685000D01*
X89890476Y-44761190D01*
X89928571Y-44837380D01*
X89966666Y-44989761D01*
X89966666Y-45104047D01*
X89928571Y-45256428D01*
X89890476Y-45332619D01*
X89814285Y-45408809D01*
X89700000Y-45446904D01*
X89509523Y-45446904D01*
D10*
X102921857Y-44112107D02*
X102921857Y-43912107D01*
X102607571Y-43912107D02*
X103207571Y-43912107D01*
X103207571Y-44197821D01*
X102607571Y-44426392D02*
X103007571Y-44426392D01*
X103207571Y-44426392D02*
X103179000Y-44397821D01*
X103150428Y-44426392D01*
X103179000Y-44454964D01*
X103207571Y-44426392D01*
X103150428Y-44426392D01*
X102607571Y-44797821D02*
X102636142Y-44740678D01*
X102693285Y-44712107D01*
X103207571Y-44712107D01*
X102607571Y-45283535D02*
X102921857Y-45283535D01*
X102979000Y-45254964D01*
X103007571Y-45197821D01*
X103007571Y-45083535D01*
X102979000Y-45026392D01*
X102636142Y-45283535D02*
X102607571Y-45226392D01*
X102607571Y-45083535D01*
X102636142Y-45026392D01*
X102693285Y-44997821D01*
X102750428Y-44997821D01*
X102807571Y-45026392D01*
X102836142Y-45083535D01*
X102836142Y-45226392D01*
X102864714Y-45283535D01*
X102607571Y-46026392D02*
X103207571Y-46026392D01*
X103207571Y-46169250D01*
X103179000Y-46254964D01*
X103121857Y-46312107D01*
X103064714Y-46340678D01*
X102950428Y-46369250D01*
X102864714Y-46369250D01*
X102750428Y-46340678D01*
X102693285Y-46312107D01*
X102636142Y-46254964D01*
X102607571Y-46169250D01*
X102607571Y-46026392D01*
X102607571Y-46712107D02*
X102636142Y-46654964D01*
X102664714Y-46626392D01*
X102721857Y-46597821D01*
X102893285Y-46597821D01*
X102950428Y-46626392D01*
X102979000Y-46654964D01*
X103007571Y-46712107D01*
X103007571Y-46797821D01*
X102979000Y-46854964D01*
X102950428Y-46883535D01*
X102893285Y-46912107D01*
X102721857Y-46912107D01*
X102664714Y-46883535D01*
X102636142Y-46854964D01*
X102607571Y-46797821D01*
X102607571Y-46712107D01*
X102636142Y-47426392D02*
X102607571Y-47369250D01*
X102607571Y-47254964D01*
X102636142Y-47197821D01*
X102664714Y-47169250D01*
X102721857Y-47140678D01*
X102893285Y-47140678D01*
X102950428Y-47169250D01*
X102979000Y-47197821D01*
X103007571Y-47254964D01*
X103007571Y-47369250D01*
X102979000Y-47426392D01*
X102607571Y-47683535D02*
X103207571Y-47683535D01*
X102836142Y-47740678D02*
X102607571Y-47912107D01*
X103007571Y-47912107D02*
X102779000Y-47683535D01*
X103007571Y-48569250D02*
X102607571Y-48712107D01*
X103007571Y-48854964D01*
X103207571Y-49197821D02*
X103207571Y-49254964D01*
X103179000Y-49312107D01*
X103150428Y-49340678D01*
X103093285Y-49369250D01*
X102979000Y-49397821D01*
X102836142Y-49397821D01*
X102721857Y-49369250D01*
X102664714Y-49340678D01*
X102636142Y-49312107D01*
X102607571Y-49254964D01*
X102607571Y-49197821D01*
X102636142Y-49140678D01*
X102664714Y-49112107D01*
X102721857Y-49083535D01*
X102836142Y-49054964D01*
X102979000Y-49054964D01*
X103093285Y-49083535D01*
X103150428Y-49112107D01*
X103179000Y-49140678D01*
X103207571Y-49197821D01*
X102664714Y-49654964D02*
X102636142Y-49683535D01*
X102607571Y-49654964D01*
X102636142Y-49626392D01*
X102664714Y-49654964D01*
X102607571Y-49654964D01*
X103007571Y-50197821D02*
X102607571Y-50197821D01*
X103236142Y-50054964D02*
X102807571Y-49912107D01*
X102807571Y-50283535D01*
X101611142Y-43883535D02*
X101582571Y-43969250D01*
X101582571Y-44112107D01*
X101611142Y-44169250D01*
X101639714Y-44197821D01*
X101696857Y-44226392D01*
X101754000Y-44226392D01*
X101811142Y-44197821D01*
X101839714Y-44169250D01*
X101868285Y-44112107D01*
X101896857Y-43997821D01*
X101925428Y-43940678D01*
X101954000Y-43912107D01*
X102011142Y-43883535D01*
X102068285Y-43883535D01*
X102125428Y-43912107D01*
X102154000Y-43940678D01*
X102182571Y-43997821D01*
X102182571Y-44140678D01*
X102154000Y-44226392D01*
X101582571Y-44740678D02*
X101896857Y-44740678D01*
X101954000Y-44712107D01*
X101982571Y-44654964D01*
X101982571Y-44540678D01*
X101954000Y-44483535D01*
X101611142Y-44740678D02*
X101582571Y-44683535D01*
X101582571Y-44540678D01*
X101611142Y-44483535D01*
X101668285Y-44454964D01*
X101725428Y-44454964D01*
X101782571Y-44483535D01*
X101811142Y-44540678D01*
X101811142Y-44683535D01*
X101839714Y-44740678D01*
X101982571Y-45026392D02*
X101582571Y-45026392D01*
X101925428Y-45026392D02*
X101954000Y-45054964D01*
X101982571Y-45112107D01*
X101982571Y-45197821D01*
X101954000Y-45254964D01*
X101896857Y-45283535D01*
X101582571Y-45283535D01*
X101582571Y-45826392D02*
X102182571Y-45826392D01*
X101611142Y-45826392D02*
X101582571Y-45769250D01*
X101582571Y-45654964D01*
X101611142Y-45597821D01*
X101639714Y-45569250D01*
X101696857Y-45540678D01*
X101868285Y-45540678D01*
X101925428Y-45569250D01*
X101954000Y-45597821D01*
X101982571Y-45654964D01*
X101982571Y-45769250D01*
X101954000Y-45826392D01*
X101582571Y-46112107D02*
X102182571Y-46112107D01*
X101954000Y-46112107D02*
X101982571Y-46169250D01*
X101982571Y-46283535D01*
X101954000Y-46340678D01*
X101925428Y-46369250D01*
X101868285Y-46397821D01*
X101696857Y-46397821D01*
X101639714Y-46369250D01*
X101611142Y-46340678D01*
X101582571Y-46283535D01*
X101582571Y-46169250D01*
X101611142Y-46112107D01*
X101582571Y-46740678D02*
X101611142Y-46683535D01*
X101639714Y-46654964D01*
X101696857Y-46626392D01*
X101868285Y-46626392D01*
X101925428Y-46654964D01*
X101954000Y-46683535D01*
X101982571Y-46740678D01*
X101982571Y-46826392D01*
X101954000Y-46883535D01*
X101925428Y-46912107D01*
X101868285Y-46940678D01*
X101696857Y-46940678D01*
X101639714Y-46912107D01*
X101611142Y-46883535D01*
X101582571Y-46826392D01*
X101582571Y-46740678D01*
X101582571Y-47140678D02*
X101982571Y-47454964D01*
X101982571Y-47140678D02*
X101582571Y-47454964D01*
X102125428Y-48112107D02*
X102154000Y-48140678D01*
X102182571Y-48197821D01*
X102182571Y-48340678D01*
X102154000Y-48397821D01*
X102125428Y-48426392D01*
X102068285Y-48454964D01*
X102011142Y-48454964D01*
X101925428Y-48426392D01*
X101582571Y-48083535D01*
X101582571Y-48454964D01*
X102182571Y-48826392D02*
X102182571Y-48883535D01*
X102154000Y-48940678D01*
X102125428Y-48969250D01*
X102068285Y-48997821D01*
X101954000Y-49026392D01*
X101811142Y-49026392D01*
X101696857Y-48997821D01*
X101639714Y-48969250D01*
X101611142Y-48940678D01*
X101582571Y-48883535D01*
X101582571Y-48826392D01*
X101611142Y-48769250D01*
X101639714Y-48740678D01*
X101696857Y-48712107D01*
X101811142Y-48683535D01*
X101954000Y-48683535D01*
X102068285Y-48712107D01*
X102125428Y-48740678D01*
X102154000Y-48769250D01*
X102182571Y-48826392D01*
X102125428Y-49254964D02*
X102154000Y-49283535D01*
X102182571Y-49340678D01*
X102182571Y-49483535D01*
X102154000Y-49540678D01*
X102125428Y-49569250D01*
X102068285Y-49597821D01*
X102011142Y-49597821D01*
X101925428Y-49569250D01*
X101582571Y-49226392D01*
X101582571Y-49597821D01*
X101582571Y-50169250D02*
X101582571Y-49826392D01*
X101582571Y-49997821D02*
X102182571Y-49997821D01*
X102096857Y-49940678D01*
X102039714Y-49883535D01*
X102011142Y-49826392D01*
X102211142Y-50854964D02*
X101439714Y-50340678D01*
X101582571Y-51083535D02*
X101582571Y-51197821D01*
X101611142Y-51254964D01*
X101639714Y-51283535D01*
X101725428Y-51340678D01*
X101839714Y-51369250D01*
X102068285Y-51369250D01*
X102125428Y-51340678D01*
X102154000Y-51312107D01*
X102182571Y-51254964D01*
X102182571Y-51140678D01*
X102154000Y-51083535D01*
X102125428Y-51054964D01*
X102068285Y-51026392D01*
X101925428Y-51026392D01*
X101868285Y-51054964D01*
X101839714Y-51083535D01*
X101811142Y-51140678D01*
X101811142Y-51254964D01*
X101839714Y-51312107D01*
X101868285Y-51340678D01*
X101925428Y-51369250D01*
X102211142Y-52054964D02*
X101439714Y-51540678D01*
X101582571Y-52569250D02*
X101582571Y-52226392D01*
X101582571Y-52397821D02*
X102182571Y-52397821D01*
X102096857Y-52340678D01*
X102039714Y-52283535D01*
X102011142Y-52226392D01*
X102125428Y-52797821D02*
X102154000Y-52826392D01*
X102182571Y-52883535D01*
X102182571Y-53026392D01*
X102154000Y-53083535D01*
X102125428Y-53112107D01*
X102068285Y-53140678D01*
X102011142Y-53140678D01*
X101925428Y-53112107D01*
X101582571Y-52769250D01*
X101582571Y-53140678D01*
X100871857Y-44112107D02*
X100843285Y-44197821D01*
X100814714Y-44226392D01*
X100757571Y-44254964D01*
X100671857Y-44254964D01*
X100614714Y-44226392D01*
X100586142Y-44197821D01*
X100557571Y-44140678D01*
X100557571Y-43912107D01*
X101157571Y-43912107D01*
X101157571Y-44112107D01*
X101129000Y-44169250D01*
X101100428Y-44197821D01*
X101043285Y-44226392D01*
X100986142Y-44226392D01*
X100929000Y-44197821D01*
X100900428Y-44169250D01*
X100871857Y-44112107D01*
X100871857Y-43912107D01*
X100957571Y-44454964D02*
X100557571Y-44597821D01*
X100957571Y-44740678D02*
X100557571Y-44597821D01*
X100414714Y-44540678D01*
X100386142Y-44512107D01*
X100357571Y-44454964D01*
X100614714Y-45769250D02*
X100586142Y-45740678D01*
X100557571Y-45654964D01*
X100557571Y-45597821D01*
X100586142Y-45512107D01*
X100643285Y-45454964D01*
X100700428Y-45426392D01*
X100814714Y-45397821D01*
X100900428Y-45397821D01*
X101014714Y-45426392D01*
X101071857Y-45454964D01*
X101129000Y-45512107D01*
X101157571Y-45597821D01*
X101157571Y-45654964D01*
X101129000Y-45740678D01*
X101100428Y-45769250D01*
X100557571Y-46283535D02*
X100871857Y-46283535D01*
X100929000Y-46254964D01*
X100957571Y-46197821D01*
X100957571Y-46083535D01*
X100929000Y-46026392D01*
X100586142Y-46283535D02*
X100557571Y-46226392D01*
X100557571Y-46083535D01*
X100586142Y-46026392D01*
X100643285Y-45997821D01*
X100700428Y-45997821D01*
X100757571Y-46026392D01*
X100786142Y-46083535D01*
X100786142Y-46226392D01*
X100814714Y-46283535D01*
X100557571Y-46654964D02*
X100586142Y-46597821D01*
X100614714Y-46569250D01*
X100671857Y-46540678D01*
X100843285Y-46540678D01*
X100900428Y-46569250D01*
X100929000Y-46597821D01*
X100957571Y-46654964D01*
X100957571Y-46740678D01*
X100929000Y-46797821D01*
X100900428Y-46826392D01*
X100843285Y-46854964D01*
X100671857Y-46854964D01*
X100614714Y-46826392D01*
X100586142Y-46797821D01*
X100557571Y-46740678D01*
X100557571Y-46654964D01*
X100557571Y-47112107D02*
X100957571Y-47112107D01*
X100843285Y-47112107D02*
X100900428Y-47140678D01*
X100929000Y-47169250D01*
X100957571Y-47226392D01*
X100957571Y-47283535D01*
X100557571Y-47426392D02*
X100957571Y-47740678D01*
X100957571Y-47426392D02*
X100557571Y-47740678D01*
X101157571Y-48369250D02*
X100557571Y-48512107D01*
X100986142Y-48626392D01*
X100557571Y-48740678D01*
X101157571Y-48883535D01*
X100557571Y-49369250D02*
X100871857Y-49369250D01*
X100929000Y-49340678D01*
X100957571Y-49283535D01*
X100957571Y-49169250D01*
X100929000Y-49112107D01*
X100586142Y-49369250D02*
X100557571Y-49312107D01*
X100557571Y-49169250D01*
X100586142Y-49112107D01*
X100643285Y-49083535D01*
X100700428Y-49083535D01*
X100757571Y-49112107D01*
X100786142Y-49169250D01*
X100786142Y-49312107D01*
X100814714Y-49369250D01*
X100957571Y-49654964D02*
X100557571Y-49654964D01*
X100900428Y-49654964D02*
X100929000Y-49683535D01*
X100957571Y-49740678D01*
X100957571Y-49826392D01*
X100929000Y-49883535D01*
X100871857Y-49912107D01*
X100557571Y-49912107D01*
X100957571Y-50454964D02*
X100471857Y-50454964D01*
X100414714Y-50426392D01*
X100386142Y-50397821D01*
X100357571Y-50340678D01*
X100357571Y-50254964D01*
X100386142Y-50197821D01*
X100586142Y-50454964D02*
X100557571Y-50397821D01*
X100557571Y-50283535D01*
X100586142Y-50226392D01*
X100614714Y-50197821D01*
X100671857Y-50169250D01*
X100843285Y-50169250D01*
X100900428Y-50197821D01*
X100929000Y-50226392D01*
X100957571Y-50283535D01*
X100957571Y-50397821D01*
X100929000Y-50454964D01*
X100957571Y-50683535D02*
X100557571Y-50826392D01*
X100957571Y-50969250D02*
X100557571Y-50826392D01*
X100414714Y-50769250D01*
X100386142Y-50740678D01*
X100357571Y-50683535D01*
X100957571Y-51140678D02*
X100557571Y-51254964D01*
X100843285Y-51369250D01*
X100557571Y-51483535D01*
X100957571Y-51597821D01*
D11*
%TO.C,JP1*%
X107170000Y-41610000D02*
G75*
G02*
X107870000Y-40910000I700000J0D01*
G01*
X107870000Y-42910000D02*
G75*
G02*
X107170000Y-42210000I0J700000D01*
G01*
X111270000Y-42210000D02*
G75*
G02*
X110570000Y-42910000I-700000J0D01*
G01*
X110570000Y-40910000D02*
G75*
G02*
X111270000Y-41610000I0J-700000D01*
G01*
X108020000Y-43110000D02*
X108320000Y-43410000D01*
X107720000Y-43410000D02*
X108320000Y-43410000D01*
X108020000Y-43110000D02*
X107720000Y-43410000D01*
X107170000Y-42210000D02*
X107170000Y-41610000D01*
X110620000Y-42910000D02*
X107820000Y-42910000D01*
X111270000Y-41610000D02*
X111270000Y-42210000D01*
X107820000Y-40910000D02*
X110620000Y-40910000D01*
%TO.C,J2*%
X104080000Y-50860000D02*
X104080000Y-48260000D01*
X104080000Y-50860000D02*
X114360000Y-50860000D01*
X114360000Y-50860000D02*
X114360000Y-45660000D01*
X106680000Y-45660000D02*
X114360000Y-45660000D01*
X106680000Y-48260000D02*
X106680000Y-45660000D01*
X104080000Y-48260000D02*
X106680000Y-48260000D01*
X104080000Y-45660000D02*
X105410000Y-45660000D01*
X104080000Y-46990000D02*
X104080000Y-45660000D01*
%TO.C,J1*%
X91380000Y-43120000D02*
X93980000Y-43120000D01*
X91380000Y-43120000D02*
X91380000Y-53400000D01*
X91380000Y-53400000D02*
X96580000Y-53400000D01*
X96580000Y-45720000D02*
X96580000Y-53400000D01*
X93980000Y-45720000D02*
X96580000Y-45720000D01*
X93980000Y-43120000D02*
X93980000Y-45720000D01*
X96580000Y-43120000D02*
X96580000Y-44450000D01*
X95250000Y-43120000D02*
X96580000Y-43120000D01*
%TD*%
M02*
