%TF.GenerationSoftware,KiCad,Pcbnew,(5.1.10)-1*%
%TF.CreationDate,2021-09-12T15:17:43+08:00*%
%TF.ProjectId,fc,66632e6b-6963-4616-945f-706362585858,rev?*%
%TF.SameCoordinates,Original*%
%TF.FileFunction,Soldermask,Top*%
%TF.FilePolarity,Negative*%
%FSLAX46Y46*%
G04 Gerber Fmt 4.6, Leading zero omitted, Abs format (unit mm)*
G04 Created by KiCad (PCBNEW (5.1.10)-1) date 2021-09-12 15:17:43*
%MOMM*%
%LPD*%
G01*
G04 APERTURE LIST*
%ADD10R,1.000000X1.500000*%
%ADD11C,0.350000*%
%ADD12R,1.700000X1.700000*%
%ADD13O,1.700000X1.700000*%
G04 APERTURE END LIST*
D10*
%TO.C,JP1*%
X109220000Y-41910000D03*
D11*
G36*
X110520000Y-41160602D02*
G01*
X110544534Y-41160602D01*
X110593365Y-41165412D01*
X110641490Y-41174984D01*
X110688445Y-41189228D01*
X110733778Y-41208005D01*
X110777051Y-41231136D01*
X110817850Y-41258396D01*
X110855779Y-41289524D01*
X110890476Y-41324221D01*
X110921604Y-41362150D01*
X110948864Y-41402949D01*
X110971995Y-41446222D01*
X110990772Y-41491555D01*
X111005016Y-41538510D01*
X111014588Y-41586635D01*
X111019398Y-41635466D01*
X111019398Y-41660000D01*
X111020000Y-41660000D01*
X111020000Y-42160000D01*
X111019398Y-42160000D01*
X111019398Y-42184534D01*
X111014588Y-42233365D01*
X111005016Y-42281490D01*
X110990772Y-42328445D01*
X110971995Y-42373778D01*
X110948864Y-42417051D01*
X110921604Y-42457850D01*
X110890476Y-42495779D01*
X110855779Y-42530476D01*
X110817850Y-42561604D01*
X110777051Y-42588864D01*
X110733778Y-42611995D01*
X110688445Y-42630772D01*
X110641490Y-42645016D01*
X110593365Y-42654588D01*
X110544534Y-42659398D01*
X110520000Y-42659398D01*
X110520000Y-42660000D01*
X109970000Y-42660000D01*
X109970000Y-41160000D01*
X110520000Y-41160000D01*
X110520000Y-41160602D01*
G37*
G36*
X108470000Y-42660000D02*
G01*
X107920000Y-42660000D01*
X107920000Y-42659398D01*
X107895466Y-42659398D01*
X107846635Y-42654588D01*
X107798510Y-42645016D01*
X107751555Y-42630772D01*
X107706222Y-42611995D01*
X107662949Y-42588864D01*
X107622150Y-42561604D01*
X107584221Y-42530476D01*
X107549524Y-42495779D01*
X107518396Y-42457850D01*
X107491136Y-42417051D01*
X107468005Y-42373778D01*
X107449228Y-42328445D01*
X107434984Y-42281490D01*
X107425412Y-42233365D01*
X107420602Y-42184534D01*
X107420602Y-42160000D01*
X107420000Y-42160000D01*
X107420000Y-41660000D01*
X107420602Y-41660000D01*
X107420602Y-41635466D01*
X107425412Y-41586635D01*
X107434984Y-41538510D01*
X107449228Y-41491555D01*
X107468005Y-41446222D01*
X107491136Y-41402949D01*
X107518396Y-41362150D01*
X107549524Y-41324221D01*
X107584221Y-41289524D01*
X107622150Y-41258396D01*
X107662949Y-41231136D01*
X107706222Y-41208005D01*
X107751555Y-41189228D01*
X107798510Y-41174984D01*
X107846635Y-41165412D01*
X107895466Y-41160602D01*
X107920000Y-41160602D01*
X107920000Y-41160000D01*
X108470000Y-41160000D01*
X108470000Y-42660000D01*
G37*
%TD*%
D12*
%TO.C,J2*%
X105410000Y-46990000D03*
D13*
X105410000Y-49530000D03*
X107950000Y-46990000D03*
X107950000Y-49530000D03*
X110490000Y-46990000D03*
X110490000Y-49530000D03*
X113030000Y-46990000D03*
X113030000Y-49530000D03*
%TD*%
D12*
%TO.C,J1*%
X95250000Y-44450000D03*
D13*
X92710000Y-44450000D03*
X95250000Y-46990000D03*
X92710000Y-46990000D03*
X95250000Y-49530000D03*
X92710000Y-49530000D03*
X95250000Y-52070000D03*
X92710000Y-52070000D03*
%TD*%
%TO.C,J3*%
X88900000Y-49530000D03*
D12*
X88900000Y-46990000D03*
%TD*%
M02*
